G04 #@! TF.GenerationSoftware,KiCad,Pcbnew,9.0.5*
G04 #@! TF.CreationDate,2025-10-27T23:16:19-07:00*
G04 #@! TF.ProjectId,zotbins_2025_wrover_pcb,7a6f7462-696e-4735-9f32-3032355f7772,rev?*
G04 #@! TF.SameCoordinates,Original*
G04 #@! TF.FileFunction,Copper,L1,Top*
G04 #@! TF.FilePolarity,Positive*
%FSLAX46Y46*%
G04 Gerber Fmt 4.6, Leading zero omitted, Abs format (unit mm)*
G04 Created by KiCad (PCBNEW 9.0.5) date 2025-10-27 23:16:19*
%MOMM*%
%LPD*%
G01*
G04 APERTURE LIST*
G04 Aperture macros list*
%AMRoundRect*
0 Rectangle with rounded corners*
0 $1 Rounding radius*
0 $2 $3 $4 $5 $6 $7 $8 $9 X,Y pos of 4 corners*
0 Add a 4 corners polygon primitive as box body*
4,1,4,$2,$3,$4,$5,$6,$7,$8,$9,$2,$3,0*
0 Add four circle primitives for the rounded corners*
1,1,$1+$1,$2,$3*
1,1,$1+$1,$4,$5*
1,1,$1+$1,$6,$7*
1,1,$1+$1,$8,$9*
0 Add four rect primitives between the rounded corners*
20,1,$1+$1,$2,$3,$4,$5,0*
20,1,$1+$1,$4,$5,$6,$7,0*
20,1,$1+$1,$6,$7,$8,$9,0*
20,1,$1+$1,$8,$9,$2,$3,0*%
G04 Aperture macros list end*
G04 #@! TA.AperFunction,EtchedComponent*
%ADD10C,0.000000*%
G04 #@! TD*
G04 #@! TA.AperFunction,ComponentPad*
%ADD11C,1.600000*%
G04 #@! TD*
G04 #@! TA.AperFunction,ComponentPad*
%ADD12C,2.800000*%
G04 #@! TD*
G04 #@! TA.AperFunction,ComponentPad*
%ADD13R,1.560000X1.560000*%
G04 #@! TD*
G04 #@! TA.AperFunction,ComponentPad*
%ADD14C,1.560000*%
G04 #@! TD*
G04 #@! TA.AperFunction,ComponentPad*
%ADD15RoundRect,0.250000X-1.050000X1.050000X-1.050000X-1.050000X1.050000X-1.050000X1.050000X1.050000X0*%
G04 #@! TD*
G04 #@! TA.AperFunction,ComponentPad*
%ADD16C,2.600000*%
G04 #@! TD*
G04 #@! TA.AperFunction,ComponentPad*
%ADD17O,2.200000X4.400000*%
G04 #@! TD*
G04 #@! TA.AperFunction,ComponentPad*
%ADD18O,2.000000X4.000000*%
G04 #@! TD*
G04 #@! TA.AperFunction,ComponentPad*
%ADD19O,4.000000X2.000000*%
G04 #@! TD*
G04 #@! TA.AperFunction,SMDPad,CuDef*
%ADD20R,0.300000X0.800000*%
G04 #@! TD*
G04 #@! TA.AperFunction,SMDPad,CuDef*
%ADD21R,0.400000X0.800000*%
G04 #@! TD*
G04 #@! TA.AperFunction,ComponentPad*
%ADD22RoundRect,0.250000X-0.550000X-0.550000X0.550000X-0.550000X0.550000X0.550000X-0.550000X0.550000X0*%
G04 #@! TD*
G04 #@! TA.AperFunction,ComponentPad*
%ADD23R,1.700000X1.700000*%
G04 #@! TD*
G04 #@! TA.AperFunction,ComponentPad*
%ADD24C,1.700000*%
G04 #@! TD*
G04 #@! TA.AperFunction,ComponentPad*
%ADD25R,2.000000X1.905000*%
G04 #@! TD*
G04 #@! TA.AperFunction,ComponentPad*
%ADD26O,2.000000X1.905000*%
G04 #@! TD*
G04 #@! TA.AperFunction,SMDPad,CuDef*
%ADD27R,1.117600X0.482600*%
G04 #@! TD*
G04 #@! TA.AperFunction,SMDPad,CuDef*
%ADD28R,1.193800X0.431800*%
G04 #@! TD*
G04 #@! TA.AperFunction,SMDPad,CuDef*
%ADD29R,1.193800X0.482600*%
G04 #@! TD*
G04 #@! TA.AperFunction,ViaPad*
%ADD30C,1.000000*%
G04 #@! TD*
G04 #@! TA.AperFunction,Conductor*
%ADD31C,0.500000*%
G04 #@! TD*
G04 #@! TA.AperFunction,Conductor*
%ADD32C,0.200000*%
G04 #@! TD*
G04 #@! TA.AperFunction,Conductor*
%ADD33C,0.300000*%
G04 #@! TD*
G04 #@! TA.AperFunction,Conductor*
%ADD34C,1.000000*%
G04 #@! TD*
G04 #@! TA.AperFunction,Conductor*
%ADD35C,2.000000*%
G04 #@! TD*
G04 #@! TA.AperFunction,Conductor*
%ADD36C,1.500000*%
G04 #@! TD*
G04 #@! TA.AperFunction,Conductor*
%ADD37C,3.000000*%
G04 #@! TD*
G04 #@! TA.AperFunction,Conductor*
%ADD38C,0.250000*%
G04 #@! TD*
G04 #@! TA.AperFunction,Conductor*
%ADD39C,2.500000*%
G04 #@! TD*
G04 APERTURE END LIST*
D10*
G04 #@! TA.AperFunction,EtchedComponent*
G36*
X135500100Y-124687200D02*
G01*
X135728700Y-124687200D01*
X135728700Y-125169800D01*
X135474700Y-125169800D01*
X134941300Y-125754000D01*
X132477500Y-125754000D01*
X132477500Y-124103000D01*
X134941300Y-124103000D01*
X135500100Y-124687200D01*
G37*
G04 #@! TD.AperFunction*
D11*
X142000000Y-126200000D03*
X142000000Y-131200000D03*
D12*
X158600000Y-136000000D03*
X148900000Y-156800000D03*
D11*
X129180000Y-156600000D03*
X119020000Y-156600000D03*
D13*
X152950000Y-64140000D03*
D14*
X152950000Y-66680000D03*
X152950000Y-69220000D03*
X152950000Y-71760000D03*
X152950000Y-74300000D03*
X152950000Y-76840000D03*
X152950000Y-79380000D03*
X152950000Y-81920000D03*
X152950000Y-84460000D03*
X152950000Y-87000000D03*
X152950000Y-89540000D03*
X152950000Y-92080000D03*
X152950000Y-94620000D03*
X152950000Y-97160000D03*
X152950000Y-99700000D03*
X152950000Y-102240000D03*
X152950000Y-104780000D03*
X152950000Y-107320000D03*
X152950000Y-109860000D03*
X178350000Y-64140000D03*
X178350000Y-66680000D03*
X178350000Y-69220000D03*
X178350000Y-71760000D03*
X178350000Y-74300000D03*
X178350000Y-76840000D03*
X178350000Y-79380000D03*
X178350000Y-81920000D03*
X178350000Y-84460000D03*
X178350000Y-87000000D03*
X178350000Y-89540000D03*
X178350000Y-92080000D03*
X178350000Y-94620000D03*
X178350000Y-97160000D03*
X178350000Y-99700000D03*
X178350000Y-102240000D03*
X178350000Y-104780000D03*
X178350000Y-107320000D03*
X178350000Y-109860000D03*
D11*
X119550000Y-90950000D03*
X119550000Y-95950000D03*
D15*
X212300000Y-68600000D03*
D16*
X212300000Y-72100000D03*
X212300000Y-75600000D03*
D11*
X125850000Y-90920000D03*
X125850000Y-101080000D03*
D15*
X212200000Y-56400000D03*
D16*
X212200000Y-59900000D03*
D11*
X159300000Y-130770000D03*
X159300000Y-125770000D03*
X204200000Y-43320000D03*
X204200000Y-53480000D03*
D15*
X212300000Y-141000000D03*
D16*
X212300000Y-144500000D03*
X212300000Y-148000000D03*
D17*
X114900000Y-133200000D03*
D18*
X108600000Y-133200000D03*
D19*
X112000000Y-138000000D03*
D11*
X133100000Y-148200000D03*
X133100000Y-158360000D03*
D20*
X166550000Y-135000000D03*
X167050000Y-135000000D03*
X167550000Y-135000000D03*
X168050000Y-135000000D03*
X168550000Y-135000000D03*
X169050000Y-135000000D03*
X169550000Y-135000000D03*
X170050000Y-135000000D03*
X170550000Y-135000000D03*
X171050000Y-135000000D03*
X171550000Y-135000000D03*
X172050000Y-135000000D03*
X172550000Y-135000000D03*
X173050000Y-135000000D03*
X173550000Y-135000000D03*
X174050000Y-135000000D03*
X174550000Y-135000000D03*
X175050000Y-135000000D03*
X175550000Y-135000000D03*
X176050000Y-135000000D03*
X176550000Y-135000000D03*
X177050000Y-135000000D03*
X177550000Y-135000000D03*
X178050000Y-135000000D03*
D21*
X165600000Y-137500000D03*
X179000000Y-137500000D03*
D12*
X144600000Y-136000000D03*
X135500000Y-143100000D03*
D22*
X129400000Y-67275000D03*
D11*
X129400000Y-69815000D03*
X129400000Y-72355000D03*
X129400000Y-74895000D03*
X129400000Y-77435000D03*
X129400000Y-79975000D03*
X129400000Y-82515000D03*
X129400000Y-85055000D03*
X129400000Y-87595000D03*
X129400000Y-90135000D03*
X129400000Y-92675000D03*
X129400000Y-95215000D03*
X129400000Y-97755000D03*
X129400000Y-100295000D03*
X137020000Y-100295000D03*
X137020000Y-97755000D03*
X137020000Y-95215000D03*
X137020000Y-92675000D03*
X137020000Y-90135000D03*
X137020000Y-87595000D03*
X137020000Y-85055000D03*
X137020000Y-82515000D03*
X137020000Y-79975000D03*
X137020000Y-77435000D03*
X137020000Y-74895000D03*
X137020000Y-72355000D03*
X137020000Y-69815000D03*
X137020000Y-67275000D03*
D15*
X212282500Y-123900000D03*
D16*
X212282500Y-127400000D03*
X212282500Y-130900000D03*
D23*
X105700000Y-67000000D03*
D24*
X103160000Y-67000000D03*
X105700000Y-69540000D03*
X103160000Y-69540000D03*
X105700000Y-72080000D03*
X103160000Y-72080000D03*
X105700000Y-74620000D03*
X103160000Y-74620000D03*
X105700000Y-77160000D03*
X103160000Y-77160000D03*
X105700000Y-79700000D03*
X103160000Y-79700000D03*
X105700000Y-82240000D03*
X103160000Y-82240000D03*
X105700000Y-84780000D03*
X103160000Y-84780000D03*
X105700000Y-87320000D03*
X103160000Y-87320000D03*
X105700000Y-89860000D03*
X103160000Y-89860000D03*
X105700000Y-92400000D03*
X103160000Y-92400000D03*
X105700000Y-94940000D03*
X103160000Y-94940000D03*
X105700000Y-97480000D03*
X103160000Y-97480000D03*
X105700000Y-100020000D03*
X103160000Y-100020000D03*
X105700000Y-102560000D03*
X103160000Y-102560000D03*
D25*
X125600000Y-150780000D03*
D26*
X125600000Y-148240000D03*
X125600000Y-145700000D03*
D25*
X125500000Y-137000000D03*
D26*
X125500000Y-134460000D03*
X125500000Y-131920000D03*
D11*
X134000000Y-133500000D03*
X134000000Y-138500000D03*
X130000000Y-131000000D03*
X130000000Y-126000000D03*
D12*
X96800000Y-123600000D03*
D11*
X162550000Y-120620000D03*
X162550000Y-130780000D03*
D27*
X135293800Y-120950001D03*
X135293800Y-119049999D03*
X132906200Y-120000000D03*
D15*
X212300000Y-84600000D03*
D16*
X212300000Y-88100000D03*
X212300000Y-91600000D03*
X212300000Y-95100000D03*
D11*
X147100000Y-91540000D03*
X147100000Y-101700000D03*
X118936469Y-137068383D03*
X118936469Y-132068383D03*
D28*
X136325600Y-126428500D03*
D29*
X136325600Y-124928500D03*
D28*
X136325600Y-123428500D03*
D11*
X119000000Y-145700000D03*
X119000000Y-150700000D03*
D15*
X212300000Y-103800000D03*
D16*
X212300000Y-107300000D03*
X212300000Y-110800000D03*
X212300000Y-114300000D03*
D11*
X122500000Y-90940000D03*
X122500000Y-101100000D03*
X130000000Y-133500000D03*
X130000000Y-138500000D03*
D12*
X107679146Y-148352057D03*
X139000000Y-136000000D03*
D11*
X142000000Y-118900000D03*
X142000000Y-123900000D03*
X137600000Y-148200000D03*
X137600000Y-153200000D03*
D12*
X151000000Y-136000000D03*
D30*
X111210000Y-108300000D03*
X168200000Y-137500000D03*
X172000000Y-132800000D03*
X113650000Y-108010000D03*
X133800000Y-128400000D03*
X163000000Y-134400000D03*
X113500000Y-97000000D03*
X137500000Y-121500000D03*
X182050000Y-136850000D03*
X113900000Y-99700000D03*
X168200000Y-129000000D03*
X170300000Y-137500000D03*
X106760000Y-108450000D03*
X190000000Y-132900000D03*
X166000000Y-111900000D03*
X169300000Y-124100000D03*
X183200000Y-133350000D03*
X167550000Y-124200000D03*
X164000000Y-113400000D03*
X187900000Y-137500000D03*
X176550000Y-113950000D03*
X176100000Y-124400000D03*
X185600000Y-129900000D03*
X176600000Y-131100000D03*
X169800000Y-108800000D03*
X192300000Y-136100000D03*
X179200000Y-131800000D03*
X171700000Y-107700000D03*
X178600000Y-114500000D03*
X176675000Y-126925000D03*
X168000000Y-110100000D03*
X172500000Y-130800000D03*
X167200000Y-126900000D03*
X162900000Y-115300000D03*
X181050000Y-124800000D03*
X173600000Y-106200000D03*
X117600000Y-68925000D03*
X186877417Y-51098622D03*
X202536752Y-91600000D03*
X184646565Y-49330411D03*
X202536752Y-87537672D03*
X115850000Y-72900000D03*
X205177816Y-100271773D03*
X182405062Y-47809818D03*
X114025000Y-77025000D03*
X123121499Y-87038483D03*
X126727789Y-70880056D03*
X189291237Y-52694359D03*
X140700000Y-86700000D03*
X109756100Y-104359514D03*
X161080000Y-81920000D03*
X130900000Y-49300000D03*
X121602292Y-72352824D03*
X112330595Y-89355345D03*
X112600000Y-105000000D03*
X100500000Y-89860000D03*
X133100000Y-89200000D03*
X119300000Y-65150000D03*
X94150000Y-111850000D03*
X175500000Y-104300000D03*
X134800000Y-116200000D03*
X96350000Y-113250000D03*
X124996233Y-65503639D03*
X167092129Y-43691617D03*
X118215000Y-77435000D03*
X161754344Y-44178760D03*
X158100000Y-106000000D03*
X132550000Y-114200000D03*
X122281560Y-75439661D03*
X118000000Y-80600000D03*
X121700000Y-63450000D03*
X168000000Y-139500000D03*
X180500000Y-44800000D03*
X105900000Y-61800000D03*
X111675000Y-81575000D03*
X110400000Y-60300000D03*
X165300000Y-54400000D03*
D31*
X105700000Y-97480000D02*
X105700000Y-100020000D01*
D32*
X173050000Y-133600000D02*
X173550000Y-134100000D01*
D31*
X113020000Y-97480000D02*
X113500000Y-97000000D01*
D32*
X168200000Y-136700000D02*
X168900000Y-136000000D01*
D31*
X122157982Y-132857982D02*
X123760000Y-134460000D01*
X130912500Y-90135000D02*
X135992500Y-95215000D01*
D32*
X165600000Y-137500000D02*
X165600000Y-137000000D01*
X165600000Y-136700000D02*
X166550000Y-135750000D01*
D31*
X111755000Y-97480000D02*
X113020000Y-97480000D01*
X137020000Y-100295000D02*
X137020000Y-97755000D01*
D32*
X166550000Y-135750000D02*
X166550000Y-135000000D01*
X168200000Y-137500000D02*
X168200000Y-136700000D01*
D31*
X103160000Y-97480000D02*
X105700000Y-97480000D01*
X111755000Y-97480000D02*
X105700000Y-97480000D01*
D32*
X170050000Y-135750000D02*
X170050000Y-135000000D01*
D31*
X111210000Y-112765328D02*
X118936469Y-120491797D01*
D33*
X163000000Y-134400000D02*
X163600000Y-135000000D01*
D31*
X113650000Y-108010000D02*
X113650000Y-112350000D01*
D32*
X163900000Y-135000000D02*
X163600000Y-135000000D01*
D31*
X112080000Y-100020000D02*
X105700000Y-100020000D01*
D32*
X168900000Y-136000000D02*
X169800000Y-136000000D01*
X172200000Y-133600000D02*
X173050000Y-133600000D01*
D31*
X137500000Y-121500000D02*
X136950001Y-120950001D01*
X136950001Y-120950001D02*
X135293800Y-120950001D01*
X118936469Y-120491797D02*
X118936469Y-132068383D01*
D32*
X173550000Y-134100000D02*
X173550000Y-135000000D01*
D31*
X111210000Y-108300000D02*
X111210000Y-112765328D01*
X123760000Y-134460000D02*
X125500000Y-134460000D01*
D32*
X165600000Y-137000000D02*
X165600000Y-136700000D01*
D31*
X135771500Y-126428500D02*
X133800000Y-128400000D01*
D32*
X172000000Y-133400000D02*
X172200000Y-133600000D01*
D31*
X113900000Y-99700000D02*
X112400000Y-99700000D01*
X113650000Y-112350000D02*
X122157982Y-120857982D01*
D32*
X172000000Y-132800000D02*
X172000000Y-133400000D01*
D31*
X112400000Y-99700000D02*
X112080000Y-100020000D01*
X136325600Y-126428500D02*
X135771500Y-126428500D01*
X129400000Y-90135000D02*
X130912500Y-90135000D01*
D33*
X182050000Y-136850000D02*
X181400000Y-137500000D01*
D31*
X122157982Y-120857982D02*
X122157982Y-132857982D01*
D33*
X166550000Y-135000000D02*
X166949000Y-135000000D01*
X181400000Y-137500000D02*
X179000000Y-137500000D01*
D32*
X165600000Y-136700000D02*
X163900000Y-135000000D01*
X169800000Y-136000000D02*
X170050000Y-135750000D01*
D33*
X163600000Y-135000000D02*
X166550000Y-135000000D01*
D31*
X137020000Y-95215000D02*
X137020000Y-97755000D01*
X135992500Y-95215000D02*
X137020000Y-95215000D01*
D34*
X116950000Y-103600000D02*
X115910000Y-102560000D01*
X105700000Y-102560000D02*
X103160000Y-102560000D01*
D35*
X125850000Y-90920000D02*
X125850000Y-89900000D01*
D36*
X140000000Y-111000000D02*
X141140000Y-109860000D01*
D31*
X137628500Y-124928500D02*
X136325600Y-124928500D01*
D35*
X121400000Y-113500000D02*
X118400000Y-110500000D01*
D34*
X152950000Y-109860000D02*
X150160000Y-109860000D01*
D31*
X138000000Y-125300000D02*
X137628500Y-124928500D01*
D36*
X125675000Y-111000000D02*
X140000000Y-111000000D01*
D31*
X115910000Y-102560000D02*
X105700000Y-102560000D01*
D34*
X116900000Y-93600000D02*
X116900000Y-103600000D01*
D36*
X126400000Y-131000000D02*
X130000000Y-131000000D01*
D34*
X147100000Y-101700000D02*
X147100000Y-103900000D01*
D36*
X139000000Y-136000000D02*
X139000000Y-140100000D01*
D35*
X125850000Y-89900000D02*
X128155000Y-87595000D01*
D36*
X144300000Y-145400000D02*
X188600000Y-145400000D01*
X141140000Y-109860000D02*
X150160000Y-109860000D01*
X116900000Y-103600000D02*
X118400000Y-105100000D01*
X139000000Y-140100000D02*
X144300000Y-145400000D01*
X130000000Y-133500000D02*
X130000000Y-131000000D01*
D35*
X123175000Y-113500000D02*
X121400000Y-113500000D01*
X125830000Y-90940000D02*
X125850000Y-90920000D01*
D36*
X138000000Y-129500000D02*
X134000000Y-133500000D01*
D34*
X103160000Y-100020000D02*
X103160000Y-102560000D01*
X147100000Y-103900000D02*
X141140000Y-109860000D01*
D37*
X126400000Y-116725000D02*
X123175000Y-113500000D01*
D36*
X130000000Y-133500000D02*
X134000000Y-133500000D01*
X196000000Y-116700000D02*
X198400000Y-114300000D01*
D34*
X119550000Y-90950000D02*
X116900000Y-93600000D01*
X132906200Y-120000000D02*
X129675000Y-120000000D01*
D36*
X125500000Y-131900000D02*
X126400000Y-131000000D01*
X198400000Y-114300000D02*
X212300000Y-114300000D01*
D37*
X126400000Y-131000000D02*
X126400000Y-116725000D01*
D31*
X138000000Y-128600000D02*
X138000000Y-125300000D01*
D36*
X138000000Y-128600000D02*
X138000000Y-129500000D01*
X134000000Y-133500000D02*
X136500000Y-133500000D01*
D35*
X122490000Y-90950000D02*
X122500000Y-90940000D01*
D36*
X196000000Y-138000000D02*
X196000000Y-116700000D01*
X125500000Y-131920000D02*
X125500000Y-131900000D01*
D35*
X118400000Y-110500000D02*
X118400000Y-105100000D01*
D34*
X119550000Y-90950000D02*
X122490000Y-90950000D01*
D36*
X188600000Y-145400000D02*
X196000000Y-138000000D01*
D35*
X128155000Y-87595000D02*
X129400000Y-87595000D01*
D34*
X129675000Y-120000000D02*
X126400000Y-116725000D01*
D36*
X123175000Y-113500000D02*
X125675000Y-111000000D01*
X136500000Y-133500000D02*
X139000000Y-136000000D01*
D34*
X122500000Y-90940000D02*
X125830000Y-90940000D01*
D31*
X162550000Y-130780000D02*
X159310000Y-130780000D01*
D38*
X168200000Y-129000000D02*
X168500000Y-129300000D01*
X169050000Y-133250000D02*
X169050000Y-135000000D01*
X168500000Y-132700000D02*
X169050000Y-133250000D01*
X168500000Y-129300000D02*
X168500000Y-132700000D01*
D31*
X159310000Y-130780000D02*
X159300000Y-130770000D01*
D38*
X170300000Y-137500000D02*
X170300000Y-136700000D01*
D36*
X149300000Y-134300000D02*
X151000000Y-136000000D01*
X147300000Y-118900000D02*
X149300000Y-120900000D01*
X142000000Y-118900000D02*
X147300000Y-118900000D01*
D38*
X170300000Y-136700000D02*
X171050000Y-135950000D01*
D36*
X141850001Y-119049999D02*
X142000000Y-118900000D01*
X136546100Y-119049999D02*
X141850001Y-119049999D01*
X149300000Y-120900000D02*
X149300000Y-134300000D01*
D38*
X171050000Y-135950000D02*
X171050000Y-135000000D01*
D31*
X165700000Y-139900000D02*
X165700000Y-140300000D01*
D34*
X143600000Y-126200000D02*
X144600000Y-127200000D01*
D31*
X140050000Y-126250000D02*
X141500000Y-126250000D01*
D34*
X147100000Y-141600000D02*
X164400000Y-141600000D01*
D31*
X165700000Y-140300000D02*
X164800000Y-141200000D01*
X139600000Y-124000000D02*
X139600000Y-125800000D01*
D34*
X142000000Y-126200000D02*
X143600000Y-126200000D01*
D32*
X165700000Y-139100000D02*
X166700000Y-138100000D01*
D31*
X136325600Y-123428500D02*
X139028500Y-123428500D01*
D34*
X144600000Y-136000000D02*
X144600000Y-139100000D01*
D31*
X139028500Y-123428500D02*
X139600000Y-124000000D01*
D32*
X166700000Y-137000000D02*
X168050000Y-135650000D01*
D34*
X144600000Y-139100000D02*
X147100000Y-141600000D01*
D32*
X166700000Y-138100000D02*
X166700000Y-137000000D01*
D31*
X139600000Y-125800000D02*
X140050000Y-126250000D01*
D34*
X164400000Y-141600000D02*
X164800000Y-141200000D01*
D38*
X165700000Y-139100000D02*
X165700000Y-139900000D01*
D34*
X144600000Y-127200000D02*
X144600000Y-136000000D01*
D32*
X168050000Y-135650000D02*
X168050000Y-135000000D01*
D31*
X106760000Y-108450000D02*
X106750000Y-108450000D01*
X105840000Y-109360000D02*
X98407041Y-109360000D01*
X99720000Y-84780000D02*
X103160000Y-84780000D01*
X97387062Y-108340021D02*
X97387062Y-87112938D01*
X98407041Y-109360000D02*
X97387062Y-108340021D01*
X97387062Y-87112938D02*
X99720000Y-84780000D01*
X106750000Y-108450000D02*
X105840000Y-109360000D01*
X190000000Y-132900000D02*
X185600000Y-137300000D01*
D38*
X183500000Y-139400000D02*
X177700000Y-139400000D01*
X177700000Y-139400000D02*
X176550000Y-138250000D01*
X185600000Y-137300000D02*
X183500000Y-139400000D01*
X176550000Y-138250000D02*
X176550000Y-135000000D01*
D31*
X163260000Y-84460000D02*
X152950000Y-84460000D01*
D38*
X171800000Y-125700000D02*
X171800000Y-128200000D01*
D31*
X171800000Y-125200000D02*
X171100000Y-124500000D01*
D38*
X171800000Y-128200000D02*
X169550000Y-130450000D01*
D31*
X171800000Y-125700000D02*
X171800000Y-125200000D01*
X166000000Y-87200000D02*
X163260000Y-84460000D01*
D38*
X169550000Y-130450000D02*
X169550000Y-135000000D01*
D31*
X169700000Y-124500000D02*
X169300000Y-124100000D01*
X171100000Y-124500000D02*
X169700000Y-124500000D01*
X166000000Y-111900000D02*
X166000000Y-87200000D01*
X180550000Y-136000000D02*
X180000000Y-136000000D01*
D38*
X180000000Y-136000000D02*
X178400000Y-136000000D01*
D31*
X183200000Y-133350000D02*
X180550000Y-136000000D01*
D38*
X178050000Y-135650000D02*
X178050000Y-135000000D01*
X178400000Y-136000000D02*
X178050000Y-135650000D01*
X165100000Y-133900000D02*
X167300000Y-133900000D01*
D31*
X166500000Y-124700000D02*
X167050000Y-124700000D01*
X161200000Y-87000000D02*
X152950000Y-87000000D01*
X164000000Y-89800000D02*
X161200000Y-87000000D01*
X167050000Y-124700000D02*
X167550000Y-124200000D01*
X164800000Y-126400000D02*
X166500000Y-124700000D01*
D38*
X164800000Y-133600000D02*
X165100000Y-133900000D01*
D31*
X164800000Y-131700000D02*
X164800000Y-126400000D01*
D38*
X167300000Y-133900000D02*
X167550000Y-134150000D01*
D31*
X164000000Y-113400000D02*
X164000000Y-89800000D01*
D38*
X167550000Y-134150000D02*
X167550000Y-135000000D01*
X164800000Y-131700000D02*
X164800000Y-133600000D01*
X175550000Y-138550000D02*
X175550000Y-135000000D01*
X185200000Y-140200000D02*
X177200000Y-140200000D01*
D31*
X185950000Y-139450000D02*
X187900000Y-137500000D01*
D38*
X177200000Y-140200000D02*
X175550000Y-138550000D01*
X185950000Y-139450000D02*
X185200000Y-140200000D01*
D31*
X187900000Y-137500000D02*
X187900000Y-137600000D01*
X176550000Y-113950000D02*
X178100000Y-112400000D01*
X181800000Y-111800000D02*
X181800000Y-70600000D01*
X181800000Y-70600000D02*
X180420000Y-69220000D01*
X178700000Y-129000000D02*
X175300000Y-129000000D01*
X179500000Y-126000000D02*
X179500000Y-128200000D01*
X180420000Y-69220000D02*
X178350000Y-69220000D01*
X178100000Y-112400000D02*
X181200000Y-112400000D01*
X179500000Y-128200000D02*
X178700000Y-129000000D01*
D38*
X174550000Y-131400000D02*
X174550000Y-135000000D01*
D31*
X181200000Y-112400000D02*
X181800000Y-111800000D01*
X178500000Y-125000000D02*
X179500000Y-126000000D01*
X174550000Y-129750000D02*
X174550000Y-131400000D01*
X176700000Y-125000000D02*
X178500000Y-125000000D01*
X176100000Y-124400000D02*
X176700000Y-125000000D01*
X175300000Y-129000000D02*
X174550000Y-129750000D01*
X185600000Y-129900000D02*
X185600000Y-134300000D01*
D38*
X178100000Y-138600000D02*
X177550000Y-138050000D01*
X183900000Y-136700000D02*
X183900000Y-137500000D01*
D31*
X183900000Y-136000000D02*
X183900000Y-136700000D01*
D38*
X183900000Y-137500000D02*
X182800000Y-138600000D01*
X182800000Y-138600000D02*
X178100000Y-138600000D01*
X177550000Y-138050000D02*
X177550000Y-135000000D01*
D31*
X185600000Y-134300000D02*
X183900000Y-136000000D01*
X169800000Y-108800000D02*
X169800000Y-76600000D01*
D38*
X175050000Y-132950000D02*
X175600000Y-132400000D01*
X175050000Y-135000000D02*
X175050000Y-132950000D01*
X176600000Y-132100000D02*
X176600000Y-131700000D01*
D31*
X169800000Y-76600000D02*
X167500000Y-74300000D01*
D38*
X176300000Y-132400000D02*
X176600000Y-132100000D01*
D31*
X167500000Y-74300000D02*
X152950000Y-74300000D01*
X176600000Y-131100000D02*
X176600000Y-131700000D01*
D38*
X175600000Y-132400000D02*
X176300000Y-132400000D01*
X172550000Y-137050000D02*
X172550000Y-135000000D01*
X187300000Y-141100000D02*
X176600000Y-141100000D01*
X176600000Y-141100000D02*
X172550000Y-137050000D01*
D31*
X192300000Y-136100000D02*
X188600000Y-139800000D01*
D38*
X188600000Y-139800000D02*
X187300000Y-141100000D01*
X179200000Y-132600000D02*
X179200000Y-133000000D01*
X176050000Y-133650000D02*
X176050000Y-135000000D01*
D31*
X171700000Y-107700000D02*
X171700000Y-74000000D01*
D38*
X178950000Y-133250000D02*
X176450000Y-133250000D01*
X179200000Y-133000000D02*
X178950000Y-133250000D01*
D31*
X171700000Y-74000000D02*
X169460000Y-71760000D01*
X169460000Y-71760000D02*
X152950000Y-71760000D01*
D38*
X176450000Y-133250000D02*
X176050000Y-133650000D01*
D31*
X179200000Y-131800000D02*
X179200000Y-132600000D01*
X179100000Y-114000000D02*
X183400000Y-114000000D01*
X182980000Y-66680000D02*
X178350000Y-66680000D01*
D38*
X174675000Y-126925000D02*
X175300000Y-126925000D01*
D31*
X175300000Y-126925000D02*
X176675000Y-126925000D01*
X184400000Y-68100000D02*
X182980000Y-66680000D01*
D38*
X170550000Y-131050000D02*
X174675000Y-126925000D01*
D31*
X184400000Y-113000000D02*
X184400000Y-68100000D01*
D38*
X170550000Y-135000000D02*
X170550000Y-131050000D01*
D31*
X178600000Y-114500000D02*
X179100000Y-114000000D01*
X183400000Y-114000000D02*
X184400000Y-113000000D01*
X168000000Y-81000000D02*
X163840000Y-76840000D01*
D38*
X173700000Y-132000000D02*
X173700000Y-132900000D01*
X174050000Y-133250000D02*
X174050000Y-135000000D01*
D31*
X163840000Y-76840000D02*
X152950000Y-76840000D01*
D38*
X173700000Y-132900000D02*
X174050000Y-133250000D01*
D31*
X168000000Y-110100000D02*
X168000000Y-81000000D01*
D38*
X172500000Y-130800000D02*
X173700000Y-132000000D01*
D31*
X162100000Y-114500000D02*
X162100000Y-91700000D01*
D38*
X166700000Y-133100000D02*
X166400000Y-132800000D01*
D31*
X162100000Y-91700000D02*
X159940000Y-89540000D01*
X159940000Y-89540000D02*
X152950000Y-89540000D01*
D38*
X167600000Y-133100000D02*
X166700000Y-133100000D01*
X166400000Y-132800000D02*
X166400000Y-131800000D01*
X168550000Y-134050000D02*
X167600000Y-133100000D01*
D31*
X162900000Y-115300000D02*
X162100000Y-114500000D01*
D38*
X168550000Y-135000000D02*
X168550000Y-134050000D01*
D31*
X166400000Y-127700000D02*
X167200000Y-126900000D01*
X166400000Y-131800000D02*
X166400000Y-127700000D01*
X173600000Y-71900000D02*
X170920000Y-69220000D01*
D38*
X177050000Y-134300000D02*
X177050000Y-135000000D01*
X181050000Y-131450000D02*
X181050000Y-133650000D01*
D31*
X170920000Y-69220000D02*
X152950000Y-69220000D01*
X181050000Y-131450000D02*
X181050000Y-124800000D01*
D38*
X180700000Y-134000000D02*
X177350000Y-134000000D01*
D31*
X173600000Y-106200000D02*
X173600000Y-71900000D01*
D38*
X181050000Y-133650000D02*
X180700000Y-134000000D01*
X177350000Y-134000000D02*
X177050000Y-134300000D01*
D31*
X186867162Y-51108877D02*
X186877417Y-51098622D01*
X147297092Y-51108877D02*
X170694483Y-51108877D01*
X111905000Y-74620000D02*
X105750000Y-74620000D01*
X117600000Y-68925000D02*
X111905000Y-74620000D01*
X134777722Y-74055297D02*
X134777722Y-63628247D01*
X135617425Y-74895000D02*
X134777722Y-74055297D01*
X137020000Y-74895000D02*
X135617425Y-74895000D01*
X202536752Y-91600000D02*
X212300000Y-91600000D01*
X170694483Y-51108877D02*
X186867162Y-51108877D01*
X134777722Y-63628247D02*
X147297092Y-51108877D01*
X134510128Y-77435000D02*
X133292101Y-76216973D01*
X146155207Y-49341945D02*
X169679747Y-49341945D01*
X202536752Y-87537672D02*
X203099080Y-88100000D01*
X145573865Y-49923287D02*
X146155207Y-49341945D01*
X169925813Y-49341945D02*
X184635031Y-49341945D01*
X115850000Y-72900000D02*
X111590000Y-77160000D01*
X169679747Y-49341945D02*
X169925813Y-49341945D01*
X133121392Y-63796794D02*
X133121392Y-62375760D01*
X184635031Y-49341945D02*
X184646565Y-49330411D01*
X133292101Y-76216973D02*
X133121392Y-76046264D01*
X137020000Y-77435000D02*
X134510128Y-77435000D01*
X111590000Y-77160000D02*
X105750000Y-77160000D01*
X133121392Y-76046264D02*
X133121392Y-63796794D01*
X203099080Y-88100000D02*
X212300000Y-88100000D01*
X133121392Y-62375760D02*
X145573865Y-49923287D01*
X131642429Y-78239717D02*
X131642429Y-60908968D01*
X131642429Y-60908968D02*
X144741579Y-47809818D01*
X144741579Y-47809818D02*
X182405062Y-47809818D01*
X114025000Y-77025000D02*
X111350000Y-79700000D01*
X137020000Y-79975000D02*
X133377712Y-79975000D01*
X133377712Y-79975000D02*
X131642429Y-78239717D01*
X207318270Y-110800000D02*
X212300000Y-110800000D01*
X205177816Y-100271773D02*
X205177816Y-108659546D01*
X111350000Y-79700000D02*
X105750000Y-79700000D01*
X205177816Y-108659546D02*
X207318270Y-110800000D01*
X100885425Y-95868707D02*
X101814132Y-94940000D01*
X147113266Y-54486734D02*
X147113266Y-80286734D01*
X101475983Y-105017742D02*
X100885425Y-104427184D01*
X148900000Y-52700000D02*
X147113266Y-54486734D01*
X126733259Y-77545184D02*
X126733259Y-70885526D01*
X101475983Y-105017742D02*
X109097872Y-105017742D01*
X101814132Y-94940000D02*
X103160000Y-94940000D01*
X147113266Y-80286734D02*
X140700000Y-86700000D01*
X189285596Y-52700000D02*
X189291237Y-52694359D01*
X126733259Y-70885526D02*
X126727789Y-70880056D01*
X109097872Y-105017742D02*
X109756100Y-104359514D01*
X186900000Y-52700000D02*
X189285596Y-52700000D01*
X123121499Y-87038483D02*
X126733259Y-83426723D01*
X126733259Y-83426723D02*
X126733259Y-77545184D01*
X100885425Y-104427184D02*
X100885425Y-95868707D01*
X186900000Y-52700000D02*
X148900000Y-52700000D01*
X94500000Y-76150000D02*
X95510000Y-77160000D01*
X161080000Y-81920000D02*
X152950000Y-81920000D01*
X95510000Y-77160000D02*
X103160000Y-77160000D01*
X130900000Y-49300000D02*
X96876075Y-49300000D01*
X94500000Y-51676075D02*
X94500000Y-76150000D01*
X96876075Y-49300000D02*
X94500000Y-51676075D01*
X111900000Y-105000000D02*
X110200000Y-106700000D01*
X110200000Y-106700000D02*
X99834044Y-106700000D01*
X99834044Y-106700000D02*
X99170462Y-106036418D01*
X112330595Y-89355345D02*
X112330595Y-89354606D01*
X120077172Y-73881308D02*
X121603480Y-72355000D01*
X112600000Y-105000000D02*
X111900000Y-105000000D01*
X112330595Y-89354606D02*
X120077172Y-81608029D01*
X99170462Y-106036418D02*
X99170462Y-93559538D01*
X121603480Y-72354012D02*
X121602292Y-72352824D01*
X121603480Y-72355000D02*
X121603480Y-72354012D01*
X99170462Y-93559538D02*
X100330000Y-92400000D01*
X100330000Y-92400000D02*
X103160000Y-92400000D01*
X120077172Y-81608029D02*
X120077172Y-73881308D01*
X129400000Y-82515000D02*
X131585000Y-82515000D01*
X100500000Y-89860000D02*
X103160000Y-89860000D01*
X133100000Y-83500000D02*
X133100000Y-89200000D01*
X132115000Y-82515000D02*
X133100000Y-83500000D01*
X131585000Y-82515000D02*
X132115000Y-82515000D01*
X119300000Y-65150000D02*
X112370000Y-72080000D01*
X112370000Y-72080000D02*
X105750000Y-72080000D01*
X94150000Y-81550000D02*
X96000000Y-79700000D01*
X175500000Y-104300000D02*
X176100000Y-103700000D01*
X96000000Y-79700000D02*
X103160000Y-79700000D01*
X176100000Y-98250000D02*
X177190000Y-97160000D01*
X176100000Y-103700000D02*
X176100000Y-98250000D01*
X177190000Y-97160000D02*
X178350000Y-97160000D01*
X94150000Y-111850000D02*
X94150000Y-81550000D01*
X96350000Y-113250000D02*
X95741111Y-112641111D01*
X160000000Y-114800000D02*
X160000000Y-100900000D01*
X160000000Y-100900000D02*
X158800000Y-99700000D01*
X98610000Y-82240000D02*
X103160000Y-82240000D01*
X158600000Y-116200000D02*
X160000000Y-114800000D01*
X134800000Y-116200000D02*
X158600000Y-116200000D01*
X95741111Y-112641111D02*
X95741111Y-85108889D01*
X95741111Y-85108889D02*
X98610000Y-82240000D01*
X158800000Y-99700000D02*
X152950000Y-99700000D01*
X124300000Y-63255283D02*
X124300797Y-63254486D01*
X112500000Y-67000000D02*
X105700000Y-67000000D01*
X124300000Y-64807406D02*
X124300000Y-63255283D01*
X124300797Y-63254486D02*
X124300797Y-63241727D01*
X121759070Y-60700000D02*
X118800000Y-60700000D01*
X124300797Y-63241727D02*
X121759070Y-60700000D01*
X124996233Y-65503639D02*
X124300000Y-64807406D01*
X118800000Y-60700000D02*
X112500000Y-67000000D01*
D34*
X125600000Y-145700000D02*
X125600000Y-143900000D01*
D37*
X114900000Y-133200000D02*
X114900000Y-128700000D01*
D35*
X124700000Y-142200000D02*
X134600000Y-142200000D01*
D36*
X118931617Y-137068383D02*
X117668383Y-137068383D01*
X125500000Y-137000000D02*
X119004852Y-137000000D01*
D37*
X114900000Y-133200000D02*
X114900000Y-134300000D01*
X109800000Y-123600000D02*
X96800000Y-123600000D01*
D36*
X117668383Y-137068383D02*
X116200000Y-135600000D01*
D37*
X114900000Y-128700000D02*
X109800000Y-123600000D01*
X114900000Y-133200000D02*
X114900000Y-134100000D01*
D35*
X124700000Y-142200000D02*
X122500000Y-142200000D01*
D37*
X114900000Y-134300000D02*
X116200000Y-135600000D01*
D35*
X134600000Y-142200000D02*
X135500000Y-143100000D01*
D36*
X119004852Y-137000000D02*
X118936469Y-137068383D01*
D35*
X125600000Y-143100000D02*
X124700000Y-142200000D01*
D37*
X118936469Y-137068383D02*
X118936469Y-145636469D01*
D35*
X125600000Y-143900000D02*
X125600000Y-143100000D01*
D37*
X118936469Y-145636469D02*
X119000000Y-145700000D01*
D35*
X122500000Y-142200000D02*
X119000000Y-145700000D01*
D31*
X137574291Y-38892947D02*
X135133621Y-41333617D01*
X97200000Y-53709768D02*
X97200000Y-67700000D01*
X166368203Y-42967691D02*
X166367691Y-42967691D01*
X97200000Y-67700000D02*
X99040000Y-69540000D01*
X99409768Y-51500000D02*
X97200000Y-53709768D01*
X135133621Y-48735524D02*
X132369145Y-51500000D01*
X167092129Y-43691617D02*
X166368203Y-42967691D01*
X162292947Y-38892947D02*
X137574291Y-38892947D01*
X99040000Y-69540000D02*
X103160000Y-69540000D01*
X135133621Y-41333617D02*
X135133621Y-48735524D01*
X166367691Y-42967691D02*
X162292947Y-38892947D01*
X132369145Y-51500000D02*
X99409768Y-51500000D01*
X118215000Y-77435000D02*
X108330000Y-87320000D01*
X108330000Y-87320000D02*
X105700000Y-87320000D01*
X110155000Y-54700000D02*
X110155000Y-54235000D01*
X130450000Y-54700000D02*
X132500000Y-54700000D01*
X118805000Y-54700000D02*
X118805000Y-55165000D01*
X113615000Y-55165000D02*
X113615000Y-54700000D01*
X101801617Y-54700000D02*
X104500000Y-54700000D01*
X113615000Y-54700000D02*
X113615000Y-54235000D01*
X117075000Y-55165000D02*
X117075000Y-54700000D01*
X137445922Y-43043391D02*
X138940772Y-41548541D01*
X121000000Y-53770000D02*
X121800000Y-53770000D01*
X159190063Y-41590063D02*
X159190063Y-41614479D01*
X112350000Y-55630000D02*
X113150000Y-55630000D01*
X103160000Y-67000000D02*
X100900000Y-67000000D01*
X118805000Y-54235000D02*
X118805000Y-54700000D01*
X138940772Y-41548541D02*
X138982294Y-41590063D01*
X100900000Y-67000000D02*
X100100000Y-66200000D01*
X119270000Y-55630000D02*
X120070000Y-55630000D01*
X122730000Y-55630000D02*
X123530000Y-55630000D01*
X117075000Y-54700000D02*
X117075000Y-54235000D01*
X127455000Y-54700000D02*
X127455000Y-54235000D01*
X114080000Y-53770000D02*
X114880000Y-53770000D01*
X111885000Y-54235000D02*
X111885000Y-54700000D01*
X100100000Y-66200000D02*
X100100000Y-56401617D01*
X125725000Y-54700000D02*
X125725000Y-55165000D01*
X138982294Y-41590063D02*
X159190063Y-41590063D01*
X105430000Y-55630000D02*
X106230000Y-55630000D01*
X106695000Y-54700000D02*
X106695000Y-54235000D01*
X132500000Y-54696803D02*
X137445922Y-49750881D01*
X108425000Y-54700000D02*
X108425000Y-55165000D01*
X100100000Y-56401617D02*
X101801617Y-54700000D01*
X123995000Y-55165000D02*
X123995000Y-54700000D01*
X137445922Y-49750881D02*
X137445922Y-43043391D01*
X120535000Y-54700000D02*
X120535000Y-54235000D01*
X107160000Y-53770000D02*
X107960000Y-53770000D01*
X159190063Y-41614479D02*
X161754344Y-44178760D01*
X110620000Y-53770000D02*
X111420000Y-53770000D01*
X126190000Y-55630000D02*
X126990000Y-55630000D01*
X117540000Y-53770000D02*
X118340000Y-53770000D01*
X125725000Y-54235000D02*
X125725000Y-54700000D01*
X115810000Y-55630000D02*
X116610000Y-55630000D01*
X115345000Y-54700000D02*
X115345000Y-55165000D01*
X111885000Y-54700000D02*
X111885000Y-55165000D01*
X129650000Y-54700000D02*
X130450000Y-54700000D01*
X127455000Y-55165000D02*
X127455000Y-54700000D01*
X108425000Y-54235000D02*
X108425000Y-54700000D01*
X122265000Y-54700000D02*
X122265000Y-55165000D01*
X132500000Y-54700000D02*
X132500000Y-54696803D01*
X110155000Y-55165000D02*
X110155000Y-54700000D01*
X106695000Y-55165000D02*
X106695000Y-54700000D01*
X115345000Y-54235000D02*
X115345000Y-54700000D01*
X108890000Y-55630000D02*
X109690000Y-55630000D01*
X124460000Y-53770000D02*
X125260000Y-53770000D01*
X120535000Y-55165000D02*
X120535000Y-54700000D01*
X127920000Y-53770000D02*
X128720000Y-53770000D01*
X123995000Y-54700000D02*
X123995000Y-54235000D01*
X122265000Y-54235000D02*
X122265000Y-54700000D01*
X118805000Y-55165000D02*
G75*
G03*
X119270000Y-55630000I465000J0D01*
G01*
X126990000Y-55630000D02*
G75*
G03*
X127455000Y-55165000I0J465000D01*
G01*
X117075000Y-54235000D02*
G75*
G02*
X117540000Y-53770000I465000J0D01*
G01*
X104965000Y-55165000D02*
G75*
G03*
X105430000Y-55630000I465000J0D01*
G01*
X113615000Y-54235000D02*
G75*
G02*
X114080000Y-53770000I465000J0D01*
G01*
X116610000Y-55630000D02*
G75*
G03*
X117075000Y-55165000I0J465000D01*
G01*
X128720000Y-53770000D02*
G75*
G02*
X129185000Y-54235000I0J-465000D01*
G01*
X129185000Y-54235000D02*
G75*
G03*
X129650000Y-54700000I465000J0D01*
G01*
X107960000Y-53770000D02*
G75*
G02*
X108425000Y-54235000I0J-465000D01*
G01*
X123995000Y-54235000D02*
G75*
G02*
X124460000Y-53770000I465000J0D01*
G01*
X110155000Y-54235000D02*
G75*
G02*
X110620000Y-53770000I465000J0D01*
G01*
X115345000Y-55165000D02*
G75*
G03*
X115810000Y-55630000I465000J0D01*
G01*
X127455000Y-54235000D02*
G75*
G02*
X127920000Y-53770000I465000J0D01*
G01*
X111420000Y-53770000D02*
G75*
G02*
X111885000Y-54235000I0J-465000D01*
G01*
X121800000Y-53770000D02*
G75*
G02*
X122265000Y-54235000I0J-465000D01*
G01*
X120535000Y-54235000D02*
G75*
G02*
X121000000Y-53770000I465000J0D01*
G01*
X104500000Y-54700000D02*
G75*
G02*
X104965000Y-55165000I0J-465000D01*
G01*
X118340000Y-53770000D02*
G75*
G02*
X118805000Y-54235000I0J-465000D01*
G01*
X113150000Y-55630000D02*
G75*
G03*
X113615000Y-55165000I0J465000D01*
G01*
X122265000Y-55165000D02*
G75*
G03*
X122730000Y-55630000I465000J0D01*
G01*
X106695000Y-54235000D02*
G75*
G02*
X107160000Y-53770000I465000J0D01*
G01*
X120070000Y-55630000D02*
G75*
G03*
X120535000Y-55165000I0J465000D01*
G01*
X114880000Y-53770000D02*
G75*
G02*
X115345000Y-54235000I0J-465000D01*
G01*
X109690000Y-55630000D02*
G75*
G03*
X110155000Y-55165000I0J465000D01*
G01*
X125725000Y-55165000D02*
G75*
G03*
X126190000Y-55630000I465000J0D01*
G01*
X106230000Y-55630000D02*
G75*
G03*
X106695000Y-55165000I0J465000D01*
G01*
X123530000Y-55630000D02*
G75*
G03*
X123995000Y-55165000I0J465000D01*
G01*
X111885000Y-55165000D02*
G75*
G03*
X112350000Y-55630000I465000J0D01*
G01*
X125260000Y-53770000D02*
G75*
G02*
X125725000Y-54235000I0J-465000D01*
G01*
X108425000Y-55165000D02*
G75*
G03*
X108890000Y-55630000I465000J0D01*
G01*
X156300000Y-114200000D02*
X132550000Y-114200000D01*
X158100000Y-106000000D02*
X158100000Y-112400000D01*
X158100000Y-112400000D02*
X156300000Y-114200000D01*
X121710435Y-82622274D02*
X121710435Y-76010786D01*
X111932709Y-92400000D02*
X121710435Y-82622274D01*
X105700000Y-92400000D02*
X111932709Y-92400000D01*
X121710435Y-76010786D02*
X122281560Y-75439661D01*
D37*
X133100000Y-158360000D02*
X130940000Y-158360000D01*
D36*
X125600000Y-150780000D02*
X125600000Y-153020000D01*
X125600000Y-153020000D02*
X129180000Y-156600000D01*
D37*
X130940000Y-158360000D02*
X129180000Y-156600000D01*
D31*
X108740000Y-89860000D02*
X105700000Y-89860000D01*
X118000000Y-80600000D02*
X108740000Y-89860000D01*
X112410000Y-69540000D02*
X105700000Y-69540000D01*
X118500000Y-63450000D02*
X112410000Y-69540000D01*
X121700000Y-63450000D02*
X118500000Y-63450000D01*
X122500000Y-101100000D02*
X122500000Y-102700000D01*
X129400000Y-97755000D02*
X132055000Y-97755000D01*
X142100000Y-97700000D02*
X142900000Y-96900000D01*
X148800000Y-96900000D02*
X151080000Y-94620000D01*
X151080000Y-94620000D02*
X152950000Y-94620000D01*
X142100000Y-102300000D02*
X142100000Y-97700000D01*
X128345000Y-97755000D02*
X129400000Y-97755000D01*
X127000000Y-103300000D02*
X127750000Y-102550000D01*
X138700000Y-105700000D02*
X142100000Y-102300000D01*
X134300000Y-105700000D02*
X138700000Y-105700000D01*
X123100000Y-103300000D02*
X127000000Y-103300000D01*
X132800000Y-104200000D02*
X134300000Y-105700000D01*
X127750000Y-98350000D02*
X128345000Y-97755000D01*
X122500000Y-102700000D02*
X123100000Y-103300000D01*
X132055000Y-97755000D02*
X132800000Y-98500000D01*
X132800000Y-98500000D02*
X132800000Y-104200000D01*
X142900000Y-96900000D02*
X148800000Y-96900000D01*
X127750000Y-102550000D02*
X127750000Y-98350000D01*
X129400000Y-95215000D02*
X133315000Y-95215000D01*
X140300000Y-95900000D02*
X141100000Y-95100000D01*
X140300000Y-100900000D02*
X140300000Y-95900000D01*
X134600000Y-96500000D02*
X134600000Y-103000000D01*
X134600000Y-103000000D02*
X135200000Y-103600000D01*
X135200000Y-103600000D02*
X137600000Y-103600000D01*
X147700000Y-95100000D02*
X150720000Y-92080000D01*
X133315000Y-95215000D02*
X134600000Y-96500000D01*
X141100000Y-95100000D02*
X147700000Y-95100000D01*
X129265000Y-95080000D02*
X129400000Y-95215000D01*
X137600000Y-103600000D02*
X140300000Y-100900000D01*
X150720000Y-92080000D02*
X152950000Y-92080000D01*
X144605000Y-92675000D02*
X145740000Y-91540000D01*
X145740000Y-91540000D02*
X147100000Y-91540000D01*
X137020000Y-92675000D02*
X144605000Y-92675000D01*
D37*
X142400000Y-151200000D02*
X146200000Y-151200000D01*
X201500000Y-129200000D02*
X203300000Y-127400000D01*
D36*
X212282500Y-127400000D02*
X206100000Y-127400000D01*
D37*
X137600000Y-148200000D02*
X139400000Y-148200000D01*
X198000000Y-144500000D02*
X203000000Y-144500000D01*
D36*
X125600000Y-148240000D02*
X129340000Y-148240000D01*
D37*
X191300000Y-151200000D02*
X198000000Y-144500000D01*
X148900000Y-153900000D02*
X146200000Y-151200000D01*
X148900000Y-153900000D02*
X148900000Y-151200000D01*
X148900000Y-156800000D02*
X148900000Y-153900000D01*
X201500000Y-141000000D02*
X201500000Y-129200000D01*
X148900000Y-153900000D02*
X151600000Y-151200000D01*
X146200000Y-151200000D02*
X148900000Y-151200000D01*
X148900000Y-151200000D02*
X151600000Y-151200000D01*
X129500000Y-148200000D02*
X137600000Y-148200000D01*
X129400000Y-148300000D02*
X129500000Y-148200000D01*
X139400000Y-148200000D02*
X142400000Y-151200000D01*
X198000000Y-144500000D02*
X201500000Y-141000000D01*
D36*
X212300000Y-144500000D02*
X203000000Y-144500000D01*
D37*
X151600000Y-151200000D02*
X191300000Y-151200000D01*
X203300000Y-127400000D02*
X206100000Y-127400000D01*
X210800000Y-83100000D02*
X193000000Y-83100000D01*
X210900000Y-53300000D02*
X212200000Y-54600000D01*
D36*
X154490000Y-62600000D02*
X152950000Y-64140000D01*
X186600000Y-59300000D02*
X175750000Y-59300000D01*
D38*
X170900000Y-139500000D02*
X171500000Y-139500000D01*
D37*
X191700000Y-67000000D02*
X189800000Y-68900000D01*
D36*
X175750000Y-59300000D02*
X172450000Y-62600000D01*
D38*
X171800000Y-136200000D02*
X171550000Y-135950000D01*
D35*
X159480000Y-120620000D02*
X155300000Y-124800000D01*
D39*
X210620000Y-66920000D02*
X212300000Y-68600000D01*
D34*
X162530000Y-120600000D02*
X162550000Y-120620000D01*
D37*
X193000000Y-83100000D02*
X189800000Y-79900000D01*
X164070000Y-119100000D02*
X162550000Y-120620000D01*
X189800000Y-79900000D02*
X189800000Y-68900000D01*
D35*
X155300000Y-132700000D02*
X158600000Y-136000000D01*
X155300000Y-124800000D02*
X155300000Y-132700000D01*
D39*
X191780000Y-66920000D02*
X210620000Y-66920000D01*
D37*
X189800000Y-86300000D02*
X189800000Y-115200000D01*
D39*
X212200000Y-54600000D02*
X212200000Y-56400000D01*
D37*
X189800000Y-115200000D02*
X185900000Y-119100000D01*
X198380000Y-59300000D02*
X204200000Y-53480000D01*
D38*
X171550000Y-135950000D02*
X171550000Y-135000000D01*
D39*
X191700000Y-67000000D02*
X191780000Y-66920000D01*
D37*
X189800000Y-79900000D02*
X189800000Y-86300000D01*
X189800000Y-65100000D02*
X189800000Y-62500000D01*
D35*
X162550000Y-120620000D02*
X159480000Y-120620000D01*
D37*
X204200000Y-53480000D02*
X204380000Y-53300000D01*
D31*
X170900000Y-139500000D02*
X168000000Y-139500000D01*
D37*
X186600000Y-59300000D02*
X198380000Y-59300000D01*
X189800000Y-62500000D02*
X186600000Y-59300000D01*
X185900000Y-119100000D02*
X164070000Y-119100000D01*
X204380000Y-53300000D02*
X210900000Y-53300000D01*
X189800000Y-65100000D02*
X189800000Y-68900000D01*
X193000000Y-83100000D02*
X189800000Y-86300000D01*
D35*
X212300000Y-84600000D02*
X210800000Y-83100000D01*
D38*
X171500000Y-139500000D02*
X171800000Y-139200000D01*
D36*
X172450000Y-62600000D02*
X154490000Y-62600000D01*
D38*
X171800000Y-139200000D02*
X171800000Y-136200000D01*
D37*
X191700000Y-67000000D02*
X189800000Y-65100000D01*
D31*
X124381790Y-70566574D02*
X124381790Y-82252405D01*
X169862605Y-45937395D02*
X171000000Y-44800000D01*
X128302047Y-69815000D02*
X129400000Y-69815000D01*
X126330401Y-68617963D02*
X124381790Y-70566574D01*
X124381790Y-82252405D02*
X111694195Y-94940000D01*
X158125529Y-43856082D02*
X160206842Y-45937395D01*
X127105010Y-68617963D02*
X127105010Y-63053237D01*
X140611789Y-43856082D02*
X158125529Y-43856082D01*
X139449127Y-50709120D02*
X139449127Y-45018744D01*
X171000000Y-44800000D02*
X180500000Y-44800000D01*
X160206842Y-45937395D02*
X169862605Y-45937395D01*
X139449127Y-45018744D02*
X140611789Y-43856082D01*
X127105010Y-68617963D02*
X126330401Y-68617963D01*
X127105010Y-63053237D02*
X139449127Y-50709120D01*
X111694195Y-94940000D02*
X105700000Y-94940000D01*
X127105010Y-68617963D02*
X128302047Y-69815000D01*
X111010000Y-82240000D02*
X105700000Y-82240000D01*
X107400000Y-60300000D02*
X105900000Y-61800000D01*
X111675000Y-81575000D02*
X111010000Y-82240000D01*
X110400000Y-60300000D02*
X107400000Y-60300000D01*
X149070067Y-55229933D02*
X149070067Y-82329933D01*
X165300000Y-54400000D02*
X149900000Y-54400000D01*
X149070067Y-82329933D02*
X141265000Y-90135000D01*
X141265000Y-90135000D02*
X137020000Y-90135000D01*
X149900000Y-54400000D02*
X149070067Y-55229933D01*
M02*
