G04 #@! TF.GenerationSoftware,KiCad,Pcbnew,9.0.5*
G04 #@! TF.CreationDate,2025-10-27T23:16:19-07:00*
G04 #@! TF.ProjectId,zotbins_2025_wrover_pcb,7a6f7462-696e-4735-9f32-3032355f7772,rev?*
G04 #@! TF.SameCoordinates,Original*
G04 #@! TF.FileFunction,Legend,Top*
G04 #@! TF.FilePolarity,Positive*
%FSLAX46Y46*%
G04 Gerber Fmt 4.6, Leading zero omitted, Abs format (unit mm)*
G04 Created by KiCad (PCBNEW 9.0.5) date 2025-10-27 23:16:19*
%MOMM*%
%LPD*%
G01*
G04 APERTURE LIST*
%ADD10C,0.200000*%
%ADD11C,0.250000*%
%ADD12C,0.500000*%
%ADD13C,0.120000*%
%ADD14C,0.127000*%
%ADD15C,0.152400*%
G04 APERTURE END LIST*
D10*
X162222054Y-58181504D02*
X162698244Y-58181504D01*
X162126816Y-58467219D02*
X162460149Y-57467219D01*
X162460149Y-57467219D02*
X162793482Y-58467219D01*
X163126816Y-58467219D02*
X163126816Y-57467219D01*
X163126816Y-57467219D02*
X163698244Y-58467219D01*
X163698244Y-58467219D02*
X163698244Y-57467219D01*
X164031578Y-57467219D02*
X164603006Y-57467219D01*
X164317292Y-58467219D02*
X164317292Y-57467219D01*
X164936340Y-57943409D02*
X165269673Y-57943409D01*
X165412530Y-58467219D02*
X164936340Y-58467219D01*
X164936340Y-58467219D02*
X164936340Y-57467219D01*
X164936340Y-57467219D02*
X165412530Y-57467219D01*
X165841102Y-58467219D02*
X165841102Y-57467219D01*
X165841102Y-57467219D02*
X166412530Y-58467219D01*
X166412530Y-58467219D02*
X166412530Y-57467219D01*
X166888721Y-58467219D02*
X166888721Y-57467219D01*
X166888721Y-57467219D02*
X167460149Y-58467219D01*
X167460149Y-58467219D02*
X167460149Y-57467219D01*
X167888721Y-58181504D02*
X168364911Y-58181504D01*
X167793483Y-58467219D02*
X168126816Y-57467219D01*
X168126816Y-57467219D02*
X168460149Y-58467219D01*
X203876897Y-133137219D02*
X203876897Y-132137219D01*
X203876897Y-132137219D02*
X204257849Y-132137219D01*
X204257849Y-132137219D02*
X204353087Y-132184838D01*
X204353087Y-132184838D02*
X204400706Y-132232457D01*
X204400706Y-132232457D02*
X204448325Y-132327695D01*
X204448325Y-132327695D02*
X204448325Y-132470552D01*
X204448325Y-132470552D02*
X204400706Y-132565790D01*
X204400706Y-132565790D02*
X204353087Y-132613409D01*
X204353087Y-132613409D02*
X204257849Y-132661028D01*
X204257849Y-132661028D02*
X203876897Y-132661028D01*
X204781659Y-132137219D02*
X205019754Y-133137219D01*
X205019754Y-133137219D02*
X205210230Y-132422933D01*
X205210230Y-132422933D02*
X205400706Y-133137219D01*
X205400706Y-133137219D02*
X205638802Y-132137219D01*
X206019754Y-133137219D02*
X206019754Y-132137219D01*
X206019754Y-132137219D02*
X206353087Y-132851504D01*
X206353087Y-132851504D02*
X206686420Y-132137219D01*
X206686420Y-132137219D02*
X206686420Y-133137219D01*
X205944235Y-102846266D02*
X206706140Y-102846266D01*
X203988490Y-87292131D02*
X204131347Y-87339750D01*
X204131347Y-87339750D02*
X204369442Y-87339750D01*
X204369442Y-87339750D02*
X204464680Y-87292131D01*
X204464680Y-87292131D02*
X204512299Y-87244511D01*
X204512299Y-87244511D02*
X204559918Y-87149273D01*
X204559918Y-87149273D02*
X204559918Y-87054035D01*
X204559918Y-87054035D02*
X204512299Y-86958797D01*
X204512299Y-86958797D02*
X204464680Y-86911178D01*
X204464680Y-86911178D02*
X204369442Y-86863559D01*
X204369442Y-86863559D02*
X204178966Y-86815940D01*
X204178966Y-86815940D02*
X204083728Y-86768321D01*
X204083728Y-86768321D02*
X204036109Y-86720702D01*
X204036109Y-86720702D02*
X203988490Y-86625464D01*
X203988490Y-86625464D02*
X203988490Y-86530226D01*
X203988490Y-86530226D02*
X204036109Y-86434988D01*
X204036109Y-86434988D02*
X204083728Y-86387369D01*
X204083728Y-86387369D02*
X204178966Y-86339750D01*
X204178966Y-86339750D02*
X204417061Y-86339750D01*
X204417061Y-86339750D02*
X204559918Y-86387369D01*
X205559918Y-87244511D02*
X205512299Y-87292131D01*
X205512299Y-87292131D02*
X205369442Y-87339750D01*
X205369442Y-87339750D02*
X205274204Y-87339750D01*
X205274204Y-87339750D02*
X205131347Y-87292131D01*
X205131347Y-87292131D02*
X205036109Y-87196892D01*
X205036109Y-87196892D02*
X204988490Y-87101654D01*
X204988490Y-87101654D02*
X204940871Y-86911178D01*
X204940871Y-86911178D02*
X204940871Y-86768321D01*
X204940871Y-86768321D02*
X204988490Y-86577845D01*
X204988490Y-86577845D02*
X205036109Y-86482607D01*
X205036109Y-86482607D02*
X205131347Y-86387369D01*
X205131347Y-86387369D02*
X205274204Y-86339750D01*
X205274204Y-86339750D02*
X205369442Y-86339750D01*
X205369442Y-86339750D02*
X205512299Y-86387369D01*
X205512299Y-86387369D02*
X205559918Y-86434988D01*
X205988490Y-87339750D02*
X205988490Y-86339750D01*
X206559918Y-87339750D02*
X206131347Y-86768321D01*
X206559918Y-86339750D02*
X205988490Y-86911178D01*
X206177011Y-105244409D02*
X206510344Y-105244409D01*
X206653201Y-105768219D02*
X206177011Y-105768219D01*
X206177011Y-105768219D02*
X206177011Y-104768219D01*
X206177011Y-104768219D02*
X206653201Y-104768219D01*
X204180419Y-109252219D02*
X204751847Y-109252219D01*
X204466133Y-110252219D02*
X204466133Y-109252219D01*
X205848410Y-60235146D02*
X206610315Y-60235146D01*
X205844694Y-76004988D02*
X205844694Y-75004988D01*
X206892312Y-76004988D02*
X206558979Y-75528797D01*
X206320884Y-76004988D02*
X206320884Y-75004988D01*
X206320884Y-75004988D02*
X206701836Y-75004988D01*
X206701836Y-75004988D02*
X206797074Y-75052607D01*
X206797074Y-75052607D02*
X206844693Y-75100226D01*
X206844693Y-75100226D02*
X206892312Y-75195464D01*
X206892312Y-75195464D02*
X206892312Y-75338321D01*
X206892312Y-75338321D02*
X206844693Y-75433559D01*
X206844693Y-75433559D02*
X206797074Y-75481178D01*
X206797074Y-75481178D02*
X206701836Y-75528797D01*
X206701836Y-75528797D02*
X206320884Y-75528797D01*
X203847073Y-148365150D02*
X203847073Y-147365150D01*
X203847073Y-147365150D02*
X204228025Y-147365150D01*
X204228025Y-147365150D02*
X204323263Y-147412769D01*
X204323263Y-147412769D02*
X204370882Y-147460388D01*
X204370882Y-147460388D02*
X204418501Y-147555626D01*
X204418501Y-147555626D02*
X204418501Y-147698483D01*
X204418501Y-147698483D02*
X204370882Y-147793721D01*
X204370882Y-147793721D02*
X204323263Y-147841340D01*
X204323263Y-147841340D02*
X204228025Y-147888959D01*
X204228025Y-147888959D02*
X203847073Y-147888959D01*
X204751835Y-147365150D02*
X204989930Y-148365150D01*
X204989930Y-148365150D02*
X205180406Y-147650864D01*
X205180406Y-147650864D02*
X205370882Y-148365150D01*
X205370882Y-148365150D02*
X205608978Y-147365150D01*
X205989930Y-148365150D02*
X205989930Y-147365150D01*
X205989930Y-147365150D02*
X206323263Y-148079435D01*
X206323263Y-148079435D02*
X206656596Y-147365150D01*
X206656596Y-147365150D02*
X206656596Y-148365150D01*
D11*
X169993044Y-121564619D02*
X170183520Y-121564619D01*
X170183520Y-121564619D02*
X170278758Y-121612238D01*
X170278758Y-121612238D02*
X170373996Y-121707476D01*
X170373996Y-121707476D02*
X170421615Y-121897952D01*
X170421615Y-121897952D02*
X170421615Y-122231285D01*
X170421615Y-122231285D02*
X170373996Y-122421761D01*
X170373996Y-122421761D02*
X170278758Y-122517000D01*
X170278758Y-122517000D02*
X170183520Y-122564619D01*
X170183520Y-122564619D02*
X169993044Y-122564619D01*
X169993044Y-122564619D02*
X169897806Y-122517000D01*
X169897806Y-122517000D02*
X169802568Y-122421761D01*
X169802568Y-122421761D02*
X169754949Y-122231285D01*
X169754949Y-122231285D02*
X169754949Y-121897952D01*
X169754949Y-121897952D02*
X169802568Y-121707476D01*
X169802568Y-121707476D02*
X169897806Y-121612238D01*
X169897806Y-121612238D02*
X169993044Y-121564619D01*
X170707330Y-121564619D02*
X171040663Y-122564619D01*
X171040663Y-122564619D02*
X171373996Y-121564619D01*
X171659711Y-121659857D02*
X171707330Y-121612238D01*
X171707330Y-121612238D02*
X171802568Y-121564619D01*
X171802568Y-121564619D02*
X172040663Y-121564619D01*
X172040663Y-121564619D02*
X172135901Y-121612238D01*
X172135901Y-121612238D02*
X172183520Y-121659857D01*
X172183520Y-121659857D02*
X172231139Y-121755095D01*
X172231139Y-121755095D02*
X172231139Y-121850333D01*
X172231139Y-121850333D02*
X172183520Y-121993190D01*
X172183520Y-121993190D02*
X171612092Y-122564619D01*
X171612092Y-122564619D02*
X172231139Y-122564619D01*
X173088282Y-121564619D02*
X172897806Y-121564619D01*
X172897806Y-121564619D02*
X172802568Y-121612238D01*
X172802568Y-121612238D02*
X172754949Y-121659857D01*
X172754949Y-121659857D02*
X172659711Y-121802714D01*
X172659711Y-121802714D02*
X172612092Y-121993190D01*
X172612092Y-121993190D02*
X172612092Y-122374142D01*
X172612092Y-122374142D02*
X172659711Y-122469380D01*
X172659711Y-122469380D02*
X172707330Y-122517000D01*
X172707330Y-122517000D02*
X172802568Y-122564619D01*
X172802568Y-122564619D02*
X172993044Y-122564619D01*
X172993044Y-122564619D02*
X173088282Y-122517000D01*
X173088282Y-122517000D02*
X173135901Y-122469380D01*
X173135901Y-122469380D02*
X173183520Y-122374142D01*
X173183520Y-122374142D02*
X173183520Y-122136047D01*
X173183520Y-122136047D02*
X173135901Y-122040809D01*
X173135901Y-122040809D02*
X173088282Y-121993190D01*
X173088282Y-121993190D02*
X172993044Y-121945571D01*
X172993044Y-121945571D02*
X172802568Y-121945571D01*
X172802568Y-121945571D02*
X172707330Y-121993190D01*
X172707330Y-121993190D02*
X172659711Y-122040809D01*
X172659711Y-122040809D02*
X172612092Y-122136047D01*
X174040663Y-121897952D02*
X174040663Y-122564619D01*
X173802568Y-121517000D02*
X173564473Y-122231285D01*
X173564473Y-122231285D02*
X174183520Y-122231285D01*
X174754949Y-121564619D02*
X174850187Y-121564619D01*
X174850187Y-121564619D02*
X174945425Y-121612238D01*
X174945425Y-121612238D02*
X174993044Y-121659857D01*
X174993044Y-121659857D02*
X175040663Y-121755095D01*
X175040663Y-121755095D02*
X175088282Y-121945571D01*
X175088282Y-121945571D02*
X175088282Y-122183666D01*
X175088282Y-122183666D02*
X175040663Y-122374142D01*
X175040663Y-122374142D02*
X174993044Y-122469380D01*
X174993044Y-122469380D02*
X174945425Y-122517000D01*
X174945425Y-122517000D02*
X174850187Y-122564619D01*
X174850187Y-122564619D02*
X174754949Y-122564619D01*
X174754949Y-122564619D02*
X174659711Y-122517000D01*
X174659711Y-122517000D02*
X174612092Y-122469380D01*
X174612092Y-122469380D02*
X174564473Y-122374142D01*
X174564473Y-122374142D02*
X174516854Y-122183666D01*
X174516854Y-122183666D02*
X174516854Y-121945571D01*
X174516854Y-121945571D02*
X174564473Y-121755095D01*
X174564473Y-121755095D02*
X174612092Y-121659857D01*
X174612092Y-121659857D02*
X174659711Y-121612238D01*
X174659711Y-121612238D02*
X174754949Y-121564619D01*
D10*
X204430584Y-91052219D02*
X204430584Y-90052219D01*
X204430584Y-90052219D02*
X204668679Y-90052219D01*
X204668679Y-90052219D02*
X204811536Y-90099838D01*
X204811536Y-90099838D02*
X204906774Y-90195076D01*
X204906774Y-90195076D02*
X204954393Y-90290314D01*
X204954393Y-90290314D02*
X205002012Y-90480790D01*
X205002012Y-90480790D02*
X205002012Y-90623647D01*
X205002012Y-90623647D02*
X204954393Y-90814123D01*
X204954393Y-90814123D02*
X204906774Y-90909361D01*
X204906774Y-90909361D02*
X204811536Y-91004600D01*
X204811536Y-91004600D02*
X204668679Y-91052219D01*
X204668679Y-91052219D02*
X204430584Y-91052219D01*
X205287727Y-90052219D02*
X205859155Y-90052219D01*
X205573441Y-91052219D02*
X205573441Y-90052219D01*
D12*
X161714661Y-155529238D02*
X163047994Y-155529238D01*
X163047994Y-155529238D02*
X161714661Y-157529238D01*
X161714661Y-157529238D02*
X163047994Y-157529238D01*
X164476566Y-156481619D02*
X164762280Y-156576857D01*
X164762280Y-156576857D02*
X164857518Y-156672095D01*
X164857518Y-156672095D02*
X164952756Y-156862571D01*
X164952756Y-156862571D02*
X164952756Y-157148285D01*
X164952756Y-157148285D02*
X164857518Y-157338761D01*
X164857518Y-157338761D02*
X164762280Y-157434000D01*
X164762280Y-157434000D02*
X164571804Y-157529238D01*
X164571804Y-157529238D02*
X163809899Y-157529238D01*
X163809899Y-157529238D02*
X163809899Y-155529238D01*
X163809899Y-155529238D02*
X164476566Y-155529238D01*
X164476566Y-155529238D02*
X164667042Y-155624476D01*
X164667042Y-155624476D02*
X164762280Y-155719714D01*
X164762280Y-155719714D02*
X164857518Y-155910190D01*
X164857518Y-155910190D02*
X164857518Y-156100666D01*
X164857518Y-156100666D02*
X164762280Y-156291142D01*
X164762280Y-156291142D02*
X164667042Y-156386380D01*
X164667042Y-156386380D02*
X164476566Y-156481619D01*
X164476566Y-156481619D02*
X163809899Y-156481619D01*
X165714661Y-155719714D02*
X165809899Y-155624476D01*
X165809899Y-155624476D02*
X166000375Y-155529238D01*
X166000375Y-155529238D02*
X166476566Y-155529238D01*
X166476566Y-155529238D02*
X166667042Y-155624476D01*
X166667042Y-155624476D02*
X166762280Y-155719714D01*
X166762280Y-155719714D02*
X166857518Y-155910190D01*
X166857518Y-155910190D02*
X166857518Y-156100666D01*
X166857518Y-156100666D02*
X166762280Y-156386380D01*
X166762280Y-156386380D02*
X165619423Y-157529238D01*
X165619423Y-157529238D02*
X166857518Y-157529238D01*
X168667042Y-155529238D02*
X167714661Y-155529238D01*
X167714661Y-155529238D02*
X167619423Y-156481619D01*
X167619423Y-156481619D02*
X167714661Y-156386380D01*
X167714661Y-156386380D02*
X167905137Y-156291142D01*
X167905137Y-156291142D02*
X168381328Y-156291142D01*
X168381328Y-156291142D02*
X168571804Y-156386380D01*
X168571804Y-156386380D02*
X168667042Y-156481619D01*
X168667042Y-156481619D02*
X168762280Y-156672095D01*
X168762280Y-156672095D02*
X168762280Y-157148285D01*
X168762280Y-157148285D02*
X168667042Y-157338761D01*
X168667042Y-157338761D02*
X168571804Y-157434000D01*
X168571804Y-157434000D02*
X168381328Y-157529238D01*
X168381328Y-157529238D02*
X167905137Y-157529238D01*
X167905137Y-157529238D02*
X167714661Y-157434000D01*
X167714661Y-157434000D02*
X167619423Y-157338761D01*
X169143233Y-157719714D02*
X170667042Y-157719714D01*
X170952757Y-155529238D02*
X171428947Y-157529238D01*
X171428947Y-157529238D02*
X171809900Y-156100666D01*
X171809900Y-156100666D02*
X172190852Y-157529238D01*
X172190852Y-157529238D02*
X172667043Y-155529238D01*
X174571804Y-157529238D02*
X173905137Y-156576857D01*
X173428947Y-157529238D02*
X173428947Y-155529238D01*
X173428947Y-155529238D02*
X174190852Y-155529238D01*
X174190852Y-155529238D02*
X174381328Y-155624476D01*
X174381328Y-155624476D02*
X174476566Y-155719714D01*
X174476566Y-155719714D02*
X174571804Y-155910190D01*
X174571804Y-155910190D02*
X174571804Y-156195904D01*
X174571804Y-156195904D02*
X174476566Y-156386380D01*
X174476566Y-156386380D02*
X174381328Y-156481619D01*
X174381328Y-156481619D02*
X174190852Y-156576857D01*
X174190852Y-156576857D02*
X173428947Y-156576857D01*
X175809899Y-155529238D02*
X176190852Y-155529238D01*
X176190852Y-155529238D02*
X176381328Y-155624476D01*
X176381328Y-155624476D02*
X176571804Y-155814952D01*
X176571804Y-155814952D02*
X176667042Y-156195904D01*
X176667042Y-156195904D02*
X176667042Y-156862571D01*
X176667042Y-156862571D02*
X176571804Y-157243523D01*
X176571804Y-157243523D02*
X176381328Y-157434000D01*
X176381328Y-157434000D02*
X176190852Y-157529238D01*
X176190852Y-157529238D02*
X175809899Y-157529238D01*
X175809899Y-157529238D02*
X175619423Y-157434000D01*
X175619423Y-157434000D02*
X175428947Y-157243523D01*
X175428947Y-157243523D02*
X175333709Y-156862571D01*
X175333709Y-156862571D02*
X175333709Y-156195904D01*
X175333709Y-156195904D02*
X175428947Y-155814952D01*
X175428947Y-155814952D02*
X175619423Y-155624476D01*
X175619423Y-155624476D02*
X175809899Y-155529238D01*
X177238471Y-155529238D02*
X177905137Y-157529238D01*
X177905137Y-157529238D02*
X178571804Y-155529238D01*
X179238471Y-156481619D02*
X179905138Y-156481619D01*
X180190852Y-157529238D02*
X179238471Y-157529238D01*
X179238471Y-157529238D02*
X179238471Y-155529238D01*
X179238471Y-155529238D02*
X180190852Y-155529238D01*
X182190852Y-157529238D02*
X181524185Y-156576857D01*
X181047995Y-157529238D02*
X181047995Y-155529238D01*
X181047995Y-155529238D02*
X181809900Y-155529238D01*
X181809900Y-155529238D02*
X182000376Y-155624476D01*
X182000376Y-155624476D02*
X182095614Y-155719714D01*
X182095614Y-155719714D02*
X182190852Y-155910190D01*
X182190852Y-155910190D02*
X182190852Y-156195904D01*
X182190852Y-156195904D02*
X182095614Y-156386380D01*
X182095614Y-156386380D02*
X182000376Y-156481619D01*
X182000376Y-156481619D02*
X181809900Y-156576857D01*
X181809900Y-156576857D02*
X181047995Y-156576857D01*
X183047995Y-156767333D02*
X184571805Y-156767333D01*
X185524185Y-157529238D02*
X185524185Y-155529238D01*
X185524185Y-155529238D02*
X186000375Y-155529238D01*
X186000375Y-155529238D02*
X186286090Y-155624476D01*
X186286090Y-155624476D02*
X186476566Y-155814952D01*
X186476566Y-155814952D02*
X186571804Y-156005428D01*
X186571804Y-156005428D02*
X186667042Y-156386380D01*
X186667042Y-156386380D02*
X186667042Y-156672095D01*
X186667042Y-156672095D02*
X186571804Y-157053047D01*
X186571804Y-157053047D02*
X186476566Y-157243523D01*
X186476566Y-157243523D02*
X186286090Y-157434000D01*
X186286090Y-157434000D02*
X186000375Y-157529238D01*
X186000375Y-157529238D02*
X185524185Y-157529238D01*
X187524185Y-156481619D02*
X188190852Y-156481619D01*
X188476566Y-157529238D02*
X187524185Y-157529238D01*
X187524185Y-157529238D02*
X187524185Y-155529238D01*
X187524185Y-155529238D02*
X188476566Y-155529238D01*
X189047995Y-155529238D02*
X189714661Y-157529238D01*
X189714661Y-157529238D02*
X190381328Y-155529238D01*
X190571805Y-157719714D02*
X192095614Y-157719714D01*
X192952757Y-155529238D02*
X193143234Y-155529238D01*
X193143234Y-155529238D02*
X193333710Y-155624476D01*
X193333710Y-155624476D02*
X193428948Y-155719714D01*
X193428948Y-155719714D02*
X193524186Y-155910190D01*
X193524186Y-155910190D02*
X193619424Y-156291142D01*
X193619424Y-156291142D02*
X193619424Y-156767333D01*
X193619424Y-156767333D02*
X193524186Y-157148285D01*
X193524186Y-157148285D02*
X193428948Y-157338761D01*
X193428948Y-157338761D02*
X193333710Y-157434000D01*
X193333710Y-157434000D02*
X193143234Y-157529238D01*
X193143234Y-157529238D02*
X192952757Y-157529238D01*
X192952757Y-157529238D02*
X192762281Y-157434000D01*
X192762281Y-157434000D02*
X192667043Y-157338761D01*
X192667043Y-157338761D02*
X192571805Y-157148285D01*
X192571805Y-157148285D02*
X192476567Y-156767333D01*
X192476567Y-156767333D02*
X192476567Y-156291142D01*
X192476567Y-156291142D02*
X192571805Y-155910190D01*
X192571805Y-155910190D02*
X192667043Y-155719714D01*
X192667043Y-155719714D02*
X192762281Y-155624476D01*
X192762281Y-155624476D02*
X192952757Y-155529238D01*
X195524186Y-157529238D02*
X194381329Y-157529238D01*
X194952757Y-157529238D02*
X194952757Y-155529238D01*
X194952757Y-155529238D02*
X194762281Y-155814952D01*
X194762281Y-155814952D02*
X194571805Y-156005428D01*
X194571805Y-156005428D02*
X194381329Y-156100666D01*
D10*
X205703936Y-123861114D02*
X206465841Y-123861114D01*
X205632878Y-72249316D02*
X206394783Y-72249316D01*
X205272719Y-140046266D02*
X206034624Y-140046266D01*
X142456980Y-128866666D02*
X142504600Y-128914285D01*
X142504600Y-128914285D02*
X142552219Y-129057142D01*
X142552219Y-129057142D02*
X142552219Y-129152380D01*
X142552219Y-129152380D02*
X142504600Y-129295237D01*
X142504600Y-129295237D02*
X142409361Y-129390475D01*
X142409361Y-129390475D02*
X142314123Y-129438094D01*
X142314123Y-129438094D02*
X142123647Y-129485713D01*
X142123647Y-129485713D02*
X141980790Y-129485713D01*
X141980790Y-129485713D02*
X141790314Y-129438094D01*
X141790314Y-129438094D02*
X141695076Y-129390475D01*
X141695076Y-129390475D02*
X141599838Y-129295237D01*
X141599838Y-129295237D02*
X141552219Y-129152380D01*
X141552219Y-129152380D02*
X141552219Y-129057142D01*
X141552219Y-129057142D02*
X141599838Y-128914285D01*
X141599838Y-128914285D02*
X141647457Y-128866666D01*
X141552219Y-128009523D02*
X141552219Y-128199999D01*
X141552219Y-128199999D02*
X141599838Y-128295237D01*
X141599838Y-128295237D02*
X141647457Y-128342856D01*
X141647457Y-128342856D02*
X141790314Y-128438094D01*
X141790314Y-128438094D02*
X141980790Y-128485713D01*
X141980790Y-128485713D02*
X142361742Y-128485713D01*
X142361742Y-128485713D02*
X142456980Y-128438094D01*
X142456980Y-128438094D02*
X142504600Y-128390475D01*
X142504600Y-128390475D02*
X142552219Y-128295237D01*
X142552219Y-128295237D02*
X142552219Y-128104761D01*
X142552219Y-128104761D02*
X142504600Y-128009523D01*
X142504600Y-128009523D02*
X142456980Y-127961904D01*
X142456980Y-127961904D02*
X142361742Y-127914285D01*
X142361742Y-127914285D02*
X142123647Y-127914285D01*
X142123647Y-127914285D02*
X142028409Y-127961904D01*
X142028409Y-127961904D02*
X141980790Y-128009523D01*
X141980790Y-128009523D02*
X141933171Y-128104761D01*
X141933171Y-128104761D02*
X141933171Y-128295237D01*
X141933171Y-128295237D02*
X141980790Y-128390475D01*
X141980790Y-128390475D02*
X142028409Y-128438094D01*
X142028409Y-128438094D02*
X142123647Y-128485713D01*
X140352219Y-128866666D02*
X140352219Y-129438094D01*
X140352219Y-129152380D02*
X139352219Y-129152380D01*
X139352219Y-129152380D02*
X139495076Y-129247618D01*
X139495076Y-129247618D02*
X139590314Y-129342856D01*
X139590314Y-129342856D02*
X139637933Y-129438094D01*
X139685552Y-128009523D02*
X140352219Y-128009523D01*
X139685552Y-128438094D02*
X140209361Y-128438094D01*
X140209361Y-128438094D02*
X140304600Y-128390475D01*
X140304600Y-128390475D02*
X140352219Y-128295237D01*
X140352219Y-128295237D02*
X140352219Y-128152380D01*
X140352219Y-128152380D02*
X140304600Y-128057142D01*
X140304600Y-128057142D02*
X140256980Y-128009523D01*
X159138095Y-132952219D02*
X159709523Y-132952219D01*
X159423809Y-133952219D02*
X159423809Y-132952219D01*
X160042857Y-133952219D02*
X160042857Y-132952219D01*
X160042857Y-132952219D02*
X160423809Y-132952219D01*
X160423809Y-132952219D02*
X160519047Y-132999838D01*
X160519047Y-132999838D02*
X160566666Y-133047457D01*
X160566666Y-133047457D02*
X160614285Y-133142695D01*
X160614285Y-133142695D02*
X160614285Y-133285552D01*
X160614285Y-133285552D02*
X160566666Y-133380790D01*
X160566666Y-133380790D02*
X160519047Y-133428409D01*
X160519047Y-133428409D02*
X160423809Y-133476028D01*
X160423809Y-133476028D02*
X160042857Y-133476028D01*
X161471428Y-132952219D02*
X161280952Y-132952219D01*
X161280952Y-132952219D02*
X161185714Y-132999838D01*
X161185714Y-132999838D02*
X161138095Y-133047457D01*
X161138095Y-133047457D02*
X161042857Y-133190314D01*
X161042857Y-133190314D02*
X160995238Y-133380790D01*
X160995238Y-133380790D02*
X160995238Y-133761742D01*
X160995238Y-133761742D02*
X161042857Y-133856980D01*
X161042857Y-133856980D02*
X161090476Y-133904600D01*
X161090476Y-133904600D02*
X161185714Y-133952219D01*
X161185714Y-133952219D02*
X161376190Y-133952219D01*
X161376190Y-133952219D02*
X161471428Y-133904600D01*
X161471428Y-133904600D02*
X161519047Y-133856980D01*
X161519047Y-133856980D02*
X161566666Y-133761742D01*
X161566666Y-133761742D02*
X161566666Y-133523647D01*
X161566666Y-133523647D02*
X161519047Y-133428409D01*
X161519047Y-133428409D02*
X161471428Y-133380790D01*
X161471428Y-133380790D02*
X161376190Y-133333171D01*
X161376190Y-133333171D02*
X161185714Y-133333171D01*
X161185714Y-133333171D02*
X161090476Y-133380790D01*
X161090476Y-133380790D02*
X161042857Y-133428409D01*
X161042857Y-133428409D02*
X160995238Y-133523647D01*
X157409524Y-138452219D02*
X158028571Y-138452219D01*
X158028571Y-138452219D02*
X157695238Y-138833171D01*
X157695238Y-138833171D02*
X157838095Y-138833171D01*
X157838095Y-138833171D02*
X157933333Y-138880790D01*
X157933333Y-138880790D02*
X157980952Y-138928409D01*
X157980952Y-138928409D02*
X158028571Y-139023647D01*
X158028571Y-139023647D02*
X158028571Y-139261742D01*
X158028571Y-139261742D02*
X157980952Y-139356980D01*
X157980952Y-139356980D02*
X157933333Y-139404600D01*
X157933333Y-139404600D02*
X157838095Y-139452219D01*
X157838095Y-139452219D02*
X157552381Y-139452219D01*
X157552381Y-139452219D02*
X157457143Y-139404600D01*
X157457143Y-139404600D02*
X157409524Y-139356980D01*
X158361905Y-138785552D02*
X158600000Y-139452219D01*
X158600000Y-139452219D02*
X158838095Y-138785552D01*
X159123810Y-138452219D02*
X159742857Y-138452219D01*
X159742857Y-138452219D02*
X159409524Y-138833171D01*
X159409524Y-138833171D02*
X159552381Y-138833171D01*
X159552381Y-138833171D02*
X159647619Y-138880790D01*
X159647619Y-138880790D02*
X159695238Y-138928409D01*
X159695238Y-138928409D02*
X159742857Y-139023647D01*
X159742857Y-139023647D02*
X159742857Y-139261742D01*
X159742857Y-139261742D02*
X159695238Y-139356980D01*
X159695238Y-139356980D02*
X159647619Y-139404600D01*
X159647619Y-139404600D02*
X159552381Y-139452219D01*
X159552381Y-139452219D02*
X159266667Y-139452219D01*
X159266667Y-139452219D02*
X159171429Y-139404600D01*
X159171429Y-139404600D02*
X159123810Y-139356980D01*
X142938095Y-156452219D02*
X143509523Y-156452219D01*
X143223809Y-157452219D02*
X143223809Y-156452219D01*
X143842857Y-157452219D02*
X143842857Y-156452219D01*
X143842857Y-156452219D02*
X144223809Y-156452219D01*
X144223809Y-156452219D02*
X144319047Y-156499838D01*
X144319047Y-156499838D02*
X144366666Y-156547457D01*
X144366666Y-156547457D02*
X144414285Y-156642695D01*
X144414285Y-156642695D02*
X144414285Y-156785552D01*
X144414285Y-156785552D02*
X144366666Y-156880790D01*
X144366666Y-156880790D02*
X144319047Y-156928409D01*
X144319047Y-156928409D02*
X144223809Y-156976028D01*
X144223809Y-156976028D02*
X143842857Y-156976028D01*
X144985714Y-156880790D02*
X144890476Y-156833171D01*
X144890476Y-156833171D02*
X144842857Y-156785552D01*
X144842857Y-156785552D02*
X144795238Y-156690314D01*
X144795238Y-156690314D02*
X144795238Y-156642695D01*
X144795238Y-156642695D02*
X144842857Y-156547457D01*
X144842857Y-156547457D02*
X144890476Y-156499838D01*
X144890476Y-156499838D02*
X144985714Y-156452219D01*
X144985714Y-156452219D02*
X145176190Y-156452219D01*
X145176190Y-156452219D02*
X145271428Y-156499838D01*
X145271428Y-156499838D02*
X145319047Y-156547457D01*
X145319047Y-156547457D02*
X145366666Y-156642695D01*
X145366666Y-156642695D02*
X145366666Y-156690314D01*
X145366666Y-156690314D02*
X145319047Y-156785552D01*
X145319047Y-156785552D02*
X145271428Y-156833171D01*
X145271428Y-156833171D02*
X145176190Y-156880790D01*
X145176190Y-156880790D02*
X144985714Y-156880790D01*
X144985714Y-156880790D02*
X144890476Y-156928409D01*
X144890476Y-156928409D02*
X144842857Y-156976028D01*
X144842857Y-156976028D02*
X144795238Y-157071266D01*
X144795238Y-157071266D02*
X144795238Y-157261742D01*
X144795238Y-157261742D02*
X144842857Y-157356980D01*
X144842857Y-157356980D02*
X144890476Y-157404600D01*
X144890476Y-157404600D02*
X144985714Y-157452219D01*
X144985714Y-157452219D02*
X145176190Y-157452219D01*
X145176190Y-157452219D02*
X145271428Y-157404600D01*
X145271428Y-157404600D02*
X145319047Y-157356980D01*
X145319047Y-157356980D02*
X145366666Y-157261742D01*
X145366666Y-157261742D02*
X145366666Y-157071266D01*
X145366666Y-157071266D02*
X145319047Y-156976028D01*
X145319047Y-156976028D02*
X145271428Y-156928409D01*
X145271428Y-156928409D02*
X145176190Y-156880790D01*
X148233333Y-159002219D02*
X147757143Y-159002219D01*
X147757143Y-159002219D02*
X147709524Y-159478409D01*
X147709524Y-159478409D02*
X147757143Y-159430790D01*
X147757143Y-159430790D02*
X147852381Y-159383171D01*
X147852381Y-159383171D02*
X148090476Y-159383171D01*
X148090476Y-159383171D02*
X148185714Y-159430790D01*
X148185714Y-159430790D02*
X148233333Y-159478409D01*
X148233333Y-159478409D02*
X148280952Y-159573647D01*
X148280952Y-159573647D02*
X148280952Y-159811742D01*
X148280952Y-159811742D02*
X148233333Y-159906980D01*
X148233333Y-159906980D02*
X148185714Y-159954600D01*
X148185714Y-159954600D02*
X148090476Y-160002219D01*
X148090476Y-160002219D02*
X147852381Y-160002219D01*
X147852381Y-160002219D02*
X147757143Y-159954600D01*
X147757143Y-159954600D02*
X147709524Y-159906980D01*
X148566667Y-159002219D02*
X148900000Y-160002219D01*
X148900000Y-160002219D02*
X149233333Y-159002219D01*
X150042857Y-159002219D02*
X149566667Y-159002219D01*
X149566667Y-159002219D02*
X149519048Y-159478409D01*
X149519048Y-159478409D02*
X149566667Y-159430790D01*
X149566667Y-159430790D02*
X149661905Y-159383171D01*
X149661905Y-159383171D02*
X149900000Y-159383171D01*
X149900000Y-159383171D02*
X149995238Y-159430790D01*
X149995238Y-159430790D02*
X150042857Y-159478409D01*
X150042857Y-159478409D02*
X150090476Y-159573647D01*
X150090476Y-159573647D02*
X150090476Y-159811742D01*
X150090476Y-159811742D02*
X150042857Y-159906980D01*
X150042857Y-159906980D02*
X149995238Y-159954600D01*
X149995238Y-159954600D02*
X149900000Y-160002219D01*
X149900000Y-160002219D02*
X149661905Y-160002219D01*
X149661905Y-160002219D02*
X149566667Y-159954600D01*
X149566667Y-159954600D02*
X149519048Y-159906980D01*
X123933333Y-159422219D02*
X123600000Y-158946028D01*
X123361905Y-159422219D02*
X123361905Y-158422219D01*
X123361905Y-158422219D02*
X123742857Y-158422219D01*
X123742857Y-158422219D02*
X123838095Y-158469838D01*
X123838095Y-158469838D02*
X123885714Y-158517457D01*
X123885714Y-158517457D02*
X123933333Y-158612695D01*
X123933333Y-158612695D02*
X123933333Y-158755552D01*
X123933333Y-158755552D02*
X123885714Y-158850790D01*
X123885714Y-158850790D02*
X123838095Y-158898409D01*
X123838095Y-158898409D02*
X123742857Y-158946028D01*
X123742857Y-158946028D02*
X123361905Y-158946028D01*
X124790476Y-158422219D02*
X124600000Y-158422219D01*
X124600000Y-158422219D02*
X124504762Y-158469838D01*
X124504762Y-158469838D02*
X124457143Y-158517457D01*
X124457143Y-158517457D02*
X124361905Y-158660314D01*
X124361905Y-158660314D02*
X124314286Y-158850790D01*
X124314286Y-158850790D02*
X124314286Y-159231742D01*
X124314286Y-159231742D02*
X124361905Y-159326980D01*
X124361905Y-159326980D02*
X124409524Y-159374600D01*
X124409524Y-159374600D02*
X124504762Y-159422219D01*
X124504762Y-159422219D02*
X124695238Y-159422219D01*
X124695238Y-159422219D02*
X124790476Y-159374600D01*
X124790476Y-159374600D02*
X124838095Y-159326980D01*
X124838095Y-159326980D02*
X124885714Y-159231742D01*
X124885714Y-159231742D02*
X124885714Y-158993647D01*
X124885714Y-158993647D02*
X124838095Y-158898409D01*
X124838095Y-158898409D02*
X124790476Y-158850790D01*
X124790476Y-158850790D02*
X124695238Y-158803171D01*
X124695238Y-158803171D02*
X124504762Y-158803171D01*
X124504762Y-158803171D02*
X124409524Y-158850790D01*
X124409524Y-158850790D02*
X124361905Y-158898409D01*
X124361905Y-158898409D02*
X124314286Y-158993647D01*
X123052381Y-156372096D02*
X122957143Y-156324477D01*
X122957143Y-156324477D02*
X122909524Y-156276858D01*
X122909524Y-156276858D02*
X122861905Y-156181620D01*
X122861905Y-156181620D02*
X122861905Y-156134001D01*
X122861905Y-156134001D02*
X122909524Y-156038763D01*
X122909524Y-156038763D02*
X122957143Y-155991144D01*
X122957143Y-155991144D02*
X123052381Y-155943525D01*
X123052381Y-155943525D02*
X123242857Y-155943525D01*
X123242857Y-155943525D02*
X123338095Y-155991144D01*
X123338095Y-155991144D02*
X123385714Y-156038763D01*
X123385714Y-156038763D02*
X123433333Y-156134001D01*
X123433333Y-156134001D02*
X123433333Y-156181620D01*
X123433333Y-156181620D02*
X123385714Y-156276858D01*
X123385714Y-156276858D02*
X123338095Y-156324477D01*
X123338095Y-156324477D02*
X123242857Y-156372096D01*
X123242857Y-156372096D02*
X123052381Y-156372096D01*
X123052381Y-156372096D02*
X122957143Y-156419715D01*
X122957143Y-156419715D02*
X122909524Y-156467334D01*
X122909524Y-156467334D02*
X122861905Y-156562572D01*
X122861905Y-156562572D02*
X122861905Y-156753048D01*
X122861905Y-156753048D02*
X122909524Y-156848286D01*
X122909524Y-156848286D02*
X122957143Y-156895906D01*
X122957143Y-156895906D02*
X123052381Y-156943525D01*
X123052381Y-156943525D02*
X123242857Y-156943525D01*
X123242857Y-156943525D02*
X123338095Y-156895906D01*
X123338095Y-156895906D02*
X123385714Y-156848286D01*
X123385714Y-156848286D02*
X123433333Y-156753048D01*
X123433333Y-156753048D02*
X123433333Y-156562572D01*
X123433333Y-156562572D02*
X123385714Y-156467334D01*
X123385714Y-156467334D02*
X123338095Y-156419715D01*
X123338095Y-156419715D02*
X123242857Y-156372096D01*
X124052381Y-155943525D02*
X124147619Y-155943525D01*
X124147619Y-155943525D02*
X124242857Y-155991144D01*
X124242857Y-155991144D02*
X124290476Y-156038763D01*
X124290476Y-156038763D02*
X124338095Y-156134001D01*
X124338095Y-156134001D02*
X124385714Y-156324477D01*
X124385714Y-156324477D02*
X124385714Y-156562572D01*
X124385714Y-156562572D02*
X124338095Y-156753048D01*
X124338095Y-156753048D02*
X124290476Y-156848286D01*
X124290476Y-156848286D02*
X124242857Y-156895906D01*
X124242857Y-156895906D02*
X124147619Y-156943525D01*
X124147619Y-156943525D02*
X124052381Y-156943525D01*
X124052381Y-156943525D02*
X123957143Y-156895906D01*
X123957143Y-156895906D02*
X123909524Y-156848286D01*
X123909524Y-156848286D02*
X123861905Y-156753048D01*
X123861905Y-156753048D02*
X123814286Y-156562572D01*
X123814286Y-156562572D02*
X123814286Y-156324477D01*
X123814286Y-156324477D02*
X123861905Y-156134001D01*
X123861905Y-156134001D02*
X123909524Y-156038763D01*
X123909524Y-156038763D02*
X123957143Y-155991144D01*
X123957143Y-155991144D02*
X124052381Y-155943525D01*
X125004762Y-155943525D02*
X125100000Y-155943525D01*
X125100000Y-155943525D02*
X125195238Y-155991144D01*
X125195238Y-155991144D02*
X125242857Y-156038763D01*
X125242857Y-156038763D02*
X125290476Y-156134001D01*
X125290476Y-156134001D02*
X125338095Y-156324477D01*
X125338095Y-156324477D02*
X125338095Y-156562572D01*
X125338095Y-156562572D02*
X125290476Y-156753048D01*
X125290476Y-156753048D02*
X125242857Y-156848286D01*
X125242857Y-156848286D02*
X125195238Y-156895906D01*
X125195238Y-156895906D02*
X125100000Y-156943525D01*
X125100000Y-156943525D02*
X125004762Y-156943525D01*
X125004762Y-156943525D02*
X124909524Y-156895906D01*
X124909524Y-156895906D02*
X124861905Y-156848286D01*
X124861905Y-156848286D02*
X124814286Y-156753048D01*
X124814286Y-156753048D02*
X124766667Y-156562572D01*
X124766667Y-156562572D02*
X124766667Y-156324477D01*
X124766667Y-156324477D02*
X124814286Y-156134001D01*
X124814286Y-156134001D02*
X124861905Y-156038763D01*
X124861905Y-156038763D02*
X124909524Y-155991144D01*
X124909524Y-155991144D02*
X125004762Y-155943525D01*
X164638095Y-59952219D02*
X164638095Y-60761742D01*
X164638095Y-60761742D02*
X164685714Y-60856980D01*
X164685714Y-60856980D02*
X164733333Y-60904600D01*
X164733333Y-60904600D02*
X164828571Y-60952219D01*
X164828571Y-60952219D02*
X165019047Y-60952219D01*
X165019047Y-60952219D02*
X165114285Y-60904600D01*
X165114285Y-60904600D02*
X165161904Y-60856980D01*
X165161904Y-60856980D02*
X165209523Y-60761742D01*
X165209523Y-60761742D02*
X165209523Y-59952219D01*
X166114285Y-59952219D02*
X165923809Y-59952219D01*
X165923809Y-59952219D02*
X165828571Y-59999838D01*
X165828571Y-59999838D02*
X165780952Y-60047457D01*
X165780952Y-60047457D02*
X165685714Y-60190314D01*
X165685714Y-60190314D02*
X165638095Y-60380790D01*
X165638095Y-60380790D02*
X165638095Y-60761742D01*
X165638095Y-60761742D02*
X165685714Y-60856980D01*
X165685714Y-60856980D02*
X165733333Y-60904600D01*
X165733333Y-60904600D02*
X165828571Y-60952219D01*
X165828571Y-60952219D02*
X166019047Y-60952219D01*
X166019047Y-60952219D02*
X166114285Y-60904600D01*
X166114285Y-60904600D02*
X166161904Y-60856980D01*
X166161904Y-60856980D02*
X166209523Y-60761742D01*
X166209523Y-60761742D02*
X166209523Y-60523647D01*
X166209523Y-60523647D02*
X166161904Y-60428409D01*
X166161904Y-60428409D02*
X166114285Y-60380790D01*
X166114285Y-60380790D02*
X166019047Y-60333171D01*
X166019047Y-60333171D02*
X165828571Y-60333171D01*
X165828571Y-60333171D02*
X165733333Y-60380790D01*
X165733333Y-60380790D02*
X165685714Y-60428409D01*
X165685714Y-60428409D02*
X165638095Y-60523647D01*
X119383333Y-89256980D02*
X119335714Y-89304600D01*
X119335714Y-89304600D02*
X119192857Y-89352219D01*
X119192857Y-89352219D02*
X119097619Y-89352219D01*
X119097619Y-89352219D02*
X118954762Y-89304600D01*
X118954762Y-89304600D02*
X118859524Y-89209361D01*
X118859524Y-89209361D02*
X118811905Y-89114123D01*
X118811905Y-89114123D02*
X118764286Y-88923647D01*
X118764286Y-88923647D02*
X118764286Y-88780790D01*
X118764286Y-88780790D02*
X118811905Y-88590314D01*
X118811905Y-88590314D02*
X118859524Y-88495076D01*
X118859524Y-88495076D02*
X118954762Y-88399838D01*
X118954762Y-88399838D02*
X119097619Y-88352219D01*
X119097619Y-88352219D02*
X119192857Y-88352219D01*
X119192857Y-88352219D02*
X119335714Y-88399838D01*
X119335714Y-88399838D02*
X119383333Y-88447457D01*
X120335714Y-89352219D02*
X119764286Y-89352219D01*
X120050000Y-89352219D02*
X120050000Y-88352219D01*
X120050000Y-88352219D02*
X119954762Y-88495076D01*
X119954762Y-88495076D02*
X119859524Y-88590314D01*
X119859524Y-88590314D02*
X119764286Y-88637933D01*
X119483333Y-98252219D02*
X118911905Y-98252219D01*
X119197619Y-98252219D02*
X119197619Y-97252219D01*
X119197619Y-97252219D02*
X119102381Y-97395076D01*
X119102381Y-97395076D02*
X119007143Y-97490314D01*
X119007143Y-97490314D02*
X118911905Y-97537933D01*
X120340476Y-97585552D02*
X120340476Y-98252219D01*
X119911905Y-97585552D02*
X119911905Y-98109361D01*
X119911905Y-98109361D02*
X119959524Y-98204600D01*
X119959524Y-98204600D02*
X120054762Y-98252219D01*
X120054762Y-98252219D02*
X120197619Y-98252219D01*
X120197619Y-98252219D02*
X120292857Y-98204600D01*
X120292857Y-98204600D02*
X120340476Y-98156980D01*
X210390476Y-79028409D02*
X210533333Y-79076028D01*
X210533333Y-79076028D02*
X210580952Y-79123647D01*
X210580952Y-79123647D02*
X210628571Y-79218885D01*
X210628571Y-79218885D02*
X210628571Y-79361742D01*
X210628571Y-79361742D02*
X210580952Y-79456980D01*
X210580952Y-79456980D02*
X210533333Y-79504600D01*
X210533333Y-79504600D02*
X210438095Y-79552219D01*
X210438095Y-79552219D02*
X210057143Y-79552219D01*
X210057143Y-79552219D02*
X210057143Y-78552219D01*
X210057143Y-78552219D02*
X210390476Y-78552219D01*
X210390476Y-78552219D02*
X210485714Y-78599838D01*
X210485714Y-78599838D02*
X210533333Y-78647457D01*
X210533333Y-78647457D02*
X210580952Y-78742695D01*
X210580952Y-78742695D02*
X210580952Y-78837933D01*
X210580952Y-78837933D02*
X210533333Y-78933171D01*
X210533333Y-78933171D02*
X210485714Y-78980790D01*
X210485714Y-78980790D02*
X210390476Y-79028409D01*
X210390476Y-79028409D02*
X210057143Y-79028409D01*
X211390476Y-79028409D02*
X211533333Y-79076028D01*
X211533333Y-79076028D02*
X211580952Y-79123647D01*
X211580952Y-79123647D02*
X211628571Y-79218885D01*
X211628571Y-79218885D02*
X211628571Y-79361742D01*
X211628571Y-79361742D02*
X211580952Y-79456980D01*
X211580952Y-79456980D02*
X211533333Y-79504600D01*
X211533333Y-79504600D02*
X211438095Y-79552219D01*
X211438095Y-79552219D02*
X211057143Y-79552219D01*
X211057143Y-79552219D02*
X211057143Y-78552219D01*
X211057143Y-78552219D02*
X211390476Y-78552219D01*
X211390476Y-78552219D02*
X211485714Y-78599838D01*
X211485714Y-78599838D02*
X211533333Y-78647457D01*
X211533333Y-78647457D02*
X211580952Y-78742695D01*
X211580952Y-78742695D02*
X211580952Y-78837933D01*
X211580952Y-78837933D02*
X211533333Y-78933171D01*
X211533333Y-78933171D02*
X211485714Y-78980790D01*
X211485714Y-78980790D02*
X211390476Y-79028409D01*
X211390476Y-79028409D02*
X211057143Y-79028409D01*
X211819048Y-79647457D02*
X212580952Y-79647457D01*
X213390476Y-79552219D02*
X213057143Y-79076028D01*
X212819048Y-79552219D02*
X212819048Y-78552219D01*
X212819048Y-78552219D02*
X213200000Y-78552219D01*
X213200000Y-78552219D02*
X213295238Y-78599838D01*
X213295238Y-78599838D02*
X213342857Y-78647457D01*
X213342857Y-78647457D02*
X213390476Y-78742695D01*
X213390476Y-78742695D02*
X213390476Y-78885552D01*
X213390476Y-78885552D02*
X213342857Y-78980790D01*
X213342857Y-78980790D02*
X213295238Y-79028409D01*
X213295238Y-79028409D02*
X213200000Y-79076028D01*
X213200000Y-79076028D02*
X212819048Y-79076028D01*
X125733333Y-94302219D02*
X125400000Y-93826028D01*
X125161905Y-94302219D02*
X125161905Y-93302219D01*
X125161905Y-93302219D02*
X125542857Y-93302219D01*
X125542857Y-93302219D02*
X125638095Y-93349838D01*
X125638095Y-93349838D02*
X125685714Y-93397457D01*
X125685714Y-93397457D02*
X125733333Y-93492695D01*
X125733333Y-93492695D02*
X125733333Y-93635552D01*
X125733333Y-93635552D02*
X125685714Y-93730790D01*
X125685714Y-93730790D02*
X125638095Y-93778409D01*
X125638095Y-93778409D02*
X125542857Y-93826028D01*
X125542857Y-93826028D02*
X125161905Y-93826028D01*
X126685714Y-94302219D02*
X126114286Y-94302219D01*
X126400000Y-94302219D02*
X126400000Y-93302219D01*
X126400000Y-93302219D02*
X126304762Y-93445076D01*
X126304762Y-93445076D02*
X126209524Y-93540314D01*
X126209524Y-93540314D02*
X126114286Y-93587933D01*
X126352219Y-96595238D02*
X126352219Y-97166666D01*
X126352219Y-96880952D02*
X125352219Y-96880952D01*
X125352219Y-96880952D02*
X125495076Y-96976190D01*
X125495076Y-96976190D02*
X125590314Y-97071428D01*
X125590314Y-97071428D02*
X125637933Y-97166666D01*
X125352219Y-95976190D02*
X125352219Y-95880952D01*
X125352219Y-95880952D02*
X125399838Y-95785714D01*
X125399838Y-95785714D02*
X125447457Y-95738095D01*
X125447457Y-95738095D02*
X125542695Y-95690476D01*
X125542695Y-95690476D02*
X125733171Y-95642857D01*
X125733171Y-95642857D02*
X125971266Y-95642857D01*
X125971266Y-95642857D02*
X126161742Y-95690476D01*
X126161742Y-95690476D02*
X126256980Y-95738095D01*
X126256980Y-95738095D02*
X126304600Y-95785714D01*
X126304600Y-95785714D02*
X126352219Y-95880952D01*
X126352219Y-95880952D02*
X126352219Y-95976190D01*
X126352219Y-95976190D02*
X126304600Y-96071428D01*
X126304600Y-96071428D02*
X126256980Y-96119047D01*
X126256980Y-96119047D02*
X126161742Y-96166666D01*
X126161742Y-96166666D02*
X125971266Y-96214285D01*
X125971266Y-96214285D02*
X125733171Y-96214285D01*
X125733171Y-96214285D02*
X125542695Y-96166666D01*
X125542695Y-96166666D02*
X125447457Y-96119047D01*
X125447457Y-96119047D02*
X125399838Y-96071428D01*
X125399838Y-96071428D02*
X125352219Y-95976190D01*
X126352219Y-95214285D02*
X125352219Y-95214285D01*
X125971266Y-95119047D02*
X126352219Y-94833333D01*
X125685552Y-94833333D02*
X126066504Y-95214285D01*
X209309523Y-63328409D02*
X209452380Y-63376028D01*
X209452380Y-63376028D02*
X209499999Y-63423647D01*
X209499999Y-63423647D02*
X209547618Y-63518885D01*
X209547618Y-63518885D02*
X209547618Y-63661742D01*
X209547618Y-63661742D02*
X209499999Y-63756980D01*
X209499999Y-63756980D02*
X209452380Y-63804600D01*
X209452380Y-63804600D02*
X209357142Y-63852219D01*
X209357142Y-63852219D02*
X208976190Y-63852219D01*
X208976190Y-63852219D02*
X208976190Y-62852219D01*
X208976190Y-62852219D02*
X209309523Y-62852219D01*
X209309523Y-62852219D02*
X209404761Y-62899838D01*
X209404761Y-62899838D02*
X209452380Y-62947457D01*
X209452380Y-62947457D02*
X209499999Y-63042695D01*
X209499999Y-63042695D02*
X209499999Y-63137933D01*
X209499999Y-63137933D02*
X209452380Y-63233171D01*
X209452380Y-63233171D02*
X209404761Y-63280790D01*
X209404761Y-63280790D02*
X209309523Y-63328409D01*
X209309523Y-63328409D02*
X208976190Y-63328409D01*
X210309523Y-63328409D02*
X210452380Y-63376028D01*
X210452380Y-63376028D02*
X210499999Y-63423647D01*
X210499999Y-63423647D02*
X210547618Y-63518885D01*
X210547618Y-63518885D02*
X210547618Y-63661742D01*
X210547618Y-63661742D02*
X210499999Y-63756980D01*
X210499999Y-63756980D02*
X210452380Y-63804600D01*
X210452380Y-63804600D02*
X210357142Y-63852219D01*
X210357142Y-63852219D02*
X209976190Y-63852219D01*
X209976190Y-63852219D02*
X209976190Y-62852219D01*
X209976190Y-62852219D02*
X210309523Y-62852219D01*
X210309523Y-62852219D02*
X210404761Y-62899838D01*
X210404761Y-62899838D02*
X210452380Y-62947457D01*
X210452380Y-62947457D02*
X210499999Y-63042695D01*
X210499999Y-63042695D02*
X210499999Y-63137933D01*
X210499999Y-63137933D02*
X210452380Y-63233171D01*
X210452380Y-63233171D02*
X210404761Y-63280790D01*
X210404761Y-63280790D02*
X210309523Y-63328409D01*
X210309523Y-63328409D02*
X209976190Y-63328409D01*
X210738095Y-63947457D02*
X211499999Y-63947457D01*
X211595238Y-62852219D02*
X212166666Y-62852219D01*
X211880952Y-63852219D02*
X211880952Y-62852219D01*
X159631980Y-128286666D02*
X159679600Y-128334285D01*
X159679600Y-128334285D02*
X159727219Y-128477142D01*
X159727219Y-128477142D02*
X159727219Y-128572380D01*
X159727219Y-128572380D02*
X159679600Y-128715237D01*
X159679600Y-128715237D02*
X159584361Y-128810475D01*
X159584361Y-128810475D02*
X159489123Y-128858094D01*
X159489123Y-128858094D02*
X159298647Y-128905713D01*
X159298647Y-128905713D02*
X159155790Y-128905713D01*
X159155790Y-128905713D02*
X158965314Y-128858094D01*
X158965314Y-128858094D02*
X158870076Y-128810475D01*
X158870076Y-128810475D02*
X158774838Y-128715237D01*
X158774838Y-128715237D02*
X158727219Y-128572380D01*
X158727219Y-128572380D02*
X158727219Y-128477142D01*
X158727219Y-128477142D02*
X158774838Y-128334285D01*
X158774838Y-128334285D02*
X158822457Y-128286666D01*
X158822457Y-127905713D02*
X158774838Y-127858094D01*
X158774838Y-127858094D02*
X158727219Y-127762856D01*
X158727219Y-127762856D02*
X158727219Y-127524761D01*
X158727219Y-127524761D02*
X158774838Y-127429523D01*
X158774838Y-127429523D02*
X158822457Y-127381904D01*
X158822457Y-127381904D02*
X158917695Y-127334285D01*
X158917695Y-127334285D02*
X159012933Y-127334285D01*
X159012933Y-127334285D02*
X159155790Y-127381904D01*
X159155790Y-127381904D02*
X159727219Y-127953332D01*
X159727219Y-127953332D02*
X159727219Y-127334285D01*
X156727219Y-129334285D02*
X156727219Y-129239047D01*
X156727219Y-129239047D02*
X156774838Y-129143809D01*
X156774838Y-129143809D02*
X156822457Y-129096190D01*
X156822457Y-129096190D02*
X156917695Y-129048571D01*
X156917695Y-129048571D02*
X157108171Y-129000952D01*
X157108171Y-129000952D02*
X157346266Y-129000952D01*
X157346266Y-129000952D02*
X157536742Y-129048571D01*
X157536742Y-129048571D02*
X157631980Y-129096190D01*
X157631980Y-129096190D02*
X157679600Y-129143809D01*
X157679600Y-129143809D02*
X157727219Y-129239047D01*
X157727219Y-129239047D02*
X157727219Y-129334285D01*
X157727219Y-129334285D02*
X157679600Y-129429523D01*
X157679600Y-129429523D02*
X157631980Y-129477142D01*
X157631980Y-129477142D02*
X157536742Y-129524761D01*
X157536742Y-129524761D02*
X157346266Y-129572380D01*
X157346266Y-129572380D02*
X157108171Y-129572380D01*
X157108171Y-129572380D02*
X156917695Y-129524761D01*
X156917695Y-129524761D02*
X156822457Y-129477142D01*
X156822457Y-129477142D02*
X156774838Y-129429523D01*
X156774838Y-129429523D02*
X156727219Y-129334285D01*
X157631980Y-128572380D02*
X157679600Y-128524761D01*
X157679600Y-128524761D02*
X157727219Y-128572380D01*
X157727219Y-128572380D02*
X157679600Y-128619999D01*
X157679600Y-128619999D02*
X157631980Y-128572380D01*
X157631980Y-128572380D02*
X157727219Y-128572380D01*
X157727219Y-127572381D02*
X157727219Y-128143809D01*
X157727219Y-127858095D02*
X156727219Y-127858095D01*
X156727219Y-127858095D02*
X156870076Y-127953333D01*
X156870076Y-127953333D02*
X156965314Y-128048571D01*
X156965314Y-128048571D02*
X157012933Y-128143809D01*
X157060552Y-126715238D02*
X157727219Y-126715238D01*
X157060552Y-127143809D02*
X157584361Y-127143809D01*
X157584361Y-127143809D02*
X157679600Y-127096190D01*
X157679600Y-127096190D02*
X157727219Y-127000952D01*
X157727219Y-127000952D02*
X157727219Y-126858095D01*
X157727219Y-126858095D02*
X157679600Y-126762857D01*
X157679600Y-126762857D02*
X157631980Y-126715238D01*
X202052219Y-48266666D02*
X201576028Y-48599999D01*
X202052219Y-48838094D02*
X201052219Y-48838094D01*
X201052219Y-48838094D02*
X201052219Y-48457142D01*
X201052219Y-48457142D02*
X201099838Y-48361904D01*
X201099838Y-48361904D02*
X201147457Y-48314285D01*
X201147457Y-48314285D02*
X201242695Y-48266666D01*
X201242695Y-48266666D02*
X201385552Y-48266666D01*
X201385552Y-48266666D02*
X201480790Y-48314285D01*
X201480790Y-48314285D02*
X201528409Y-48361904D01*
X201528409Y-48361904D02*
X201576028Y-48457142D01*
X201576028Y-48457142D02*
X201576028Y-48838094D01*
X201052219Y-47933332D02*
X201052219Y-47266666D01*
X201052219Y-47266666D02*
X202052219Y-47695237D01*
X204752219Y-49175238D02*
X204752219Y-49746666D01*
X204752219Y-49460952D02*
X203752219Y-49460952D01*
X203752219Y-49460952D02*
X203895076Y-49556190D01*
X203895076Y-49556190D02*
X203990314Y-49651428D01*
X203990314Y-49651428D02*
X204037933Y-49746666D01*
X203752219Y-48556190D02*
X203752219Y-48460952D01*
X203752219Y-48460952D02*
X203799838Y-48365714D01*
X203799838Y-48365714D02*
X203847457Y-48318095D01*
X203847457Y-48318095D02*
X203942695Y-48270476D01*
X203942695Y-48270476D02*
X204133171Y-48222857D01*
X204133171Y-48222857D02*
X204371266Y-48222857D01*
X204371266Y-48222857D02*
X204561742Y-48270476D01*
X204561742Y-48270476D02*
X204656980Y-48318095D01*
X204656980Y-48318095D02*
X204704600Y-48365714D01*
X204704600Y-48365714D02*
X204752219Y-48460952D01*
X204752219Y-48460952D02*
X204752219Y-48556190D01*
X204752219Y-48556190D02*
X204704600Y-48651428D01*
X204704600Y-48651428D02*
X204656980Y-48699047D01*
X204656980Y-48699047D02*
X204561742Y-48746666D01*
X204561742Y-48746666D02*
X204371266Y-48794285D01*
X204371266Y-48794285D02*
X204133171Y-48794285D01*
X204133171Y-48794285D02*
X203942695Y-48746666D01*
X203942695Y-48746666D02*
X203847457Y-48699047D01*
X203847457Y-48699047D02*
X203799838Y-48651428D01*
X203799838Y-48651428D02*
X203752219Y-48556190D01*
X204752219Y-47794285D02*
X203752219Y-47794285D01*
X204371266Y-47699047D02*
X204752219Y-47413333D01*
X204085552Y-47413333D02*
X204466504Y-47794285D01*
X207995238Y-152352219D02*
X207995238Y-151352219D01*
X207995238Y-151352219D02*
X208328571Y-152066504D01*
X208328571Y-152066504D02*
X208661904Y-151352219D01*
X208661904Y-151352219D02*
X208661904Y-152352219D01*
X209566666Y-152352219D02*
X209566666Y-151828409D01*
X209566666Y-151828409D02*
X209519047Y-151733171D01*
X209519047Y-151733171D02*
X209423809Y-151685552D01*
X209423809Y-151685552D02*
X209233333Y-151685552D01*
X209233333Y-151685552D02*
X209138095Y-151733171D01*
X209566666Y-152304600D02*
X209471428Y-152352219D01*
X209471428Y-152352219D02*
X209233333Y-152352219D01*
X209233333Y-152352219D02*
X209138095Y-152304600D01*
X209138095Y-152304600D02*
X209090476Y-152209361D01*
X209090476Y-152209361D02*
X209090476Y-152114123D01*
X209090476Y-152114123D02*
X209138095Y-152018885D01*
X209138095Y-152018885D02*
X209233333Y-151971266D01*
X209233333Y-151971266D02*
X209471428Y-151971266D01*
X209471428Y-151971266D02*
X209566666Y-151923647D01*
X210042857Y-152352219D02*
X210042857Y-151685552D01*
X210042857Y-151352219D02*
X209995238Y-151399838D01*
X209995238Y-151399838D02*
X210042857Y-151447457D01*
X210042857Y-151447457D02*
X210090476Y-151399838D01*
X210090476Y-151399838D02*
X210042857Y-151352219D01*
X210042857Y-151352219D02*
X210042857Y-151447457D01*
X210519047Y-151685552D02*
X210519047Y-152352219D01*
X210519047Y-151780790D02*
X210566666Y-151733171D01*
X210566666Y-151733171D02*
X210661904Y-151685552D01*
X210661904Y-151685552D02*
X210804761Y-151685552D01*
X210804761Y-151685552D02*
X210899999Y-151733171D01*
X210899999Y-151733171D02*
X210947618Y-151828409D01*
X210947618Y-151828409D02*
X210947618Y-152352219D01*
X211185714Y-152447457D02*
X211947618Y-152447457D01*
X212138095Y-152304600D02*
X212280952Y-152352219D01*
X212280952Y-152352219D02*
X212519047Y-152352219D01*
X212519047Y-152352219D02*
X212614285Y-152304600D01*
X212614285Y-152304600D02*
X212661904Y-152256980D01*
X212661904Y-152256980D02*
X212709523Y-152161742D01*
X212709523Y-152161742D02*
X212709523Y-152066504D01*
X212709523Y-152066504D02*
X212661904Y-151971266D01*
X212661904Y-151971266D02*
X212614285Y-151923647D01*
X212614285Y-151923647D02*
X212519047Y-151876028D01*
X212519047Y-151876028D02*
X212328571Y-151828409D01*
X212328571Y-151828409D02*
X212233333Y-151780790D01*
X212233333Y-151780790D02*
X212185714Y-151733171D01*
X212185714Y-151733171D02*
X212138095Y-151637933D01*
X212138095Y-151637933D02*
X212138095Y-151542695D01*
X212138095Y-151542695D02*
X212185714Y-151447457D01*
X212185714Y-151447457D02*
X212233333Y-151399838D01*
X212233333Y-151399838D02*
X212328571Y-151352219D01*
X212328571Y-151352219D02*
X212566666Y-151352219D01*
X212566666Y-151352219D02*
X212709523Y-151399838D01*
X213519047Y-152304600D02*
X213423809Y-152352219D01*
X213423809Y-152352219D02*
X213233333Y-152352219D01*
X213233333Y-152352219D02*
X213138095Y-152304600D01*
X213138095Y-152304600D02*
X213090476Y-152209361D01*
X213090476Y-152209361D02*
X213090476Y-151828409D01*
X213090476Y-151828409D02*
X213138095Y-151733171D01*
X213138095Y-151733171D02*
X213233333Y-151685552D01*
X213233333Y-151685552D02*
X213423809Y-151685552D01*
X213423809Y-151685552D02*
X213519047Y-151733171D01*
X213519047Y-151733171D02*
X213566666Y-151828409D01*
X213566666Y-151828409D02*
X213566666Y-151923647D01*
X213566666Y-151923647D02*
X213090476Y-152018885D01*
X213995238Y-152352219D02*
X213995238Y-151685552D01*
X213995238Y-151876028D02*
X214042857Y-151780790D01*
X214042857Y-151780790D02*
X214090476Y-151733171D01*
X214090476Y-151733171D02*
X214185714Y-151685552D01*
X214185714Y-151685552D02*
X214280952Y-151685552D01*
X214519048Y-151685552D02*
X214757143Y-152352219D01*
X214757143Y-152352219D02*
X214995238Y-151685552D01*
X215519048Y-152352219D02*
X215423810Y-152304600D01*
X215423810Y-152304600D02*
X215376191Y-152256980D01*
X215376191Y-152256980D02*
X215328572Y-152161742D01*
X215328572Y-152161742D02*
X215328572Y-151876028D01*
X215328572Y-151876028D02*
X215376191Y-151780790D01*
X215376191Y-151780790D02*
X215423810Y-151733171D01*
X215423810Y-151733171D02*
X215519048Y-151685552D01*
X215519048Y-151685552D02*
X215661905Y-151685552D01*
X215661905Y-151685552D02*
X215757143Y-151733171D01*
X215757143Y-151733171D02*
X215804762Y-151780790D01*
X215804762Y-151780790D02*
X215852381Y-151876028D01*
X215852381Y-151876028D02*
X215852381Y-152161742D01*
X215852381Y-152161742D02*
X215804762Y-152256980D01*
X215804762Y-152256980D02*
X215757143Y-152304600D01*
X215757143Y-152304600D02*
X215661905Y-152352219D01*
X215661905Y-152352219D02*
X215519048Y-152352219D01*
X105566666Y-140052219D02*
X105566666Y-140766504D01*
X105566666Y-140766504D02*
X105519047Y-140909361D01*
X105519047Y-140909361D02*
X105423809Y-141004600D01*
X105423809Y-141004600D02*
X105280952Y-141052219D01*
X105280952Y-141052219D02*
X105185714Y-141052219D01*
X105995238Y-140147457D02*
X106042857Y-140099838D01*
X106042857Y-140099838D02*
X106138095Y-140052219D01*
X106138095Y-140052219D02*
X106376190Y-140052219D01*
X106376190Y-140052219D02*
X106471428Y-140099838D01*
X106471428Y-140099838D02*
X106519047Y-140147457D01*
X106519047Y-140147457D02*
X106566666Y-140242695D01*
X106566666Y-140242695D02*
X106566666Y-140337933D01*
X106566666Y-140337933D02*
X106519047Y-140480790D01*
X106519047Y-140480790D02*
X105947619Y-141052219D01*
X105947619Y-141052219D02*
X106566666Y-141052219D01*
X135922219Y-153446666D02*
X135446028Y-153779999D01*
X135922219Y-154018094D02*
X134922219Y-154018094D01*
X134922219Y-154018094D02*
X134922219Y-153637142D01*
X134922219Y-153637142D02*
X134969838Y-153541904D01*
X134969838Y-153541904D02*
X135017457Y-153494285D01*
X135017457Y-153494285D02*
X135112695Y-153446666D01*
X135112695Y-153446666D02*
X135255552Y-153446666D01*
X135255552Y-153446666D02*
X135350790Y-153494285D01*
X135350790Y-153494285D02*
X135398409Y-153541904D01*
X135398409Y-153541904D02*
X135446028Y-153637142D01*
X135446028Y-153637142D02*
X135446028Y-154018094D01*
X134922219Y-153113332D02*
X134922219Y-152494285D01*
X134922219Y-152494285D02*
X135303171Y-152827618D01*
X135303171Y-152827618D02*
X135303171Y-152684761D01*
X135303171Y-152684761D02*
X135350790Y-152589523D01*
X135350790Y-152589523D02*
X135398409Y-152541904D01*
X135398409Y-152541904D02*
X135493647Y-152494285D01*
X135493647Y-152494285D02*
X135731742Y-152494285D01*
X135731742Y-152494285D02*
X135826980Y-152541904D01*
X135826980Y-152541904D02*
X135874600Y-152589523D01*
X135874600Y-152589523D02*
X135922219Y-152684761D01*
X135922219Y-152684761D02*
X135922219Y-152970475D01*
X135922219Y-152970475D02*
X135874600Y-153065713D01*
X135874600Y-153065713D02*
X135826980Y-153113332D01*
X132560553Y-154518094D02*
X132512934Y-154470475D01*
X132512934Y-154470475D02*
X132465315Y-154375237D01*
X132465315Y-154375237D02*
X132465315Y-154137142D01*
X132465315Y-154137142D02*
X132512934Y-154041904D01*
X132512934Y-154041904D02*
X132560553Y-153994285D01*
X132560553Y-153994285D02*
X132655791Y-153946666D01*
X132655791Y-153946666D02*
X132751029Y-153946666D01*
X132751029Y-153946666D02*
X132893886Y-153994285D01*
X132893886Y-153994285D02*
X133465315Y-154565713D01*
X133465315Y-154565713D02*
X133465315Y-153946666D01*
X132798648Y-153089523D02*
X133465315Y-153089523D01*
X132417696Y-153327618D02*
X133131981Y-153565713D01*
X133131981Y-153565713D02*
X133131981Y-152946666D01*
X132465315Y-152375237D02*
X132465315Y-152279999D01*
X132465315Y-152279999D02*
X132512934Y-152184761D01*
X132512934Y-152184761D02*
X132560553Y-152137142D01*
X132560553Y-152137142D02*
X132655791Y-152089523D01*
X132655791Y-152089523D02*
X132846267Y-152041904D01*
X132846267Y-152041904D02*
X133084362Y-152041904D01*
X133084362Y-152041904D02*
X133274838Y-152089523D01*
X133274838Y-152089523D02*
X133370076Y-152137142D01*
X133370076Y-152137142D02*
X133417696Y-152184761D01*
X133417696Y-152184761D02*
X133465315Y-152279999D01*
X133465315Y-152279999D02*
X133465315Y-152375237D01*
X133465315Y-152375237D02*
X133417696Y-152470475D01*
X133417696Y-152470475D02*
X133370076Y-152518094D01*
X133370076Y-152518094D02*
X133274838Y-152565713D01*
X133274838Y-152565713D02*
X133084362Y-152613332D01*
X133084362Y-152613332D02*
X132846267Y-152613332D01*
X132846267Y-152613332D02*
X132655791Y-152565713D01*
X132655791Y-152565713D02*
X132560553Y-152518094D01*
X132560553Y-152518094D02*
X132512934Y-152470475D01*
X132512934Y-152470475D02*
X132465315Y-152375237D01*
X171966666Y-142052219D02*
X171966666Y-142766504D01*
X171966666Y-142766504D02*
X171919047Y-142909361D01*
X171919047Y-142909361D02*
X171823809Y-143004600D01*
X171823809Y-143004600D02*
X171680952Y-143052219D01*
X171680952Y-143052219D02*
X171585714Y-143052219D01*
X172966666Y-143052219D02*
X172395238Y-143052219D01*
X172680952Y-143052219D02*
X172680952Y-142052219D01*
X172680952Y-142052219D02*
X172585714Y-142195076D01*
X172585714Y-142195076D02*
X172490476Y-142290314D01*
X172490476Y-142290314D02*
X172395238Y-142337933D01*
X145638095Y-133052219D02*
X146209523Y-133052219D01*
X145923809Y-134052219D02*
X145923809Y-133052219D01*
X146542857Y-134052219D02*
X146542857Y-133052219D01*
X146542857Y-133052219D02*
X146923809Y-133052219D01*
X146923809Y-133052219D02*
X147019047Y-133099838D01*
X147019047Y-133099838D02*
X147066666Y-133147457D01*
X147066666Y-133147457D02*
X147114285Y-133242695D01*
X147114285Y-133242695D02*
X147114285Y-133385552D01*
X147114285Y-133385552D02*
X147066666Y-133480790D01*
X147066666Y-133480790D02*
X147019047Y-133528409D01*
X147019047Y-133528409D02*
X146923809Y-133576028D01*
X146923809Y-133576028D02*
X146542857Y-133576028D01*
X148066666Y-134052219D02*
X147495238Y-134052219D01*
X147780952Y-134052219D02*
X147780952Y-133052219D01*
X147780952Y-133052219D02*
X147685714Y-133195076D01*
X147685714Y-133195076D02*
X147590476Y-133290314D01*
X147590476Y-133290314D02*
X147495238Y-133337933D01*
X143357192Y-141756980D02*
X143309573Y-141804600D01*
X143309573Y-141804600D02*
X143166716Y-141852219D01*
X143166716Y-141852219D02*
X143071478Y-141852219D01*
X143071478Y-141852219D02*
X142928621Y-141804600D01*
X142928621Y-141804600D02*
X142833383Y-141709361D01*
X142833383Y-141709361D02*
X142785764Y-141614123D01*
X142785764Y-141614123D02*
X142738145Y-141423647D01*
X142738145Y-141423647D02*
X142738145Y-141280790D01*
X142738145Y-141280790D02*
X142785764Y-141090314D01*
X142785764Y-141090314D02*
X142833383Y-140995076D01*
X142833383Y-140995076D02*
X142928621Y-140899838D01*
X142928621Y-140899838D02*
X143071478Y-140852219D01*
X143071478Y-140852219D02*
X143166716Y-140852219D01*
X143166716Y-140852219D02*
X143309573Y-140899838D01*
X143309573Y-140899838D02*
X143357192Y-140947457D01*
X143738145Y-141804600D02*
X143881002Y-141852219D01*
X143881002Y-141852219D02*
X144119097Y-141852219D01*
X144119097Y-141852219D02*
X144214335Y-141804600D01*
X144214335Y-141804600D02*
X144261954Y-141756980D01*
X144261954Y-141756980D02*
X144309573Y-141661742D01*
X144309573Y-141661742D02*
X144309573Y-141566504D01*
X144309573Y-141566504D02*
X144261954Y-141471266D01*
X144261954Y-141471266D02*
X144214335Y-141423647D01*
X144214335Y-141423647D02*
X144119097Y-141376028D01*
X144119097Y-141376028D02*
X143928621Y-141328409D01*
X143928621Y-141328409D02*
X143833383Y-141280790D01*
X143833383Y-141280790D02*
X143785764Y-141233171D01*
X143785764Y-141233171D02*
X143738145Y-141137933D01*
X143738145Y-141137933D02*
X143738145Y-141042695D01*
X143738145Y-141042695D02*
X143785764Y-140947457D01*
X143785764Y-140947457D02*
X143833383Y-140899838D01*
X143833383Y-140899838D02*
X143928621Y-140852219D01*
X143928621Y-140852219D02*
X144166716Y-140852219D01*
X144166716Y-140852219D02*
X144309573Y-140899838D01*
X144738145Y-141852219D02*
X144738145Y-140852219D01*
X144976240Y-141947457D02*
X145738144Y-141947457D01*
X145928621Y-140947457D02*
X145976240Y-140899838D01*
X145976240Y-140899838D02*
X146071478Y-140852219D01*
X146071478Y-140852219D02*
X146309573Y-140852219D01*
X146309573Y-140852219D02*
X146404811Y-140899838D01*
X146404811Y-140899838D02*
X146452430Y-140947457D01*
X146452430Y-140947457D02*
X146500049Y-141042695D01*
X146500049Y-141042695D02*
X146500049Y-141137933D01*
X146500049Y-141137933D02*
X146452430Y-141280790D01*
X146452430Y-141280790D02*
X145881002Y-141852219D01*
X145881002Y-141852219D02*
X146500049Y-141852219D01*
X146833383Y-141185552D02*
X147071478Y-141852219D01*
X147071478Y-141852219D02*
X147309573Y-141185552D01*
X147833383Y-141280790D02*
X147738145Y-141233171D01*
X147738145Y-141233171D02*
X147690526Y-141185552D01*
X147690526Y-141185552D02*
X147642907Y-141090314D01*
X147642907Y-141090314D02*
X147642907Y-141042695D01*
X147642907Y-141042695D02*
X147690526Y-140947457D01*
X147690526Y-140947457D02*
X147738145Y-140899838D01*
X147738145Y-140899838D02*
X147833383Y-140852219D01*
X147833383Y-140852219D02*
X148023859Y-140852219D01*
X148023859Y-140852219D02*
X148119097Y-140899838D01*
X148119097Y-140899838D02*
X148166716Y-140947457D01*
X148166716Y-140947457D02*
X148214335Y-141042695D01*
X148214335Y-141042695D02*
X148214335Y-141090314D01*
X148214335Y-141090314D02*
X148166716Y-141185552D01*
X148166716Y-141185552D02*
X148119097Y-141233171D01*
X148119097Y-141233171D02*
X148023859Y-141280790D01*
X148023859Y-141280790D02*
X147833383Y-141280790D01*
X147833383Y-141280790D02*
X147738145Y-141328409D01*
X147738145Y-141328409D02*
X147690526Y-141376028D01*
X147690526Y-141376028D02*
X147642907Y-141471266D01*
X147642907Y-141471266D02*
X147642907Y-141661742D01*
X147642907Y-141661742D02*
X147690526Y-141756980D01*
X147690526Y-141756980D02*
X147738145Y-141804600D01*
X147738145Y-141804600D02*
X147833383Y-141852219D01*
X147833383Y-141852219D02*
X148023859Y-141852219D01*
X148023859Y-141852219D02*
X148119097Y-141804600D01*
X148119097Y-141804600D02*
X148166716Y-141756980D01*
X148166716Y-141756980D02*
X148214335Y-141661742D01*
X148214335Y-141661742D02*
X148214335Y-141471266D01*
X148214335Y-141471266D02*
X148166716Y-141376028D01*
X148166716Y-141376028D02*
X148119097Y-141328409D01*
X148119097Y-141328409D02*
X148023859Y-141280790D01*
X137576190Y-143352219D02*
X137909523Y-144352219D01*
X137909523Y-144352219D02*
X138242856Y-143352219D01*
X138576190Y-144352219D02*
X138576190Y-143352219D01*
X138576190Y-143733171D02*
X138671428Y-143685552D01*
X138671428Y-143685552D02*
X138861904Y-143685552D01*
X138861904Y-143685552D02*
X138957142Y-143733171D01*
X138957142Y-143733171D02*
X139004761Y-143780790D01*
X139004761Y-143780790D02*
X139052380Y-143876028D01*
X139052380Y-143876028D02*
X139052380Y-144161742D01*
X139052380Y-144161742D02*
X139004761Y-144256980D01*
X139004761Y-144256980D02*
X138957142Y-144304600D01*
X138957142Y-144304600D02*
X138861904Y-144352219D01*
X138861904Y-144352219D02*
X138671428Y-144352219D01*
X138671428Y-144352219D02*
X138576190Y-144304600D01*
X139909523Y-144352219D02*
X139909523Y-143828409D01*
X139909523Y-143828409D02*
X139861904Y-143733171D01*
X139861904Y-143733171D02*
X139766666Y-143685552D01*
X139766666Y-143685552D02*
X139576190Y-143685552D01*
X139576190Y-143685552D02*
X139480952Y-143733171D01*
X139909523Y-144304600D02*
X139814285Y-144352219D01*
X139814285Y-144352219D02*
X139576190Y-144352219D01*
X139576190Y-144352219D02*
X139480952Y-144304600D01*
X139480952Y-144304600D02*
X139433333Y-144209361D01*
X139433333Y-144209361D02*
X139433333Y-144114123D01*
X139433333Y-144114123D02*
X139480952Y-144018885D01*
X139480952Y-144018885D02*
X139576190Y-143971266D01*
X139576190Y-143971266D02*
X139814285Y-143971266D01*
X139814285Y-143971266D02*
X139909523Y-143923647D01*
X140242857Y-143685552D02*
X140623809Y-143685552D01*
X140385714Y-143352219D02*
X140385714Y-144209361D01*
X140385714Y-144209361D02*
X140433333Y-144304600D01*
X140433333Y-144304600D02*
X140528571Y-144352219D01*
X140528571Y-144352219D02*
X140623809Y-144352219D01*
X132652219Y-84561904D02*
X133461742Y-84561904D01*
X133461742Y-84561904D02*
X133556980Y-84514285D01*
X133556980Y-84514285D02*
X133604600Y-84466666D01*
X133604600Y-84466666D02*
X133652219Y-84371428D01*
X133652219Y-84371428D02*
X133652219Y-84180952D01*
X133652219Y-84180952D02*
X133604600Y-84085714D01*
X133604600Y-84085714D02*
X133556980Y-84038095D01*
X133556980Y-84038095D02*
X133461742Y-83990476D01*
X133461742Y-83990476D02*
X132652219Y-83990476D01*
X132747457Y-83561904D02*
X132699838Y-83514285D01*
X132699838Y-83514285D02*
X132652219Y-83419047D01*
X132652219Y-83419047D02*
X132652219Y-83180952D01*
X132652219Y-83180952D02*
X132699838Y-83085714D01*
X132699838Y-83085714D02*
X132747457Y-83038095D01*
X132747457Y-83038095D02*
X132842695Y-82990476D01*
X132842695Y-82990476D02*
X132937933Y-82990476D01*
X132937933Y-82990476D02*
X133080790Y-83038095D01*
X133080790Y-83038095D02*
X133652219Y-83609523D01*
X133652219Y-83609523D02*
X133652219Y-82990476D01*
X208585714Y-135104600D02*
X208728571Y-135152219D01*
X208728571Y-135152219D02*
X208966666Y-135152219D01*
X208966666Y-135152219D02*
X209061904Y-135104600D01*
X209061904Y-135104600D02*
X209109523Y-135056980D01*
X209109523Y-135056980D02*
X209157142Y-134961742D01*
X209157142Y-134961742D02*
X209157142Y-134866504D01*
X209157142Y-134866504D02*
X209109523Y-134771266D01*
X209109523Y-134771266D02*
X209061904Y-134723647D01*
X209061904Y-134723647D02*
X208966666Y-134676028D01*
X208966666Y-134676028D02*
X208776190Y-134628409D01*
X208776190Y-134628409D02*
X208680952Y-134580790D01*
X208680952Y-134580790D02*
X208633333Y-134533171D01*
X208633333Y-134533171D02*
X208585714Y-134437933D01*
X208585714Y-134437933D02*
X208585714Y-134342695D01*
X208585714Y-134342695D02*
X208633333Y-134247457D01*
X208633333Y-134247457D02*
X208680952Y-134199838D01*
X208680952Y-134199838D02*
X208776190Y-134152219D01*
X208776190Y-134152219D02*
X209014285Y-134152219D01*
X209014285Y-134152219D02*
X209157142Y-134199838D01*
X210109523Y-134199838D02*
X210014285Y-134152219D01*
X210014285Y-134152219D02*
X209871428Y-134152219D01*
X209871428Y-134152219D02*
X209728571Y-134199838D01*
X209728571Y-134199838D02*
X209633333Y-134295076D01*
X209633333Y-134295076D02*
X209585714Y-134390314D01*
X209585714Y-134390314D02*
X209538095Y-134580790D01*
X209538095Y-134580790D02*
X209538095Y-134723647D01*
X209538095Y-134723647D02*
X209585714Y-134914123D01*
X209585714Y-134914123D02*
X209633333Y-135009361D01*
X209633333Y-135009361D02*
X209728571Y-135104600D01*
X209728571Y-135104600D02*
X209871428Y-135152219D01*
X209871428Y-135152219D02*
X209966666Y-135152219D01*
X209966666Y-135152219D02*
X210109523Y-135104600D01*
X210109523Y-135104600D02*
X210157142Y-135056980D01*
X210157142Y-135056980D02*
X210157142Y-134723647D01*
X210157142Y-134723647D02*
X209966666Y-134723647D01*
X210347619Y-135247457D02*
X211109523Y-135247457D01*
X211300000Y-135104600D02*
X211442857Y-135152219D01*
X211442857Y-135152219D02*
X211680952Y-135152219D01*
X211680952Y-135152219D02*
X211776190Y-135104600D01*
X211776190Y-135104600D02*
X211823809Y-135056980D01*
X211823809Y-135056980D02*
X211871428Y-134961742D01*
X211871428Y-134961742D02*
X211871428Y-134866504D01*
X211871428Y-134866504D02*
X211823809Y-134771266D01*
X211823809Y-134771266D02*
X211776190Y-134723647D01*
X211776190Y-134723647D02*
X211680952Y-134676028D01*
X211680952Y-134676028D02*
X211490476Y-134628409D01*
X211490476Y-134628409D02*
X211395238Y-134580790D01*
X211395238Y-134580790D02*
X211347619Y-134533171D01*
X211347619Y-134533171D02*
X211300000Y-134437933D01*
X211300000Y-134437933D02*
X211300000Y-134342695D01*
X211300000Y-134342695D02*
X211347619Y-134247457D01*
X211347619Y-134247457D02*
X211395238Y-134199838D01*
X211395238Y-134199838D02*
X211490476Y-134152219D01*
X211490476Y-134152219D02*
X211728571Y-134152219D01*
X211728571Y-134152219D02*
X211871428Y-134199838D01*
X212680952Y-135104600D02*
X212585714Y-135152219D01*
X212585714Y-135152219D02*
X212395238Y-135152219D01*
X212395238Y-135152219D02*
X212300000Y-135104600D01*
X212300000Y-135104600D02*
X212252381Y-135009361D01*
X212252381Y-135009361D02*
X212252381Y-134628409D01*
X212252381Y-134628409D02*
X212300000Y-134533171D01*
X212300000Y-134533171D02*
X212395238Y-134485552D01*
X212395238Y-134485552D02*
X212585714Y-134485552D01*
X212585714Y-134485552D02*
X212680952Y-134533171D01*
X212680952Y-134533171D02*
X212728571Y-134628409D01*
X212728571Y-134628409D02*
X212728571Y-134723647D01*
X212728571Y-134723647D02*
X212252381Y-134818885D01*
X213157143Y-135152219D02*
X213157143Y-134485552D01*
X213157143Y-134676028D02*
X213204762Y-134580790D01*
X213204762Y-134580790D02*
X213252381Y-134533171D01*
X213252381Y-134533171D02*
X213347619Y-134485552D01*
X213347619Y-134485552D02*
X213442857Y-134485552D01*
X213680953Y-134485552D02*
X213919048Y-135152219D01*
X213919048Y-135152219D02*
X214157143Y-134485552D01*
X214680953Y-135152219D02*
X214585715Y-135104600D01*
X214585715Y-135104600D02*
X214538096Y-135056980D01*
X214538096Y-135056980D02*
X214490477Y-134961742D01*
X214490477Y-134961742D02*
X214490477Y-134676028D01*
X214490477Y-134676028D02*
X214538096Y-134580790D01*
X214538096Y-134580790D02*
X214585715Y-134533171D01*
X214585715Y-134533171D02*
X214680953Y-134485552D01*
X214680953Y-134485552D02*
X214823810Y-134485552D01*
X214823810Y-134485552D02*
X214919048Y-134533171D01*
X214919048Y-134533171D02*
X214966667Y-134580790D01*
X214966667Y-134580790D02*
X215014286Y-134676028D01*
X215014286Y-134676028D02*
X215014286Y-134961742D01*
X215014286Y-134961742D02*
X214966667Y-135056980D01*
X214966667Y-135056980D02*
X214919048Y-135104600D01*
X214919048Y-135104600D02*
X214823810Y-135152219D01*
X214823810Y-135152219D02*
X214680953Y-135152219D01*
X104116666Y-63652219D02*
X104116666Y-64366504D01*
X104116666Y-64366504D02*
X104069047Y-64509361D01*
X104069047Y-64509361D02*
X103973809Y-64604600D01*
X103973809Y-64604600D02*
X103830952Y-64652219D01*
X103830952Y-64652219D02*
X103735714Y-64652219D01*
X105021428Y-63652219D02*
X104830952Y-63652219D01*
X104830952Y-63652219D02*
X104735714Y-63699838D01*
X104735714Y-63699838D02*
X104688095Y-63747457D01*
X104688095Y-63747457D02*
X104592857Y-63890314D01*
X104592857Y-63890314D02*
X104545238Y-64080790D01*
X104545238Y-64080790D02*
X104545238Y-64461742D01*
X104545238Y-64461742D02*
X104592857Y-64556980D01*
X104592857Y-64556980D02*
X104640476Y-64604600D01*
X104640476Y-64604600D02*
X104735714Y-64652219D01*
X104735714Y-64652219D02*
X104926190Y-64652219D01*
X104926190Y-64652219D02*
X105021428Y-64604600D01*
X105021428Y-64604600D02*
X105069047Y-64556980D01*
X105069047Y-64556980D02*
X105116666Y-64461742D01*
X105116666Y-64461742D02*
X105116666Y-64223647D01*
X105116666Y-64223647D02*
X105069047Y-64128409D01*
X105069047Y-64128409D02*
X105021428Y-64080790D01*
X105021428Y-64080790D02*
X104926190Y-64033171D01*
X104926190Y-64033171D02*
X104735714Y-64033171D01*
X104735714Y-64033171D02*
X104640476Y-64080790D01*
X104640476Y-64080790D02*
X104592857Y-64128409D01*
X104592857Y-64128409D02*
X104545238Y-64223647D01*
X121952219Y-149930476D02*
X121952219Y-150406666D01*
X121952219Y-150406666D02*
X120952219Y-150406666D01*
X121952219Y-149597142D02*
X120952219Y-149597142D01*
X120952219Y-149597142D02*
X121666504Y-149263809D01*
X121666504Y-149263809D02*
X120952219Y-148930476D01*
X120952219Y-148930476D02*
X121952219Y-148930476D01*
X120952219Y-148549523D02*
X120952219Y-147930476D01*
X120952219Y-147930476D02*
X121333171Y-148263809D01*
X121333171Y-148263809D02*
X121333171Y-148120952D01*
X121333171Y-148120952D02*
X121380790Y-148025714D01*
X121380790Y-148025714D02*
X121428409Y-147978095D01*
X121428409Y-147978095D02*
X121523647Y-147930476D01*
X121523647Y-147930476D02*
X121761742Y-147930476D01*
X121761742Y-147930476D02*
X121856980Y-147978095D01*
X121856980Y-147978095D02*
X121904600Y-148025714D01*
X121904600Y-148025714D02*
X121952219Y-148120952D01*
X121952219Y-148120952D02*
X121952219Y-148406666D01*
X121952219Y-148406666D02*
X121904600Y-148501904D01*
X121904600Y-148501904D02*
X121856980Y-148549523D01*
X120952219Y-147025714D02*
X120952219Y-147501904D01*
X120952219Y-147501904D02*
X121428409Y-147549523D01*
X121428409Y-147549523D02*
X121380790Y-147501904D01*
X121380790Y-147501904D02*
X121333171Y-147406666D01*
X121333171Y-147406666D02*
X121333171Y-147168571D01*
X121333171Y-147168571D02*
X121380790Y-147073333D01*
X121380790Y-147073333D02*
X121428409Y-147025714D01*
X121428409Y-147025714D02*
X121523647Y-146978095D01*
X121523647Y-146978095D02*
X121761742Y-146978095D01*
X121761742Y-146978095D02*
X121856980Y-147025714D01*
X121856980Y-147025714D02*
X121904600Y-147073333D01*
X121904600Y-147073333D02*
X121952219Y-147168571D01*
X121952219Y-147168571D02*
X121952219Y-147406666D01*
X121952219Y-147406666D02*
X121904600Y-147501904D01*
X121904600Y-147501904D02*
X121856980Y-147549523D01*
X120952219Y-146359047D02*
X120952219Y-146263809D01*
X120952219Y-146263809D02*
X120999838Y-146168571D01*
X120999838Y-146168571D02*
X121047457Y-146120952D01*
X121047457Y-146120952D02*
X121142695Y-146073333D01*
X121142695Y-146073333D02*
X121333171Y-146025714D01*
X121333171Y-146025714D02*
X121571266Y-146025714D01*
X121571266Y-146025714D02*
X121761742Y-146073333D01*
X121761742Y-146073333D02*
X121856980Y-146120952D01*
X121856980Y-146120952D02*
X121904600Y-146168571D01*
X121904600Y-146168571D02*
X121952219Y-146263809D01*
X121952219Y-146263809D02*
X121952219Y-146359047D01*
X121952219Y-146359047D02*
X121904600Y-146454285D01*
X121904600Y-146454285D02*
X121856980Y-146501904D01*
X121856980Y-146501904D02*
X121761742Y-146549523D01*
X121761742Y-146549523D02*
X121571266Y-146597142D01*
X121571266Y-146597142D02*
X121333171Y-146597142D01*
X121333171Y-146597142D02*
X121142695Y-146549523D01*
X121142695Y-146549523D02*
X121047457Y-146501904D01*
X121047457Y-146501904D02*
X120999838Y-146454285D01*
X120999838Y-146454285D02*
X120952219Y-146359047D01*
X123438095Y-127652219D02*
X123438095Y-128461742D01*
X123438095Y-128461742D02*
X123485714Y-128556980D01*
X123485714Y-128556980D02*
X123533333Y-128604600D01*
X123533333Y-128604600D02*
X123628571Y-128652219D01*
X123628571Y-128652219D02*
X123819047Y-128652219D01*
X123819047Y-128652219D02*
X123914285Y-128604600D01*
X123914285Y-128604600D02*
X123961904Y-128556980D01*
X123961904Y-128556980D02*
X124009523Y-128461742D01*
X124009523Y-128461742D02*
X124009523Y-127652219D01*
X124961904Y-127652219D02*
X124485714Y-127652219D01*
X124485714Y-127652219D02*
X124438095Y-128128409D01*
X124438095Y-128128409D02*
X124485714Y-128080790D01*
X124485714Y-128080790D02*
X124580952Y-128033171D01*
X124580952Y-128033171D02*
X124819047Y-128033171D01*
X124819047Y-128033171D02*
X124914285Y-128080790D01*
X124914285Y-128080790D02*
X124961904Y-128128409D01*
X124961904Y-128128409D02*
X125009523Y-128223647D01*
X125009523Y-128223647D02*
X125009523Y-128461742D01*
X125009523Y-128461742D02*
X124961904Y-128556980D01*
X124961904Y-128556980D02*
X124914285Y-128604600D01*
X124914285Y-128604600D02*
X124819047Y-128652219D01*
X124819047Y-128652219D02*
X124580952Y-128652219D01*
X124580952Y-128652219D02*
X124485714Y-128604600D01*
X124485714Y-128604600D02*
X124438095Y-128556980D01*
X133633333Y-131756980D02*
X133585714Y-131804600D01*
X133585714Y-131804600D02*
X133442857Y-131852219D01*
X133442857Y-131852219D02*
X133347619Y-131852219D01*
X133347619Y-131852219D02*
X133204762Y-131804600D01*
X133204762Y-131804600D02*
X133109524Y-131709361D01*
X133109524Y-131709361D02*
X133061905Y-131614123D01*
X133061905Y-131614123D02*
X133014286Y-131423647D01*
X133014286Y-131423647D02*
X133014286Y-131280790D01*
X133014286Y-131280790D02*
X133061905Y-131090314D01*
X133061905Y-131090314D02*
X133109524Y-130995076D01*
X133109524Y-130995076D02*
X133204762Y-130899838D01*
X133204762Y-130899838D02*
X133347619Y-130852219D01*
X133347619Y-130852219D02*
X133442857Y-130852219D01*
X133442857Y-130852219D02*
X133585714Y-130899838D01*
X133585714Y-130899838D02*
X133633333Y-130947457D01*
X134538095Y-130852219D02*
X134061905Y-130852219D01*
X134061905Y-130852219D02*
X134014286Y-131328409D01*
X134014286Y-131328409D02*
X134061905Y-131280790D01*
X134061905Y-131280790D02*
X134157143Y-131233171D01*
X134157143Y-131233171D02*
X134395238Y-131233171D01*
X134395238Y-131233171D02*
X134490476Y-131280790D01*
X134490476Y-131280790D02*
X134538095Y-131328409D01*
X134538095Y-131328409D02*
X134585714Y-131423647D01*
X134585714Y-131423647D02*
X134585714Y-131661742D01*
X134585714Y-131661742D02*
X134538095Y-131756980D01*
X134538095Y-131756980D02*
X134490476Y-131804600D01*
X134490476Y-131804600D02*
X134395238Y-131852219D01*
X134395238Y-131852219D02*
X134157143Y-131852219D01*
X134157143Y-131852219D02*
X134061905Y-131804600D01*
X134061905Y-131804600D02*
X134014286Y-131756980D01*
X134452219Y-136166666D02*
X134452219Y-136738094D01*
X134452219Y-136452380D02*
X133452219Y-136452380D01*
X133452219Y-136452380D02*
X133595076Y-136547618D01*
X133595076Y-136547618D02*
X133690314Y-136642856D01*
X133690314Y-136642856D02*
X133737933Y-136738094D01*
X133785552Y-135309523D02*
X134452219Y-135309523D01*
X133785552Y-135738094D02*
X134309361Y-135738094D01*
X134309361Y-135738094D02*
X134404600Y-135690475D01*
X134404600Y-135690475D02*
X134452219Y-135595237D01*
X134452219Y-135595237D02*
X134452219Y-135452380D01*
X134452219Y-135452380D02*
X134404600Y-135357142D01*
X134404600Y-135357142D02*
X134356980Y-135309523D01*
X130356980Y-128666666D02*
X130404600Y-128714285D01*
X130404600Y-128714285D02*
X130452219Y-128857142D01*
X130452219Y-128857142D02*
X130452219Y-128952380D01*
X130452219Y-128952380D02*
X130404600Y-129095237D01*
X130404600Y-129095237D02*
X130309361Y-129190475D01*
X130309361Y-129190475D02*
X130214123Y-129238094D01*
X130214123Y-129238094D02*
X130023647Y-129285713D01*
X130023647Y-129285713D02*
X129880790Y-129285713D01*
X129880790Y-129285713D02*
X129690314Y-129238094D01*
X129690314Y-129238094D02*
X129595076Y-129190475D01*
X129595076Y-129190475D02*
X129499838Y-129095237D01*
X129499838Y-129095237D02*
X129452219Y-128952380D01*
X129452219Y-128952380D02*
X129452219Y-128857142D01*
X129452219Y-128857142D02*
X129499838Y-128714285D01*
X129499838Y-128714285D02*
X129547457Y-128666666D01*
X129452219Y-128333332D02*
X129452219Y-127714285D01*
X129452219Y-127714285D02*
X129833171Y-128047618D01*
X129833171Y-128047618D02*
X129833171Y-127904761D01*
X129833171Y-127904761D02*
X129880790Y-127809523D01*
X129880790Y-127809523D02*
X129928409Y-127761904D01*
X129928409Y-127761904D02*
X130023647Y-127714285D01*
X130023647Y-127714285D02*
X130261742Y-127714285D01*
X130261742Y-127714285D02*
X130356980Y-127761904D01*
X130356980Y-127761904D02*
X130404600Y-127809523D01*
X130404600Y-127809523D02*
X130452219Y-127904761D01*
X130452219Y-127904761D02*
X130452219Y-128190475D01*
X130452219Y-128190475D02*
X130404600Y-128285713D01*
X130404600Y-128285713D02*
X130356980Y-128333332D01*
X132452219Y-128666666D02*
X132452219Y-129238094D01*
X132452219Y-128952380D02*
X131452219Y-128952380D01*
X131452219Y-128952380D02*
X131595076Y-129047618D01*
X131595076Y-129047618D02*
X131690314Y-129142856D01*
X131690314Y-129142856D02*
X131737933Y-129238094D01*
X131785552Y-127809523D02*
X132452219Y-127809523D01*
X131785552Y-128238094D02*
X132309361Y-128238094D01*
X132309361Y-128238094D02*
X132404600Y-128190475D01*
X132404600Y-128190475D02*
X132452219Y-128095237D01*
X132452219Y-128095237D02*
X132452219Y-127952380D01*
X132452219Y-127952380D02*
X132404600Y-127857142D01*
X132404600Y-127857142D02*
X132356980Y-127809523D01*
X95538095Y-125802219D02*
X96109523Y-125802219D01*
X95823809Y-126802219D02*
X95823809Y-125802219D01*
X96442857Y-126802219D02*
X96442857Y-125802219D01*
X96442857Y-125802219D02*
X96823809Y-125802219D01*
X96823809Y-125802219D02*
X96919047Y-125849838D01*
X96919047Y-125849838D02*
X96966666Y-125897457D01*
X96966666Y-125897457D02*
X97014285Y-125992695D01*
X97014285Y-125992695D02*
X97014285Y-126135552D01*
X97014285Y-126135552D02*
X96966666Y-126230790D01*
X96966666Y-126230790D02*
X96919047Y-126278409D01*
X96919047Y-126278409D02*
X96823809Y-126326028D01*
X96823809Y-126326028D02*
X96442857Y-126326028D01*
X97919047Y-125802219D02*
X97442857Y-125802219D01*
X97442857Y-125802219D02*
X97395238Y-126278409D01*
X97395238Y-126278409D02*
X97442857Y-126230790D01*
X97442857Y-126230790D02*
X97538095Y-126183171D01*
X97538095Y-126183171D02*
X97776190Y-126183171D01*
X97776190Y-126183171D02*
X97871428Y-126230790D01*
X97871428Y-126230790D02*
X97919047Y-126278409D01*
X97919047Y-126278409D02*
X97966666Y-126373647D01*
X97966666Y-126373647D02*
X97966666Y-126611742D01*
X97966666Y-126611742D02*
X97919047Y-126706980D01*
X97919047Y-126706980D02*
X97871428Y-126754600D01*
X97871428Y-126754600D02*
X97776190Y-126802219D01*
X97776190Y-126802219D02*
X97538095Y-126802219D01*
X97538095Y-126802219D02*
X97442857Y-126754600D01*
X97442857Y-126754600D02*
X97395238Y-126706980D01*
X95276190Y-120302219D02*
X95609523Y-121302219D01*
X95609523Y-121302219D02*
X95942856Y-120302219D01*
X96276190Y-121302219D02*
X96276190Y-120302219D01*
X96276190Y-120683171D02*
X96371428Y-120635552D01*
X96371428Y-120635552D02*
X96561904Y-120635552D01*
X96561904Y-120635552D02*
X96657142Y-120683171D01*
X96657142Y-120683171D02*
X96704761Y-120730790D01*
X96704761Y-120730790D02*
X96752380Y-120826028D01*
X96752380Y-120826028D02*
X96752380Y-121111742D01*
X96752380Y-121111742D02*
X96704761Y-121206980D01*
X96704761Y-121206980D02*
X96657142Y-121254600D01*
X96657142Y-121254600D02*
X96561904Y-121302219D01*
X96561904Y-121302219D02*
X96371428Y-121302219D01*
X96371428Y-121302219D02*
X96276190Y-121254600D01*
X97609523Y-121302219D02*
X97609523Y-120778409D01*
X97609523Y-120778409D02*
X97561904Y-120683171D01*
X97561904Y-120683171D02*
X97466666Y-120635552D01*
X97466666Y-120635552D02*
X97276190Y-120635552D01*
X97276190Y-120635552D02*
X97180952Y-120683171D01*
X97609523Y-121254600D02*
X97514285Y-121302219D01*
X97514285Y-121302219D02*
X97276190Y-121302219D01*
X97276190Y-121302219D02*
X97180952Y-121254600D01*
X97180952Y-121254600D02*
X97133333Y-121159361D01*
X97133333Y-121159361D02*
X97133333Y-121064123D01*
X97133333Y-121064123D02*
X97180952Y-120968885D01*
X97180952Y-120968885D02*
X97276190Y-120921266D01*
X97276190Y-120921266D02*
X97514285Y-120921266D01*
X97514285Y-120921266D02*
X97609523Y-120873647D01*
X97942857Y-120635552D02*
X98323809Y-120635552D01*
X98085714Y-120302219D02*
X98085714Y-121159361D01*
X98085714Y-121159361D02*
X98133333Y-121254600D01*
X98133333Y-121254600D02*
X98228571Y-121302219D01*
X98228571Y-121302219D02*
X98323809Y-121302219D01*
X163027219Y-125766666D02*
X162551028Y-126099999D01*
X163027219Y-126338094D02*
X162027219Y-126338094D01*
X162027219Y-126338094D02*
X162027219Y-125957142D01*
X162027219Y-125957142D02*
X162074838Y-125861904D01*
X162074838Y-125861904D02*
X162122457Y-125814285D01*
X162122457Y-125814285D02*
X162217695Y-125766666D01*
X162217695Y-125766666D02*
X162360552Y-125766666D01*
X162360552Y-125766666D02*
X162455790Y-125814285D01*
X162455790Y-125814285D02*
X162503409Y-125861904D01*
X162503409Y-125861904D02*
X162551028Y-125957142D01*
X162551028Y-125957142D02*
X162551028Y-126338094D01*
X162360552Y-124909523D02*
X163027219Y-124909523D01*
X161979600Y-125147618D02*
X162693885Y-125385713D01*
X162693885Y-125385713D02*
X162693885Y-124766666D01*
X154885552Y-122528571D02*
X155552219Y-122528571D01*
X154504600Y-122766666D02*
X155218885Y-123004761D01*
X155218885Y-123004761D02*
X155218885Y-122385714D01*
X155456980Y-122004761D02*
X155504600Y-121957142D01*
X155504600Y-121957142D02*
X155552219Y-122004761D01*
X155552219Y-122004761D02*
X155504600Y-122052380D01*
X155504600Y-122052380D02*
X155456980Y-122004761D01*
X155456980Y-122004761D02*
X155552219Y-122004761D01*
X154552219Y-121623809D02*
X154552219Y-120957143D01*
X154552219Y-120957143D02*
X155552219Y-121385714D01*
X155552219Y-120576190D02*
X154552219Y-120576190D01*
X155171266Y-120480952D02*
X155552219Y-120195238D01*
X154885552Y-120195238D02*
X155266504Y-120576190D01*
X133235795Y-116702219D02*
X133235795Y-117511742D01*
X133235795Y-117511742D02*
X133283414Y-117606980D01*
X133283414Y-117606980D02*
X133331033Y-117654600D01*
X133331033Y-117654600D02*
X133426271Y-117702219D01*
X133426271Y-117702219D02*
X133616747Y-117702219D01*
X133616747Y-117702219D02*
X133711985Y-117654600D01*
X133711985Y-117654600D02*
X133759604Y-117606980D01*
X133759604Y-117606980D02*
X133807223Y-117511742D01*
X133807223Y-117511742D02*
X133807223Y-116702219D01*
X134188176Y-116702219D02*
X134807223Y-116702219D01*
X134807223Y-116702219D02*
X134473890Y-117083171D01*
X134473890Y-117083171D02*
X134616747Y-117083171D01*
X134616747Y-117083171D02*
X134711985Y-117130790D01*
X134711985Y-117130790D02*
X134759604Y-117178409D01*
X134759604Y-117178409D02*
X134807223Y-117273647D01*
X134807223Y-117273647D02*
X134807223Y-117511742D01*
X134807223Y-117511742D02*
X134759604Y-117606980D01*
X134759604Y-117606980D02*
X134711985Y-117654600D01*
X134711985Y-117654600D02*
X134616747Y-117702219D01*
X134616747Y-117702219D02*
X134331033Y-117702219D01*
X134331033Y-117702219D02*
X134235795Y-117654600D01*
X134235795Y-117654600D02*
X134188176Y-117606980D01*
X209809524Y-99252219D02*
X209809524Y-98252219D01*
X209809524Y-98728409D02*
X210380952Y-98728409D01*
X210380952Y-99252219D02*
X210380952Y-98252219D01*
X210761905Y-98252219D02*
X211428571Y-99252219D01*
X211428571Y-98252219D02*
X210761905Y-99252219D01*
X211714286Y-98252219D02*
X212380952Y-98252219D01*
X212380952Y-98252219D02*
X211952381Y-99252219D01*
X213285714Y-99252219D02*
X212714286Y-99252219D01*
X213000000Y-99252219D02*
X213000000Y-98252219D01*
X213000000Y-98252219D02*
X212904762Y-98395076D01*
X212904762Y-98395076D02*
X212809524Y-98490314D01*
X212809524Y-98490314D02*
X212714286Y-98537933D01*
X214238095Y-99252219D02*
X213666667Y-99252219D01*
X213952381Y-99252219D02*
X213952381Y-98252219D01*
X213952381Y-98252219D02*
X213857143Y-98395076D01*
X213857143Y-98395076D02*
X213761905Y-98490314D01*
X213761905Y-98490314D02*
X213666667Y-98537933D01*
X147552219Y-96786666D02*
X147076028Y-97119999D01*
X147552219Y-97358094D02*
X146552219Y-97358094D01*
X146552219Y-97358094D02*
X146552219Y-96977142D01*
X146552219Y-96977142D02*
X146599838Y-96881904D01*
X146599838Y-96881904D02*
X146647457Y-96834285D01*
X146647457Y-96834285D02*
X146742695Y-96786666D01*
X146742695Y-96786666D02*
X146885552Y-96786666D01*
X146885552Y-96786666D02*
X146980790Y-96834285D01*
X146980790Y-96834285D02*
X147028409Y-96881904D01*
X147028409Y-96881904D02*
X147076028Y-96977142D01*
X147076028Y-96977142D02*
X147076028Y-97358094D01*
X146552219Y-95881904D02*
X146552219Y-96358094D01*
X146552219Y-96358094D02*
X147028409Y-96405713D01*
X147028409Y-96405713D02*
X146980790Y-96358094D01*
X146980790Y-96358094D02*
X146933171Y-96262856D01*
X146933171Y-96262856D02*
X146933171Y-96024761D01*
X146933171Y-96024761D02*
X146980790Y-95929523D01*
X146980790Y-95929523D02*
X147028409Y-95881904D01*
X147028409Y-95881904D02*
X147123647Y-95834285D01*
X147123647Y-95834285D02*
X147361742Y-95834285D01*
X147361742Y-95834285D02*
X147456980Y-95881904D01*
X147456980Y-95881904D02*
X147504600Y-95929523D01*
X147504600Y-95929523D02*
X147552219Y-96024761D01*
X147552219Y-96024761D02*
X147552219Y-96262856D01*
X147552219Y-96262856D02*
X147504600Y-96358094D01*
X147504600Y-96358094D02*
X147456980Y-96405713D01*
X150127219Y-97220238D02*
X150127219Y-97791666D01*
X150127219Y-97505952D02*
X149127219Y-97505952D01*
X149127219Y-97505952D02*
X149270076Y-97601190D01*
X149270076Y-97601190D02*
X149365314Y-97696428D01*
X149365314Y-97696428D02*
X149412933Y-97791666D01*
X149127219Y-96601190D02*
X149127219Y-96505952D01*
X149127219Y-96505952D02*
X149174838Y-96410714D01*
X149174838Y-96410714D02*
X149222457Y-96363095D01*
X149222457Y-96363095D02*
X149317695Y-96315476D01*
X149317695Y-96315476D02*
X149508171Y-96267857D01*
X149508171Y-96267857D02*
X149746266Y-96267857D01*
X149746266Y-96267857D02*
X149936742Y-96315476D01*
X149936742Y-96315476D02*
X150031980Y-96363095D01*
X150031980Y-96363095D02*
X150079600Y-96410714D01*
X150079600Y-96410714D02*
X150127219Y-96505952D01*
X150127219Y-96505952D02*
X150127219Y-96601190D01*
X150127219Y-96601190D02*
X150079600Y-96696428D01*
X150079600Y-96696428D02*
X150031980Y-96744047D01*
X150031980Y-96744047D02*
X149936742Y-96791666D01*
X149936742Y-96791666D02*
X149746266Y-96839285D01*
X149746266Y-96839285D02*
X149508171Y-96839285D01*
X149508171Y-96839285D02*
X149317695Y-96791666D01*
X149317695Y-96791666D02*
X149222457Y-96744047D01*
X149222457Y-96744047D02*
X149174838Y-96696428D01*
X149174838Y-96696428D02*
X149127219Y-96601190D01*
X150127219Y-95839285D02*
X149127219Y-95839285D01*
X149746266Y-95744047D02*
X150127219Y-95458333D01*
X149460552Y-95458333D02*
X149841504Y-95839285D01*
X119391089Y-134735049D02*
X119438709Y-134782668D01*
X119438709Y-134782668D02*
X119486328Y-134925525D01*
X119486328Y-134925525D02*
X119486328Y-135020763D01*
X119486328Y-135020763D02*
X119438709Y-135163620D01*
X119438709Y-135163620D02*
X119343470Y-135258858D01*
X119343470Y-135258858D02*
X119248232Y-135306477D01*
X119248232Y-135306477D02*
X119057756Y-135354096D01*
X119057756Y-135354096D02*
X118914899Y-135354096D01*
X118914899Y-135354096D02*
X118724423Y-135306477D01*
X118724423Y-135306477D02*
X118629185Y-135258858D01*
X118629185Y-135258858D02*
X118533947Y-135163620D01*
X118533947Y-135163620D02*
X118486328Y-135020763D01*
X118486328Y-135020763D02*
X118486328Y-134925525D01*
X118486328Y-134925525D02*
X118533947Y-134782668D01*
X118533947Y-134782668D02*
X118581566Y-134735049D01*
X118486328Y-134401715D02*
X118486328Y-133735049D01*
X118486328Y-133735049D02*
X119486328Y-134163620D01*
X120588688Y-135612934D02*
X120588688Y-135517696D01*
X120588688Y-135517696D02*
X120636307Y-135422458D01*
X120636307Y-135422458D02*
X120683926Y-135374839D01*
X120683926Y-135374839D02*
X120779164Y-135327220D01*
X120779164Y-135327220D02*
X120969640Y-135279601D01*
X120969640Y-135279601D02*
X121207735Y-135279601D01*
X121207735Y-135279601D02*
X121398211Y-135327220D01*
X121398211Y-135327220D02*
X121493449Y-135374839D01*
X121493449Y-135374839D02*
X121541069Y-135422458D01*
X121541069Y-135422458D02*
X121588688Y-135517696D01*
X121588688Y-135517696D02*
X121588688Y-135612934D01*
X121588688Y-135612934D02*
X121541069Y-135708172D01*
X121541069Y-135708172D02*
X121493449Y-135755791D01*
X121493449Y-135755791D02*
X121398211Y-135803410D01*
X121398211Y-135803410D02*
X121207735Y-135851029D01*
X121207735Y-135851029D02*
X120969640Y-135851029D01*
X120969640Y-135851029D02*
X120779164Y-135803410D01*
X120779164Y-135803410D02*
X120683926Y-135755791D01*
X120683926Y-135755791D02*
X120636307Y-135708172D01*
X120636307Y-135708172D02*
X120588688Y-135612934D01*
X121493449Y-134851029D02*
X121541069Y-134803410D01*
X121541069Y-134803410D02*
X121588688Y-134851029D01*
X121588688Y-134851029D02*
X121541069Y-134898648D01*
X121541069Y-134898648D02*
X121493449Y-134851029D01*
X121493449Y-134851029D02*
X121588688Y-134851029D01*
X120588688Y-134470077D02*
X120588688Y-133851030D01*
X120588688Y-133851030D02*
X120969640Y-134184363D01*
X120969640Y-134184363D02*
X120969640Y-134041506D01*
X120969640Y-134041506D02*
X121017259Y-133946268D01*
X121017259Y-133946268D02*
X121064878Y-133898649D01*
X121064878Y-133898649D02*
X121160116Y-133851030D01*
X121160116Y-133851030D02*
X121398211Y-133851030D01*
X121398211Y-133851030D02*
X121493449Y-133898649D01*
X121493449Y-133898649D02*
X121541069Y-133946268D01*
X121541069Y-133946268D02*
X121588688Y-134041506D01*
X121588688Y-134041506D02*
X121588688Y-134327220D01*
X121588688Y-134327220D02*
X121541069Y-134422458D01*
X121541069Y-134422458D02*
X121493449Y-134470077D01*
X120588688Y-133517696D02*
X120588688Y-132898649D01*
X120588688Y-132898649D02*
X120969640Y-133231982D01*
X120969640Y-133231982D02*
X120969640Y-133089125D01*
X120969640Y-133089125D02*
X121017259Y-132993887D01*
X121017259Y-132993887D02*
X121064878Y-132946268D01*
X121064878Y-132946268D02*
X121160116Y-132898649D01*
X121160116Y-132898649D02*
X121398211Y-132898649D01*
X121398211Y-132898649D02*
X121493449Y-132946268D01*
X121493449Y-132946268D02*
X121541069Y-132993887D01*
X121541069Y-132993887D02*
X121588688Y-133089125D01*
X121588688Y-133089125D02*
X121588688Y-133374839D01*
X121588688Y-133374839D02*
X121541069Y-133470077D01*
X121541069Y-133470077D02*
X121493449Y-133517696D01*
X120922021Y-132041506D02*
X121588688Y-132041506D01*
X120922021Y-132470077D02*
X121445830Y-132470077D01*
X121445830Y-132470077D02*
X121541069Y-132422458D01*
X121541069Y-132422458D02*
X121588688Y-132327220D01*
X121588688Y-132327220D02*
X121588688Y-132184363D01*
X121588688Y-132184363D02*
X121541069Y-132089125D01*
X121541069Y-132089125D02*
X121493449Y-132041506D01*
X127813695Y-122130719D02*
X127813695Y-122940242D01*
X127813695Y-122940242D02*
X127861314Y-123035480D01*
X127861314Y-123035480D02*
X127908933Y-123083100D01*
X127908933Y-123083100D02*
X128004171Y-123130719D01*
X128004171Y-123130719D02*
X128194647Y-123130719D01*
X128194647Y-123130719D02*
X128289885Y-123083100D01*
X128289885Y-123083100D02*
X128337504Y-123035480D01*
X128337504Y-123035480D02*
X128385123Y-122940242D01*
X128385123Y-122940242D02*
X128385123Y-122130719D01*
X129289885Y-122464052D02*
X129289885Y-123130719D01*
X129051790Y-122083100D02*
X128813695Y-122797385D01*
X128813695Y-122797385D02*
X129432742Y-122797385D01*
X119356980Y-148566666D02*
X119404600Y-148614285D01*
X119404600Y-148614285D02*
X119452219Y-148757142D01*
X119452219Y-148757142D02*
X119452219Y-148852380D01*
X119452219Y-148852380D02*
X119404600Y-148995237D01*
X119404600Y-148995237D02*
X119309361Y-149090475D01*
X119309361Y-149090475D02*
X119214123Y-149138094D01*
X119214123Y-149138094D02*
X119023647Y-149185713D01*
X119023647Y-149185713D02*
X118880790Y-149185713D01*
X118880790Y-149185713D02*
X118690314Y-149138094D01*
X118690314Y-149138094D02*
X118595076Y-149090475D01*
X118595076Y-149090475D02*
X118499838Y-148995237D01*
X118499838Y-148995237D02*
X118452219Y-148852380D01*
X118452219Y-148852380D02*
X118452219Y-148757142D01*
X118452219Y-148757142D02*
X118499838Y-148614285D01*
X118499838Y-148614285D02*
X118547457Y-148566666D01*
X119452219Y-148090475D02*
X119452219Y-147899999D01*
X119452219Y-147899999D02*
X119404600Y-147804761D01*
X119404600Y-147804761D02*
X119356980Y-147757142D01*
X119356980Y-147757142D02*
X119214123Y-147661904D01*
X119214123Y-147661904D02*
X119023647Y-147614285D01*
X119023647Y-147614285D02*
X118642695Y-147614285D01*
X118642695Y-147614285D02*
X118547457Y-147661904D01*
X118547457Y-147661904D02*
X118499838Y-147709523D01*
X118499838Y-147709523D02*
X118452219Y-147804761D01*
X118452219Y-147804761D02*
X118452219Y-147995237D01*
X118452219Y-147995237D02*
X118499838Y-148090475D01*
X118499838Y-148090475D02*
X118547457Y-148138094D01*
X118547457Y-148138094D02*
X118642695Y-148185713D01*
X118642695Y-148185713D02*
X118880790Y-148185713D01*
X118880790Y-148185713D02*
X118976028Y-148138094D01*
X118976028Y-148138094D02*
X119023647Y-148090475D01*
X119023647Y-148090475D02*
X119071266Y-147995237D01*
X119071266Y-147995237D02*
X119071266Y-147804761D01*
X119071266Y-147804761D02*
X119023647Y-147709523D01*
X119023647Y-147709523D02*
X118976028Y-147661904D01*
X118976028Y-147661904D02*
X118880790Y-147614285D01*
X117685714Y-152152219D02*
X117780952Y-152152219D01*
X117780952Y-152152219D02*
X117876190Y-152199838D01*
X117876190Y-152199838D02*
X117923809Y-152247457D01*
X117923809Y-152247457D02*
X117971428Y-152342695D01*
X117971428Y-152342695D02*
X118019047Y-152533171D01*
X118019047Y-152533171D02*
X118019047Y-152771266D01*
X118019047Y-152771266D02*
X117971428Y-152961742D01*
X117971428Y-152961742D02*
X117923809Y-153056980D01*
X117923809Y-153056980D02*
X117876190Y-153104600D01*
X117876190Y-153104600D02*
X117780952Y-153152219D01*
X117780952Y-153152219D02*
X117685714Y-153152219D01*
X117685714Y-153152219D02*
X117590476Y-153104600D01*
X117590476Y-153104600D02*
X117542857Y-153056980D01*
X117542857Y-153056980D02*
X117495238Y-152961742D01*
X117495238Y-152961742D02*
X117447619Y-152771266D01*
X117447619Y-152771266D02*
X117447619Y-152533171D01*
X117447619Y-152533171D02*
X117495238Y-152342695D01*
X117495238Y-152342695D02*
X117542857Y-152247457D01*
X117542857Y-152247457D02*
X117590476Y-152199838D01*
X117590476Y-152199838D02*
X117685714Y-152152219D01*
X118447619Y-153056980D02*
X118495238Y-153104600D01*
X118495238Y-153104600D02*
X118447619Y-153152219D01*
X118447619Y-153152219D02*
X118400000Y-153104600D01*
X118400000Y-153104600D02*
X118447619Y-153056980D01*
X118447619Y-153056980D02*
X118447619Y-153152219D01*
X119447618Y-153152219D02*
X118876190Y-153152219D01*
X119161904Y-153152219D02*
X119161904Y-152152219D01*
X119161904Y-152152219D02*
X119066666Y-152295076D01*
X119066666Y-152295076D02*
X118971428Y-152390314D01*
X118971428Y-152390314D02*
X118876190Y-152437933D01*
X120304761Y-152485552D02*
X120304761Y-153152219D01*
X119876190Y-152485552D02*
X119876190Y-153009361D01*
X119876190Y-153009361D02*
X119923809Y-153104600D01*
X119923809Y-153104600D02*
X120019047Y-153152219D01*
X120019047Y-153152219D02*
X120161904Y-153152219D01*
X120161904Y-153152219D02*
X120257142Y-153104600D01*
X120257142Y-153104600D02*
X120304761Y-153056980D01*
X209085714Y-118652219D02*
X209085714Y-117652219D01*
X209085714Y-118128409D02*
X209657142Y-118128409D01*
X209657142Y-118652219D02*
X209657142Y-117652219D01*
X210704761Y-118556980D02*
X210657142Y-118604600D01*
X210657142Y-118604600D02*
X210514285Y-118652219D01*
X210514285Y-118652219D02*
X210419047Y-118652219D01*
X210419047Y-118652219D02*
X210276190Y-118604600D01*
X210276190Y-118604600D02*
X210180952Y-118509361D01*
X210180952Y-118509361D02*
X210133333Y-118414123D01*
X210133333Y-118414123D02*
X210085714Y-118223647D01*
X210085714Y-118223647D02*
X210085714Y-118080790D01*
X210085714Y-118080790D02*
X210133333Y-117890314D01*
X210133333Y-117890314D02*
X210180952Y-117795076D01*
X210180952Y-117795076D02*
X210276190Y-117699838D01*
X210276190Y-117699838D02*
X210419047Y-117652219D01*
X210419047Y-117652219D02*
X210514285Y-117652219D01*
X210514285Y-117652219D02*
X210657142Y-117699838D01*
X210657142Y-117699838D02*
X210704761Y-117747457D01*
X211085714Y-118604600D02*
X211228571Y-118652219D01*
X211228571Y-118652219D02*
X211466666Y-118652219D01*
X211466666Y-118652219D02*
X211561904Y-118604600D01*
X211561904Y-118604600D02*
X211609523Y-118556980D01*
X211609523Y-118556980D02*
X211657142Y-118461742D01*
X211657142Y-118461742D02*
X211657142Y-118366504D01*
X211657142Y-118366504D02*
X211609523Y-118271266D01*
X211609523Y-118271266D02*
X211561904Y-118223647D01*
X211561904Y-118223647D02*
X211466666Y-118176028D01*
X211466666Y-118176028D02*
X211276190Y-118128409D01*
X211276190Y-118128409D02*
X211180952Y-118080790D01*
X211180952Y-118080790D02*
X211133333Y-118033171D01*
X211133333Y-118033171D02*
X211085714Y-117937933D01*
X211085714Y-117937933D02*
X211085714Y-117842695D01*
X211085714Y-117842695D02*
X211133333Y-117747457D01*
X211133333Y-117747457D02*
X211180952Y-117699838D01*
X211180952Y-117699838D02*
X211276190Y-117652219D01*
X211276190Y-117652219D02*
X211514285Y-117652219D01*
X211514285Y-117652219D02*
X211657142Y-117699838D01*
X212657142Y-118652219D02*
X212323809Y-118176028D01*
X212085714Y-118652219D02*
X212085714Y-117652219D01*
X212085714Y-117652219D02*
X212466666Y-117652219D01*
X212466666Y-117652219D02*
X212561904Y-117699838D01*
X212561904Y-117699838D02*
X212609523Y-117747457D01*
X212609523Y-117747457D02*
X212657142Y-117842695D01*
X212657142Y-117842695D02*
X212657142Y-117985552D01*
X212657142Y-117985552D02*
X212609523Y-118080790D01*
X212609523Y-118080790D02*
X212561904Y-118128409D01*
X212561904Y-118128409D02*
X212466666Y-118176028D01*
X212466666Y-118176028D02*
X212085714Y-118176028D01*
X213276190Y-117652219D02*
X213371428Y-117652219D01*
X213371428Y-117652219D02*
X213466666Y-117699838D01*
X213466666Y-117699838D02*
X213514285Y-117747457D01*
X213514285Y-117747457D02*
X213561904Y-117842695D01*
X213561904Y-117842695D02*
X213609523Y-118033171D01*
X213609523Y-118033171D02*
X213609523Y-118271266D01*
X213609523Y-118271266D02*
X213561904Y-118461742D01*
X213561904Y-118461742D02*
X213514285Y-118556980D01*
X213514285Y-118556980D02*
X213466666Y-118604600D01*
X213466666Y-118604600D02*
X213371428Y-118652219D01*
X213371428Y-118652219D02*
X213276190Y-118652219D01*
X213276190Y-118652219D02*
X213180952Y-118604600D01*
X213180952Y-118604600D02*
X213133333Y-118556980D01*
X213133333Y-118556980D02*
X213085714Y-118461742D01*
X213085714Y-118461742D02*
X213038095Y-118271266D01*
X213038095Y-118271266D02*
X213038095Y-118033171D01*
X213038095Y-118033171D02*
X213085714Y-117842695D01*
X213085714Y-117842695D02*
X213133333Y-117747457D01*
X213133333Y-117747457D02*
X213180952Y-117699838D01*
X213180952Y-117699838D02*
X213276190Y-117652219D01*
X214466666Y-117985552D02*
X214466666Y-118652219D01*
X214228571Y-117604600D02*
X213990476Y-118318885D01*
X213990476Y-118318885D02*
X214609523Y-118318885D01*
X122333333Y-94252219D02*
X122000000Y-93776028D01*
X121761905Y-94252219D02*
X121761905Y-93252219D01*
X121761905Y-93252219D02*
X122142857Y-93252219D01*
X122142857Y-93252219D02*
X122238095Y-93299838D01*
X122238095Y-93299838D02*
X122285714Y-93347457D01*
X122285714Y-93347457D02*
X122333333Y-93442695D01*
X122333333Y-93442695D02*
X122333333Y-93585552D01*
X122333333Y-93585552D02*
X122285714Y-93680790D01*
X122285714Y-93680790D02*
X122238095Y-93728409D01*
X122238095Y-93728409D02*
X122142857Y-93776028D01*
X122142857Y-93776028D02*
X121761905Y-93776028D01*
X122714286Y-93347457D02*
X122761905Y-93299838D01*
X122761905Y-93299838D02*
X122857143Y-93252219D01*
X122857143Y-93252219D02*
X123095238Y-93252219D01*
X123095238Y-93252219D02*
X123190476Y-93299838D01*
X123190476Y-93299838D02*
X123238095Y-93347457D01*
X123238095Y-93347457D02*
X123285714Y-93442695D01*
X123285714Y-93442695D02*
X123285714Y-93537933D01*
X123285714Y-93537933D02*
X123238095Y-93680790D01*
X123238095Y-93680790D02*
X122666667Y-94252219D01*
X122666667Y-94252219D02*
X123285714Y-94252219D01*
X122952219Y-96695238D02*
X122952219Y-97266666D01*
X122952219Y-96980952D02*
X121952219Y-96980952D01*
X121952219Y-96980952D02*
X122095076Y-97076190D01*
X122095076Y-97076190D02*
X122190314Y-97171428D01*
X122190314Y-97171428D02*
X122237933Y-97266666D01*
X121952219Y-96076190D02*
X121952219Y-95980952D01*
X121952219Y-95980952D02*
X121999838Y-95885714D01*
X121999838Y-95885714D02*
X122047457Y-95838095D01*
X122047457Y-95838095D02*
X122142695Y-95790476D01*
X122142695Y-95790476D02*
X122333171Y-95742857D01*
X122333171Y-95742857D02*
X122571266Y-95742857D01*
X122571266Y-95742857D02*
X122761742Y-95790476D01*
X122761742Y-95790476D02*
X122856980Y-95838095D01*
X122856980Y-95838095D02*
X122904600Y-95885714D01*
X122904600Y-95885714D02*
X122952219Y-95980952D01*
X122952219Y-95980952D02*
X122952219Y-96076190D01*
X122952219Y-96076190D02*
X122904600Y-96171428D01*
X122904600Y-96171428D02*
X122856980Y-96219047D01*
X122856980Y-96219047D02*
X122761742Y-96266666D01*
X122761742Y-96266666D02*
X122571266Y-96314285D01*
X122571266Y-96314285D02*
X122333171Y-96314285D01*
X122333171Y-96314285D02*
X122142695Y-96266666D01*
X122142695Y-96266666D02*
X122047457Y-96219047D01*
X122047457Y-96219047D02*
X121999838Y-96171428D01*
X121999838Y-96171428D02*
X121952219Y-96076190D01*
X122952219Y-95314285D02*
X121952219Y-95314285D01*
X122571266Y-95219047D02*
X122952219Y-94933333D01*
X122285552Y-94933333D02*
X122666504Y-95314285D01*
X130356980Y-136166666D02*
X130404600Y-136214285D01*
X130404600Y-136214285D02*
X130452219Y-136357142D01*
X130452219Y-136357142D02*
X130452219Y-136452380D01*
X130452219Y-136452380D02*
X130404600Y-136595237D01*
X130404600Y-136595237D02*
X130309361Y-136690475D01*
X130309361Y-136690475D02*
X130214123Y-136738094D01*
X130214123Y-136738094D02*
X130023647Y-136785713D01*
X130023647Y-136785713D02*
X129880790Y-136785713D01*
X129880790Y-136785713D02*
X129690314Y-136738094D01*
X129690314Y-136738094D02*
X129595076Y-136690475D01*
X129595076Y-136690475D02*
X129499838Y-136595237D01*
X129499838Y-136595237D02*
X129452219Y-136452380D01*
X129452219Y-136452380D02*
X129452219Y-136357142D01*
X129452219Y-136357142D02*
X129499838Y-136214285D01*
X129499838Y-136214285D02*
X129547457Y-136166666D01*
X129880790Y-135595237D02*
X129833171Y-135690475D01*
X129833171Y-135690475D02*
X129785552Y-135738094D01*
X129785552Y-135738094D02*
X129690314Y-135785713D01*
X129690314Y-135785713D02*
X129642695Y-135785713D01*
X129642695Y-135785713D02*
X129547457Y-135738094D01*
X129547457Y-135738094D02*
X129499838Y-135690475D01*
X129499838Y-135690475D02*
X129452219Y-135595237D01*
X129452219Y-135595237D02*
X129452219Y-135404761D01*
X129452219Y-135404761D02*
X129499838Y-135309523D01*
X129499838Y-135309523D02*
X129547457Y-135261904D01*
X129547457Y-135261904D02*
X129642695Y-135214285D01*
X129642695Y-135214285D02*
X129690314Y-135214285D01*
X129690314Y-135214285D02*
X129785552Y-135261904D01*
X129785552Y-135261904D02*
X129833171Y-135309523D01*
X129833171Y-135309523D02*
X129880790Y-135404761D01*
X129880790Y-135404761D02*
X129880790Y-135595237D01*
X129880790Y-135595237D02*
X129928409Y-135690475D01*
X129928409Y-135690475D02*
X129976028Y-135738094D01*
X129976028Y-135738094D02*
X130071266Y-135785713D01*
X130071266Y-135785713D02*
X130261742Y-135785713D01*
X130261742Y-135785713D02*
X130356980Y-135738094D01*
X130356980Y-135738094D02*
X130404600Y-135690475D01*
X130404600Y-135690475D02*
X130452219Y-135595237D01*
X130452219Y-135595237D02*
X130452219Y-135404761D01*
X130452219Y-135404761D02*
X130404600Y-135309523D01*
X130404600Y-135309523D02*
X130356980Y-135261904D01*
X130356980Y-135261904D02*
X130261742Y-135214285D01*
X130261742Y-135214285D02*
X130071266Y-135214285D01*
X130071266Y-135214285D02*
X129976028Y-135261904D01*
X129976028Y-135261904D02*
X129928409Y-135309523D01*
X129928409Y-135309523D02*
X129880790Y-135404761D01*
X131452219Y-137614285D02*
X131452219Y-137519047D01*
X131452219Y-137519047D02*
X131499838Y-137423809D01*
X131499838Y-137423809D02*
X131547457Y-137376190D01*
X131547457Y-137376190D02*
X131642695Y-137328571D01*
X131642695Y-137328571D02*
X131833171Y-137280952D01*
X131833171Y-137280952D02*
X132071266Y-137280952D01*
X132071266Y-137280952D02*
X132261742Y-137328571D01*
X132261742Y-137328571D02*
X132356980Y-137376190D01*
X132356980Y-137376190D02*
X132404600Y-137423809D01*
X132404600Y-137423809D02*
X132452219Y-137519047D01*
X132452219Y-137519047D02*
X132452219Y-137614285D01*
X132452219Y-137614285D02*
X132404600Y-137709523D01*
X132404600Y-137709523D02*
X132356980Y-137757142D01*
X132356980Y-137757142D02*
X132261742Y-137804761D01*
X132261742Y-137804761D02*
X132071266Y-137852380D01*
X132071266Y-137852380D02*
X131833171Y-137852380D01*
X131833171Y-137852380D02*
X131642695Y-137804761D01*
X131642695Y-137804761D02*
X131547457Y-137757142D01*
X131547457Y-137757142D02*
X131499838Y-137709523D01*
X131499838Y-137709523D02*
X131452219Y-137614285D01*
X132356980Y-136852380D02*
X132404600Y-136804761D01*
X132404600Y-136804761D02*
X132452219Y-136852380D01*
X132452219Y-136852380D02*
X132404600Y-136899999D01*
X132404600Y-136899999D02*
X132356980Y-136852380D01*
X132356980Y-136852380D02*
X132452219Y-136852380D01*
X132452219Y-135852381D02*
X132452219Y-136423809D01*
X132452219Y-136138095D02*
X131452219Y-136138095D01*
X131452219Y-136138095D02*
X131595076Y-136233333D01*
X131595076Y-136233333D02*
X131690314Y-136328571D01*
X131690314Y-136328571D02*
X131737933Y-136423809D01*
X131785552Y-134995238D02*
X132452219Y-134995238D01*
X131785552Y-135423809D02*
X132309361Y-135423809D01*
X132309361Y-135423809D02*
X132404600Y-135376190D01*
X132404600Y-135376190D02*
X132452219Y-135280952D01*
X132452219Y-135280952D02*
X132452219Y-135138095D01*
X132452219Y-135138095D02*
X132404600Y-135042857D01*
X132404600Y-135042857D02*
X132356980Y-134995238D01*
X106417241Y-150554276D02*
X106988669Y-150554276D01*
X106702955Y-151554276D02*
X106702955Y-150554276D01*
X107322003Y-151554276D02*
X107322003Y-150554276D01*
X107322003Y-150554276D02*
X107702955Y-150554276D01*
X107702955Y-150554276D02*
X107798193Y-150601895D01*
X107798193Y-150601895D02*
X107845812Y-150649514D01*
X107845812Y-150649514D02*
X107893431Y-150744752D01*
X107893431Y-150744752D02*
X107893431Y-150887609D01*
X107893431Y-150887609D02*
X107845812Y-150982847D01*
X107845812Y-150982847D02*
X107798193Y-151030466D01*
X107798193Y-151030466D02*
X107702955Y-151078085D01*
X107702955Y-151078085D02*
X107322003Y-151078085D01*
X108750574Y-150887609D02*
X108750574Y-151554276D01*
X108512479Y-150506657D02*
X108274384Y-151220942D01*
X108274384Y-151220942D02*
X108893431Y-151220942D01*
X106917241Y-145101895D02*
X106822003Y-145054276D01*
X106822003Y-145054276D02*
X106679146Y-145054276D01*
X106679146Y-145054276D02*
X106536289Y-145101895D01*
X106536289Y-145101895D02*
X106441051Y-145197133D01*
X106441051Y-145197133D02*
X106393432Y-145292371D01*
X106393432Y-145292371D02*
X106345813Y-145482847D01*
X106345813Y-145482847D02*
X106345813Y-145625704D01*
X106345813Y-145625704D02*
X106393432Y-145816180D01*
X106393432Y-145816180D02*
X106441051Y-145911418D01*
X106441051Y-145911418D02*
X106536289Y-146006657D01*
X106536289Y-146006657D02*
X106679146Y-146054276D01*
X106679146Y-146054276D02*
X106774384Y-146054276D01*
X106774384Y-146054276D02*
X106917241Y-146006657D01*
X106917241Y-146006657D02*
X106964860Y-145959037D01*
X106964860Y-145959037D02*
X106964860Y-145625704D01*
X106964860Y-145625704D02*
X106774384Y-145625704D01*
X107393432Y-146054276D02*
X107393432Y-145054276D01*
X107393432Y-145054276D02*
X107964860Y-146054276D01*
X107964860Y-146054276D02*
X107964860Y-145054276D01*
X108441051Y-146054276D02*
X108441051Y-145054276D01*
X108441051Y-145054276D02*
X108679146Y-145054276D01*
X108679146Y-145054276D02*
X108822003Y-145101895D01*
X108822003Y-145101895D02*
X108917241Y-145197133D01*
X108917241Y-145197133D02*
X108964860Y-145292371D01*
X108964860Y-145292371D02*
X109012479Y-145482847D01*
X109012479Y-145482847D02*
X109012479Y-145625704D01*
X109012479Y-145625704D02*
X108964860Y-145816180D01*
X108964860Y-145816180D02*
X108917241Y-145911418D01*
X108917241Y-145911418D02*
X108822003Y-146006657D01*
X108822003Y-146006657D02*
X108679146Y-146054276D01*
X108679146Y-146054276D02*
X108441051Y-146054276D01*
X140038095Y-133052219D02*
X140609523Y-133052219D01*
X140323809Y-134052219D02*
X140323809Y-133052219D01*
X140942857Y-134052219D02*
X140942857Y-133052219D01*
X140942857Y-133052219D02*
X141323809Y-133052219D01*
X141323809Y-133052219D02*
X141419047Y-133099838D01*
X141419047Y-133099838D02*
X141466666Y-133147457D01*
X141466666Y-133147457D02*
X141514285Y-133242695D01*
X141514285Y-133242695D02*
X141514285Y-133385552D01*
X141514285Y-133385552D02*
X141466666Y-133480790D01*
X141466666Y-133480790D02*
X141419047Y-133528409D01*
X141419047Y-133528409D02*
X141323809Y-133576028D01*
X141323809Y-133576028D02*
X140942857Y-133576028D01*
X141847619Y-133052219D02*
X142466666Y-133052219D01*
X142466666Y-133052219D02*
X142133333Y-133433171D01*
X142133333Y-133433171D02*
X142276190Y-133433171D01*
X142276190Y-133433171D02*
X142371428Y-133480790D01*
X142371428Y-133480790D02*
X142419047Y-133528409D01*
X142419047Y-133528409D02*
X142466666Y-133623647D01*
X142466666Y-133623647D02*
X142466666Y-133861742D01*
X142466666Y-133861742D02*
X142419047Y-133956980D01*
X142419047Y-133956980D02*
X142371428Y-134004600D01*
X142371428Y-134004600D02*
X142276190Y-134052219D01*
X142276190Y-134052219D02*
X141990476Y-134052219D01*
X141990476Y-134052219D02*
X141895238Y-134004600D01*
X141895238Y-134004600D02*
X141847619Y-133956980D01*
X138809523Y-138252219D02*
X138333333Y-138252219D01*
X138333333Y-138252219D02*
X138285714Y-138728409D01*
X138285714Y-138728409D02*
X138333333Y-138680790D01*
X138333333Y-138680790D02*
X138428571Y-138633171D01*
X138428571Y-138633171D02*
X138666666Y-138633171D01*
X138666666Y-138633171D02*
X138761904Y-138680790D01*
X138761904Y-138680790D02*
X138809523Y-138728409D01*
X138809523Y-138728409D02*
X138857142Y-138823647D01*
X138857142Y-138823647D02*
X138857142Y-139061742D01*
X138857142Y-139061742D02*
X138809523Y-139156980D01*
X138809523Y-139156980D02*
X138761904Y-139204600D01*
X138761904Y-139204600D02*
X138666666Y-139252219D01*
X138666666Y-139252219D02*
X138428571Y-139252219D01*
X138428571Y-139252219D02*
X138333333Y-139204600D01*
X138333333Y-139204600D02*
X138285714Y-139156980D01*
X139142857Y-138252219D02*
X139476190Y-139252219D01*
X139476190Y-139252219D02*
X139809523Y-138252219D01*
X142456980Y-121566666D02*
X142504600Y-121614285D01*
X142504600Y-121614285D02*
X142552219Y-121757142D01*
X142552219Y-121757142D02*
X142552219Y-121852380D01*
X142552219Y-121852380D02*
X142504600Y-121995237D01*
X142504600Y-121995237D02*
X142409361Y-122090475D01*
X142409361Y-122090475D02*
X142314123Y-122138094D01*
X142314123Y-122138094D02*
X142123647Y-122185713D01*
X142123647Y-122185713D02*
X141980790Y-122185713D01*
X141980790Y-122185713D02*
X141790314Y-122138094D01*
X141790314Y-122138094D02*
X141695076Y-122090475D01*
X141695076Y-122090475D02*
X141599838Y-121995237D01*
X141599838Y-121995237D02*
X141552219Y-121852380D01*
X141552219Y-121852380D02*
X141552219Y-121757142D01*
X141552219Y-121757142D02*
X141599838Y-121614285D01*
X141599838Y-121614285D02*
X141647457Y-121566666D01*
X141885552Y-120709523D02*
X142552219Y-120709523D01*
X141504600Y-120947618D02*
X142218885Y-121185713D01*
X142218885Y-121185713D02*
X142218885Y-120566666D01*
X140252219Y-121566666D02*
X140252219Y-122138094D01*
X140252219Y-121852380D02*
X139252219Y-121852380D01*
X139252219Y-121852380D02*
X139395076Y-121947618D01*
X139395076Y-121947618D02*
X139490314Y-122042856D01*
X139490314Y-122042856D02*
X139537933Y-122138094D01*
X139585552Y-120709523D02*
X140252219Y-120709523D01*
X139585552Y-121138094D02*
X140109361Y-121138094D01*
X140109361Y-121138094D02*
X140204600Y-121090475D01*
X140204600Y-121090475D02*
X140252219Y-120995237D01*
X140252219Y-120995237D02*
X140252219Y-120852380D01*
X140252219Y-120852380D02*
X140204600Y-120757142D01*
X140204600Y-120757142D02*
X140156980Y-120709523D01*
X140156980Y-151342857D02*
X140204600Y-151390476D01*
X140204600Y-151390476D02*
X140252219Y-151533333D01*
X140252219Y-151533333D02*
X140252219Y-151628571D01*
X140252219Y-151628571D02*
X140204600Y-151771428D01*
X140204600Y-151771428D02*
X140109361Y-151866666D01*
X140109361Y-151866666D02*
X140014123Y-151914285D01*
X140014123Y-151914285D02*
X139823647Y-151961904D01*
X139823647Y-151961904D02*
X139680790Y-151961904D01*
X139680790Y-151961904D02*
X139490314Y-151914285D01*
X139490314Y-151914285D02*
X139395076Y-151866666D01*
X139395076Y-151866666D02*
X139299838Y-151771428D01*
X139299838Y-151771428D02*
X139252219Y-151628571D01*
X139252219Y-151628571D02*
X139252219Y-151533333D01*
X139252219Y-151533333D02*
X139299838Y-151390476D01*
X139299838Y-151390476D02*
X139347457Y-151342857D01*
X140252219Y-150390476D02*
X140252219Y-150961904D01*
X140252219Y-150676190D02*
X139252219Y-150676190D01*
X139252219Y-150676190D02*
X139395076Y-150771428D01*
X139395076Y-150771428D02*
X139490314Y-150866666D01*
X139490314Y-150866666D02*
X139537933Y-150961904D01*
X139252219Y-149771428D02*
X139252219Y-149676190D01*
X139252219Y-149676190D02*
X139299838Y-149580952D01*
X139299838Y-149580952D02*
X139347457Y-149533333D01*
X139347457Y-149533333D02*
X139442695Y-149485714D01*
X139442695Y-149485714D02*
X139633171Y-149438095D01*
X139633171Y-149438095D02*
X139871266Y-149438095D01*
X139871266Y-149438095D02*
X140061742Y-149485714D01*
X140061742Y-149485714D02*
X140156980Y-149533333D01*
X140156980Y-149533333D02*
X140204600Y-149580952D01*
X140204600Y-149580952D02*
X140252219Y-149676190D01*
X140252219Y-149676190D02*
X140252219Y-149771428D01*
X140252219Y-149771428D02*
X140204600Y-149866666D01*
X140204600Y-149866666D02*
X140156980Y-149914285D01*
X140156980Y-149914285D02*
X140061742Y-149961904D01*
X140061742Y-149961904D02*
X139871266Y-150009523D01*
X139871266Y-150009523D02*
X139633171Y-150009523D01*
X139633171Y-150009523D02*
X139442695Y-149961904D01*
X139442695Y-149961904D02*
X139347457Y-149914285D01*
X139347457Y-149914285D02*
X139299838Y-149866666D01*
X139299838Y-149866666D02*
X139252219Y-149771428D01*
X135852219Y-150866666D02*
X135852219Y-151438094D01*
X135852219Y-151152380D02*
X134852219Y-151152380D01*
X134852219Y-151152380D02*
X134995076Y-151247618D01*
X134995076Y-151247618D02*
X135090314Y-151342856D01*
X135090314Y-151342856D02*
X135137933Y-151438094D01*
X135185552Y-150009523D02*
X135852219Y-150009523D01*
X135185552Y-150438094D02*
X135709361Y-150438094D01*
X135709361Y-150438094D02*
X135804600Y-150390475D01*
X135804600Y-150390475D02*
X135852219Y-150295237D01*
X135852219Y-150295237D02*
X135852219Y-150152380D01*
X135852219Y-150152380D02*
X135804600Y-150057142D01*
X135804600Y-150057142D02*
X135756980Y-150009523D01*
X150638095Y-132752219D02*
X151209523Y-132752219D01*
X150923809Y-133752219D02*
X150923809Y-132752219D01*
X151542857Y-133752219D02*
X151542857Y-132752219D01*
X151542857Y-132752219D02*
X151923809Y-132752219D01*
X151923809Y-132752219D02*
X152019047Y-132799838D01*
X152019047Y-132799838D02*
X152066666Y-132847457D01*
X152066666Y-132847457D02*
X152114285Y-132942695D01*
X152114285Y-132942695D02*
X152114285Y-133085552D01*
X152114285Y-133085552D02*
X152066666Y-133180790D01*
X152066666Y-133180790D02*
X152019047Y-133228409D01*
X152019047Y-133228409D02*
X151923809Y-133276028D01*
X151923809Y-133276028D02*
X151542857Y-133276028D01*
X152495238Y-132847457D02*
X152542857Y-132799838D01*
X152542857Y-132799838D02*
X152638095Y-132752219D01*
X152638095Y-132752219D02*
X152876190Y-132752219D01*
X152876190Y-132752219D02*
X152971428Y-132799838D01*
X152971428Y-132799838D02*
X153019047Y-132847457D01*
X153019047Y-132847457D02*
X153066666Y-132942695D01*
X153066666Y-132942695D02*
X153066666Y-133037933D01*
X153066666Y-133037933D02*
X153019047Y-133180790D01*
X153019047Y-133180790D02*
X152447619Y-133752219D01*
X152447619Y-133752219D02*
X153066666Y-133752219D01*
X148880952Y-139356980D02*
X148833333Y-139404600D01*
X148833333Y-139404600D02*
X148690476Y-139452219D01*
X148690476Y-139452219D02*
X148595238Y-139452219D01*
X148595238Y-139452219D02*
X148452381Y-139404600D01*
X148452381Y-139404600D02*
X148357143Y-139309361D01*
X148357143Y-139309361D02*
X148309524Y-139214123D01*
X148309524Y-139214123D02*
X148261905Y-139023647D01*
X148261905Y-139023647D02*
X148261905Y-138880790D01*
X148261905Y-138880790D02*
X148309524Y-138690314D01*
X148309524Y-138690314D02*
X148357143Y-138595076D01*
X148357143Y-138595076D02*
X148452381Y-138499838D01*
X148452381Y-138499838D02*
X148595238Y-138452219D01*
X148595238Y-138452219D02*
X148690476Y-138452219D01*
X148690476Y-138452219D02*
X148833333Y-138499838D01*
X148833333Y-138499838D02*
X148880952Y-138547457D01*
X149261905Y-139404600D02*
X149404762Y-139452219D01*
X149404762Y-139452219D02*
X149642857Y-139452219D01*
X149642857Y-139452219D02*
X149738095Y-139404600D01*
X149738095Y-139404600D02*
X149785714Y-139356980D01*
X149785714Y-139356980D02*
X149833333Y-139261742D01*
X149833333Y-139261742D02*
X149833333Y-139166504D01*
X149833333Y-139166504D02*
X149785714Y-139071266D01*
X149785714Y-139071266D02*
X149738095Y-139023647D01*
X149738095Y-139023647D02*
X149642857Y-138976028D01*
X149642857Y-138976028D02*
X149452381Y-138928409D01*
X149452381Y-138928409D02*
X149357143Y-138880790D01*
X149357143Y-138880790D02*
X149309524Y-138833171D01*
X149309524Y-138833171D02*
X149261905Y-138737933D01*
X149261905Y-138737933D02*
X149261905Y-138642695D01*
X149261905Y-138642695D02*
X149309524Y-138547457D01*
X149309524Y-138547457D02*
X149357143Y-138499838D01*
X149357143Y-138499838D02*
X149452381Y-138452219D01*
X149452381Y-138452219D02*
X149690476Y-138452219D01*
X149690476Y-138452219D02*
X149833333Y-138499838D01*
X150261905Y-139452219D02*
X150261905Y-138452219D01*
X150500000Y-139547457D02*
X151261904Y-139547457D01*
X152023809Y-139452219D02*
X151452381Y-139452219D01*
X151738095Y-139452219D02*
X151738095Y-138452219D01*
X151738095Y-138452219D02*
X151642857Y-138595076D01*
X151642857Y-138595076D02*
X151547619Y-138690314D01*
X151547619Y-138690314D02*
X151452381Y-138737933D01*
X152357143Y-138785552D02*
X152595238Y-139452219D01*
X152595238Y-139452219D02*
X152833333Y-138785552D01*
X153166667Y-138547457D02*
X153214286Y-138499838D01*
X153214286Y-138499838D02*
X153309524Y-138452219D01*
X153309524Y-138452219D02*
X153547619Y-138452219D01*
X153547619Y-138452219D02*
X153642857Y-138499838D01*
X153642857Y-138499838D02*
X153690476Y-138547457D01*
X153690476Y-138547457D02*
X153738095Y-138642695D01*
X153738095Y-138642695D02*
X153738095Y-138737933D01*
X153738095Y-138737933D02*
X153690476Y-138880790D01*
X153690476Y-138880790D02*
X153119048Y-139452219D01*
X153119048Y-139452219D02*
X153738095Y-139452219D01*
D13*
X140930000Y-130970000D02*
X140930000Y-126430000D01*
X140986000Y-130970000D02*
X140930000Y-130970000D01*
X143014000Y-126430000D02*
X143070000Y-126430000D01*
X143070000Y-126430000D02*
X143070000Y-130970000D01*
X160350000Y-136000000D02*
G75*
G02*
X156850000Y-136000000I-1750000J0D01*
G01*
X156850000Y-136000000D02*
G75*
G02*
X160350000Y-136000000I1750000J0D01*
G01*
X150650000Y-156800000D02*
G75*
G02*
X147150000Y-156800000I-1750000J0D01*
G01*
X147150000Y-156800000D02*
G75*
G02*
X150650000Y-156800000I1750000J0D01*
G01*
X120060000Y-156600000D02*
X120830000Y-156600000D01*
X128140000Y-156600000D02*
X127370000Y-156600000D01*
X127370000Y-157970000D02*
X120830000Y-157970000D01*
X120830000Y-155230000D01*
X127370000Y-155230000D01*
X127370000Y-157970000D01*
D14*
X151700000Y-56750000D02*
X179600000Y-56750000D01*
X151700000Y-111150000D02*
X151700000Y-56750000D01*
X179600000Y-56750000D02*
X179600000Y-111150000D01*
X179600000Y-111150000D02*
X151700000Y-111150000D01*
D10*
X151150000Y-64140000D02*
G75*
G02*
X150950000Y-64140000I-100000J0D01*
G01*
X150950000Y-64140000D02*
G75*
G02*
X151150000Y-64140000I100000J0D01*
G01*
D13*
X118480000Y-95720000D02*
X118480000Y-91180000D01*
X118536000Y-95720000D02*
X118480000Y-95720000D01*
X120564000Y-91180000D02*
X120620000Y-91180000D01*
X120620000Y-91180000D02*
X120620000Y-95720000D01*
X207580000Y-66230000D02*
X216120000Y-66230000D01*
X207580000Y-68300000D02*
X207580000Y-66230000D01*
X207580000Y-77970000D02*
X207580000Y-68900000D01*
X211200000Y-66230000D02*
X211200000Y-66820000D01*
X211200000Y-70380000D02*
X211200000Y-70701000D01*
X211200000Y-73499000D02*
X211200000Y-74201000D01*
X211200000Y-76999000D02*
X211200000Y-77970000D01*
X213399000Y-70700000D02*
X215300000Y-70700000D01*
X213399000Y-74200000D02*
X215300000Y-74200000D01*
X214080000Y-67200000D02*
X215300000Y-67200000D01*
X215300000Y-67200000D02*
X215300000Y-70000000D01*
X215300000Y-70000000D02*
X214080000Y-70000000D01*
X215300000Y-70700000D02*
X215300000Y-73500000D01*
X215300000Y-73500000D02*
X213399000Y-73500000D01*
X215300000Y-74200000D02*
X215300000Y-77000000D01*
X215300000Y-77000000D02*
X213399000Y-77000000D01*
X216120000Y-66230000D02*
X216120000Y-77970000D01*
X216120000Y-77970000D02*
X207580000Y-77970000D01*
X213778000Y-71108000D02*
G75*
G02*
X213778000Y-73092000I122469J-992000D01*
G01*
X213778000Y-74608000D02*
G75*
G02*
X213778000Y-76592000I122469J-992000D01*
G01*
X214080000Y-67616000D02*
G75*
G02*
X214080000Y-69584000I-180400J-984000D01*
G01*
X207580000Y-68600000D02*
X206970000Y-69040000D01*
X206970000Y-68160000D01*
X207580000Y-68600000D01*
G36*
X207580000Y-68600000D02*
G01*
X206970000Y-69040000D01*
X206970000Y-68160000D01*
X207580000Y-68600000D01*
G37*
X125850000Y-91960000D02*
X125850000Y-92730000D01*
X125850000Y-100040000D02*
X125850000Y-99270000D01*
X127220000Y-92730000D02*
X124480000Y-92730000D01*
X124480000Y-99270000D01*
X127220000Y-99270000D01*
X127220000Y-92730000D01*
X207480000Y-54030000D02*
X216020000Y-54030000D01*
X207480000Y-56100000D02*
X207480000Y-54030000D01*
X207480000Y-62270000D02*
X207480000Y-56700000D01*
X211100000Y-54030000D02*
X211100000Y-54620000D01*
X211100000Y-58180000D02*
X211100000Y-58501000D01*
X211100000Y-61299000D02*
X211100000Y-62270000D01*
X213299000Y-58500000D02*
X215200000Y-58500000D01*
X213980000Y-55000000D02*
X215200000Y-55000000D01*
X215200000Y-55000000D02*
X215200000Y-57800000D01*
X215200000Y-57800000D02*
X213980000Y-57800000D01*
X215200000Y-58500000D02*
X215200000Y-61300000D01*
X215200000Y-61300000D02*
X213299000Y-61300000D01*
X216020000Y-54030000D02*
X216020000Y-62270000D01*
X216020000Y-62270000D02*
X207480000Y-62270000D01*
X213678000Y-58908000D02*
G75*
G02*
X213678000Y-60892000I122469J-992000D01*
G01*
X213980000Y-55416000D02*
G75*
G02*
X213980000Y-57384000I-180400J-984000D01*
G01*
X207480000Y-56400000D02*
X206870000Y-56840000D01*
X206870000Y-55960000D01*
X207480000Y-56400000D01*
G36*
X207480000Y-56400000D02*
G01*
X206870000Y-56840000D01*
X206870000Y-55960000D01*
X207480000Y-56400000D01*
G37*
X158230000Y-130540000D02*
X158230000Y-126000000D01*
X158286000Y-130540000D02*
X158230000Y-130540000D01*
X160314000Y-126000000D02*
X160370000Y-126000000D01*
X160370000Y-126000000D02*
X160370000Y-130540000D01*
X204200000Y-44360000D02*
X204200000Y-45130000D01*
X204200000Y-52440000D02*
X204200000Y-51670000D01*
X205570000Y-45130000D02*
X202830000Y-45130000D01*
X202830000Y-51670000D01*
X205570000Y-51670000D01*
X205570000Y-45130000D01*
X207580000Y-138630000D02*
X216120000Y-138630000D01*
X207580000Y-140700000D02*
X207580000Y-138630000D01*
X207580000Y-150370000D02*
X207580000Y-141300000D01*
X211200000Y-138630000D02*
X211200000Y-139220000D01*
X211200000Y-142780000D02*
X211200000Y-143101000D01*
X211200000Y-145899000D02*
X211200000Y-146601000D01*
X211200000Y-149399000D02*
X211200000Y-150370000D01*
X213399000Y-143100000D02*
X215300000Y-143100000D01*
X213399000Y-146600000D02*
X215300000Y-146600000D01*
X214080000Y-139600000D02*
X215300000Y-139600000D01*
X215300000Y-139600000D02*
X215300000Y-142400000D01*
X215300000Y-142400000D02*
X214080000Y-142400000D01*
X215300000Y-143100000D02*
X215300000Y-145900000D01*
X215300000Y-145900000D02*
X213399000Y-145900000D01*
X215300000Y-146600000D02*
X215300000Y-149400000D01*
X215300000Y-149400000D02*
X213399000Y-149400000D01*
X216120000Y-138630000D02*
X216120000Y-150370000D01*
X216120000Y-150370000D02*
X207580000Y-150370000D01*
X213778000Y-143508000D02*
G75*
G02*
X213778000Y-145492000I122469J-992000D01*
G01*
X213778000Y-147008000D02*
G75*
G02*
X213778000Y-148992000I122469J-992000D01*
G01*
X214080000Y-140016000D02*
G75*
G02*
X214080000Y-141984000I-180400J-984000D01*
G01*
X207580000Y-141000000D02*
X206970000Y-141440000D01*
X206970000Y-140560000D01*
X207580000Y-141000000D01*
G36*
X207580000Y-141000000D02*
G01*
X206970000Y-141440000D01*
X206970000Y-140560000D01*
X207580000Y-141000000D01*
G37*
D10*
X101200000Y-128700000D02*
X101200000Y-137700000D01*
X101200000Y-128700000D02*
X115500000Y-128700000D01*
X101200000Y-137700000D02*
X109750000Y-137700000D01*
X115500000Y-130750000D02*
X115500000Y-128700000D01*
X115500000Y-135650000D02*
X115500000Y-137700000D01*
X115500000Y-137700000D02*
X114250000Y-137700000D01*
X117100000Y-133200000D02*
G75*
G02*
X116900000Y-133200000I-100000J0D01*
G01*
X116900000Y-133200000D02*
G75*
G02*
X117100000Y-133200000I100000J0D01*
G01*
D13*
X133100000Y-149240000D02*
X133100000Y-150010000D01*
X133100000Y-157320000D02*
X133100000Y-156550000D01*
X134470000Y-150010000D02*
X131730000Y-150010000D01*
X131730000Y-156550000D01*
X134470000Y-156550000D01*
X134470000Y-150010000D01*
D10*
X165300000Y-134350000D02*
X166000000Y-134350000D01*
X165300000Y-136750000D02*
X165300000Y-134350000D01*
X166150000Y-138150000D02*
X178450000Y-138150000D01*
X178600000Y-134350000D02*
X179300000Y-134350000D01*
X179300000Y-134350000D02*
X179300000Y-136750000D01*
X166650000Y-133850000D02*
G75*
G02*
X166450000Y-133850000I-100000J0D01*
G01*
X166450000Y-133850000D02*
G75*
G02*
X166650000Y-133850000I100000J0D01*
G01*
D13*
X146350000Y-136000000D02*
G75*
G02*
X142850000Y-136000000I-1750000J0D01*
G01*
X142850000Y-136000000D02*
G75*
G02*
X146350000Y-136000000I1750000J0D01*
G01*
X137250000Y-143100000D02*
G75*
G02*
X133750000Y-143100000I-1750000J0D01*
G01*
X133750000Y-143100000D02*
G75*
G02*
X137250000Y-143100000I1750000J0D01*
G01*
X130560000Y-65945000D02*
X130560000Y-101625000D01*
X130560000Y-101625000D02*
X135860000Y-101625000D01*
X132210000Y-65945000D02*
X130560000Y-65945000D01*
X135860000Y-65945000D02*
X134210000Y-65945000D01*
X135860000Y-101625000D02*
X135860000Y-65945000D01*
X134210000Y-65945000D02*
G75*
G02*
X132210000Y-65945000I-1000000J0D01*
G01*
X207562500Y-121530000D02*
X216102500Y-121530000D01*
X207562500Y-123600000D02*
X207562500Y-121530000D01*
X207562500Y-133270000D02*
X207562500Y-124200000D01*
X211182500Y-121530000D02*
X211182500Y-122120000D01*
X211182500Y-125680000D02*
X211182500Y-126001000D01*
X211182500Y-128799000D02*
X211182500Y-129501000D01*
X211182500Y-132299000D02*
X211182500Y-133270000D01*
X213381500Y-126000000D02*
X215282500Y-126000000D01*
X213381500Y-129500000D02*
X215282500Y-129500000D01*
X214062500Y-122500000D02*
X215282500Y-122500000D01*
X215282500Y-122500000D02*
X215282500Y-125300000D01*
X215282500Y-125300000D02*
X214062500Y-125300000D01*
X215282500Y-126000000D02*
X215282500Y-128800000D01*
X215282500Y-128800000D02*
X213381500Y-128800000D01*
X215282500Y-129500000D02*
X215282500Y-132300000D01*
X215282500Y-132300000D02*
X213381500Y-132300000D01*
X216102500Y-121530000D02*
X216102500Y-133270000D01*
X216102500Y-133270000D02*
X207562500Y-133270000D01*
X213760500Y-126408000D02*
G75*
G02*
X213760500Y-128392000I122469J-992000D01*
G01*
X213760500Y-129908000D02*
G75*
G02*
X213760500Y-131892000I122469J-992000D01*
G01*
X214062500Y-122916000D02*
G75*
G02*
X214062500Y-124884000I-180400J-984000D01*
G01*
X207562500Y-123900000D02*
X206952500Y-124340000D01*
X206952500Y-123460000D01*
X207562500Y-123900000D01*
G36*
X207562500Y-123900000D02*
G01*
X206952500Y-124340000D01*
X206952500Y-123460000D01*
X207562500Y-123900000D01*
G37*
X101830000Y-65670000D02*
X101830000Y-103890000D01*
X101830000Y-65670000D02*
X104430000Y-65670000D01*
X101830000Y-103890000D02*
X107030000Y-103890000D01*
X104430000Y-65670000D02*
X104430000Y-68270000D01*
X104430000Y-68270000D02*
X107030000Y-68270000D01*
X105700000Y-65670000D02*
X107030000Y-65670000D01*
X107030000Y-65670000D02*
X107030000Y-67000000D01*
X107030000Y-68270000D02*
X107030000Y-103890000D01*
X122340000Y-143130000D02*
X126960000Y-143130000D01*
X122340000Y-146390000D02*
X123720000Y-146390000D01*
X122340000Y-150090000D02*
X123720000Y-150090000D01*
X122340000Y-153350000D02*
X122340000Y-143130000D01*
X123720000Y-153350000D02*
X123720000Y-143130000D01*
X126960000Y-143130000D02*
X126960000Y-153350000D01*
X126960000Y-153350000D02*
X122340000Y-153350000D01*
X122240000Y-129350000D02*
X126860000Y-129350000D01*
X122240000Y-132610000D02*
X123620000Y-132610000D01*
X122240000Y-136310000D02*
X123620000Y-136310000D01*
X122240000Y-139570000D02*
X122240000Y-129350000D01*
X123620000Y-139570000D02*
X123620000Y-129350000D01*
X126860000Y-129350000D02*
X126860000Y-139570000D01*
X126860000Y-139570000D02*
X122240000Y-139570000D01*
X132930000Y-138270000D02*
X132930000Y-133730000D01*
X132986000Y-138270000D02*
X132930000Y-138270000D01*
X135014000Y-133730000D02*
X135070000Y-133730000D01*
X135070000Y-133730000D02*
X135070000Y-138270000D01*
X128930000Y-130770000D02*
X128930000Y-126230000D01*
X128986000Y-130770000D02*
X128930000Y-130770000D01*
X131014000Y-126230000D02*
X131070000Y-126230000D01*
X131070000Y-126230000D02*
X131070000Y-130770000D01*
X98550000Y-123600000D02*
G75*
G02*
X95050000Y-123600000I-1750000J0D01*
G01*
X95050000Y-123600000D02*
G75*
G02*
X98550000Y-123600000I1750000J0D01*
G01*
X162550000Y-121660000D02*
X162550000Y-122430000D01*
X162550000Y-129740000D02*
X162550000Y-128970000D01*
X163920000Y-122430000D02*
X161180000Y-122430000D01*
X161180000Y-128970000D01*
X163920000Y-128970000D01*
X163920000Y-122430000D01*
D15*
X133147500Y-118425200D02*
X133147500Y-119425960D01*
X133147500Y-120574040D02*
X133147500Y-121574800D01*
X133147500Y-121574800D02*
X135052500Y-121574800D01*
X135052500Y-118425200D02*
X133147500Y-118425200D01*
X135052500Y-120375961D02*
X135052500Y-119624039D01*
D13*
X207580000Y-82230000D02*
X216120000Y-82230000D01*
X207580000Y-84300000D02*
X207580000Y-82230000D01*
X207580000Y-97470000D02*
X207580000Y-84900000D01*
X211200000Y-82230000D02*
X211200000Y-82820000D01*
X211200000Y-86380000D02*
X211200000Y-86701000D01*
X211200000Y-89499000D02*
X211200000Y-90201000D01*
X211200000Y-92999000D02*
X211200000Y-93701000D01*
X211200000Y-96499000D02*
X211200000Y-97470000D01*
X213399000Y-86700000D02*
X215300000Y-86700000D01*
X213399000Y-90200000D02*
X215300000Y-90200000D01*
X213399000Y-93700000D02*
X215300000Y-93700000D01*
X214080000Y-83200000D02*
X215300000Y-83200000D01*
X215300000Y-83200000D02*
X215300000Y-86000000D01*
X215300000Y-86000000D02*
X214080000Y-86000000D01*
X215300000Y-86700000D02*
X215300000Y-89500000D01*
X215300000Y-89500000D02*
X213399000Y-89500000D01*
X215300000Y-90200000D02*
X215300000Y-93000000D01*
X215300000Y-93000000D02*
X213399000Y-93000000D01*
X215300000Y-93700000D02*
X215300000Y-96500000D01*
X215300000Y-96500000D02*
X213399000Y-96500000D01*
X216120000Y-82230000D02*
X216120000Y-97470000D01*
X216120000Y-97470000D02*
X207580000Y-97470000D01*
X213778000Y-87108000D02*
G75*
G02*
X213778000Y-89092000I122469J-992000D01*
G01*
X213778000Y-90608000D02*
G75*
G02*
X213778000Y-92592000I122469J-992000D01*
G01*
X213778000Y-94108000D02*
G75*
G02*
X213778000Y-96092000I122469J-992000D01*
G01*
X214080000Y-83616000D02*
G75*
G02*
X214080000Y-85584000I-180400J-984000D01*
G01*
X207580000Y-84600000D02*
X206970000Y-85040000D01*
X206970000Y-84160000D01*
X207580000Y-84600000D01*
G36*
X207580000Y-84600000D02*
G01*
X206970000Y-85040000D01*
X206970000Y-84160000D01*
X207580000Y-84600000D01*
G37*
X147100000Y-92580000D02*
X147100000Y-93350000D01*
X147100000Y-100660000D02*
X147100000Y-99890000D01*
X148470000Y-93350000D02*
X145730000Y-93350000D01*
X145730000Y-99890000D01*
X148470000Y-99890000D01*
X148470000Y-93350000D01*
X117866469Y-136838383D02*
X117866469Y-132298383D01*
X117922469Y-136838383D02*
X117866469Y-136838383D01*
X119950469Y-132298383D02*
X120006469Y-132298383D01*
X120006469Y-132298383D02*
X120006469Y-136838383D01*
D15*
X133112500Y-122553600D02*
X133112500Y-123770260D01*
X133112500Y-126086740D02*
X133112500Y-127303400D01*
X133112500Y-127303400D02*
X135855700Y-127303400D01*
X135855700Y-122553600D02*
X133112500Y-122553600D01*
X135855700Y-122879860D02*
X135855700Y-122553600D01*
X135855700Y-124354460D02*
X135855700Y-123977140D01*
X135855700Y-125879860D02*
X135855700Y-125502540D01*
X135855700Y-127303400D02*
X135855700Y-126977140D01*
X136554200Y-128446400D02*
G75*
G02*
X136300200Y-128446400I-127000J0D01*
G01*
X136300200Y-128446400D02*
G75*
G02*
X136554200Y-128446400I127000J0D01*
G01*
D13*
X117930000Y-150470000D02*
X117930000Y-145930000D01*
X117986000Y-150470000D02*
X117930000Y-150470000D01*
X120014000Y-145930000D02*
X120070000Y-145930000D01*
X120070000Y-145930000D02*
X120070000Y-150470000D01*
X207580000Y-101430000D02*
X216120000Y-101430000D01*
X207580000Y-103500000D02*
X207580000Y-101430000D01*
X207580000Y-116670000D02*
X207580000Y-104100000D01*
X211200000Y-101430000D02*
X211200000Y-102020000D01*
X211200000Y-105580000D02*
X211200000Y-105901000D01*
X211200000Y-108699000D02*
X211200000Y-109401000D01*
X211200000Y-112199000D02*
X211200000Y-112901000D01*
X211200000Y-115699000D02*
X211200000Y-116670000D01*
X213399000Y-105900000D02*
X215300000Y-105900000D01*
X213399000Y-109400000D02*
X215300000Y-109400000D01*
X213399000Y-112900000D02*
X215300000Y-112900000D01*
X214080000Y-102400000D02*
X215300000Y-102400000D01*
X215300000Y-102400000D02*
X215300000Y-105200000D01*
X215300000Y-105200000D02*
X214080000Y-105200000D01*
X215300000Y-105900000D02*
X215300000Y-108700000D01*
X215300000Y-108700000D02*
X213399000Y-108700000D01*
X215300000Y-109400000D02*
X215300000Y-112200000D01*
X215300000Y-112200000D02*
X213399000Y-112200000D01*
X215300000Y-112900000D02*
X215300000Y-115700000D01*
X215300000Y-115700000D02*
X213399000Y-115700000D01*
X216120000Y-101430000D02*
X216120000Y-116670000D01*
X216120000Y-116670000D02*
X207580000Y-116670000D01*
X213778000Y-106308000D02*
G75*
G02*
X213778000Y-108292000I122469J-992000D01*
G01*
X213778000Y-109808000D02*
G75*
G02*
X213778000Y-111792000I122469J-992000D01*
G01*
X213778000Y-113308000D02*
G75*
G02*
X213778000Y-115292000I122469J-992000D01*
G01*
X214080000Y-102816000D02*
G75*
G02*
X214080000Y-104784000I-180400J-984000D01*
G01*
X207580000Y-103800000D02*
X206970000Y-104240000D01*
X206970000Y-103360000D01*
X207580000Y-103800000D01*
G36*
X207580000Y-103800000D02*
G01*
X206970000Y-104240000D01*
X206970000Y-103360000D01*
X207580000Y-103800000D01*
G37*
X122500000Y-91980000D02*
X122500000Y-92750000D01*
X122500000Y-100060000D02*
X122500000Y-99290000D01*
X123870000Y-92750000D02*
X121130000Y-92750000D01*
X121130000Y-99290000D01*
X123870000Y-99290000D01*
X123870000Y-92750000D01*
X128930000Y-138270000D02*
X128930000Y-133730000D01*
X128986000Y-138270000D02*
X128930000Y-138270000D01*
X131014000Y-133730000D02*
X131070000Y-133730000D01*
X131070000Y-133730000D02*
X131070000Y-138270000D01*
X109429146Y-148352057D02*
G75*
G02*
X105929146Y-148352057I-1750000J0D01*
G01*
X105929146Y-148352057D02*
G75*
G02*
X109429146Y-148352057I1750000J0D01*
G01*
X140750000Y-136000000D02*
G75*
G02*
X137250000Y-136000000I-1750000J0D01*
G01*
X137250000Y-136000000D02*
G75*
G02*
X140750000Y-136000000I1750000J0D01*
G01*
X140930000Y-123670000D02*
X140930000Y-119130000D01*
X140986000Y-123670000D02*
X140930000Y-123670000D01*
X143014000Y-119130000D02*
X143070000Y-119130000D01*
X143070000Y-119130000D02*
X143070000Y-123670000D01*
X136530000Y-152970000D02*
X136530000Y-148430000D01*
X136586000Y-152970000D02*
X136530000Y-152970000D01*
X138614000Y-148430000D02*
X138670000Y-148430000D01*
X138670000Y-148430000D02*
X138670000Y-152970000D01*
X152750000Y-136000000D02*
G75*
G02*
X149250000Y-136000000I-1750000J0D01*
G01*
X149250000Y-136000000D02*
G75*
G02*
X152750000Y-136000000I1750000J0D01*
G01*
M02*
