G04 #@! TF.GenerationSoftware,KiCad,Pcbnew,9.0.5*
G04 #@! TF.CreationDate,2025-11-16T05:47:54-08:00*
G04 #@! TF.ProjectId,zotbins_2025_wrover_pcb,7a6f7462-696e-4735-9f32-3032355f7772,rev?*
G04 #@! TF.SameCoordinates,Original*
G04 #@! TF.FileFunction,Legend,Top*
G04 #@! TF.FilePolarity,Positive*
%FSLAX46Y46*%
G04 Gerber Fmt 4.6, Leading zero omitted, Abs format (unit mm)*
G04 Created by KiCad (PCBNEW 9.0.5) date 2025-11-16 05:47:54*
%MOMM*%
%LPD*%
G01*
G04 APERTURE LIST*
G04 Aperture macros list*
%AMRoundRect*
0 Rectangle with rounded corners*
0 $1 Rounding radius*
0 $2 $3 $4 $5 $6 $7 $8 $9 X,Y pos of 4 corners*
0 Add a 4 corners polygon primitive as box body*
4,1,4,$2,$3,$4,$5,$6,$7,$8,$9,$2,$3,0*
0 Add four circle primitives for the rounded corners*
1,1,$1+$1,$2,$3*
1,1,$1+$1,$4,$5*
1,1,$1+$1,$6,$7*
1,1,$1+$1,$8,$9*
0 Add four rect primitives between the rounded corners*
20,1,$1+$1,$2,$3,$4,$5,0*
20,1,$1+$1,$4,$5,$6,$7,0*
20,1,$1+$1,$6,$7,$8,$9,0*
20,1,$1+$1,$8,$9,$2,$3,0*%
G04 Aperture macros list end*
%ADD10C,0.200000*%
%ADD11C,0.250000*%
%ADD12C,0.500000*%
%ADD13C,0.120000*%
%ADD14C,0.127000*%
%ADD15C,0.152400*%
%ADD16C,0.000000*%
%ADD17RoundRect,0.250000X-1.050000X-1.050000X1.050000X-1.050000X1.050000X1.050000X-1.050000X1.050000X0*%
%ADD18C,2.600000*%
%ADD19C,1.600000*%
%ADD20R,1.700000X1.700000*%
%ADD21C,1.700000*%
%ADD22C,2.800000*%
%ADD23RoundRect,0.102000X-0.780000X-0.780000X0.780000X-0.780000X0.780000X0.780000X-0.780000X0.780000X0*%
%ADD24C,1.764000*%
%ADD25RoundRect,0.250000X-1.050000X1.050000X-1.050000X-1.050000X1.050000X-1.050000X1.050000X1.050000X0*%
%ADD26O,2.404000X4.604000*%
%ADD27O,2.204000X4.204000*%
%ADD28O,4.204000X2.204000*%
%ADD29RoundRect,0.250000X-0.550000X-0.550000X0.550000X-0.550000X0.550000X0.550000X-0.550000X0.550000X0*%
%ADD30R,2.000000X1.905000*%
%ADD31O,2.000000X1.905000*%
%ADD32R,0.610000X2.000000*%
%ADD33R,2.680000X3.600000*%
%ADD34R,1.117600X0.482600*%
%ADD35R,1.193800X0.431800*%
%ADD36R,1.193800X0.482600*%
G04 APERTURE END LIST*
D10*
X197998451Y-41125057D02*
X197903213Y-41077438D01*
X197903213Y-41077438D02*
X197760356Y-41077438D01*
X197760356Y-41077438D02*
X197617499Y-41125057D01*
X197617499Y-41125057D02*
X197522261Y-41220295D01*
X197522261Y-41220295D02*
X197474642Y-41315533D01*
X197474642Y-41315533D02*
X197427023Y-41506009D01*
X197427023Y-41506009D02*
X197427023Y-41648866D01*
X197427023Y-41648866D02*
X197474642Y-41839342D01*
X197474642Y-41839342D02*
X197522261Y-41934580D01*
X197522261Y-41934580D02*
X197617499Y-42029819D01*
X197617499Y-42029819D02*
X197760356Y-42077438D01*
X197760356Y-42077438D02*
X197855594Y-42077438D01*
X197855594Y-42077438D02*
X197998451Y-42029819D01*
X197998451Y-42029819D02*
X198046070Y-41982199D01*
X198046070Y-41982199D02*
X198046070Y-41648866D01*
X198046070Y-41648866D02*
X197855594Y-41648866D01*
X198998451Y-42077438D02*
X198427023Y-42077438D01*
X198712737Y-42077438D02*
X198712737Y-41077438D01*
X198712737Y-41077438D02*
X198617499Y-41220295D01*
X198617499Y-41220295D02*
X198522261Y-41315533D01*
X198522261Y-41315533D02*
X198427023Y-41363152D01*
X199379404Y-41172676D02*
X199427023Y-41125057D01*
X199427023Y-41125057D02*
X199522261Y-41077438D01*
X199522261Y-41077438D02*
X199760356Y-41077438D01*
X199760356Y-41077438D02*
X199855594Y-41125057D01*
X199855594Y-41125057D02*
X199903213Y-41172676D01*
X199903213Y-41172676D02*
X199950832Y-41267914D01*
X199950832Y-41267914D02*
X199950832Y-41363152D01*
X199950832Y-41363152D02*
X199903213Y-41506009D01*
X199903213Y-41506009D02*
X199331785Y-42077438D01*
X199331785Y-42077438D02*
X199950832Y-42077438D01*
X181603193Y-41756604D02*
X182365098Y-41756604D01*
X181984145Y-42137557D02*
X181984145Y-41375652D01*
X183317478Y-41137557D02*
X182841288Y-41137557D01*
X182841288Y-41137557D02*
X182793669Y-41613747D01*
X182793669Y-41613747D02*
X182841288Y-41566128D01*
X182841288Y-41566128D02*
X182936526Y-41518509D01*
X182936526Y-41518509D02*
X183174621Y-41518509D01*
X183174621Y-41518509D02*
X183269859Y-41566128D01*
X183269859Y-41566128D02*
X183317478Y-41613747D01*
X183317478Y-41613747D02*
X183365097Y-41708985D01*
X183365097Y-41708985D02*
X183365097Y-41947080D01*
X183365097Y-41947080D02*
X183317478Y-42042318D01*
X183317478Y-42042318D02*
X183269859Y-42089938D01*
X183269859Y-42089938D02*
X183174621Y-42137557D01*
X183174621Y-42137557D02*
X182936526Y-42137557D01*
X182936526Y-42137557D02*
X182841288Y-42089938D01*
X182841288Y-42089938D02*
X182793669Y-42042318D01*
X183650812Y-41137557D02*
X183984145Y-42137557D01*
X183984145Y-42137557D02*
X184317478Y-41137557D01*
X109419493Y-95254708D02*
X108848065Y-95254708D01*
X109133779Y-95254708D02*
X109133779Y-94254708D01*
X109133779Y-94254708D02*
X109038541Y-94397565D01*
X109038541Y-94397565D02*
X108943303Y-94492803D01*
X108943303Y-94492803D02*
X108848065Y-94540422D01*
X107900277Y-69699914D02*
X108376467Y-69699914D01*
X107805039Y-69985629D02*
X108138372Y-68985629D01*
X108138372Y-68985629D02*
X108471705Y-69985629D01*
X109233610Y-68985629D02*
X109043134Y-68985629D01*
X109043134Y-68985629D02*
X108947896Y-69033248D01*
X108947896Y-69033248D02*
X108900277Y-69080867D01*
X108900277Y-69080867D02*
X108805039Y-69223724D01*
X108805039Y-69223724D02*
X108757420Y-69414200D01*
X108757420Y-69414200D02*
X108757420Y-69795152D01*
X108757420Y-69795152D02*
X108805039Y-69890390D01*
X108805039Y-69890390D02*
X108852658Y-69938010D01*
X108852658Y-69938010D02*
X108947896Y-69985629D01*
X108947896Y-69985629D02*
X109138372Y-69985629D01*
X109138372Y-69985629D02*
X109233610Y-69938010D01*
X109233610Y-69938010D02*
X109281229Y-69890390D01*
X109281229Y-69890390D02*
X109328848Y-69795152D01*
X109328848Y-69795152D02*
X109328848Y-69557057D01*
X109328848Y-69557057D02*
X109281229Y-69461819D01*
X109281229Y-69461819D02*
X109233610Y-69414200D01*
X109233610Y-69414200D02*
X109138372Y-69366581D01*
X109138372Y-69366581D02*
X108947896Y-69366581D01*
X108947896Y-69366581D02*
X108852658Y-69414200D01*
X108852658Y-69414200D02*
X108805039Y-69461819D01*
X108805039Y-69461819D02*
X108757420Y-69557057D01*
X108212364Y-102678752D02*
X108974269Y-102678752D01*
X108593316Y-103059705D02*
X108593316Y-102297800D01*
X109926649Y-102059705D02*
X109450459Y-102059705D01*
X109450459Y-102059705D02*
X109402840Y-102535895D01*
X109402840Y-102535895D02*
X109450459Y-102488276D01*
X109450459Y-102488276D02*
X109545697Y-102440657D01*
X109545697Y-102440657D02*
X109783792Y-102440657D01*
X109783792Y-102440657D02*
X109879030Y-102488276D01*
X109879030Y-102488276D02*
X109926649Y-102535895D01*
X109926649Y-102535895D02*
X109974268Y-102631133D01*
X109974268Y-102631133D02*
X109974268Y-102869228D01*
X109974268Y-102869228D02*
X109926649Y-102964466D01*
X109926649Y-102964466D02*
X109879030Y-103012086D01*
X109879030Y-103012086D02*
X109783792Y-103059705D01*
X109783792Y-103059705D02*
X109545697Y-103059705D01*
X109545697Y-103059705D02*
X109450459Y-103012086D01*
X109450459Y-103012086D02*
X109402840Y-102964466D01*
X99131744Y-100048923D02*
X99893649Y-100048923D01*
X99512696Y-100429876D02*
X99512696Y-99667971D01*
X100846029Y-99429876D02*
X100369839Y-99429876D01*
X100369839Y-99429876D02*
X100322220Y-99906066D01*
X100322220Y-99906066D02*
X100369839Y-99858447D01*
X100369839Y-99858447D02*
X100465077Y-99810828D01*
X100465077Y-99810828D02*
X100703172Y-99810828D01*
X100703172Y-99810828D02*
X100798410Y-99858447D01*
X100798410Y-99858447D02*
X100846029Y-99906066D01*
X100846029Y-99906066D02*
X100893648Y-100001304D01*
X100893648Y-100001304D02*
X100893648Y-100239399D01*
X100893648Y-100239399D02*
X100846029Y-100334637D01*
X100846029Y-100334637D02*
X100798410Y-100382257D01*
X100798410Y-100382257D02*
X100703172Y-100429876D01*
X100703172Y-100429876D02*
X100465077Y-100429876D01*
X100465077Y-100429876D02*
X100369839Y-100382257D01*
X100369839Y-100382257D02*
X100322220Y-100334637D01*
X162222054Y-58181504D02*
X162698244Y-58181504D01*
X162126816Y-58467219D02*
X162460149Y-57467219D01*
X162460149Y-57467219D02*
X162793482Y-58467219D01*
X163126816Y-58467219D02*
X163126816Y-57467219D01*
X163126816Y-57467219D02*
X163698244Y-58467219D01*
X163698244Y-58467219D02*
X163698244Y-57467219D01*
X164031578Y-57467219D02*
X164603006Y-57467219D01*
X164317292Y-58467219D02*
X164317292Y-57467219D01*
X164936340Y-57943409D02*
X165269673Y-57943409D01*
X165412530Y-58467219D02*
X164936340Y-58467219D01*
X164936340Y-58467219D02*
X164936340Y-57467219D01*
X164936340Y-57467219D02*
X165412530Y-57467219D01*
X165841102Y-58467219D02*
X165841102Y-57467219D01*
X165841102Y-57467219D02*
X166412530Y-58467219D01*
X166412530Y-58467219D02*
X166412530Y-57467219D01*
X166888721Y-58467219D02*
X166888721Y-57467219D01*
X166888721Y-57467219D02*
X167460149Y-58467219D01*
X167460149Y-58467219D02*
X167460149Y-57467219D01*
X167888721Y-58181504D02*
X168364911Y-58181504D01*
X167793483Y-58467219D02*
X168126816Y-57467219D01*
X168126816Y-57467219D02*
X168460149Y-58467219D01*
X108070030Y-77367942D02*
X108546220Y-77367942D01*
X107974792Y-77653657D02*
X108308125Y-76653657D01*
X108308125Y-76653657D02*
X108641458Y-77653657D01*
X108879554Y-76653657D02*
X109498601Y-76653657D01*
X109498601Y-76653657D02*
X109165268Y-77034609D01*
X109165268Y-77034609D02*
X109308125Y-77034609D01*
X109308125Y-77034609D02*
X109403363Y-77082228D01*
X109403363Y-77082228D02*
X109450982Y-77129847D01*
X109450982Y-77129847D02*
X109498601Y-77225085D01*
X109498601Y-77225085D02*
X109498601Y-77463180D01*
X109498601Y-77463180D02*
X109450982Y-77558418D01*
X109450982Y-77558418D02*
X109403363Y-77606038D01*
X109403363Y-77606038D02*
X109308125Y-77653657D01*
X109308125Y-77653657D02*
X109022411Y-77653657D01*
X109022411Y-77653657D02*
X108927173Y-77606038D01*
X108927173Y-77606038D02*
X108879554Y-77558418D01*
X99216620Y-102595705D02*
X99978525Y-102595705D01*
X99597572Y-102976658D02*
X99597572Y-102214753D01*
X100930905Y-101976658D02*
X100454715Y-101976658D01*
X100454715Y-101976658D02*
X100407096Y-102452848D01*
X100407096Y-102452848D02*
X100454715Y-102405229D01*
X100454715Y-102405229D02*
X100549953Y-102357610D01*
X100549953Y-102357610D02*
X100788048Y-102357610D01*
X100788048Y-102357610D02*
X100883286Y-102405229D01*
X100883286Y-102405229D02*
X100930905Y-102452848D01*
X100930905Y-102452848D02*
X100978524Y-102548086D01*
X100978524Y-102548086D02*
X100978524Y-102786181D01*
X100978524Y-102786181D02*
X100930905Y-102881419D01*
X100930905Y-102881419D02*
X100883286Y-102929039D01*
X100883286Y-102929039D02*
X100788048Y-102976658D01*
X100788048Y-102976658D02*
X100549953Y-102976658D01*
X100549953Y-102976658D02*
X100454715Y-102929039D01*
X100454715Y-102929039D02*
X100407096Y-102881419D01*
X203598812Y-136364199D02*
X203598812Y-135364199D01*
X203598812Y-135364199D02*
X203979764Y-135364199D01*
X203979764Y-135364199D02*
X204075002Y-135411818D01*
X204075002Y-135411818D02*
X204122621Y-135459437D01*
X204122621Y-135459437D02*
X204170240Y-135554675D01*
X204170240Y-135554675D02*
X204170240Y-135697532D01*
X204170240Y-135697532D02*
X204122621Y-135792770D01*
X204122621Y-135792770D02*
X204075002Y-135840389D01*
X204075002Y-135840389D02*
X203979764Y-135888008D01*
X203979764Y-135888008D02*
X203598812Y-135888008D01*
X204503574Y-135364199D02*
X204741669Y-136364199D01*
X204741669Y-136364199D02*
X204932145Y-135649913D01*
X204932145Y-135649913D02*
X205122621Y-136364199D01*
X205122621Y-136364199D02*
X205360717Y-135364199D01*
X205741669Y-136364199D02*
X205741669Y-135364199D01*
X205741669Y-135364199D02*
X206075002Y-136078484D01*
X206075002Y-136078484D02*
X206408335Y-135364199D01*
X206408335Y-135364199D02*
X206408335Y-136364199D01*
X99844633Y-69916423D02*
X99511300Y-69440232D01*
X99273205Y-69916423D02*
X99273205Y-68916423D01*
X99273205Y-68916423D02*
X99654157Y-68916423D01*
X99654157Y-68916423D02*
X99749395Y-68964042D01*
X99749395Y-68964042D02*
X99797014Y-69011661D01*
X99797014Y-69011661D02*
X99844633Y-69106899D01*
X99844633Y-69106899D02*
X99844633Y-69249756D01*
X99844633Y-69249756D02*
X99797014Y-69344994D01*
X99797014Y-69344994D02*
X99749395Y-69392613D01*
X99749395Y-69392613D02*
X99654157Y-69440232D01*
X99654157Y-69440232D02*
X99273205Y-69440232D01*
X100177967Y-68916423D02*
X100844633Y-69916423D01*
X100844633Y-68916423D02*
X100177967Y-69916423D01*
X108882264Y-87113788D02*
X108882264Y-87780455D01*
X108644169Y-86732836D02*
X108406074Y-87447121D01*
X108406074Y-87447121D02*
X109025121Y-87447121D01*
X205944235Y-107627032D02*
X206706140Y-107627032D01*
X107956862Y-74904207D02*
X108433052Y-74904207D01*
X107861624Y-75189922D02*
X108194957Y-74189922D01*
X108194957Y-74189922D02*
X108528290Y-75189922D01*
X109290195Y-74523255D02*
X109290195Y-75189922D01*
X109052100Y-74142303D02*
X108814005Y-74856588D01*
X108814005Y-74856588D02*
X109433052Y-74856588D01*
X204248427Y-118811746D02*
X204867474Y-118811746D01*
X204867474Y-118811746D02*
X204534141Y-119192698D01*
X204534141Y-119192698D02*
X204676998Y-119192698D01*
X204676998Y-119192698D02*
X204772236Y-119240317D01*
X204772236Y-119240317D02*
X204819855Y-119287936D01*
X204819855Y-119287936D02*
X204867474Y-119383174D01*
X204867474Y-119383174D02*
X204867474Y-119621269D01*
X204867474Y-119621269D02*
X204819855Y-119716507D01*
X204819855Y-119716507D02*
X204772236Y-119764127D01*
X204772236Y-119764127D02*
X204676998Y-119811746D01*
X204676998Y-119811746D02*
X204391284Y-119811746D01*
X204391284Y-119811746D02*
X204296046Y-119764127D01*
X204296046Y-119764127D02*
X204248427Y-119716507D01*
X205153189Y-118811746D02*
X205486522Y-119811746D01*
X205486522Y-119811746D02*
X205819855Y-118811746D01*
X206057951Y-118811746D02*
X206676998Y-118811746D01*
X206676998Y-118811746D02*
X206343665Y-119192698D01*
X206343665Y-119192698D02*
X206486522Y-119192698D01*
X206486522Y-119192698D02*
X206581760Y-119240317D01*
X206581760Y-119240317D02*
X206629379Y-119287936D01*
X206629379Y-119287936D02*
X206676998Y-119383174D01*
X206676998Y-119383174D02*
X206676998Y-119621269D01*
X206676998Y-119621269D02*
X206629379Y-119716507D01*
X206629379Y-119716507D02*
X206581760Y-119764127D01*
X206581760Y-119764127D02*
X206486522Y-119811746D01*
X206486522Y-119811746D02*
X206200808Y-119811746D01*
X206200808Y-119811746D02*
X206105570Y-119764127D01*
X206105570Y-119764127D02*
X206057951Y-119716507D01*
X203988490Y-87292131D02*
X204131347Y-87339750D01*
X204131347Y-87339750D02*
X204369442Y-87339750D01*
X204369442Y-87339750D02*
X204464680Y-87292131D01*
X204464680Y-87292131D02*
X204512299Y-87244511D01*
X204512299Y-87244511D02*
X204559918Y-87149273D01*
X204559918Y-87149273D02*
X204559918Y-87054035D01*
X204559918Y-87054035D02*
X204512299Y-86958797D01*
X204512299Y-86958797D02*
X204464680Y-86911178D01*
X204464680Y-86911178D02*
X204369442Y-86863559D01*
X204369442Y-86863559D02*
X204178966Y-86815940D01*
X204178966Y-86815940D02*
X204083728Y-86768321D01*
X204083728Y-86768321D02*
X204036109Y-86720702D01*
X204036109Y-86720702D02*
X203988490Y-86625464D01*
X203988490Y-86625464D02*
X203988490Y-86530226D01*
X203988490Y-86530226D02*
X204036109Y-86434988D01*
X204036109Y-86434988D02*
X204083728Y-86387369D01*
X204083728Y-86387369D02*
X204178966Y-86339750D01*
X204178966Y-86339750D02*
X204417061Y-86339750D01*
X204417061Y-86339750D02*
X204559918Y-86387369D01*
X205559918Y-87244511D02*
X205512299Y-87292131D01*
X205512299Y-87292131D02*
X205369442Y-87339750D01*
X205369442Y-87339750D02*
X205274204Y-87339750D01*
X205274204Y-87339750D02*
X205131347Y-87292131D01*
X205131347Y-87292131D02*
X205036109Y-87196892D01*
X205036109Y-87196892D02*
X204988490Y-87101654D01*
X204988490Y-87101654D02*
X204940871Y-86911178D01*
X204940871Y-86911178D02*
X204940871Y-86768321D01*
X204940871Y-86768321D02*
X204988490Y-86577845D01*
X204988490Y-86577845D02*
X205036109Y-86482607D01*
X205036109Y-86482607D02*
X205131347Y-86387369D01*
X205131347Y-86387369D02*
X205274204Y-86339750D01*
X205274204Y-86339750D02*
X205369442Y-86339750D01*
X205369442Y-86339750D02*
X205512299Y-86387369D01*
X205512299Y-86387369D02*
X205559918Y-86434988D01*
X205988490Y-87339750D02*
X205988490Y-86339750D01*
X206559918Y-87339750D02*
X206131347Y-86768321D01*
X206559918Y-86339750D02*
X205988490Y-86911178D01*
X107882988Y-67319226D02*
X108359178Y-67319226D01*
X107787750Y-67604941D02*
X108121083Y-66604941D01*
X108121083Y-66604941D02*
X108454416Y-67604941D01*
X108692512Y-66604941D02*
X109359178Y-66604941D01*
X109359178Y-66604941D02*
X108930607Y-67604941D01*
X206376025Y-110266238D02*
X206709358Y-110266238D01*
X206852215Y-110790048D02*
X206376025Y-110790048D01*
X206376025Y-110790048D02*
X206376025Y-109790048D01*
X206376025Y-109790048D02*
X206852215Y-109790048D01*
X98559728Y-89776711D02*
X98702585Y-89824330D01*
X98702585Y-89824330D02*
X98750204Y-89871949D01*
X98750204Y-89871949D02*
X98797823Y-89967187D01*
X98797823Y-89967187D02*
X98797823Y-90110044D01*
X98797823Y-90110044D02*
X98750204Y-90205282D01*
X98750204Y-90205282D02*
X98702585Y-90252902D01*
X98702585Y-90252902D02*
X98607347Y-90300521D01*
X98607347Y-90300521D02*
X98226395Y-90300521D01*
X98226395Y-90300521D02*
X98226395Y-89300521D01*
X98226395Y-89300521D02*
X98559728Y-89300521D01*
X98559728Y-89300521D02*
X98654966Y-89348140D01*
X98654966Y-89348140D02*
X98702585Y-89395759D01*
X98702585Y-89395759D02*
X98750204Y-89490997D01*
X98750204Y-89490997D02*
X98750204Y-89586235D01*
X98750204Y-89586235D02*
X98702585Y-89681473D01*
X98702585Y-89681473D02*
X98654966Y-89729092D01*
X98654966Y-89729092D02*
X98559728Y-89776711D01*
X98559728Y-89776711D02*
X98226395Y-89776711D01*
X99654966Y-89300521D02*
X99464490Y-89300521D01*
X99464490Y-89300521D02*
X99369252Y-89348140D01*
X99369252Y-89348140D02*
X99321633Y-89395759D01*
X99321633Y-89395759D02*
X99226395Y-89538616D01*
X99226395Y-89538616D02*
X99178776Y-89729092D01*
X99178776Y-89729092D02*
X99178776Y-90110044D01*
X99178776Y-90110044D02*
X99226395Y-90205282D01*
X99226395Y-90205282D02*
X99274014Y-90252902D01*
X99274014Y-90252902D02*
X99369252Y-90300521D01*
X99369252Y-90300521D02*
X99559728Y-90300521D01*
X99559728Y-90300521D02*
X99654966Y-90252902D01*
X99654966Y-90252902D02*
X99702585Y-90205282D01*
X99702585Y-90205282D02*
X99750204Y-90110044D01*
X99750204Y-90110044D02*
X99750204Y-89871949D01*
X99750204Y-89871949D02*
X99702585Y-89776711D01*
X99702585Y-89776711D02*
X99654966Y-89729092D01*
X99654966Y-89729092D02*
X99559728Y-89681473D01*
X99559728Y-89681473D02*
X99369252Y-89681473D01*
X99369252Y-89681473D02*
X99274014Y-89729092D01*
X99274014Y-89729092D02*
X99226395Y-89776711D01*
X99226395Y-89776711D02*
X99178776Y-89871949D01*
X206289752Y-113637782D02*
X206861180Y-113637782D01*
X206575466Y-114637782D02*
X206575466Y-113637782D01*
X99188732Y-74084518D02*
X99093494Y-74036899D01*
X99093494Y-74036899D02*
X98950637Y-74036899D01*
X98950637Y-74036899D02*
X98807780Y-74084518D01*
X98807780Y-74084518D02*
X98712542Y-74179756D01*
X98712542Y-74179756D02*
X98664923Y-74274994D01*
X98664923Y-74274994D02*
X98617304Y-74465470D01*
X98617304Y-74465470D02*
X98617304Y-74608327D01*
X98617304Y-74608327D02*
X98664923Y-74798803D01*
X98664923Y-74798803D02*
X98712542Y-74894041D01*
X98712542Y-74894041D02*
X98807780Y-74989280D01*
X98807780Y-74989280D02*
X98950637Y-75036899D01*
X98950637Y-75036899D02*
X99045875Y-75036899D01*
X99045875Y-75036899D02*
X99188732Y-74989280D01*
X99188732Y-74989280D02*
X99236351Y-74941660D01*
X99236351Y-74941660D02*
X99236351Y-74608327D01*
X99236351Y-74608327D02*
X99045875Y-74608327D01*
X99569685Y-74036899D02*
X100188732Y-74036899D01*
X100188732Y-74036899D02*
X99855399Y-74417851D01*
X99855399Y-74417851D02*
X99998256Y-74417851D01*
X99998256Y-74417851D02*
X100093494Y-74465470D01*
X100093494Y-74465470D02*
X100141113Y-74513089D01*
X100141113Y-74513089D02*
X100188732Y-74608327D01*
X100188732Y-74608327D02*
X100188732Y-74846422D01*
X100188732Y-74846422D02*
X100141113Y-74941660D01*
X100141113Y-74941660D02*
X100093494Y-74989280D01*
X100093494Y-74989280D02*
X99998256Y-75036899D01*
X99998256Y-75036899D02*
X99712542Y-75036899D01*
X99712542Y-75036899D02*
X99617304Y-74989280D01*
X99617304Y-74989280D02*
X99569685Y-74941660D01*
X100569685Y-74132137D02*
X100617304Y-74084518D01*
X100617304Y-74084518D02*
X100712542Y-74036899D01*
X100712542Y-74036899D02*
X100950637Y-74036899D01*
X100950637Y-74036899D02*
X101045875Y-74084518D01*
X101045875Y-74084518D02*
X101093494Y-74132137D01*
X101093494Y-74132137D02*
X101141113Y-74227375D01*
X101141113Y-74227375D02*
X101141113Y-74322613D01*
X101141113Y-74322613D02*
X101093494Y-74465470D01*
X101093494Y-74465470D02*
X100522066Y-75036899D01*
X100522066Y-75036899D02*
X101141113Y-75036899D01*
X205848410Y-60235146D02*
X206610315Y-60235146D01*
X99129349Y-81947641D02*
X99034111Y-81900022D01*
X99034111Y-81900022D02*
X98891254Y-81900022D01*
X98891254Y-81900022D02*
X98748397Y-81947641D01*
X98748397Y-81947641D02*
X98653159Y-82042879D01*
X98653159Y-82042879D02*
X98605540Y-82138117D01*
X98605540Y-82138117D02*
X98557921Y-82328593D01*
X98557921Y-82328593D02*
X98557921Y-82471450D01*
X98557921Y-82471450D02*
X98605540Y-82661926D01*
X98605540Y-82661926D02*
X98653159Y-82757164D01*
X98653159Y-82757164D02*
X98748397Y-82852403D01*
X98748397Y-82852403D02*
X98891254Y-82900022D01*
X98891254Y-82900022D02*
X98986492Y-82900022D01*
X98986492Y-82900022D02*
X99129349Y-82852403D01*
X99129349Y-82852403D02*
X99176968Y-82804783D01*
X99176968Y-82804783D02*
X99176968Y-82471450D01*
X99176968Y-82471450D02*
X98986492Y-82471450D01*
X100129349Y-82900022D02*
X99557921Y-82900022D01*
X99843635Y-82900022D02*
X99843635Y-81900022D01*
X99843635Y-81900022D02*
X99748397Y-82042879D01*
X99748397Y-82042879D02*
X99653159Y-82138117D01*
X99653159Y-82138117D02*
X99557921Y-82185736D01*
X100510302Y-81995260D02*
X100557921Y-81947641D01*
X100557921Y-81947641D02*
X100653159Y-81900022D01*
X100653159Y-81900022D02*
X100891254Y-81900022D01*
X100891254Y-81900022D02*
X100986492Y-81947641D01*
X100986492Y-81947641D02*
X101034111Y-81995260D01*
X101034111Y-81995260D02*
X101081730Y-82090498D01*
X101081730Y-82090498D02*
X101081730Y-82185736D01*
X101081730Y-82185736D02*
X101034111Y-82328593D01*
X101034111Y-82328593D02*
X100462683Y-82900022D01*
X100462683Y-82900022D02*
X101081730Y-82900022D01*
X205844694Y-76004988D02*
X205844694Y-75004988D01*
X206892312Y-76004988D02*
X206558979Y-75528797D01*
X206320884Y-76004988D02*
X206320884Y-75004988D01*
X206320884Y-75004988D02*
X206701836Y-75004988D01*
X206701836Y-75004988D02*
X206797074Y-75052607D01*
X206797074Y-75052607D02*
X206844693Y-75100226D01*
X206844693Y-75100226D02*
X206892312Y-75195464D01*
X206892312Y-75195464D02*
X206892312Y-75338321D01*
X206892312Y-75338321D02*
X206844693Y-75433559D01*
X206844693Y-75433559D02*
X206797074Y-75481178D01*
X206797074Y-75481178D02*
X206701836Y-75528797D01*
X206701836Y-75528797D02*
X206320884Y-75528797D01*
X99839452Y-79137329D02*
X99744214Y-79089710D01*
X99744214Y-79089710D02*
X99601357Y-79089710D01*
X99601357Y-79089710D02*
X99458500Y-79137329D01*
X99458500Y-79137329D02*
X99363262Y-79232567D01*
X99363262Y-79232567D02*
X99315643Y-79327805D01*
X99315643Y-79327805D02*
X99268024Y-79518281D01*
X99268024Y-79518281D02*
X99268024Y-79661138D01*
X99268024Y-79661138D02*
X99315643Y-79851614D01*
X99315643Y-79851614D02*
X99363262Y-79946852D01*
X99363262Y-79946852D02*
X99458500Y-80042091D01*
X99458500Y-80042091D02*
X99601357Y-80089710D01*
X99601357Y-80089710D02*
X99696595Y-80089710D01*
X99696595Y-80089710D02*
X99839452Y-80042091D01*
X99839452Y-80042091D02*
X99887071Y-79994471D01*
X99887071Y-79994471D02*
X99887071Y-79661138D01*
X99887071Y-79661138D02*
X99696595Y-79661138D01*
X100506119Y-79089710D02*
X100601357Y-79089710D01*
X100601357Y-79089710D02*
X100696595Y-79137329D01*
X100696595Y-79137329D02*
X100744214Y-79184948D01*
X100744214Y-79184948D02*
X100791833Y-79280186D01*
X100791833Y-79280186D02*
X100839452Y-79470662D01*
X100839452Y-79470662D02*
X100839452Y-79708757D01*
X100839452Y-79708757D02*
X100791833Y-79899233D01*
X100791833Y-79899233D02*
X100744214Y-79994471D01*
X100744214Y-79994471D02*
X100696595Y-80042091D01*
X100696595Y-80042091D02*
X100601357Y-80089710D01*
X100601357Y-80089710D02*
X100506119Y-80089710D01*
X100506119Y-80089710D02*
X100410881Y-80042091D01*
X100410881Y-80042091D02*
X100363262Y-79994471D01*
X100363262Y-79994471D02*
X100315643Y-79899233D01*
X100315643Y-79899233D02*
X100268024Y-79708757D01*
X100268024Y-79708757D02*
X100268024Y-79470662D01*
X100268024Y-79470662D02*
X100315643Y-79280186D01*
X100315643Y-79280186D02*
X100363262Y-79184948D01*
X100363262Y-79184948D02*
X100410881Y-79137329D01*
X100410881Y-79137329D02*
X100506119Y-79089710D01*
X108743861Y-91846337D02*
X109362908Y-91846337D01*
X109362908Y-91846337D02*
X109029575Y-92227289D01*
X109029575Y-92227289D02*
X109172432Y-92227289D01*
X109172432Y-92227289D02*
X109267670Y-92274908D01*
X109267670Y-92274908D02*
X109315289Y-92322527D01*
X109315289Y-92322527D02*
X109362908Y-92417765D01*
X109362908Y-92417765D02*
X109362908Y-92655860D01*
X109362908Y-92655860D02*
X109315289Y-92751098D01*
X109315289Y-92751098D02*
X109267670Y-92798718D01*
X109267670Y-92798718D02*
X109172432Y-92846337D01*
X109172432Y-92846337D02*
X108886718Y-92846337D01*
X108886718Y-92846337D02*
X108791480Y-92798718D01*
X108791480Y-92798718D02*
X108743861Y-92751098D01*
X203267004Y-152413931D02*
X203267004Y-151413931D01*
X203267004Y-151413931D02*
X203647956Y-151413931D01*
X203647956Y-151413931D02*
X203743194Y-151461550D01*
X203743194Y-151461550D02*
X203790813Y-151509169D01*
X203790813Y-151509169D02*
X203838432Y-151604407D01*
X203838432Y-151604407D02*
X203838432Y-151747264D01*
X203838432Y-151747264D02*
X203790813Y-151842502D01*
X203790813Y-151842502D02*
X203743194Y-151890121D01*
X203743194Y-151890121D02*
X203647956Y-151937740D01*
X203647956Y-151937740D02*
X203267004Y-151937740D01*
X204171766Y-151413931D02*
X204409861Y-152413931D01*
X204409861Y-152413931D02*
X204600337Y-151699645D01*
X204600337Y-151699645D02*
X204790813Y-152413931D01*
X204790813Y-152413931D02*
X205028909Y-151413931D01*
X205409861Y-152413931D02*
X205409861Y-151413931D01*
X205409861Y-151413931D02*
X205743194Y-152128216D01*
X205743194Y-152128216D02*
X206076527Y-151413931D01*
X206076527Y-151413931D02*
X206076527Y-152413931D01*
D11*
X170652400Y-127839879D02*
X170842876Y-127839879D01*
X170842876Y-127839879D02*
X170938114Y-127887498D01*
X170938114Y-127887498D02*
X171033352Y-127982736D01*
X171033352Y-127982736D02*
X171080971Y-128173212D01*
X171080971Y-128173212D02*
X171080971Y-128506545D01*
X171080971Y-128506545D02*
X171033352Y-128697021D01*
X171033352Y-128697021D02*
X170938114Y-128792260D01*
X170938114Y-128792260D02*
X170842876Y-128839879D01*
X170842876Y-128839879D02*
X170652400Y-128839879D01*
X170652400Y-128839879D02*
X170557162Y-128792260D01*
X170557162Y-128792260D02*
X170461924Y-128697021D01*
X170461924Y-128697021D02*
X170414305Y-128506545D01*
X170414305Y-128506545D02*
X170414305Y-128173212D01*
X170414305Y-128173212D02*
X170461924Y-127982736D01*
X170461924Y-127982736D02*
X170557162Y-127887498D01*
X170557162Y-127887498D02*
X170652400Y-127839879D01*
X171366686Y-127839879D02*
X171700019Y-128839879D01*
X171700019Y-128839879D02*
X172033352Y-127839879D01*
X172319067Y-127935117D02*
X172366686Y-127887498D01*
X172366686Y-127887498D02*
X172461924Y-127839879D01*
X172461924Y-127839879D02*
X172700019Y-127839879D01*
X172700019Y-127839879D02*
X172795257Y-127887498D01*
X172795257Y-127887498D02*
X172842876Y-127935117D01*
X172842876Y-127935117D02*
X172890495Y-128030355D01*
X172890495Y-128030355D02*
X172890495Y-128125593D01*
X172890495Y-128125593D02*
X172842876Y-128268450D01*
X172842876Y-128268450D02*
X172271448Y-128839879D01*
X172271448Y-128839879D02*
X172890495Y-128839879D01*
X173747638Y-127839879D02*
X173557162Y-127839879D01*
X173557162Y-127839879D02*
X173461924Y-127887498D01*
X173461924Y-127887498D02*
X173414305Y-127935117D01*
X173414305Y-127935117D02*
X173319067Y-128077974D01*
X173319067Y-128077974D02*
X173271448Y-128268450D01*
X173271448Y-128268450D02*
X173271448Y-128649402D01*
X173271448Y-128649402D02*
X173319067Y-128744640D01*
X173319067Y-128744640D02*
X173366686Y-128792260D01*
X173366686Y-128792260D02*
X173461924Y-128839879D01*
X173461924Y-128839879D02*
X173652400Y-128839879D01*
X173652400Y-128839879D02*
X173747638Y-128792260D01*
X173747638Y-128792260D02*
X173795257Y-128744640D01*
X173795257Y-128744640D02*
X173842876Y-128649402D01*
X173842876Y-128649402D02*
X173842876Y-128411307D01*
X173842876Y-128411307D02*
X173795257Y-128316069D01*
X173795257Y-128316069D02*
X173747638Y-128268450D01*
X173747638Y-128268450D02*
X173652400Y-128220831D01*
X173652400Y-128220831D02*
X173461924Y-128220831D01*
X173461924Y-128220831D02*
X173366686Y-128268450D01*
X173366686Y-128268450D02*
X173319067Y-128316069D01*
X173319067Y-128316069D02*
X173271448Y-128411307D01*
X174700019Y-128173212D02*
X174700019Y-128839879D01*
X174461924Y-127792260D02*
X174223829Y-128506545D01*
X174223829Y-128506545D02*
X174842876Y-128506545D01*
X175414305Y-127839879D02*
X175509543Y-127839879D01*
X175509543Y-127839879D02*
X175604781Y-127887498D01*
X175604781Y-127887498D02*
X175652400Y-127935117D01*
X175652400Y-127935117D02*
X175700019Y-128030355D01*
X175700019Y-128030355D02*
X175747638Y-128220831D01*
X175747638Y-128220831D02*
X175747638Y-128458926D01*
X175747638Y-128458926D02*
X175700019Y-128649402D01*
X175700019Y-128649402D02*
X175652400Y-128744640D01*
X175652400Y-128744640D02*
X175604781Y-128792260D01*
X175604781Y-128792260D02*
X175509543Y-128839879D01*
X175509543Y-128839879D02*
X175414305Y-128839879D01*
X175414305Y-128839879D02*
X175319067Y-128792260D01*
X175319067Y-128792260D02*
X175271448Y-128744640D01*
X175271448Y-128744640D02*
X175223829Y-128649402D01*
X175223829Y-128649402D02*
X175176210Y-128458926D01*
X175176210Y-128458926D02*
X175176210Y-128220831D01*
X175176210Y-128220831D02*
X175223829Y-128030355D01*
X175223829Y-128030355D02*
X175271448Y-127935117D01*
X175271448Y-127935117D02*
X175319067Y-127887498D01*
X175319067Y-127887498D02*
X175414305Y-127839879D01*
D10*
X99132148Y-76545936D02*
X99036910Y-76498317D01*
X99036910Y-76498317D02*
X98894053Y-76498317D01*
X98894053Y-76498317D02*
X98751196Y-76545936D01*
X98751196Y-76545936D02*
X98655958Y-76641174D01*
X98655958Y-76641174D02*
X98608339Y-76736412D01*
X98608339Y-76736412D02*
X98560720Y-76926888D01*
X98560720Y-76926888D02*
X98560720Y-77069745D01*
X98560720Y-77069745D02*
X98608339Y-77260221D01*
X98608339Y-77260221D02*
X98655958Y-77355459D01*
X98655958Y-77355459D02*
X98751196Y-77450698D01*
X98751196Y-77450698D02*
X98894053Y-77498317D01*
X98894053Y-77498317D02*
X98989291Y-77498317D01*
X98989291Y-77498317D02*
X99132148Y-77450698D01*
X99132148Y-77450698D02*
X99179767Y-77403078D01*
X99179767Y-77403078D02*
X99179767Y-77069745D01*
X99179767Y-77069745D02*
X98989291Y-77069745D01*
X99513101Y-76498317D02*
X100132148Y-76498317D01*
X100132148Y-76498317D02*
X99798815Y-76879269D01*
X99798815Y-76879269D02*
X99941672Y-76879269D01*
X99941672Y-76879269D02*
X100036910Y-76926888D01*
X100036910Y-76926888D02*
X100084529Y-76974507D01*
X100084529Y-76974507D02*
X100132148Y-77069745D01*
X100132148Y-77069745D02*
X100132148Y-77307840D01*
X100132148Y-77307840D02*
X100084529Y-77403078D01*
X100084529Y-77403078D02*
X100036910Y-77450698D01*
X100036910Y-77450698D02*
X99941672Y-77498317D01*
X99941672Y-77498317D02*
X99655958Y-77498317D01*
X99655958Y-77498317D02*
X99560720Y-77450698D01*
X99560720Y-77450698D02*
X99513101Y-77403078D01*
X100465482Y-76498317D02*
X101084529Y-76498317D01*
X101084529Y-76498317D02*
X100751196Y-76879269D01*
X100751196Y-76879269D02*
X100894053Y-76879269D01*
X100894053Y-76879269D02*
X100989291Y-76926888D01*
X100989291Y-76926888D02*
X101036910Y-76974507D01*
X101036910Y-76974507D02*
X101084529Y-77069745D01*
X101084529Y-77069745D02*
X101084529Y-77307840D01*
X101084529Y-77307840D02*
X101036910Y-77403078D01*
X101036910Y-77403078D02*
X100989291Y-77450698D01*
X100989291Y-77450698D02*
X100894053Y-77498317D01*
X100894053Y-77498317D02*
X100608339Y-77498317D01*
X100608339Y-77498317D02*
X100513101Y-77450698D01*
X100513101Y-77450698D02*
X100465482Y-77403078D01*
X108272791Y-84966227D02*
X108748981Y-84966227D01*
X108177553Y-85251942D02*
X108510886Y-84251942D01*
X108510886Y-84251942D02*
X108844219Y-85251942D01*
X109368029Y-84251942D02*
X109463267Y-84251942D01*
X109463267Y-84251942D02*
X109558505Y-84299561D01*
X109558505Y-84299561D02*
X109606124Y-84347180D01*
X109606124Y-84347180D02*
X109653743Y-84442418D01*
X109653743Y-84442418D02*
X109701362Y-84632894D01*
X109701362Y-84632894D02*
X109701362Y-84870989D01*
X109701362Y-84870989D02*
X109653743Y-85061465D01*
X109653743Y-85061465D02*
X109606124Y-85156703D01*
X109606124Y-85156703D02*
X109558505Y-85204323D01*
X109558505Y-85204323D02*
X109463267Y-85251942D01*
X109463267Y-85251942D02*
X109368029Y-85251942D01*
X109368029Y-85251942D02*
X109272791Y-85204323D01*
X109272791Y-85204323D02*
X109225172Y-85156703D01*
X109225172Y-85156703D02*
X109177553Y-85061465D01*
X109177553Y-85061465D02*
X109129934Y-84870989D01*
X109129934Y-84870989D02*
X109129934Y-84632894D01*
X109129934Y-84632894D02*
X109177553Y-84442418D01*
X109177553Y-84442418D02*
X109225172Y-84347180D01*
X109225172Y-84347180D02*
X109272791Y-84299561D01*
X109272791Y-84299561D02*
X109368029Y-84251942D01*
X202859504Y-56786518D02*
X203621409Y-56786518D01*
X203240456Y-57167471D02*
X203240456Y-56405566D01*
X204002361Y-56167471D02*
X204621408Y-56167471D01*
X204621408Y-56167471D02*
X204288075Y-56548423D01*
X204288075Y-56548423D02*
X204430932Y-56548423D01*
X204430932Y-56548423D02*
X204526170Y-56596042D01*
X204526170Y-56596042D02*
X204573789Y-56643661D01*
X204573789Y-56643661D02*
X204621408Y-56738899D01*
X204621408Y-56738899D02*
X204621408Y-56976994D01*
X204621408Y-56976994D02*
X204573789Y-57072232D01*
X204573789Y-57072232D02*
X204526170Y-57119852D01*
X204526170Y-57119852D02*
X204430932Y-57167471D01*
X204430932Y-57167471D02*
X204145218Y-57167471D01*
X204145218Y-57167471D02*
X204049980Y-57119852D01*
X204049980Y-57119852D02*
X204002361Y-57072232D01*
X204907123Y-56167471D02*
X205240456Y-57167471D01*
X205240456Y-57167471D02*
X205573789Y-56167471D01*
X205811885Y-56167471D02*
X206430932Y-56167471D01*
X206430932Y-56167471D02*
X206097599Y-56548423D01*
X206097599Y-56548423D02*
X206240456Y-56548423D01*
X206240456Y-56548423D02*
X206335694Y-56596042D01*
X206335694Y-56596042D02*
X206383313Y-56643661D01*
X206383313Y-56643661D02*
X206430932Y-56738899D01*
X206430932Y-56738899D02*
X206430932Y-56976994D01*
X206430932Y-56976994D02*
X206383313Y-57072232D01*
X206383313Y-57072232D02*
X206335694Y-57119852D01*
X206335694Y-57119852D02*
X206240456Y-57167471D01*
X206240456Y-57167471D02*
X205954742Y-57167471D01*
X205954742Y-57167471D02*
X205859504Y-57119852D01*
X205859504Y-57119852D02*
X205811885Y-57072232D01*
X108329375Y-82216978D02*
X108805565Y-82216978D01*
X108234137Y-82502693D02*
X108567470Y-81502693D01*
X108567470Y-81502693D02*
X108900803Y-82502693D01*
X109757946Y-82502693D02*
X109186518Y-82502693D01*
X109472232Y-82502693D02*
X109472232Y-81502693D01*
X109472232Y-81502693D02*
X109376994Y-81645550D01*
X109376994Y-81645550D02*
X109281756Y-81740788D01*
X109281756Y-81740788D02*
X109186518Y-81788407D01*
X99641003Y-97332115D02*
X100402908Y-97332115D01*
X99578246Y-84636388D02*
X99721103Y-84684007D01*
X99721103Y-84684007D02*
X99768722Y-84731626D01*
X99768722Y-84731626D02*
X99816341Y-84826864D01*
X99816341Y-84826864D02*
X99816341Y-84969721D01*
X99816341Y-84969721D02*
X99768722Y-85064959D01*
X99768722Y-85064959D02*
X99721103Y-85112579D01*
X99721103Y-85112579D02*
X99625865Y-85160198D01*
X99625865Y-85160198D02*
X99244913Y-85160198D01*
X99244913Y-85160198D02*
X99244913Y-84160198D01*
X99244913Y-84160198D02*
X99578246Y-84160198D01*
X99578246Y-84160198D02*
X99673484Y-84207817D01*
X99673484Y-84207817D02*
X99721103Y-84255436D01*
X99721103Y-84255436D02*
X99768722Y-84350674D01*
X99768722Y-84350674D02*
X99768722Y-84445912D01*
X99768722Y-84445912D02*
X99721103Y-84541150D01*
X99721103Y-84541150D02*
X99673484Y-84588769D01*
X99673484Y-84588769D02*
X99578246Y-84636388D01*
X99578246Y-84636388D02*
X99244913Y-84636388D01*
X100149675Y-84160198D02*
X100816341Y-84160198D01*
X100816341Y-84160198D02*
X100387770Y-85160198D01*
X204430584Y-91052219D02*
X204430584Y-90052219D01*
X204430584Y-90052219D02*
X204668679Y-90052219D01*
X204668679Y-90052219D02*
X204811536Y-90099838D01*
X204811536Y-90099838D02*
X204906774Y-90195076D01*
X204906774Y-90195076D02*
X204954393Y-90290314D01*
X204954393Y-90290314D02*
X205002012Y-90480790D01*
X205002012Y-90480790D02*
X205002012Y-90623647D01*
X205002012Y-90623647D02*
X204954393Y-90814123D01*
X204954393Y-90814123D02*
X204906774Y-90909361D01*
X204906774Y-90909361D02*
X204811536Y-91004600D01*
X204811536Y-91004600D02*
X204668679Y-91052219D01*
X204668679Y-91052219D02*
X204430584Y-91052219D01*
X205287727Y-90052219D02*
X205859155Y-90052219D01*
X205573441Y-91052219D02*
X205573441Y-90052219D01*
X205040949Y-84403430D02*
X205802854Y-84403430D01*
D12*
X158848406Y-154129697D02*
X160181739Y-154129697D01*
X160181739Y-154129697D02*
X158848406Y-156129697D01*
X158848406Y-156129697D02*
X160181739Y-156129697D01*
X161610311Y-155082078D02*
X161896025Y-155177316D01*
X161896025Y-155177316D02*
X161991263Y-155272554D01*
X161991263Y-155272554D02*
X162086501Y-155463030D01*
X162086501Y-155463030D02*
X162086501Y-155748744D01*
X162086501Y-155748744D02*
X161991263Y-155939220D01*
X161991263Y-155939220D02*
X161896025Y-156034459D01*
X161896025Y-156034459D02*
X161705549Y-156129697D01*
X161705549Y-156129697D02*
X160943644Y-156129697D01*
X160943644Y-156129697D02*
X160943644Y-154129697D01*
X160943644Y-154129697D02*
X161610311Y-154129697D01*
X161610311Y-154129697D02*
X161800787Y-154224935D01*
X161800787Y-154224935D02*
X161896025Y-154320173D01*
X161896025Y-154320173D02*
X161991263Y-154510649D01*
X161991263Y-154510649D02*
X161991263Y-154701125D01*
X161991263Y-154701125D02*
X161896025Y-154891601D01*
X161896025Y-154891601D02*
X161800787Y-154986839D01*
X161800787Y-154986839D02*
X161610311Y-155082078D01*
X161610311Y-155082078D02*
X160943644Y-155082078D01*
X162848406Y-154320173D02*
X162943644Y-154224935D01*
X162943644Y-154224935D02*
X163134120Y-154129697D01*
X163134120Y-154129697D02*
X163610311Y-154129697D01*
X163610311Y-154129697D02*
X163800787Y-154224935D01*
X163800787Y-154224935D02*
X163896025Y-154320173D01*
X163896025Y-154320173D02*
X163991263Y-154510649D01*
X163991263Y-154510649D02*
X163991263Y-154701125D01*
X163991263Y-154701125D02*
X163896025Y-154986839D01*
X163896025Y-154986839D02*
X162753168Y-156129697D01*
X162753168Y-156129697D02*
X163991263Y-156129697D01*
X165800787Y-154129697D02*
X164848406Y-154129697D01*
X164848406Y-154129697D02*
X164753168Y-155082078D01*
X164753168Y-155082078D02*
X164848406Y-154986839D01*
X164848406Y-154986839D02*
X165038882Y-154891601D01*
X165038882Y-154891601D02*
X165515073Y-154891601D01*
X165515073Y-154891601D02*
X165705549Y-154986839D01*
X165705549Y-154986839D02*
X165800787Y-155082078D01*
X165800787Y-155082078D02*
X165896025Y-155272554D01*
X165896025Y-155272554D02*
X165896025Y-155748744D01*
X165896025Y-155748744D02*
X165800787Y-155939220D01*
X165800787Y-155939220D02*
X165705549Y-156034459D01*
X165705549Y-156034459D02*
X165515073Y-156129697D01*
X165515073Y-156129697D02*
X165038882Y-156129697D01*
X165038882Y-156129697D02*
X164848406Y-156034459D01*
X164848406Y-156034459D02*
X164753168Y-155939220D01*
X166276978Y-156320173D02*
X167800787Y-156320173D01*
X168086502Y-154129697D02*
X168562692Y-156129697D01*
X168562692Y-156129697D02*
X168943645Y-154701125D01*
X168943645Y-154701125D02*
X169324597Y-156129697D01*
X169324597Y-156129697D02*
X169800788Y-154129697D01*
X171705549Y-156129697D02*
X171038882Y-155177316D01*
X170562692Y-156129697D02*
X170562692Y-154129697D01*
X170562692Y-154129697D02*
X171324597Y-154129697D01*
X171324597Y-154129697D02*
X171515073Y-154224935D01*
X171515073Y-154224935D02*
X171610311Y-154320173D01*
X171610311Y-154320173D02*
X171705549Y-154510649D01*
X171705549Y-154510649D02*
X171705549Y-154796363D01*
X171705549Y-154796363D02*
X171610311Y-154986839D01*
X171610311Y-154986839D02*
X171515073Y-155082078D01*
X171515073Y-155082078D02*
X171324597Y-155177316D01*
X171324597Y-155177316D02*
X170562692Y-155177316D01*
X172943644Y-154129697D02*
X173324597Y-154129697D01*
X173324597Y-154129697D02*
X173515073Y-154224935D01*
X173515073Y-154224935D02*
X173705549Y-154415411D01*
X173705549Y-154415411D02*
X173800787Y-154796363D01*
X173800787Y-154796363D02*
X173800787Y-155463030D01*
X173800787Y-155463030D02*
X173705549Y-155843982D01*
X173705549Y-155843982D02*
X173515073Y-156034459D01*
X173515073Y-156034459D02*
X173324597Y-156129697D01*
X173324597Y-156129697D02*
X172943644Y-156129697D01*
X172943644Y-156129697D02*
X172753168Y-156034459D01*
X172753168Y-156034459D02*
X172562692Y-155843982D01*
X172562692Y-155843982D02*
X172467454Y-155463030D01*
X172467454Y-155463030D02*
X172467454Y-154796363D01*
X172467454Y-154796363D02*
X172562692Y-154415411D01*
X172562692Y-154415411D02*
X172753168Y-154224935D01*
X172753168Y-154224935D02*
X172943644Y-154129697D01*
X174372216Y-154129697D02*
X175038882Y-156129697D01*
X175038882Y-156129697D02*
X175705549Y-154129697D01*
X176372216Y-155082078D02*
X177038883Y-155082078D01*
X177324597Y-156129697D02*
X176372216Y-156129697D01*
X176372216Y-156129697D02*
X176372216Y-154129697D01*
X176372216Y-154129697D02*
X177324597Y-154129697D01*
X179324597Y-156129697D02*
X178657930Y-155177316D01*
X178181740Y-156129697D02*
X178181740Y-154129697D01*
X178181740Y-154129697D02*
X178943645Y-154129697D01*
X178943645Y-154129697D02*
X179134121Y-154224935D01*
X179134121Y-154224935D02*
X179229359Y-154320173D01*
X179229359Y-154320173D02*
X179324597Y-154510649D01*
X179324597Y-154510649D02*
X179324597Y-154796363D01*
X179324597Y-154796363D02*
X179229359Y-154986839D01*
X179229359Y-154986839D02*
X179134121Y-155082078D01*
X179134121Y-155082078D02*
X178943645Y-155177316D01*
X178943645Y-155177316D02*
X178181740Y-155177316D01*
X180181740Y-155367792D02*
X181705550Y-155367792D01*
X182657930Y-156129697D02*
X182657930Y-154129697D01*
X182657930Y-154129697D02*
X183134120Y-154129697D01*
X183134120Y-154129697D02*
X183419835Y-154224935D01*
X183419835Y-154224935D02*
X183610311Y-154415411D01*
X183610311Y-154415411D02*
X183705549Y-154605887D01*
X183705549Y-154605887D02*
X183800787Y-154986839D01*
X183800787Y-154986839D02*
X183800787Y-155272554D01*
X183800787Y-155272554D02*
X183705549Y-155653506D01*
X183705549Y-155653506D02*
X183610311Y-155843982D01*
X183610311Y-155843982D02*
X183419835Y-156034459D01*
X183419835Y-156034459D02*
X183134120Y-156129697D01*
X183134120Y-156129697D02*
X182657930Y-156129697D01*
X184657930Y-155082078D02*
X185324597Y-155082078D01*
X185610311Y-156129697D02*
X184657930Y-156129697D01*
X184657930Y-156129697D02*
X184657930Y-154129697D01*
X184657930Y-154129697D02*
X185610311Y-154129697D01*
X186181740Y-154129697D02*
X186848406Y-156129697D01*
X186848406Y-156129697D02*
X187515073Y-154129697D01*
X187705550Y-156320173D02*
X189229359Y-156320173D01*
X190086502Y-154129697D02*
X190276979Y-154129697D01*
X190276979Y-154129697D02*
X190467455Y-154224935D01*
X190467455Y-154224935D02*
X190562693Y-154320173D01*
X190562693Y-154320173D02*
X190657931Y-154510649D01*
X190657931Y-154510649D02*
X190753169Y-154891601D01*
X190753169Y-154891601D02*
X190753169Y-155367792D01*
X190753169Y-155367792D02*
X190657931Y-155748744D01*
X190657931Y-155748744D02*
X190562693Y-155939220D01*
X190562693Y-155939220D02*
X190467455Y-156034459D01*
X190467455Y-156034459D02*
X190276979Y-156129697D01*
X190276979Y-156129697D02*
X190086502Y-156129697D01*
X190086502Y-156129697D02*
X189896026Y-156034459D01*
X189896026Y-156034459D02*
X189800788Y-155939220D01*
X189800788Y-155939220D02*
X189705550Y-155748744D01*
X189705550Y-155748744D02*
X189610312Y-155367792D01*
X189610312Y-155367792D02*
X189610312Y-154891601D01*
X189610312Y-154891601D02*
X189705550Y-154510649D01*
X189705550Y-154510649D02*
X189800788Y-154320173D01*
X189800788Y-154320173D02*
X189896026Y-154224935D01*
X189896026Y-154224935D02*
X190086502Y-154129697D01*
X192657931Y-156129697D02*
X191515074Y-156129697D01*
X192086502Y-156129697D02*
X192086502Y-154129697D01*
X192086502Y-154129697D02*
X191896026Y-154415411D01*
X191896026Y-154415411D02*
X191705550Y-154605887D01*
X191705550Y-154605887D02*
X191515074Y-154701125D01*
X193038884Y-156320173D02*
X194562693Y-156320173D01*
X195419836Y-154129697D02*
X195610313Y-154129697D01*
X195610313Y-154129697D02*
X195800789Y-154224935D01*
X195800789Y-154224935D02*
X195896027Y-154320173D01*
X195896027Y-154320173D02*
X195991265Y-154510649D01*
X195991265Y-154510649D02*
X196086503Y-154891601D01*
X196086503Y-154891601D02*
X196086503Y-155367792D01*
X196086503Y-155367792D02*
X195991265Y-155748744D01*
X195991265Y-155748744D02*
X195896027Y-155939220D01*
X195896027Y-155939220D02*
X195800789Y-156034459D01*
X195800789Y-156034459D02*
X195610313Y-156129697D01*
X195610313Y-156129697D02*
X195419836Y-156129697D01*
X195419836Y-156129697D02*
X195229360Y-156034459D01*
X195229360Y-156034459D02*
X195134122Y-155939220D01*
X195134122Y-155939220D02*
X195038884Y-155748744D01*
X195038884Y-155748744D02*
X194943646Y-155367792D01*
X194943646Y-155367792D02*
X194943646Y-154891601D01*
X194943646Y-154891601D02*
X195038884Y-154510649D01*
X195038884Y-154510649D02*
X195134122Y-154320173D01*
X195134122Y-154320173D02*
X195229360Y-154224935D01*
X195229360Y-154224935D02*
X195419836Y-154129697D01*
X196848408Y-154320173D02*
X196943646Y-154224935D01*
X196943646Y-154224935D02*
X197134122Y-154129697D01*
X197134122Y-154129697D02*
X197610313Y-154129697D01*
X197610313Y-154129697D02*
X197800789Y-154224935D01*
X197800789Y-154224935D02*
X197896027Y-154320173D01*
X197896027Y-154320173D02*
X197991265Y-154510649D01*
X197991265Y-154510649D02*
X197991265Y-154701125D01*
X197991265Y-154701125D02*
X197896027Y-154986839D01*
X197896027Y-154986839D02*
X196753170Y-156129697D01*
X196753170Y-156129697D02*
X197991265Y-156129697D01*
D10*
X205703936Y-126901924D02*
X206465841Y-126901924D01*
X99549953Y-95050353D02*
X99692810Y-95097972D01*
X99692810Y-95097972D02*
X99740429Y-95145591D01*
X99740429Y-95145591D02*
X99788048Y-95240829D01*
X99788048Y-95240829D02*
X99788048Y-95383686D01*
X99788048Y-95383686D02*
X99740429Y-95478924D01*
X99740429Y-95478924D02*
X99692810Y-95526544D01*
X99692810Y-95526544D02*
X99597572Y-95574163D01*
X99597572Y-95574163D02*
X99216620Y-95574163D01*
X99216620Y-95574163D02*
X99216620Y-94574163D01*
X99216620Y-94574163D02*
X99549953Y-94574163D01*
X99549953Y-94574163D02*
X99645191Y-94621782D01*
X99645191Y-94621782D02*
X99692810Y-94669401D01*
X99692810Y-94669401D02*
X99740429Y-94764639D01*
X99740429Y-94764639D02*
X99740429Y-94859877D01*
X99740429Y-94859877D02*
X99692810Y-94955115D01*
X99692810Y-94955115D02*
X99645191Y-95002734D01*
X99645191Y-95002734D02*
X99549953Y-95050353D01*
X99549953Y-95050353D02*
X99216620Y-95050353D01*
X100407096Y-94574163D02*
X100502334Y-94574163D01*
X100502334Y-94574163D02*
X100597572Y-94621782D01*
X100597572Y-94621782D02*
X100645191Y-94669401D01*
X100645191Y-94669401D02*
X100692810Y-94764639D01*
X100692810Y-94764639D02*
X100740429Y-94955115D01*
X100740429Y-94955115D02*
X100740429Y-95193210D01*
X100740429Y-95193210D02*
X100692810Y-95383686D01*
X100692810Y-95383686D02*
X100645191Y-95478924D01*
X100645191Y-95478924D02*
X100597572Y-95526544D01*
X100597572Y-95526544D02*
X100502334Y-95574163D01*
X100502334Y-95574163D02*
X100407096Y-95574163D01*
X100407096Y-95574163D02*
X100311858Y-95526544D01*
X100311858Y-95526544D02*
X100264239Y-95478924D01*
X100264239Y-95478924D02*
X100216620Y-95383686D01*
X100216620Y-95383686D02*
X100169001Y-95193210D01*
X100169001Y-95193210D02*
X100169001Y-94955115D01*
X100169001Y-94955115D02*
X100216620Y-94764639D01*
X100216620Y-94764639D02*
X100264239Y-94669401D01*
X100264239Y-94669401D02*
X100311858Y-94621782D01*
X100311858Y-94621782D02*
X100407096Y-94574163D01*
X203504467Y-93799993D02*
X204266372Y-93799993D01*
X203885419Y-94180946D02*
X203885419Y-93419041D01*
X205218752Y-93180946D02*
X204742562Y-93180946D01*
X204742562Y-93180946D02*
X204694943Y-93657136D01*
X204694943Y-93657136D02*
X204742562Y-93609517D01*
X204742562Y-93609517D02*
X204837800Y-93561898D01*
X204837800Y-93561898D02*
X205075895Y-93561898D01*
X205075895Y-93561898D02*
X205171133Y-93609517D01*
X205171133Y-93609517D02*
X205218752Y-93657136D01*
X205218752Y-93657136D02*
X205266371Y-93752374D01*
X205266371Y-93752374D02*
X205266371Y-93990469D01*
X205266371Y-93990469D02*
X205218752Y-94085707D01*
X205218752Y-94085707D02*
X205171133Y-94133327D01*
X205171133Y-94133327D02*
X205075895Y-94180946D01*
X205075895Y-94180946D02*
X204837800Y-94180946D01*
X204837800Y-94180946D02*
X204742562Y-94133327D01*
X204742562Y-94133327D02*
X204694943Y-94085707D01*
X205552086Y-93180946D02*
X205885419Y-94180946D01*
X205885419Y-94180946D02*
X206218752Y-93180946D01*
X107824832Y-72385108D02*
X108301022Y-72385108D01*
X107729594Y-72670823D02*
X108062927Y-71670823D01*
X108062927Y-71670823D02*
X108396260Y-72670823D01*
X109205784Y-71670823D02*
X108729594Y-71670823D01*
X108729594Y-71670823D02*
X108681975Y-72147013D01*
X108681975Y-72147013D02*
X108729594Y-72099394D01*
X108729594Y-72099394D02*
X108824832Y-72051775D01*
X108824832Y-72051775D02*
X109062927Y-72051775D01*
X109062927Y-72051775D02*
X109158165Y-72099394D01*
X109158165Y-72099394D02*
X109205784Y-72147013D01*
X109205784Y-72147013D02*
X109253403Y-72242251D01*
X109253403Y-72242251D02*
X109253403Y-72480346D01*
X109253403Y-72480346D02*
X109205784Y-72575584D01*
X109205784Y-72575584D02*
X109158165Y-72623204D01*
X109158165Y-72623204D02*
X109062927Y-72670823D01*
X109062927Y-72670823D02*
X108824832Y-72670823D01*
X108824832Y-72670823D02*
X108729594Y-72623204D01*
X108729594Y-72623204D02*
X108681975Y-72575584D01*
X108788299Y-97145362D02*
X109550204Y-97145362D01*
X205632878Y-72249316D02*
X206394783Y-72249316D01*
X99578246Y-92480505D02*
X99721103Y-92528124D01*
X99721103Y-92528124D02*
X99768722Y-92575743D01*
X99768722Y-92575743D02*
X99816341Y-92670981D01*
X99816341Y-92670981D02*
X99816341Y-92813838D01*
X99816341Y-92813838D02*
X99768722Y-92909076D01*
X99768722Y-92909076D02*
X99721103Y-92956696D01*
X99721103Y-92956696D02*
X99625865Y-93004315D01*
X99625865Y-93004315D02*
X99244913Y-93004315D01*
X99244913Y-93004315D02*
X99244913Y-92004315D01*
X99244913Y-92004315D02*
X99578246Y-92004315D01*
X99578246Y-92004315D02*
X99673484Y-92051934D01*
X99673484Y-92051934D02*
X99721103Y-92099553D01*
X99721103Y-92099553D02*
X99768722Y-92194791D01*
X99768722Y-92194791D02*
X99768722Y-92290029D01*
X99768722Y-92290029D02*
X99721103Y-92385267D01*
X99721103Y-92385267D02*
X99673484Y-92432886D01*
X99673484Y-92432886D02*
X99578246Y-92480505D01*
X99578246Y-92480505D02*
X99244913Y-92480505D01*
X100197294Y-92099553D02*
X100244913Y-92051934D01*
X100244913Y-92051934D02*
X100340151Y-92004315D01*
X100340151Y-92004315D02*
X100578246Y-92004315D01*
X100578246Y-92004315D02*
X100673484Y-92051934D01*
X100673484Y-92051934D02*
X100721103Y-92099553D01*
X100721103Y-92099553D02*
X100768722Y-92194791D01*
X100768722Y-92194791D02*
X100768722Y-92290029D01*
X100768722Y-92290029D02*
X100721103Y-92432886D01*
X100721103Y-92432886D02*
X100149675Y-93004315D01*
X100149675Y-93004315D02*
X100768722Y-93004315D01*
X108178484Y-79762472D02*
X108654674Y-79762472D01*
X108083246Y-80048187D02*
X108416579Y-79048187D01*
X108416579Y-79048187D02*
X108749912Y-80048187D01*
X109035627Y-79143425D02*
X109083246Y-79095806D01*
X109083246Y-79095806D02*
X109178484Y-79048187D01*
X109178484Y-79048187D02*
X109416579Y-79048187D01*
X109416579Y-79048187D02*
X109511817Y-79095806D01*
X109511817Y-79095806D02*
X109559436Y-79143425D01*
X109559436Y-79143425D02*
X109607055Y-79238663D01*
X109607055Y-79238663D02*
X109607055Y-79333901D01*
X109607055Y-79333901D02*
X109559436Y-79476758D01*
X109559436Y-79476758D02*
X108988008Y-80048187D01*
X108988008Y-80048187D02*
X109607055Y-80048187D01*
X99386373Y-71995087D02*
X99719706Y-71995087D01*
X99862563Y-72518897D02*
X99386373Y-72518897D01*
X99386373Y-72518897D02*
X99386373Y-71518897D01*
X99386373Y-71518897D02*
X99862563Y-71518897D01*
X100291135Y-72518897D02*
X100291135Y-71518897D01*
X100291135Y-71518897D02*
X100862563Y-72518897D01*
X100862563Y-72518897D02*
X100862563Y-71518897D01*
X99941855Y-86923979D02*
X100608521Y-87923979D01*
X100608521Y-86923979D02*
X99941855Y-87923979D01*
X108813447Y-99620636D02*
X109575352Y-99620636D01*
X205272719Y-143355319D02*
X206034624Y-143355319D01*
X109012930Y-89313396D02*
X108536740Y-89313396D01*
X108536740Y-89313396D02*
X108489121Y-89789586D01*
X108489121Y-89789586D02*
X108536740Y-89741967D01*
X108536740Y-89741967D02*
X108631978Y-89694348D01*
X108631978Y-89694348D02*
X108870073Y-89694348D01*
X108870073Y-89694348D02*
X108965311Y-89741967D01*
X108965311Y-89741967D02*
X109012930Y-89789586D01*
X109012930Y-89789586D02*
X109060549Y-89884824D01*
X109060549Y-89884824D02*
X109060549Y-90122919D01*
X109060549Y-90122919D02*
X109012930Y-90218157D01*
X109012930Y-90218157D02*
X108965311Y-90265777D01*
X108965311Y-90265777D02*
X108870073Y-90313396D01*
X108870073Y-90313396D02*
X108631978Y-90313396D01*
X108631978Y-90313396D02*
X108536740Y-90265777D01*
X108536740Y-90265777D02*
X108489121Y-90218157D01*
X99243516Y-66340917D02*
X99814944Y-66340917D01*
X99529230Y-67340917D02*
X99529230Y-66340917D01*
X100053040Y-66340917D02*
X100719706Y-67340917D01*
X100719706Y-66340917D02*
X100053040Y-67340917D01*
X203528146Y-98701642D02*
X204290051Y-98701642D01*
X203909098Y-99082595D02*
X203909098Y-98320690D01*
X204671003Y-98082595D02*
X205290050Y-98082595D01*
X205290050Y-98082595D02*
X204956717Y-98463547D01*
X204956717Y-98463547D02*
X205099574Y-98463547D01*
X205099574Y-98463547D02*
X205194812Y-98511166D01*
X205194812Y-98511166D02*
X205242431Y-98558785D01*
X205242431Y-98558785D02*
X205290050Y-98654023D01*
X205290050Y-98654023D02*
X205290050Y-98892118D01*
X205290050Y-98892118D02*
X205242431Y-98987356D01*
X205242431Y-98987356D02*
X205194812Y-99034976D01*
X205194812Y-99034976D02*
X205099574Y-99082595D01*
X205099574Y-99082595D02*
X204813860Y-99082595D01*
X204813860Y-99082595D02*
X204718622Y-99034976D01*
X204718622Y-99034976D02*
X204671003Y-98987356D01*
X205575765Y-98082595D02*
X205909098Y-99082595D01*
X205909098Y-99082595D02*
X206242431Y-98082595D01*
X206480527Y-98082595D02*
X207099574Y-98082595D01*
X207099574Y-98082595D02*
X206766241Y-98463547D01*
X206766241Y-98463547D02*
X206909098Y-98463547D01*
X206909098Y-98463547D02*
X207004336Y-98511166D01*
X207004336Y-98511166D02*
X207051955Y-98558785D01*
X207051955Y-98558785D02*
X207099574Y-98654023D01*
X207099574Y-98654023D02*
X207099574Y-98892118D01*
X207099574Y-98892118D02*
X207051955Y-98987356D01*
X207051955Y-98987356D02*
X207004336Y-99034976D01*
X207004336Y-99034976D02*
X206909098Y-99082595D01*
X206909098Y-99082595D02*
X206623384Y-99082595D01*
X206623384Y-99082595D02*
X206528146Y-99034976D01*
X206528146Y-99034976D02*
X206480527Y-98987356D01*
X182407927Y-38295767D02*
X182407927Y-39010052D01*
X182407927Y-39010052D02*
X182360308Y-39152909D01*
X182360308Y-39152909D02*
X182265070Y-39248148D01*
X182265070Y-39248148D02*
X182122213Y-39295767D01*
X182122213Y-39295767D02*
X182026975Y-39295767D01*
X183407927Y-39295767D02*
X182836499Y-39295767D01*
X183122213Y-39295767D02*
X183122213Y-38295767D01*
X183122213Y-38295767D02*
X183026975Y-38438624D01*
X183026975Y-38438624D02*
X182931737Y-38533862D01*
X182931737Y-38533862D02*
X182836499Y-38581481D01*
X184360308Y-39295767D02*
X183788880Y-39295767D01*
X184074594Y-39295767D02*
X184074594Y-38295767D01*
X184074594Y-38295767D02*
X183979356Y-38438624D01*
X183979356Y-38438624D02*
X183884118Y-38533862D01*
X183884118Y-38533862D02*
X183788880Y-38581481D01*
X204145526Y-50031523D02*
X203669335Y-50364856D01*
X204145526Y-50602951D02*
X203145526Y-50602951D01*
X203145526Y-50602951D02*
X203145526Y-50221999D01*
X203145526Y-50221999D02*
X203193145Y-50126761D01*
X203193145Y-50126761D02*
X203240764Y-50079142D01*
X203240764Y-50079142D02*
X203336002Y-50031523D01*
X203336002Y-50031523D02*
X203478859Y-50031523D01*
X203478859Y-50031523D02*
X203574097Y-50079142D01*
X203574097Y-50079142D02*
X203621716Y-50126761D01*
X203621716Y-50126761D02*
X203669335Y-50221999D01*
X203669335Y-50221999D02*
X203669335Y-50602951D01*
X203145526Y-49698189D02*
X203145526Y-49031523D01*
X203145526Y-49031523D02*
X204145526Y-49460094D01*
X201445526Y-49980095D02*
X201445526Y-50551523D01*
X201445526Y-50265809D02*
X200445526Y-50265809D01*
X200445526Y-50265809D02*
X200588383Y-50361047D01*
X200588383Y-50361047D02*
X200683621Y-50456285D01*
X200683621Y-50456285D02*
X200731240Y-50551523D01*
X200445526Y-49361047D02*
X200445526Y-49265809D01*
X200445526Y-49265809D02*
X200493145Y-49170571D01*
X200493145Y-49170571D02*
X200540764Y-49122952D01*
X200540764Y-49122952D02*
X200636002Y-49075333D01*
X200636002Y-49075333D02*
X200826478Y-49027714D01*
X200826478Y-49027714D02*
X201064573Y-49027714D01*
X201064573Y-49027714D02*
X201255049Y-49075333D01*
X201255049Y-49075333D02*
X201350287Y-49122952D01*
X201350287Y-49122952D02*
X201397907Y-49170571D01*
X201397907Y-49170571D02*
X201445526Y-49265809D01*
X201445526Y-49265809D02*
X201445526Y-49361047D01*
X201445526Y-49361047D02*
X201397907Y-49456285D01*
X201397907Y-49456285D02*
X201350287Y-49503904D01*
X201350287Y-49503904D02*
X201255049Y-49551523D01*
X201255049Y-49551523D02*
X201064573Y-49599142D01*
X201064573Y-49599142D02*
X200826478Y-49599142D01*
X200826478Y-49599142D02*
X200636002Y-49551523D01*
X200636002Y-49551523D02*
X200540764Y-49503904D01*
X200540764Y-49503904D02*
X200493145Y-49456285D01*
X200493145Y-49456285D02*
X200445526Y-49361047D01*
X201445526Y-48599142D02*
X200445526Y-48599142D01*
X201064573Y-48503904D02*
X201445526Y-48218190D01*
X200778859Y-48218190D02*
X201159811Y-48599142D01*
X154285653Y-125391951D02*
X154285653Y-126106236D01*
X154285653Y-126106236D02*
X154238034Y-126249093D01*
X154238034Y-126249093D02*
X154142796Y-126344332D01*
X154142796Y-126344332D02*
X153999939Y-126391951D01*
X153999939Y-126391951D02*
X153904701Y-126391951D01*
X155285653Y-126391951D02*
X154714225Y-126391951D01*
X154999939Y-126391951D02*
X154999939Y-125391951D01*
X154999939Y-125391951D02*
X154904701Y-125534808D01*
X154904701Y-125534808D02*
X154809463Y-125630046D01*
X154809463Y-125630046D02*
X154714225Y-125677665D01*
X155904701Y-125391951D02*
X155999939Y-125391951D01*
X155999939Y-125391951D02*
X156095177Y-125439570D01*
X156095177Y-125439570D02*
X156142796Y-125487189D01*
X156142796Y-125487189D02*
X156190415Y-125582427D01*
X156190415Y-125582427D02*
X156238034Y-125772903D01*
X156238034Y-125772903D02*
X156238034Y-126010998D01*
X156238034Y-126010998D02*
X156190415Y-126201474D01*
X156190415Y-126201474D02*
X156142796Y-126296712D01*
X156142796Y-126296712D02*
X156095177Y-126344332D01*
X156095177Y-126344332D02*
X155999939Y-126391951D01*
X155999939Y-126391951D02*
X155904701Y-126391951D01*
X155904701Y-126391951D02*
X155809463Y-126344332D01*
X155809463Y-126344332D02*
X155761844Y-126296712D01*
X155761844Y-126296712D02*
X155714225Y-126201474D01*
X155714225Y-126201474D02*
X155666606Y-126010998D01*
X155666606Y-126010998D02*
X155666606Y-125772903D01*
X155666606Y-125772903D02*
X155714225Y-125582427D01*
X155714225Y-125582427D02*
X155761844Y-125487189D01*
X155761844Y-125487189D02*
X155809463Y-125439570D01*
X155809463Y-125439570D02*
X155904701Y-125391951D01*
X151864157Y-125163038D02*
X151387966Y-125496371D01*
X151864157Y-125734466D02*
X150864157Y-125734466D01*
X150864157Y-125734466D02*
X150864157Y-125353514D01*
X150864157Y-125353514D02*
X150911776Y-125258276D01*
X150911776Y-125258276D02*
X150959395Y-125210657D01*
X150959395Y-125210657D02*
X151054633Y-125163038D01*
X151054633Y-125163038D02*
X151197490Y-125163038D01*
X151197490Y-125163038D02*
X151292728Y-125210657D01*
X151292728Y-125210657D02*
X151340347Y-125258276D01*
X151340347Y-125258276D02*
X151387966Y-125353514D01*
X151387966Y-125353514D02*
X151387966Y-125734466D01*
X151292728Y-124591609D02*
X151245109Y-124686847D01*
X151245109Y-124686847D02*
X151197490Y-124734466D01*
X151197490Y-124734466D02*
X151102252Y-124782085D01*
X151102252Y-124782085D02*
X151054633Y-124782085D01*
X151054633Y-124782085D02*
X150959395Y-124734466D01*
X150959395Y-124734466D02*
X150911776Y-124686847D01*
X150911776Y-124686847D02*
X150864157Y-124591609D01*
X150864157Y-124591609D02*
X150864157Y-124401133D01*
X150864157Y-124401133D02*
X150911776Y-124305895D01*
X150911776Y-124305895D02*
X150959395Y-124258276D01*
X150959395Y-124258276D02*
X151054633Y-124210657D01*
X151054633Y-124210657D02*
X151102252Y-124210657D01*
X151102252Y-124210657D02*
X151197490Y-124258276D01*
X151197490Y-124258276D02*
X151245109Y-124305895D01*
X151245109Y-124305895D02*
X151292728Y-124401133D01*
X151292728Y-124401133D02*
X151292728Y-124591609D01*
X151292728Y-124591609D02*
X151340347Y-124686847D01*
X151340347Y-124686847D02*
X151387966Y-124734466D01*
X151387966Y-124734466D02*
X151483204Y-124782085D01*
X151483204Y-124782085D02*
X151673680Y-124782085D01*
X151673680Y-124782085D02*
X151768918Y-124734466D01*
X151768918Y-124734466D02*
X151816538Y-124686847D01*
X151816538Y-124686847D02*
X151864157Y-124591609D01*
X151864157Y-124591609D02*
X151864157Y-124401133D01*
X151864157Y-124401133D02*
X151816538Y-124305895D01*
X151816538Y-124305895D02*
X151768918Y-124258276D01*
X151768918Y-124258276D02*
X151673680Y-124210657D01*
X151673680Y-124210657D02*
X151483204Y-124210657D01*
X151483204Y-124210657D02*
X151387966Y-124258276D01*
X151387966Y-124258276D02*
X151340347Y-124305895D01*
X151340347Y-124305895D02*
X151292728Y-124401133D01*
X149677525Y-125052695D02*
X149677525Y-125624123D01*
X149677525Y-125338409D02*
X148677525Y-125338409D01*
X148677525Y-125338409D02*
X148820382Y-125433647D01*
X148820382Y-125433647D02*
X148915620Y-125528885D01*
X148915620Y-125528885D02*
X148963239Y-125624123D01*
X149677525Y-124624123D02*
X148677525Y-124624123D01*
X149296572Y-124528885D02*
X149677525Y-124243171D01*
X149010858Y-124243171D02*
X149391810Y-124624123D01*
X141833966Y-128954527D02*
X141881586Y-129002146D01*
X141881586Y-129002146D02*
X141929205Y-129145003D01*
X141929205Y-129145003D02*
X141929205Y-129240241D01*
X141929205Y-129240241D02*
X141881586Y-129383098D01*
X141881586Y-129383098D02*
X141786347Y-129478336D01*
X141786347Y-129478336D02*
X141691109Y-129525955D01*
X141691109Y-129525955D02*
X141500633Y-129573574D01*
X141500633Y-129573574D02*
X141357776Y-129573574D01*
X141357776Y-129573574D02*
X141167300Y-129525955D01*
X141167300Y-129525955D02*
X141072062Y-129478336D01*
X141072062Y-129478336D02*
X140976824Y-129383098D01*
X140976824Y-129383098D02*
X140929205Y-129240241D01*
X140929205Y-129240241D02*
X140929205Y-129145003D01*
X140929205Y-129145003D02*
X140976824Y-129002146D01*
X140976824Y-129002146D02*
X141024443Y-128954527D01*
X140929205Y-128097384D02*
X140929205Y-128287860D01*
X140929205Y-128287860D02*
X140976824Y-128383098D01*
X140976824Y-128383098D02*
X141024443Y-128430717D01*
X141024443Y-128430717D02*
X141167300Y-128525955D01*
X141167300Y-128525955D02*
X141357776Y-128573574D01*
X141357776Y-128573574D02*
X141738728Y-128573574D01*
X141738728Y-128573574D02*
X141833966Y-128525955D01*
X141833966Y-128525955D02*
X141881586Y-128478336D01*
X141881586Y-128478336D02*
X141929205Y-128383098D01*
X141929205Y-128383098D02*
X141929205Y-128192622D01*
X141929205Y-128192622D02*
X141881586Y-128097384D01*
X141881586Y-128097384D02*
X141833966Y-128049765D01*
X141833966Y-128049765D02*
X141738728Y-128002146D01*
X141738728Y-128002146D02*
X141500633Y-128002146D01*
X141500633Y-128002146D02*
X141405395Y-128049765D01*
X141405395Y-128049765D02*
X141357776Y-128097384D01*
X141357776Y-128097384D02*
X141310157Y-128192622D01*
X141310157Y-128192622D02*
X141310157Y-128383098D01*
X141310157Y-128383098D02*
X141357776Y-128478336D01*
X141357776Y-128478336D02*
X141405395Y-128525955D01*
X141405395Y-128525955D02*
X141500633Y-128573574D01*
X139947334Y-129067439D02*
X139947334Y-129638867D01*
X139947334Y-129353153D02*
X138947334Y-129353153D01*
X138947334Y-129353153D02*
X139090191Y-129448391D01*
X139090191Y-129448391D02*
X139185429Y-129543629D01*
X139185429Y-129543629D02*
X139233048Y-129638867D01*
X139280667Y-128210296D02*
X139947334Y-128210296D01*
X139280667Y-128638867D02*
X139804476Y-128638867D01*
X139804476Y-128638867D02*
X139899715Y-128591248D01*
X139899715Y-128591248D02*
X139947334Y-128496010D01*
X139947334Y-128496010D02*
X139947334Y-128353153D01*
X139947334Y-128353153D02*
X139899715Y-128257915D01*
X139899715Y-128257915D02*
X139852095Y-128210296D01*
X211050503Y-46651590D02*
X211621931Y-46651590D01*
X211336217Y-47651590D02*
X211336217Y-46651590D01*
X211955265Y-47651590D02*
X211955265Y-46651590D01*
X211955265Y-46651590D02*
X212336217Y-46651590D01*
X212336217Y-46651590D02*
X212431455Y-46699209D01*
X212431455Y-46699209D02*
X212479074Y-46746828D01*
X212479074Y-46746828D02*
X212526693Y-46842066D01*
X212526693Y-46842066D02*
X212526693Y-46984923D01*
X212526693Y-46984923D02*
X212479074Y-47080161D01*
X212479074Y-47080161D02*
X212431455Y-47127780D01*
X212431455Y-47127780D02*
X212336217Y-47175399D01*
X212336217Y-47175399D02*
X211955265Y-47175399D01*
X213383836Y-46651590D02*
X213193360Y-46651590D01*
X213193360Y-46651590D02*
X213098122Y-46699209D01*
X213098122Y-46699209D02*
X213050503Y-46746828D01*
X213050503Y-46746828D02*
X212955265Y-46889685D01*
X212955265Y-46889685D02*
X212907646Y-47080161D01*
X212907646Y-47080161D02*
X212907646Y-47461113D01*
X212907646Y-47461113D02*
X212955265Y-47556351D01*
X212955265Y-47556351D02*
X213002884Y-47603971D01*
X213002884Y-47603971D02*
X213098122Y-47651590D01*
X213098122Y-47651590D02*
X213288598Y-47651590D01*
X213288598Y-47651590D02*
X213383836Y-47603971D01*
X213383836Y-47603971D02*
X213431455Y-47556351D01*
X213431455Y-47556351D02*
X213479074Y-47461113D01*
X213479074Y-47461113D02*
X213479074Y-47223018D01*
X213479074Y-47223018D02*
X213431455Y-47127780D01*
X213431455Y-47127780D02*
X213383836Y-47080161D01*
X213383836Y-47080161D02*
X213288598Y-47032542D01*
X213288598Y-47032542D02*
X213098122Y-47032542D01*
X213098122Y-47032542D02*
X213002884Y-47080161D01*
X213002884Y-47080161D02*
X212955265Y-47127780D01*
X212955265Y-47127780D02*
X212907646Y-47223018D01*
X208908035Y-52370181D02*
X209479463Y-52370181D01*
X209193749Y-53370181D02*
X209193749Y-52370181D01*
X210193749Y-53322562D02*
X210098511Y-53370181D01*
X210098511Y-53370181D02*
X209908035Y-53370181D01*
X209908035Y-53370181D02*
X209812797Y-53322562D01*
X209812797Y-53322562D02*
X209765178Y-53227323D01*
X209765178Y-53227323D02*
X209765178Y-52846371D01*
X209765178Y-52846371D02*
X209812797Y-52751133D01*
X209812797Y-52751133D02*
X209908035Y-52703514D01*
X209908035Y-52703514D02*
X210098511Y-52703514D01*
X210098511Y-52703514D02*
X210193749Y-52751133D01*
X210193749Y-52751133D02*
X210241368Y-52846371D01*
X210241368Y-52846371D02*
X210241368Y-52941609D01*
X210241368Y-52941609D02*
X209765178Y-53036847D01*
X210622321Y-53322562D02*
X210717559Y-53370181D01*
X210717559Y-53370181D02*
X210908035Y-53370181D01*
X210908035Y-53370181D02*
X211003273Y-53322562D01*
X211003273Y-53322562D02*
X211050892Y-53227323D01*
X211050892Y-53227323D02*
X211050892Y-53179704D01*
X211050892Y-53179704D02*
X211003273Y-53084466D01*
X211003273Y-53084466D02*
X210908035Y-53036847D01*
X210908035Y-53036847D02*
X210765178Y-53036847D01*
X210765178Y-53036847D02*
X210669940Y-52989228D01*
X210669940Y-52989228D02*
X210622321Y-52893990D01*
X210622321Y-52893990D02*
X210622321Y-52846371D01*
X210622321Y-52846371D02*
X210669940Y-52751133D01*
X210669940Y-52751133D02*
X210765178Y-52703514D01*
X210765178Y-52703514D02*
X210908035Y-52703514D01*
X210908035Y-52703514D02*
X211003273Y-52751133D01*
X211336607Y-52703514D02*
X211717559Y-52703514D01*
X211479464Y-52370181D02*
X211479464Y-53227323D01*
X211479464Y-53227323D02*
X211527083Y-53322562D01*
X211527083Y-53322562D02*
X211622321Y-53370181D01*
X211622321Y-53370181D02*
X211717559Y-53370181D01*
X212050893Y-53370181D02*
X212050893Y-52370181D01*
X212050893Y-52370181D02*
X212431845Y-52370181D01*
X212431845Y-52370181D02*
X212527083Y-52417800D01*
X212527083Y-52417800D02*
X212574702Y-52465419D01*
X212574702Y-52465419D02*
X212622321Y-52560657D01*
X212622321Y-52560657D02*
X212622321Y-52703514D01*
X212622321Y-52703514D02*
X212574702Y-52798752D01*
X212574702Y-52798752D02*
X212527083Y-52846371D01*
X212527083Y-52846371D02*
X212431845Y-52893990D01*
X212431845Y-52893990D02*
X212050893Y-52893990D01*
X213193750Y-53370181D02*
X213098512Y-53322562D01*
X213098512Y-53322562D02*
X213050893Y-53274942D01*
X213050893Y-53274942D02*
X213003274Y-53179704D01*
X213003274Y-53179704D02*
X213003274Y-52893990D01*
X213003274Y-52893990D02*
X213050893Y-52798752D01*
X213050893Y-52798752D02*
X213098512Y-52751133D01*
X213098512Y-52751133D02*
X213193750Y-52703514D01*
X213193750Y-52703514D02*
X213336607Y-52703514D01*
X213336607Y-52703514D02*
X213431845Y-52751133D01*
X213431845Y-52751133D02*
X213479464Y-52798752D01*
X213479464Y-52798752D02*
X213527083Y-52893990D01*
X213527083Y-52893990D02*
X213527083Y-53179704D01*
X213527083Y-53179704D02*
X213479464Y-53274942D01*
X213479464Y-53274942D02*
X213431845Y-53322562D01*
X213431845Y-53322562D02*
X213336607Y-53370181D01*
X213336607Y-53370181D02*
X213193750Y-53370181D01*
X213955655Y-53370181D02*
X213955655Y-52703514D01*
X213955655Y-52370181D02*
X213908036Y-52417800D01*
X213908036Y-52417800D02*
X213955655Y-52465419D01*
X213955655Y-52465419D02*
X214003274Y-52417800D01*
X214003274Y-52417800D02*
X213955655Y-52370181D01*
X213955655Y-52370181D02*
X213955655Y-52465419D01*
X214431845Y-52703514D02*
X214431845Y-53370181D01*
X214431845Y-52798752D02*
X214479464Y-52751133D01*
X214479464Y-52751133D02*
X214574702Y-52703514D01*
X214574702Y-52703514D02*
X214717559Y-52703514D01*
X214717559Y-52703514D02*
X214812797Y-52751133D01*
X214812797Y-52751133D02*
X214860416Y-52846371D01*
X214860416Y-52846371D02*
X214860416Y-53370181D01*
X215193750Y-52703514D02*
X215574702Y-52703514D01*
X215336607Y-52370181D02*
X215336607Y-53227323D01*
X215336607Y-53227323D02*
X215384226Y-53322562D01*
X215384226Y-53322562D02*
X215479464Y-53370181D01*
X215479464Y-53370181D02*
X215574702Y-53370181D01*
X140684794Y-154496553D02*
X141256222Y-154496553D01*
X140970508Y-155496553D02*
X140970508Y-154496553D01*
X141589556Y-155496553D02*
X141589556Y-154496553D01*
X141589556Y-154496553D02*
X141970508Y-154496553D01*
X141970508Y-154496553D02*
X142065746Y-154544172D01*
X142065746Y-154544172D02*
X142113365Y-154591791D01*
X142113365Y-154591791D02*
X142160984Y-154687029D01*
X142160984Y-154687029D02*
X142160984Y-154829886D01*
X142160984Y-154829886D02*
X142113365Y-154925124D01*
X142113365Y-154925124D02*
X142065746Y-154972743D01*
X142065746Y-154972743D02*
X141970508Y-155020362D01*
X141970508Y-155020362D02*
X141589556Y-155020362D01*
X142732413Y-154925124D02*
X142637175Y-154877505D01*
X142637175Y-154877505D02*
X142589556Y-154829886D01*
X142589556Y-154829886D02*
X142541937Y-154734648D01*
X142541937Y-154734648D02*
X142541937Y-154687029D01*
X142541937Y-154687029D02*
X142589556Y-154591791D01*
X142589556Y-154591791D02*
X142637175Y-154544172D01*
X142637175Y-154544172D02*
X142732413Y-154496553D01*
X142732413Y-154496553D02*
X142922889Y-154496553D01*
X142922889Y-154496553D02*
X143018127Y-154544172D01*
X143018127Y-154544172D02*
X143065746Y-154591791D01*
X143065746Y-154591791D02*
X143113365Y-154687029D01*
X143113365Y-154687029D02*
X143113365Y-154734648D01*
X143113365Y-154734648D02*
X143065746Y-154829886D01*
X143065746Y-154829886D02*
X143018127Y-154877505D01*
X143018127Y-154877505D02*
X142922889Y-154925124D01*
X142922889Y-154925124D02*
X142732413Y-154925124D01*
X142732413Y-154925124D02*
X142637175Y-154972743D01*
X142637175Y-154972743D02*
X142589556Y-155020362D01*
X142589556Y-155020362D02*
X142541937Y-155115600D01*
X142541937Y-155115600D02*
X142541937Y-155306076D01*
X142541937Y-155306076D02*
X142589556Y-155401314D01*
X142589556Y-155401314D02*
X142637175Y-155448934D01*
X142637175Y-155448934D02*
X142732413Y-155496553D01*
X142732413Y-155496553D02*
X142922889Y-155496553D01*
X142922889Y-155496553D02*
X143018127Y-155448934D01*
X143018127Y-155448934D02*
X143065746Y-155401314D01*
X143065746Y-155401314D02*
X143113365Y-155306076D01*
X143113365Y-155306076D02*
X143113365Y-155115600D01*
X143113365Y-155115600D02*
X143065746Y-155020362D01*
X143065746Y-155020362D02*
X143018127Y-154972743D01*
X143018127Y-154972743D02*
X142922889Y-154925124D01*
X138442273Y-156734874D02*
X139013701Y-156734874D01*
X138727987Y-157734874D02*
X138727987Y-156734874D01*
X139727987Y-157687255D02*
X139632749Y-157734874D01*
X139632749Y-157734874D02*
X139442273Y-157734874D01*
X139442273Y-157734874D02*
X139347035Y-157687255D01*
X139347035Y-157687255D02*
X139299416Y-157592016D01*
X139299416Y-157592016D02*
X139299416Y-157211064D01*
X139299416Y-157211064D02*
X139347035Y-157115826D01*
X139347035Y-157115826D02*
X139442273Y-157068207D01*
X139442273Y-157068207D02*
X139632749Y-157068207D01*
X139632749Y-157068207D02*
X139727987Y-157115826D01*
X139727987Y-157115826D02*
X139775606Y-157211064D01*
X139775606Y-157211064D02*
X139775606Y-157306302D01*
X139775606Y-157306302D02*
X139299416Y-157401540D01*
X140156559Y-157687255D02*
X140251797Y-157734874D01*
X140251797Y-157734874D02*
X140442273Y-157734874D01*
X140442273Y-157734874D02*
X140537511Y-157687255D01*
X140537511Y-157687255D02*
X140585130Y-157592016D01*
X140585130Y-157592016D02*
X140585130Y-157544397D01*
X140585130Y-157544397D02*
X140537511Y-157449159D01*
X140537511Y-157449159D02*
X140442273Y-157401540D01*
X140442273Y-157401540D02*
X140299416Y-157401540D01*
X140299416Y-157401540D02*
X140204178Y-157353921D01*
X140204178Y-157353921D02*
X140156559Y-157258683D01*
X140156559Y-157258683D02*
X140156559Y-157211064D01*
X140156559Y-157211064D02*
X140204178Y-157115826D01*
X140204178Y-157115826D02*
X140299416Y-157068207D01*
X140299416Y-157068207D02*
X140442273Y-157068207D01*
X140442273Y-157068207D02*
X140537511Y-157115826D01*
X140870845Y-157068207D02*
X141251797Y-157068207D01*
X141013702Y-156734874D02*
X141013702Y-157592016D01*
X141013702Y-157592016D02*
X141061321Y-157687255D01*
X141061321Y-157687255D02*
X141156559Y-157734874D01*
X141156559Y-157734874D02*
X141251797Y-157734874D01*
X141585131Y-157734874D02*
X141585131Y-156734874D01*
X141585131Y-156734874D02*
X141966083Y-156734874D01*
X141966083Y-156734874D02*
X142061321Y-156782493D01*
X142061321Y-156782493D02*
X142108940Y-156830112D01*
X142108940Y-156830112D02*
X142156559Y-156925350D01*
X142156559Y-156925350D02*
X142156559Y-157068207D01*
X142156559Y-157068207D02*
X142108940Y-157163445D01*
X142108940Y-157163445D02*
X142061321Y-157211064D01*
X142061321Y-157211064D02*
X141966083Y-157258683D01*
X141966083Y-157258683D02*
X141585131Y-157258683D01*
X142727988Y-157734874D02*
X142632750Y-157687255D01*
X142632750Y-157687255D02*
X142585131Y-157639635D01*
X142585131Y-157639635D02*
X142537512Y-157544397D01*
X142537512Y-157544397D02*
X142537512Y-157258683D01*
X142537512Y-157258683D02*
X142585131Y-157163445D01*
X142585131Y-157163445D02*
X142632750Y-157115826D01*
X142632750Y-157115826D02*
X142727988Y-157068207D01*
X142727988Y-157068207D02*
X142870845Y-157068207D01*
X142870845Y-157068207D02*
X142966083Y-157115826D01*
X142966083Y-157115826D02*
X143013702Y-157163445D01*
X143013702Y-157163445D02*
X143061321Y-157258683D01*
X143061321Y-157258683D02*
X143061321Y-157544397D01*
X143061321Y-157544397D02*
X143013702Y-157639635D01*
X143013702Y-157639635D02*
X142966083Y-157687255D01*
X142966083Y-157687255D02*
X142870845Y-157734874D01*
X142870845Y-157734874D02*
X142727988Y-157734874D01*
X143489893Y-157734874D02*
X143489893Y-157068207D01*
X143489893Y-156734874D02*
X143442274Y-156782493D01*
X143442274Y-156782493D02*
X143489893Y-156830112D01*
X143489893Y-156830112D02*
X143537512Y-156782493D01*
X143537512Y-156782493D02*
X143489893Y-156734874D01*
X143489893Y-156734874D02*
X143489893Y-156830112D01*
X143966083Y-157068207D02*
X143966083Y-157734874D01*
X143966083Y-157163445D02*
X144013702Y-157115826D01*
X144013702Y-157115826D02*
X144108940Y-157068207D01*
X144108940Y-157068207D02*
X144251797Y-157068207D01*
X144251797Y-157068207D02*
X144347035Y-157115826D01*
X144347035Y-157115826D02*
X144394654Y-157211064D01*
X144394654Y-157211064D02*
X144394654Y-157734874D01*
X144727988Y-157068207D02*
X145108940Y-157068207D01*
X144870845Y-156734874D02*
X144870845Y-157592016D01*
X144870845Y-157592016D02*
X144918464Y-157687255D01*
X144918464Y-157687255D02*
X145013702Y-157734874D01*
X145013702Y-157734874D02*
X145108940Y-157734874D01*
X123933333Y-159422219D02*
X123600000Y-158946028D01*
X123361905Y-159422219D02*
X123361905Y-158422219D01*
X123361905Y-158422219D02*
X123742857Y-158422219D01*
X123742857Y-158422219D02*
X123838095Y-158469838D01*
X123838095Y-158469838D02*
X123885714Y-158517457D01*
X123885714Y-158517457D02*
X123933333Y-158612695D01*
X123933333Y-158612695D02*
X123933333Y-158755552D01*
X123933333Y-158755552D02*
X123885714Y-158850790D01*
X123885714Y-158850790D02*
X123838095Y-158898409D01*
X123838095Y-158898409D02*
X123742857Y-158946028D01*
X123742857Y-158946028D02*
X123361905Y-158946028D01*
X124790476Y-158422219D02*
X124600000Y-158422219D01*
X124600000Y-158422219D02*
X124504762Y-158469838D01*
X124504762Y-158469838D02*
X124457143Y-158517457D01*
X124457143Y-158517457D02*
X124361905Y-158660314D01*
X124361905Y-158660314D02*
X124314286Y-158850790D01*
X124314286Y-158850790D02*
X124314286Y-159231742D01*
X124314286Y-159231742D02*
X124361905Y-159326980D01*
X124361905Y-159326980D02*
X124409524Y-159374600D01*
X124409524Y-159374600D02*
X124504762Y-159422219D01*
X124504762Y-159422219D02*
X124695238Y-159422219D01*
X124695238Y-159422219D02*
X124790476Y-159374600D01*
X124790476Y-159374600D02*
X124838095Y-159326980D01*
X124838095Y-159326980D02*
X124885714Y-159231742D01*
X124885714Y-159231742D02*
X124885714Y-158993647D01*
X124885714Y-158993647D02*
X124838095Y-158898409D01*
X124838095Y-158898409D02*
X124790476Y-158850790D01*
X124790476Y-158850790D02*
X124695238Y-158803171D01*
X124695238Y-158803171D02*
X124504762Y-158803171D01*
X124504762Y-158803171D02*
X124409524Y-158850790D01*
X124409524Y-158850790D02*
X124361905Y-158898409D01*
X124361905Y-158898409D02*
X124314286Y-158993647D01*
X123052381Y-156372096D02*
X122957143Y-156324477D01*
X122957143Y-156324477D02*
X122909524Y-156276858D01*
X122909524Y-156276858D02*
X122861905Y-156181620D01*
X122861905Y-156181620D02*
X122861905Y-156134001D01*
X122861905Y-156134001D02*
X122909524Y-156038763D01*
X122909524Y-156038763D02*
X122957143Y-155991144D01*
X122957143Y-155991144D02*
X123052381Y-155943525D01*
X123052381Y-155943525D02*
X123242857Y-155943525D01*
X123242857Y-155943525D02*
X123338095Y-155991144D01*
X123338095Y-155991144D02*
X123385714Y-156038763D01*
X123385714Y-156038763D02*
X123433333Y-156134001D01*
X123433333Y-156134001D02*
X123433333Y-156181620D01*
X123433333Y-156181620D02*
X123385714Y-156276858D01*
X123385714Y-156276858D02*
X123338095Y-156324477D01*
X123338095Y-156324477D02*
X123242857Y-156372096D01*
X123242857Y-156372096D02*
X123052381Y-156372096D01*
X123052381Y-156372096D02*
X122957143Y-156419715D01*
X122957143Y-156419715D02*
X122909524Y-156467334D01*
X122909524Y-156467334D02*
X122861905Y-156562572D01*
X122861905Y-156562572D02*
X122861905Y-156753048D01*
X122861905Y-156753048D02*
X122909524Y-156848286D01*
X122909524Y-156848286D02*
X122957143Y-156895906D01*
X122957143Y-156895906D02*
X123052381Y-156943525D01*
X123052381Y-156943525D02*
X123242857Y-156943525D01*
X123242857Y-156943525D02*
X123338095Y-156895906D01*
X123338095Y-156895906D02*
X123385714Y-156848286D01*
X123385714Y-156848286D02*
X123433333Y-156753048D01*
X123433333Y-156753048D02*
X123433333Y-156562572D01*
X123433333Y-156562572D02*
X123385714Y-156467334D01*
X123385714Y-156467334D02*
X123338095Y-156419715D01*
X123338095Y-156419715D02*
X123242857Y-156372096D01*
X124052381Y-155943525D02*
X124147619Y-155943525D01*
X124147619Y-155943525D02*
X124242857Y-155991144D01*
X124242857Y-155991144D02*
X124290476Y-156038763D01*
X124290476Y-156038763D02*
X124338095Y-156134001D01*
X124338095Y-156134001D02*
X124385714Y-156324477D01*
X124385714Y-156324477D02*
X124385714Y-156562572D01*
X124385714Y-156562572D02*
X124338095Y-156753048D01*
X124338095Y-156753048D02*
X124290476Y-156848286D01*
X124290476Y-156848286D02*
X124242857Y-156895906D01*
X124242857Y-156895906D02*
X124147619Y-156943525D01*
X124147619Y-156943525D02*
X124052381Y-156943525D01*
X124052381Y-156943525D02*
X123957143Y-156895906D01*
X123957143Y-156895906D02*
X123909524Y-156848286D01*
X123909524Y-156848286D02*
X123861905Y-156753048D01*
X123861905Y-156753048D02*
X123814286Y-156562572D01*
X123814286Y-156562572D02*
X123814286Y-156324477D01*
X123814286Y-156324477D02*
X123861905Y-156134001D01*
X123861905Y-156134001D02*
X123909524Y-156038763D01*
X123909524Y-156038763D02*
X123957143Y-155991144D01*
X123957143Y-155991144D02*
X124052381Y-155943525D01*
X125004762Y-155943525D02*
X125100000Y-155943525D01*
X125100000Y-155943525D02*
X125195238Y-155991144D01*
X125195238Y-155991144D02*
X125242857Y-156038763D01*
X125242857Y-156038763D02*
X125290476Y-156134001D01*
X125290476Y-156134001D02*
X125338095Y-156324477D01*
X125338095Y-156324477D02*
X125338095Y-156562572D01*
X125338095Y-156562572D02*
X125290476Y-156753048D01*
X125290476Y-156753048D02*
X125242857Y-156848286D01*
X125242857Y-156848286D02*
X125195238Y-156895906D01*
X125195238Y-156895906D02*
X125100000Y-156943525D01*
X125100000Y-156943525D02*
X125004762Y-156943525D01*
X125004762Y-156943525D02*
X124909524Y-156895906D01*
X124909524Y-156895906D02*
X124861905Y-156848286D01*
X124861905Y-156848286D02*
X124814286Y-156753048D01*
X124814286Y-156753048D02*
X124766667Y-156562572D01*
X124766667Y-156562572D02*
X124766667Y-156324477D01*
X124766667Y-156324477D02*
X124814286Y-156134001D01*
X124814286Y-156134001D02*
X124861905Y-156038763D01*
X124861905Y-156038763D02*
X124909524Y-155991144D01*
X124909524Y-155991144D02*
X125004762Y-155943525D01*
X164638095Y-59952219D02*
X164638095Y-60761742D01*
X164638095Y-60761742D02*
X164685714Y-60856980D01*
X164685714Y-60856980D02*
X164733333Y-60904600D01*
X164733333Y-60904600D02*
X164828571Y-60952219D01*
X164828571Y-60952219D02*
X165019047Y-60952219D01*
X165019047Y-60952219D02*
X165114285Y-60904600D01*
X165114285Y-60904600D02*
X165161904Y-60856980D01*
X165161904Y-60856980D02*
X165209523Y-60761742D01*
X165209523Y-60761742D02*
X165209523Y-59952219D01*
X166114285Y-59952219D02*
X165923809Y-59952219D01*
X165923809Y-59952219D02*
X165828571Y-59999838D01*
X165828571Y-59999838D02*
X165780952Y-60047457D01*
X165780952Y-60047457D02*
X165685714Y-60190314D01*
X165685714Y-60190314D02*
X165638095Y-60380790D01*
X165638095Y-60380790D02*
X165638095Y-60761742D01*
X165638095Y-60761742D02*
X165685714Y-60856980D01*
X165685714Y-60856980D02*
X165733333Y-60904600D01*
X165733333Y-60904600D02*
X165828571Y-60952219D01*
X165828571Y-60952219D02*
X166019047Y-60952219D01*
X166019047Y-60952219D02*
X166114285Y-60904600D01*
X166114285Y-60904600D02*
X166161904Y-60856980D01*
X166161904Y-60856980D02*
X166209523Y-60761742D01*
X166209523Y-60761742D02*
X166209523Y-60523647D01*
X166209523Y-60523647D02*
X166161904Y-60428409D01*
X166161904Y-60428409D02*
X166114285Y-60380790D01*
X166114285Y-60380790D02*
X166019047Y-60333171D01*
X166019047Y-60333171D02*
X165828571Y-60333171D01*
X165828571Y-60333171D02*
X165733333Y-60380790D01*
X165733333Y-60380790D02*
X165685714Y-60428409D01*
X165685714Y-60428409D02*
X165638095Y-60523647D01*
X119383333Y-89256980D02*
X119335714Y-89304600D01*
X119335714Y-89304600D02*
X119192857Y-89352219D01*
X119192857Y-89352219D02*
X119097619Y-89352219D01*
X119097619Y-89352219D02*
X118954762Y-89304600D01*
X118954762Y-89304600D02*
X118859524Y-89209361D01*
X118859524Y-89209361D02*
X118811905Y-89114123D01*
X118811905Y-89114123D02*
X118764286Y-88923647D01*
X118764286Y-88923647D02*
X118764286Y-88780790D01*
X118764286Y-88780790D02*
X118811905Y-88590314D01*
X118811905Y-88590314D02*
X118859524Y-88495076D01*
X118859524Y-88495076D02*
X118954762Y-88399838D01*
X118954762Y-88399838D02*
X119097619Y-88352219D01*
X119097619Y-88352219D02*
X119192857Y-88352219D01*
X119192857Y-88352219D02*
X119335714Y-88399838D01*
X119335714Y-88399838D02*
X119383333Y-88447457D01*
X120335714Y-89352219D02*
X119764286Y-89352219D01*
X120050000Y-89352219D02*
X120050000Y-88352219D01*
X120050000Y-88352219D02*
X119954762Y-88495076D01*
X119954762Y-88495076D02*
X119859524Y-88590314D01*
X119859524Y-88590314D02*
X119764286Y-88637933D01*
X119483333Y-98252219D02*
X118911905Y-98252219D01*
X119197619Y-98252219D02*
X119197619Y-97252219D01*
X119197619Y-97252219D02*
X119102381Y-97395076D01*
X119102381Y-97395076D02*
X119007143Y-97490314D01*
X119007143Y-97490314D02*
X118911905Y-97537933D01*
X120340476Y-97585552D02*
X120340476Y-98252219D01*
X119911905Y-97585552D02*
X119911905Y-98109361D01*
X119911905Y-98109361D02*
X119959524Y-98204600D01*
X119959524Y-98204600D02*
X120054762Y-98252219D01*
X120054762Y-98252219D02*
X120197619Y-98252219D01*
X120197619Y-98252219D02*
X120292857Y-98204600D01*
X120292857Y-98204600D02*
X120340476Y-98156980D01*
X211366666Y-78552219D02*
X211366666Y-79266504D01*
X211366666Y-79266504D02*
X211319047Y-79409361D01*
X211319047Y-79409361D02*
X211223809Y-79504600D01*
X211223809Y-79504600D02*
X211080952Y-79552219D01*
X211080952Y-79552219D02*
X210985714Y-79552219D01*
X211985714Y-78980790D02*
X211890476Y-78933171D01*
X211890476Y-78933171D02*
X211842857Y-78885552D01*
X211842857Y-78885552D02*
X211795238Y-78790314D01*
X211795238Y-78790314D02*
X211795238Y-78742695D01*
X211795238Y-78742695D02*
X211842857Y-78647457D01*
X211842857Y-78647457D02*
X211890476Y-78599838D01*
X211890476Y-78599838D02*
X211985714Y-78552219D01*
X211985714Y-78552219D02*
X212176190Y-78552219D01*
X212176190Y-78552219D02*
X212271428Y-78599838D01*
X212271428Y-78599838D02*
X212319047Y-78647457D01*
X212319047Y-78647457D02*
X212366666Y-78742695D01*
X212366666Y-78742695D02*
X212366666Y-78790314D01*
X212366666Y-78790314D02*
X212319047Y-78885552D01*
X212319047Y-78885552D02*
X212271428Y-78933171D01*
X212271428Y-78933171D02*
X212176190Y-78980790D01*
X212176190Y-78980790D02*
X211985714Y-78980790D01*
X211985714Y-78980790D02*
X211890476Y-79028409D01*
X211890476Y-79028409D02*
X211842857Y-79076028D01*
X211842857Y-79076028D02*
X211795238Y-79171266D01*
X211795238Y-79171266D02*
X211795238Y-79361742D01*
X211795238Y-79361742D02*
X211842857Y-79456980D01*
X211842857Y-79456980D02*
X211890476Y-79504600D01*
X211890476Y-79504600D02*
X211985714Y-79552219D01*
X211985714Y-79552219D02*
X212176190Y-79552219D01*
X212176190Y-79552219D02*
X212271428Y-79504600D01*
X212271428Y-79504600D02*
X212319047Y-79456980D01*
X212319047Y-79456980D02*
X212366666Y-79361742D01*
X212366666Y-79361742D02*
X212366666Y-79171266D01*
X212366666Y-79171266D02*
X212319047Y-79076028D01*
X212319047Y-79076028D02*
X212271428Y-79028409D01*
X212271428Y-79028409D02*
X212176190Y-78980790D01*
X125733333Y-94302219D02*
X125400000Y-93826028D01*
X125161905Y-94302219D02*
X125161905Y-93302219D01*
X125161905Y-93302219D02*
X125542857Y-93302219D01*
X125542857Y-93302219D02*
X125638095Y-93349838D01*
X125638095Y-93349838D02*
X125685714Y-93397457D01*
X125685714Y-93397457D02*
X125733333Y-93492695D01*
X125733333Y-93492695D02*
X125733333Y-93635552D01*
X125733333Y-93635552D02*
X125685714Y-93730790D01*
X125685714Y-93730790D02*
X125638095Y-93778409D01*
X125638095Y-93778409D02*
X125542857Y-93826028D01*
X125542857Y-93826028D02*
X125161905Y-93826028D01*
X126685714Y-94302219D02*
X126114286Y-94302219D01*
X126400000Y-94302219D02*
X126400000Y-93302219D01*
X126400000Y-93302219D02*
X126304762Y-93445076D01*
X126304762Y-93445076D02*
X126209524Y-93540314D01*
X126209524Y-93540314D02*
X126114286Y-93587933D01*
X126352219Y-96595238D02*
X126352219Y-97166666D01*
X126352219Y-96880952D02*
X125352219Y-96880952D01*
X125352219Y-96880952D02*
X125495076Y-96976190D01*
X125495076Y-96976190D02*
X125590314Y-97071428D01*
X125590314Y-97071428D02*
X125637933Y-97166666D01*
X125352219Y-95976190D02*
X125352219Y-95880952D01*
X125352219Y-95880952D02*
X125399838Y-95785714D01*
X125399838Y-95785714D02*
X125447457Y-95738095D01*
X125447457Y-95738095D02*
X125542695Y-95690476D01*
X125542695Y-95690476D02*
X125733171Y-95642857D01*
X125733171Y-95642857D02*
X125971266Y-95642857D01*
X125971266Y-95642857D02*
X126161742Y-95690476D01*
X126161742Y-95690476D02*
X126256980Y-95738095D01*
X126256980Y-95738095D02*
X126304600Y-95785714D01*
X126304600Y-95785714D02*
X126352219Y-95880952D01*
X126352219Y-95880952D02*
X126352219Y-95976190D01*
X126352219Y-95976190D02*
X126304600Y-96071428D01*
X126304600Y-96071428D02*
X126256980Y-96119047D01*
X126256980Y-96119047D02*
X126161742Y-96166666D01*
X126161742Y-96166666D02*
X125971266Y-96214285D01*
X125971266Y-96214285D02*
X125733171Y-96214285D01*
X125733171Y-96214285D02*
X125542695Y-96166666D01*
X125542695Y-96166666D02*
X125447457Y-96119047D01*
X125447457Y-96119047D02*
X125399838Y-96071428D01*
X125399838Y-96071428D02*
X125352219Y-95976190D01*
X126352219Y-95214285D02*
X125352219Y-95214285D01*
X125971266Y-95119047D02*
X126352219Y-94833333D01*
X125685552Y-94833333D02*
X126066504Y-95214285D01*
X211815846Y-62852219D02*
X211815846Y-63566504D01*
X211815846Y-63566504D02*
X211768227Y-63709361D01*
X211768227Y-63709361D02*
X211672989Y-63804600D01*
X211672989Y-63804600D02*
X211530132Y-63852219D01*
X211530132Y-63852219D02*
X211434894Y-63852219D01*
X212339656Y-63852219D02*
X212530132Y-63852219D01*
X212530132Y-63852219D02*
X212625370Y-63804600D01*
X212625370Y-63804600D02*
X212672989Y-63756980D01*
X212672989Y-63756980D02*
X212768227Y-63614123D01*
X212768227Y-63614123D02*
X212815846Y-63423647D01*
X212815846Y-63423647D02*
X212815846Y-63042695D01*
X212815846Y-63042695D02*
X212768227Y-62947457D01*
X212768227Y-62947457D02*
X212720608Y-62899838D01*
X212720608Y-62899838D02*
X212625370Y-62852219D01*
X212625370Y-62852219D02*
X212434894Y-62852219D01*
X212434894Y-62852219D02*
X212339656Y-62899838D01*
X212339656Y-62899838D02*
X212292037Y-62947457D01*
X212292037Y-62947457D02*
X212244418Y-63042695D01*
X212244418Y-63042695D02*
X212244418Y-63280790D01*
X212244418Y-63280790D02*
X212292037Y-63376028D01*
X212292037Y-63376028D02*
X212339656Y-63423647D01*
X212339656Y-63423647D02*
X212434894Y-63471266D01*
X212434894Y-63471266D02*
X212625370Y-63471266D01*
X212625370Y-63471266D02*
X212720608Y-63423647D01*
X212720608Y-63423647D02*
X212768227Y-63376028D01*
X212768227Y-63376028D02*
X212815846Y-63280790D01*
X197148302Y-146205501D02*
X197195922Y-146253120D01*
X197195922Y-146253120D02*
X197243541Y-146395977D01*
X197243541Y-146395977D02*
X197243541Y-146491215D01*
X197243541Y-146491215D02*
X197195922Y-146634072D01*
X197195922Y-146634072D02*
X197100683Y-146729310D01*
X197100683Y-146729310D02*
X197005445Y-146776929D01*
X197005445Y-146776929D02*
X196814969Y-146824548D01*
X196814969Y-146824548D02*
X196672112Y-146824548D01*
X196672112Y-146824548D02*
X196481636Y-146776929D01*
X196481636Y-146776929D02*
X196386398Y-146729310D01*
X196386398Y-146729310D02*
X196291160Y-146634072D01*
X196291160Y-146634072D02*
X196243541Y-146491215D01*
X196243541Y-146491215D02*
X196243541Y-146395977D01*
X196243541Y-146395977D02*
X196291160Y-146253120D01*
X196291160Y-146253120D02*
X196338779Y-146205501D01*
X196338779Y-145824548D02*
X196291160Y-145776929D01*
X196291160Y-145776929D02*
X196243541Y-145681691D01*
X196243541Y-145681691D02*
X196243541Y-145443596D01*
X196243541Y-145443596D02*
X196291160Y-145348358D01*
X196291160Y-145348358D02*
X196338779Y-145300739D01*
X196338779Y-145300739D02*
X196434017Y-145253120D01*
X196434017Y-145253120D02*
X196529255Y-145253120D01*
X196529255Y-145253120D02*
X196672112Y-145300739D01*
X196672112Y-145300739D02*
X197243541Y-145872167D01*
X197243541Y-145872167D02*
X197243541Y-145253120D01*
X198243541Y-147253120D02*
X198243541Y-147157882D01*
X198243541Y-147157882D02*
X198291160Y-147062644D01*
X198291160Y-147062644D02*
X198338779Y-147015025D01*
X198338779Y-147015025D02*
X198434017Y-146967406D01*
X198434017Y-146967406D02*
X198624493Y-146919787D01*
X198624493Y-146919787D02*
X198862588Y-146919787D01*
X198862588Y-146919787D02*
X199053064Y-146967406D01*
X199053064Y-146967406D02*
X199148302Y-147015025D01*
X199148302Y-147015025D02*
X199195922Y-147062644D01*
X199195922Y-147062644D02*
X199243541Y-147157882D01*
X199243541Y-147157882D02*
X199243541Y-147253120D01*
X199243541Y-147253120D02*
X199195922Y-147348358D01*
X199195922Y-147348358D02*
X199148302Y-147395977D01*
X199148302Y-147395977D02*
X199053064Y-147443596D01*
X199053064Y-147443596D02*
X198862588Y-147491215D01*
X198862588Y-147491215D02*
X198624493Y-147491215D01*
X198624493Y-147491215D02*
X198434017Y-147443596D01*
X198434017Y-147443596D02*
X198338779Y-147395977D01*
X198338779Y-147395977D02*
X198291160Y-147348358D01*
X198291160Y-147348358D02*
X198243541Y-147253120D01*
X199148302Y-146491215D02*
X199195922Y-146443596D01*
X199195922Y-146443596D02*
X199243541Y-146491215D01*
X199243541Y-146491215D02*
X199195922Y-146538834D01*
X199195922Y-146538834D02*
X199148302Y-146491215D01*
X199148302Y-146491215D02*
X199243541Y-146491215D01*
X199243541Y-145491216D02*
X199243541Y-146062644D01*
X199243541Y-145776930D02*
X198243541Y-145776930D01*
X198243541Y-145776930D02*
X198386398Y-145872168D01*
X198386398Y-145872168D02*
X198481636Y-145967406D01*
X198481636Y-145967406D02*
X198529255Y-146062644D01*
X198576874Y-144634073D02*
X199243541Y-144634073D01*
X198576874Y-145062644D02*
X199100683Y-145062644D01*
X199100683Y-145062644D02*
X199195922Y-145015025D01*
X199195922Y-145015025D02*
X199243541Y-144919787D01*
X199243541Y-144919787D02*
X199243541Y-144776930D01*
X199243541Y-144776930D02*
X199195922Y-144681692D01*
X199195922Y-144681692D02*
X199148302Y-144634073D01*
X211566666Y-153827341D02*
X211566666Y-154541626D01*
X211566666Y-154541626D02*
X211519047Y-154684483D01*
X211519047Y-154684483D02*
X211423809Y-154779722D01*
X211423809Y-154779722D02*
X211280952Y-154827341D01*
X211280952Y-154827341D02*
X211185714Y-154827341D01*
X212519047Y-153827341D02*
X212042857Y-153827341D01*
X212042857Y-153827341D02*
X211995238Y-154303531D01*
X211995238Y-154303531D02*
X212042857Y-154255912D01*
X212042857Y-154255912D02*
X212138095Y-154208293D01*
X212138095Y-154208293D02*
X212376190Y-154208293D01*
X212376190Y-154208293D02*
X212471428Y-154255912D01*
X212471428Y-154255912D02*
X212519047Y-154303531D01*
X212519047Y-154303531D02*
X212566666Y-154398769D01*
X212566666Y-154398769D02*
X212566666Y-154636864D01*
X212566666Y-154636864D02*
X212519047Y-154732102D01*
X212519047Y-154732102D02*
X212471428Y-154779722D01*
X212471428Y-154779722D02*
X212376190Y-154827341D01*
X212376190Y-154827341D02*
X212138095Y-154827341D01*
X212138095Y-154827341D02*
X212042857Y-154779722D01*
X212042857Y-154779722D02*
X211995238Y-154732102D01*
X211899635Y-102416137D02*
X211899635Y-103130422D01*
X211899635Y-103130422D02*
X211852016Y-103273279D01*
X211852016Y-103273279D02*
X211756778Y-103368518D01*
X211756778Y-103368518D02*
X211613921Y-103416137D01*
X211613921Y-103416137D02*
X211518683Y-103416137D01*
X212804397Y-102749470D02*
X212804397Y-103416137D01*
X212566302Y-102368518D02*
X212328207Y-103082803D01*
X212328207Y-103082803D02*
X212947254Y-103082803D01*
X97933109Y-140052219D02*
X97933109Y-140766504D01*
X97933109Y-140766504D02*
X97885490Y-140909361D01*
X97885490Y-140909361D02*
X97790252Y-141004600D01*
X97790252Y-141004600D02*
X97647395Y-141052219D01*
X97647395Y-141052219D02*
X97552157Y-141052219D01*
X98361681Y-140147457D02*
X98409300Y-140099838D01*
X98409300Y-140099838D02*
X98504538Y-140052219D01*
X98504538Y-140052219D02*
X98742633Y-140052219D01*
X98742633Y-140052219D02*
X98837871Y-140099838D01*
X98837871Y-140099838D02*
X98885490Y-140147457D01*
X98885490Y-140147457D02*
X98933109Y-140242695D01*
X98933109Y-140242695D02*
X98933109Y-140337933D01*
X98933109Y-140337933D02*
X98885490Y-140480790D01*
X98885490Y-140480790D02*
X98314062Y-141052219D01*
X98314062Y-141052219D02*
X98933109Y-141052219D01*
X135015982Y-151684622D02*
X134539791Y-152017955D01*
X135015982Y-152256050D02*
X134015982Y-152256050D01*
X134015982Y-152256050D02*
X134015982Y-151875098D01*
X134015982Y-151875098D02*
X134063601Y-151779860D01*
X134063601Y-151779860D02*
X134111220Y-151732241D01*
X134111220Y-151732241D02*
X134206458Y-151684622D01*
X134206458Y-151684622D02*
X134349315Y-151684622D01*
X134349315Y-151684622D02*
X134444553Y-151732241D01*
X134444553Y-151732241D02*
X134492172Y-151779860D01*
X134492172Y-151779860D02*
X134539791Y-151875098D01*
X134539791Y-151875098D02*
X134539791Y-152256050D01*
X134015982Y-151351288D02*
X134015982Y-150732241D01*
X134015982Y-150732241D02*
X134396934Y-151065574D01*
X134396934Y-151065574D02*
X134396934Y-150922717D01*
X134396934Y-150922717D02*
X134444553Y-150827479D01*
X134444553Y-150827479D02*
X134492172Y-150779860D01*
X134492172Y-150779860D02*
X134587410Y-150732241D01*
X134587410Y-150732241D02*
X134825505Y-150732241D01*
X134825505Y-150732241D02*
X134920743Y-150779860D01*
X134920743Y-150779860D02*
X134968363Y-150827479D01*
X134968363Y-150827479D02*
X135015982Y-150922717D01*
X135015982Y-150922717D02*
X135015982Y-151208431D01*
X135015982Y-151208431D02*
X134968363Y-151303669D01*
X134968363Y-151303669D02*
X134920743Y-151351288D01*
X131654316Y-152756050D02*
X131606697Y-152708431D01*
X131606697Y-152708431D02*
X131559078Y-152613193D01*
X131559078Y-152613193D02*
X131559078Y-152375098D01*
X131559078Y-152375098D02*
X131606697Y-152279860D01*
X131606697Y-152279860D02*
X131654316Y-152232241D01*
X131654316Y-152232241D02*
X131749554Y-152184622D01*
X131749554Y-152184622D02*
X131844792Y-152184622D01*
X131844792Y-152184622D02*
X131987649Y-152232241D01*
X131987649Y-152232241D02*
X132559078Y-152803669D01*
X132559078Y-152803669D02*
X132559078Y-152184622D01*
X131892411Y-151327479D02*
X132559078Y-151327479D01*
X131511459Y-151565574D02*
X132225744Y-151803669D01*
X132225744Y-151803669D02*
X132225744Y-151184622D01*
X131559078Y-150613193D02*
X131559078Y-150517955D01*
X131559078Y-150517955D02*
X131606697Y-150422717D01*
X131606697Y-150422717D02*
X131654316Y-150375098D01*
X131654316Y-150375098D02*
X131749554Y-150327479D01*
X131749554Y-150327479D02*
X131940030Y-150279860D01*
X131940030Y-150279860D02*
X132178125Y-150279860D01*
X132178125Y-150279860D02*
X132368601Y-150327479D01*
X132368601Y-150327479D02*
X132463839Y-150375098D01*
X132463839Y-150375098D02*
X132511459Y-150422717D01*
X132511459Y-150422717D02*
X132559078Y-150517955D01*
X132559078Y-150517955D02*
X132559078Y-150613193D01*
X132559078Y-150613193D02*
X132511459Y-150708431D01*
X132511459Y-150708431D02*
X132463839Y-150756050D01*
X132463839Y-150756050D02*
X132368601Y-150803669D01*
X132368601Y-150803669D02*
X132178125Y-150851288D01*
X132178125Y-150851288D02*
X131940030Y-150851288D01*
X131940030Y-150851288D02*
X131749554Y-150803669D01*
X131749554Y-150803669D02*
X131654316Y-150756050D01*
X131654316Y-150756050D02*
X131606697Y-150708431D01*
X131606697Y-150708431D02*
X131559078Y-150613193D01*
X145048053Y-132943416D02*
X145619481Y-132943416D01*
X145333767Y-133943416D02*
X145333767Y-132943416D01*
X145952815Y-133943416D02*
X145952815Y-132943416D01*
X145952815Y-132943416D02*
X146333767Y-132943416D01*
X146333767Y-132943416D02*
X146429005Y-132991035D01*
X146429005Y-132991035D02*
X146476624Y-133038654D01*
X146476624Y-133038654D02*
X146524243Y-133133892D01*
X146524243Y-133133892D02*
X146524243Y-133276749D01*
X146524243Y-133276749D02*
X146476624Y-133371987D01*
X146476624Y-133371987D02*
X146429005Y-133419606D01*
X146429005Y-133419606D02*
X146333767Y-133467225D01*
X146333767Y-133467225D02*
X145952815Y-133467225D01*
X147476624Y-133943416D02*
X146905196Y-133943416D01*
X147190910Y-133943416D02*
X147190910Y-132943416D01*
X147190910Y-132943416D02*
X147095672Y-133086273D01*
X147095672Y-133086273D02*
X147000434Y-133181511D01*
X147000434Y-133181511D02*
X146905196Y-133229130D01*
X141905317Y-140966910D02*
X142476745Y-140966910D01*
X142191031Y-141966910D02*
X142191031Y-140966910D01*
X143191031Y-141919291D02*
X143095793Y-141966910D01*
X143095793Y-141966910D02*
X142905317Y-141966910D01*
X142905317Y-141966910D02*
X142810079Y-141919291D01*
X142810079Y-141919291D02*
X142762460Y-141824052D01*
X142762460Y-141824052D02*
X142762460Y-141443100D01*
X142762460Y-141443100D02*
X142810079Y-141347862D01*
X142810079Y-141347862D02*
X142905317Y-141300243D01*
X142905317Y-141300243D02*
X143095793Y-141300243D01*
X143095793Y-141300243D02*
X143191031Y-141347862D01*
X143191031Y-141347862D02*
X143238650Y-141443100D01*
X143238650Y-141443100D02*
X143238650Y-141538338D01*
X143238650Y-141538338D02*
X142762460Y-141633576D01*
X143619603Y-141919291D02*
X143714841Y-141966910D01*
X143714841Y-141966910D02*
X143905317Y-141966910D01*
X143905317Y-141966910D02*
X144000555Y-141919291D01*
X144000555Y-141919291D02*
X144048174Y-141824052D01*
X144048174Y-141824052D02*
X144048174Y-141776433D01*
X144048174Y-141776433D02*
X144000555Y-141681195D01*
X144000555Y-141681195D02*
X143905317Y-141633576D01*
X143905317Y-141633576D02*
X143762460Y-141633576D01*
X143762460Y-141633576D02*
X143667222Y-141585957D01*
X143667222Y-141585957D02*
X143619603Y-141490719D01*
X143619603Y-141490719D02*
X143619603Y-141443100D01*
X143619603Y-141443100D02*
X143667222Y-141347862D01*
X143667222Y-141347862D02*
X143762460Y-141300243D01*
X143762460Y-141300243D02*
X143905317Y-141300243D01*
X143905317Y-141300243D02*
X144000555Y-141347862D01*
X144333889Y-141300243D02*
X144714841Y-141300243D01*
X144476746Y-140966910D02*
X144476746Y-141824052D01*
X144476746Y-141824052D02*
X144524365Y-141919291D01*
X144524365Y-141919291D02*
X144619603Y-141966910D01*
X144619603Y-141966910D02*
X144714841Y-141966910D01*
X145048175Y-141966910D02*
X145048175Y-140966910D01*
X145048175Y-140966910D02*
X145429127Y-140966910D01*
X145429127Y-140966910D02*
X145524365Y-141014529D01*
X145524365Y-141014529D02*
X145571984Y-141062148D01*
X145571984Y-141062148D02*
X145619603Y-141157386D01*
X145619603Y-141157386D02*
X145619603Y-141300243D01*
X145619603Y-141300243D02*
X145571984Y-141395481D01*
X145571984Y-141395481D02*
X145524365Y-141443100D01*
X145524365Y-141443100D02*
X145429127Y-141490719D01*
X145429127Y-141490719D02*
X145048175Y-141490719D01*
X146191032Y-141966910D02*
X146095794Y-141919291D01*
X146095794Y-141919291D02*
X146048175Y-141871671D01*
X146048175Y-141871671D02*
X146000556Y-141776433D01*
X146000556Y-141776433D02*
X146000556Y-141490719D01*
X146000556Y-141490719D02*
X146048175Y-141395481D01*
X146048175Y-141395481D02*
X146095794Y-141347862D01*
X146095794Y-141347862D02*
X146191032Y-141300243D01*
X146191032Y-141300243D02*
X146333889Y-141300243D01*
X146333889Y-141300243D02*
X146429127Y-141347862D01*
X146429127Y-141347862D02*
X146476746Y-141395481D01*
X146476746Y-141395481D02*
X146524365Y-141490719D01*
X146524365Y-141490719D02*
X146524365Y-141776433D01*
X146524365Y-141776433D02*
X146476746Y-141871671D01*
X146476746Y-141871671D02*
X146429127Y-141919291D01*
X146429127Y-141919291D02*
X146333889Y-141966910D01*
X146333889Y-141966910D02*
X146191032Y-141966910D01*
X146952937Y-141966910D02*
X146952937Y-141300243D01*
X146952937Y-140966910D02*
X146905318Y-141014529D01*
X146905318Y-141014529D02*
X146952937Y-141062148D01*
X146952937Y-141062148D02*
X147000556Y-141014529D01*
X147000556Y-141014529D02*
X146952937Y-140966910D01*
X146952937Y-140966910D02*
X146952937Y-141062148D01*
X147429127Y-141300243D02*
X147429127Y-141966910D01*
X147429127Y-141395481D02*
X147476746Y-141347862D01*
X147476746Y-141347862D02*
X147571984Y-141300243D01*
X147571984Y-141300243D02*
X147714841Y-141300243D01*
X147714841Y-141300243D02*
X147810079Y-141347862D01*
X147810079Y-141347862D02*
X147857698Y-141443100D01*
X147857698Y-141443100D02*
X147857698Y-141966910D01*
X148191032Y-141300243D02*
X148571984Y-141300243D01*
X148333889Y-140966910D02*
X148333889Y-141824052D01*
X148333889Y-141824052D02*
X148381508Y-141919291D01*
X148381508Y-141919291D02*
X148476746Y-141966910D01*
X148476746Y-141966910D02*
X148571984Y-141966910D01*
X136938095Y-142452219D02*
X137509523Y-142452219D01*
X137223809Y-143452219D02*
X137223809Y-142452219D01*
X137842857Y-143452219D02*
X137842857Y-142452219D01*
X137842857Y-142452219D02*
X138223809Y-142452219D01*
X138223809Y-142452219D02*
X138319047Y-142499838D01*
X138319047Y-142499838D02*
X138366666Y-142547457D01*
X138366666Y-142547457D02*
X138414285Y-142642695D01*
X138414285Y-142642695D02*
X138414285Y-142785552D01*
X138414285Y-142785552D02*
X138366666Y-142880790D01*
X138366666Y-142880790D02*
X138319047Y-142928409D01*
X138319047Y-142928409D02*
X138223809Y-142976028D01*
X138223809Y-142976028D02*
X137842857Y-142976028D01*
X138747619Y-142452219D02*
X139414285Y-142452219D01*
X139414285Y-142452219D02*
X138985714Y-143452219D01*
X132652219Y-84561904D02*
X133461742Y-84561904D01*
X133461742Y-84561904D02*
X133556980Y-84514285D01*
X133556980Y-84514285D02*
X133604600Y-84466666D01*
X133604600Y-84466666D02*
X133652219Y-84371428D01*
X133652219Y-84371428D02*
X133652219Y-84180952D01*
X133652219Y-84180952D02*
X133604600Y-84085714D01*
X133604600Y-84085714D02*
X133556980Y-84038095D01*
X133556980Y-84038095D02*
X133461742Y-83990476D01*
X133461742Y-83990476D02*
X132652219Y-83990476D01*
X132747457Y-83561904D02*
X132699838Y-83514285D01*
X132699838Y-83514285D02*
X132652219Y-83419047D01*
X132652219Y-83419047D02*
X132652219Y-83180952D01*
X132652219Y-83180952D02*
X132699838Y-83085714D01*
X132699838Y-83085714D02*
X132747457Y-83038095D01*
X132747457Y-83038095D02*
X132842695Y-82990476D01*
X132842695Y-82990476D02*
X132937933Y-82990476D01*
X132937933Y-82990476D02*
X133080790Y-83038095D01*
X133080790Y-83038095D02*
X133652219Y-83609523D01*
X133652219Y-83609523D02*
X133652219Y-82990476D01*
X211466666Y-137611496D02*
X211466666Y-138325781D01*
X211466666Y-138325781D02*
X211419047Y-138468638D01*
X211419047Y-138468638D02*
X211323809Y-138563877D01*
X211323809Y-138563877D02*
X211180952Y-138611496D01*
X211180952Y-138611496D02*
X211085714Y-138611496D01*
X211847619Y-137611496D02*
X212514285Y-137611496D01*
X212514285Y-137611496D02*
X212085714Y-138611496D01*
X104116666Y-63652219D02*
X104116666Y-64366504D01*
X104116666Y-64366504D02*
X104069047Y-64509361D01*
X104069047Y-64509361D02*
X103973809Y-64604600D01*
X103973809Y-64604600D02*
X103830952Y-64652219D01*
X103830952Y-64652219D02*
X103735714Y-64652219D01*
X105021428Y-63652219D02*
X104830952Y-63652219D01*
X104830952Y-63652219D02*
X104735714Y-63699838D01*
X104735714Y-63699838D02*
X104688095Y-63747457D01*
X104688095Y-63747457D02*
X104592857Y-63890314D01*
X104592857Y-63890314D02*
X104545238Y-64080790D01*
X104545238Y-64080790D02*
X104545238Y-64461742D01*
X104545238Y-64461742D02*
X104592857Y-64556980D01*
X104592857Y-64556980D02*
X104640476Y-64604600D01*
X104640476Y-64604600D02*
X104735714Y-64652219D01*
X104735714Y-64652219D02*
X104926190Y-64652219D01*
X104926190Y-64652219D02*
X105021428Y-64604600D01*
X105021428Y-64604600D02*
X105069047Y-64556980D01*
X105069047Y-64556980D02*
X105116666Y-64461742D01*
X105116666Y-64461742D02*
X105116666Y-64223647D01*
X105116666Y-64223647D02*
X105069047Y-64128409D01*
X105069047Y-64128409D02*
X105021428Y-64080790D01*
X105021428Y-64080790D02*
X104926190Y-64033171D01*
X104926190Y-64033171D02*
X104735714Y-64033171D01*
X104735714Y-64033171D02*
X104640476Y-64080790D01*
X104640476Y-64080790D02*
X104592857Y-64128409D01*
X104592857Y-64128409D02*
X104545238Y-64223647D01*
X120952219Y-149001904D02*
X121761742Y-149001904D01*
X121761742Y-149001904D02*
X121856980Y-148954285D01*
X121856980Y-148954285D02*
X121904600Y-148906666D01*
X121904600Y-148906666D02*
X121952219Y-148811428D01*
X121952219Y-148811428D02*
X121952219Y-148620952D01*
X121952219Y-148620952D02*
X121904600Y-148525714D01*
X121904600Y-148525714D02*
X121856980Y-148478095D01*
X121856980Y-148478095D02*
X121761742Y-148430476D01*
X121761742Y-148430476D02*
X120952219Y-148430476D01*
X121952219Y-147430476D02*
X121952219Y-148001904D01*
X121952219Y-147716190D02*
X120952219Y-147716190D01*
X120952219Y-147716190D02*
X121095076Y-147811428D01*
X121095076Y-147811428D02*
X121190314Y-147906666D01*
X121190314Y-147906666D02*
X121237933Y-148001904D01*
X123438095Y-127652219D02*
X123438095Y-128461742D01*
X123438095Y-128461742D02*
X123485714Y-128556980D01*
X123485714Y-128556980D02*
X123533333Y-128604600D01*
X123533333Y-128604600D02*
X123628571Y-128652219D01*
X123628571Y-128652219D02*
X123819047Y-128652219D01*
X123819047Y-128652219D02*
X123914285Y-128604600D01*
X123914285Y-128604600D02*
X123961904Y-128556980D01*
X123961904Y-128556980D02*
X124009523Y-128461742D01*
X124009523Y-128461742D02*
X124009523Y-127652219D01*
X124961904Y-127652219D02*
X124485714Y-127652219D01*
X124485714Y-127652219D02*
X124438095Y-128128409D01*
X124438095Y-128128409D02*
X124485714Y-128080790D01*
X124485714Y-128080790D02*
X124580952Y-128033171D01*
X124580952Y-128033171D02*
X124819047Y-128033171D01*
X124819047Y-128033171D02*
X124914285Y-128080790D01*
X124914285Y-128080790D02*
X124961904Y-128128409D01*
X124961904Y-128128409D02*
X125009523Y-128223647D01*
X125009523Y-128223647D02*
X125009523Y-128461742D01*
X125009523Y-128461742D02*
X124961904Y-128556980D01*
X124961904Y-128556980D02*
X124914285Y-128604600D01*
X124914285Y-128604600D02*
X124819047Y-128652219D01*
X124819047Y-128652219D02*
X124580952Y-128652219D01*
X124580952Y-128652219D02*
X124485714Y-128604600D01*
X124485714Y-128604600D02*
X124438095Y-128556980D01*
X172572401Y-129921681D02*
X172572401Y-130635966D01*
X172572401Y-130635966D02*
X172524782Y-130778823D01*
X172524782Y-130778823D02*
X172429544Y-130874062D01*
X172429544Y-130874062D02*
X172286687Y-130921681D01*
X172286687Y-130921681D02*
X172191449Y-130921681D01*
X173572401Y-130921681D02*
X173000973Y-130921681D01*
X173286687Y-130921681D02*
X173286687Y-129921681D01*
X173286687Y-129921681D02*
X173191449Y-130064538D01*
X173191449Y-130064538D02*
X173096211Y-130159776D01*
X173096211Y-130159776D02*
X173000973Y-130207395D01*
X133633333Y-131756980D02*
X133585714Y-131804600D01*
X133585714Y-131804600D02*
X133442857Y-131852219D01*
X133442857Y-131852219D02*
X133347619Y-131852219D01*
X133347619Y-131852219D02*
X133204762Y-131804600D01*
X133204762Y-131804600D02*
X133109524Y-131709361D01*
X133109524Y-131709361D02*
X133061905Y-131614123D01*
X133061905Y-131614123D02*
X133014286Y-131423647D01*
X133014286Y-131423647D02*
X133014286Y-131280790D01*
X133014286Y-131280790D02*
X133061905Y-131090314D01*
X133061905Y-131090314D02*
X133109524Y-130995076D01*
X133109524Y-130995076D02*
X133204762Y-130899838D01*
X133204762Y-130899838D02*
X133347619Y-130852219D01*
X133347619Y-130852219D02*
X133442857Y-130852219D01*
X133442857Y-130852219D02*
X133585714Y-130899838D01*
X133585714Y-130899838D02*
X133633333Y-130947457D01*
X134538095Y-130852219D02*
X134061905Y-130852219D01*
X134061905Y-130852219D02*
X134014286Y-131328409D01*
X134014286Y-131328409D02*
X134061905Y-131280790D01*
X134061905Y-131280790D02*
X134157143Y-131233171D01*
X134157143Y-131233171D02*
X134395238Y-131233171D01*
X134395238Y-131233171D02*
X134490476Y-131280790D01*
X134490476Y-131280790D02*
X134538095Y-131328409D01*
X134538095Y-131328409D02*
X134585714Y-131423647D01*
X134585714Y-131423647D02*
X134585714Y-131661742D01*
X134585714Y-131661742D02*
X134538095Y-131756980D01*
X134538095Y-131756980D02*
X134490476Y-131804600D01*
X134490476Y-131804600D02*
X134395238Y-131852219D01*
X134395238Y-131852219D02*
X134157143Y-131852219D01*
X134157143Y-131852219D02*
X134061905Y-131804600D01*
X134061905Y-131804600D02*
X134014286Y-131756980D01*
X134452219Y-136166666D02*
X134452219Y-136738094D01*
X134452219Y-136452380D02*
X133452219Y-136452380D01*
X133452219Y-136452380D02*
X133595076Y-136547618D01*
X133595076Y-136547618D02*
X133690314Y-136642856D01*
X133690314Y-136642856D02*
X133737933Y-136738094D01*
X133785552Y-135309523D02*
X134452219Y-135309523D01*
X133785552Y-135738094D02*
X134309361Y-135738094D01*
X134309361Y-135738094D02*
X134404600Y-135690475D01*
X134404600Y-135690475D02*
X134452219Y-135595237D01*
X134452219Y-135595237D02*
X134452219Y-135452380D01*
X134452219Y-135452380D02*
X134404600Y-135357142D01*
X134404600Y-135357142D02*
X134356980Y-135309523D01*
X130356980Y-128666666D02*
X130404600Y-128714285D01*
X130404600Y-128714285D02*
X130452219Y-128857142D01*
X130452219Y-128857142D02*
X130452219Y-128952380D01*
X130452219Y-128952380D02*
X130404600Y-129095237D01*
X130404600Y-129095237D02*
X130309361Y-129190475D01*
X130309361Y-129190475D02*
X130214123Y-129238094D01*
X130214123Y-129238094D02*
X130023647Y-129285713D01*
X130023647Y-129285713D02*
X129880790Y-129285713D01*
X129880790Y-129285713D02*
X129690314Y-129238094D01*
X129690314Y-129238094D02*
X129595076Y-129190475D01*
X129595076Y-129190475D02*
X129499838Y-129095237D01*
X129499838Y-129095237D02*
X129452219Y-128952380D01*
X129452219Y-128952380D02*
X129452219Y-128857142D01*
X129452219Y-128857142D02*
X129499838Y-128714285D01*
X129499838Y-128714285D02*
X129547457Y-128666666D01*
X129452219Y-128333332D02*
X129452219Y-127714285D01*
X129452219Y-127714285D02*
X129833171Y-128047618D01*
X129833171Y-128047618D02*
X129833171Y-127904761D01*
X129833171Y-127904761D02*
X129880790Y-127809523D01*
X129880790Y-127809523D02*
X129928409Y-127761904D01*
X129928409Y-127761904D02*
X130023647Y-127714285D01*
X130023647Y-127714285D02*
X130261742Y-127714285D01*
X130261742Y-127714285D02*
X130356980Y-127761904D01*
X130356980Y-127761904D02*
X130404600Y-127809523D01*
X130404600Y-127809523D02*
X130452219Y-127904761D01*
X130452219Y-127904761D02*
X130452219Y-128190475D01*
X130452219Y-128190475D02*
X130404600Y-128285713D01*
X130404600Y-128285713D02*
X130356980Y-128333332D01*
X132452219Y-128666666D02*
X132452219Y-129238094D01*
X132452219Y-128952380D02*
X131452219Y-128952380D01*
X131452219Y-128952380D02*
X131595076Y-129047618D01*
X131595076Y-129047618D02*
X131690314Y-129142856D01*
X131690314Y-129142856D02*
X131737933Y-129238094D01*
X131785552Y-127809523D02*
X132452219Y-127809523D01*
X131785552Y-128238094D02*
X132309361Y-128238094D01*
X132309361Y-128238094D02*
X132404600Y-128190475D01*
X132404600Y-128190475D02*
X132452219Y-128095237D01*
X132452219Y-128095237D02*
X132452219Y-127952380D01*
X132452219Y-127952380D02*
X132404600Y-127857142D01*
X132404600Y-127857142D02*
X132356980Y-127809523D01*
X100488611Y-125802219D02*
X101060039Y-125802219D01*
X100774325Y-126802219D02*
X100774325Y-125802219D01*
X101393373Y-126802219D02*
X101393373Y-125802219D01*
X101393373Y-125802219D02*
X101774325Y-125802219D01*
X101774325Y-125802219D02*
X101869563Y-125849838D01*
X101869563Y-125849838D02*
X101917182Y-125897457D01*
X101917182Y-125897457D02*
X101964801Y-125992695D01*
X101964801Y-125992695D02*
X101964801Y-126135552D01*
X101964801Y-126135552D02*
X101917182Y-126230790D01*
X101917182Y-126230790D02*
X101869563Y-126278409D01*
X101869563Y-126278409D02*
X101774325Y-126326028D01*
X101774325Y-126326028D02*
X101393373Y-126326028D01*
X102869563Y-125802219D02*
X102393373Y-125802219D01*
X102393373Y-125802219D02*
X102345754Y-126278409D01*
X102345754Y-126278409D02*
X102393373Y-126230790D01*
X102393373Y-126230790D02*
X102488611Y-126183171D01*
X102488611Y-126183171D02*
X102726706Y-126183171D01*
X102726706Y-126183171D02*
X102821944Y-126230790D01*
X102821944Y-126230790D02*
X102869563Y-126278409D01*
X102869563Y-126278409D02*
X102917182Y-126373647D01*
X102917182Y-126373647D02*
X102917182Y-126611742D01*
X102917182Y-126611742D02*
X102869563Y-126706980D01*
X102869563Y-126706980D02*
X102821944Y-126754600D01*
X102821944Y-126754600D02*
X102726706Y-126802219D01*
X102726706Y-126802219D02*
X102488611Y-126802219D01*
X102488611Y-126802219D02*
X102393373Y-126754600D01*
X102393373Y-126754600D02*
X102345754Y-126706980D01*
X102231392Y-120302219D02*
X102802820Y-120302219D01*
X102517106Y-121302219D02*
X102517106Y-120302219D01*
X103517106Y-121254600D02*
X103421868Y-121302219D01*
X103421868Y-121302219D02*
X103231392Y-121302219D01*
X103231392Y-121302219D02*
X103136154Y-121254600D01*
X103136154Y-121254600D02*
X103088535Y-121159361D01*
X103088535Y-121159361D02*
X103088535Y-120778409D01*
X103088535Y-120778409D02*
X103136154Y-120683171D01*
X103136154Y-120683171D02*
X103231392Y-120635552D01*
X103231392Y-120635552D02*
X103421868Y-120635552D01*
X103421868Y-120635552D02*
X103517106Y-120683171D01*
X103517106Y-120683171D02*
X103564725Y-120778409D01*
X103564725Y-120778409D02*
X103564725Y-120873647D01*
X103564725Y-120873647D02*
X103088535Y-120968885D01*
X103945678Y-121254600D02*
X104040916Y-121302219D01*
X104040916Y-121302219D02*
X104231392Y-121302219D01*
X104231392Y-121302219D02*
X104326630Y-121254600D01*
X104326630Y-121254600D02*
X104374249Y-121159361D01*
X104374249Y-121159361D02*
X104374249Y-121111742D01*
X104374249Y-121111742D02*
X104326630Y-121016504D01*
X104326630Y-121016504D02*
X104231392Y-120968885D01*
X104231392Y-120968885D02*
X104088535Y-120968885D01*
X104088535Y-120968885D02*
X103993297Y-120921266D01*
X103993297Y-120921266D02*
X103945678Y-120826028D01*
X103945678Y-120826028D02*
X103945678Y-120778409D01*
X103945678Y-120778409D02*
X103993297Y-120683171D01*
X103993297Y-120683171D02*
X104088535Y-120635552D01*
X104088535Y-120635552D02*
X104231392Y-120635552D01*
X104231392Y-120635552D02*
X104326630Y-120683171D01*
X104659964Y-120635552D02*
X105040916Y-120635552D01*
X104802821Y-120302219D02*
X104802821Y-121159361D01*
X104802821Y-121159361D02*
X104850440Y-121254600D01*
X104850440Y-121254600D02*
X104945678Y-121302219D01*
X104945678Y-121302219D02*
X105040916Y-121302219D01*
X105374250Y-121302219D02*
X105374250Y-120302219D01*
X105374250Y-120302219D02*
X105755202Y-120302219D01*
X105755202Y-120302219D02*
X105850440Y-120349838D01*
X105850440Y-120349838D02*
X105898059Y-120397457D01*
X105898059Y-120397457D02*
X105945678Y-120492695D01*
X105945678Y-120492695D02*
X105945678Y-120635552D01*
X105945678Y-120635552D02*
X105898059Y-120730790D01*
X105898059Y-120730790D02*
X105850440Y-120778409D01*
X105850440Y-120778409D02*
X105755202Y-120826028D01*
X105755202Y-120826028D02*
X105374250Y-120826028D01*
X106517107Y-121302219D02*
X106421869Y-121254600D01*
X106421869Y-121254600D02*
X106374250Y-121206980D01*
X106374250Y-121206980D02*
X106326631Y-121111742D01*
X106326631Y-121111742D02*
X106326631Y-120826028D01*
X106326631Y-120826028D02*
X106374250Y-120730790D01*
X106374250Y-120730790D02*
X106421869Y-120683171D01*
X106421869Y-120683171D02*
X106517107Y-120635552D01*
X106517107Y-120635552D02*
X106659964Y-120635552D01*
X106659964Y-120635552D02*
X106755202Y-120683171D01*
X106755202Y-120683171D02*
X106802821Y-120730790D01*
X106802821Y-120730790D02*
X106850440Y-120826028D01*
X106850440Y-120826028D02*
X106850440Y-121111742D01*
X106850440Y-121111742D02*
X106802821Y-121206980D01*
X106802821Y-121206980D02*
X106755202Y-121254600D01*
X106755202Y-121254600D02*
X106659964Y-121302219D01*
X106659964Y-121302219D02*
X106517107Y-121302219D01*
X107279012Y-121302219D02*
X107279012Y-120635552D01*
X107279012Y-120302219D02*
X107231393Y-120349838D01*
X107231393Y-120349838D02*
X107279012Y-120397457D01*
X107279012Y-120397457D02*
X107326631Y-120349838D01*
X107326631Y-120349838D02*
X107279012Y-120302219D01*
X107279012Y-120302219D02*
X107279012Y-120397457D01*
X107755202Y-120635552D02*
X107755202Y-121302219D01*
X107755202Y-120730790D02*
X107802821Y-120683171D01*
X107802821Y-120683171D02*
X107898059Y-120635552D01*
X107898059Y-120635552D02*
X108040916Y-120635552D01*
X108040916Y-120635552D02*
X108136154Y-120683171D01*
X108136154Y-120683171D02*
X108183773Y-120778409D01*
X108183773Y-120778409D02*
X108183773Y-121302219D01*
X108517107Y-120635552D02*
X108898059Y-120635552D01*
X108659964Y-120302219D02*
X108659964Y-121159361D01*
X108659964Y-121159361D02*
X108707583Y-121254600D01*
X108707583Y-121254600D02*
X108802821Y-121302219D01*
X108802821Y-121302219D02*
X108898059Y-121302219D01*
X197247488Y-135883835D02*
X196771297Y-136217168D01*
X197247488Y-136455263D02*
X196247488Y-136455263D01*
X196247488Y-136455263D02*
X196247488Y-136074311D01*
X196247488Y-136074311D02*
X196295107Y-135979073D01*
X196295107Y-135979073D02*
X196342726Y-135931454D01*
X196342726Y-135931454D02*
X196437964Y-135883835D01*
X196437964Y-135883835D02*
X196580821Y-135883835D01*
X196580821Y-135883835D02*
X196676059Y-135931454D01*
X196676059Y-135931454D02*
X196723678Y-135979073D01*
X196723678Y-135979073D02*
X196771297Y-136074311D01*
X196771297Y-136074311D02*
X196771297Y-136455263D01*
X196580821Y-135026692D02*
X197247488Y-135026692D01*
X196199869Y-135264787D02*
X196914154Y-135502882D01*
X196914154Y-135502882D02*
X196914154Y-134883835D01*
X199009423Y-137204037D02*
X199676090Y-137204037D01*
X198628471Y-137442132D02*
X199342756Y-137680227D01*
X199342756Y-137680227D02*
X199342756Y-137061180D01*
X199580851Y-136680227D02*
X199628471Y-136632608D01*
X199628471Y-136632608D02*
X199676090Y-136680227D01*
X199676090Y-136680227D02*
X199628471Y-136727846D01*
X199628471Y-136727846D02*
X199580851Y-136680227D01*
X199580851Y-136680227D02*
X199676090Y-136680227D01*
X198676090Y-136299275D02*
X198676090Y-135632609D01*
X198676090Y-135632609D02*
X199676090Y-136061180D01*
X199676090Y-135251656D02*
X198676090Y-135251656D01*
X199295137Y-135156418D02*
X199676090Y-134870704D01*
X199009423Y-134870704D02*
X199390375Y-135251656D01*
X133235795Y-116702219D02*
X133235795Y-117511742D01*
X133235795Y-117511742D02*
X133283414Y-117606980D01*
X133283414Y-117606980D02*
X133331033Y-117654600D01*
X133331033Y-117654600D02*
X133426271Y-117702219D01*
X133426271Y-117702219D02*
X133616747Y-117702219D01*
X133616747Y-117702219D02*
X133711985Y-117654600D01*
X133711985Y-117654600D02*
X133759604Y-117606980D01*
X133759604Y-117606980D02*
X133807223Y-117511742D01*
X133807223Y-117511742D02*
X133807223Y-116702219D01*
X134188176Y-116702219D02*
X134807223Y-116702219D01*
X134807223Y-116702219D02*
X134473890Y-117083171D01*
X134473890Y-117083171D02*
X134616747Y-117083171D01*
X134616747Y-117083171D02*
X134711985Y-117130790D01*
X134711985Y-117130790D02*
X134759604Y-117178409D01*
X134759604Y-117178409D02*
X134807223Y-117273647D01*
X134807223Y-117273647D02*
X134807223Y-117511742D01*
X134807223Y-117511742D02*
X134759604Y-117606980D01*
X134759604Y-117606980D02*
X134711985Y-117654600D01*
X134711985Y-117654600D02*
X134616747Y-117702219D01*
X134616747Y-117702219D02*
X134331033Y-117702219D01*
X134331033Y-117702219D02*
X134235795Y-117654600D01*
X134235795Y-117654600D02*
X134188176Y-117606980D01*
X147552219Y-96786666D02*
X147076028Y-97119999D01*
X147552219Y-97358094D02*
X146552219Y-97358094D01*
X146552219Y-97358094D02*
X146552219Y-96977142D01*
X146552219Y-96977142D02*
X146599838Y-96881904D01*
X146599838Y-96881904D02*
X146647457Y-96834285D01*
X146647457Y-96834285D02*
X146742695Y-96786666D01*
X146742695Y-96786666D02*
X146885552Y-96786666D01*
X146885552Y-96786666D02*
X146980790Y-96834285D01*
X146980790Y-96834285D02*
X147028409Y-96881904D01*
X147028409Y-96881904D02*
X147076028Y-96977142D01*
X147076028Y-96977142D02*
X147076028Y-97358094D01*
X146552219Y-95881904D02*
X146552219Y-96358094D01*
X146552219Y-96358094D02*
X147028409Y-96405713D01*
X147028409Y-96405713D02*
X146980790Y-96358094D01*
X146980790Y-96358094D02*
X146933171Y-96262856D01*
X146933171Y-96262856D02*
X146933171Y-96024761D01*
X146933171Y-96024761D02*
X146980790Y-95929523D01*
X146980790Y-95929523D02*
X147028409Y-95881904D01*
X147028409Y-95881904D02*
X147123647Y-95834285D01*
X147123647Y-95834285D02*
X147361742Y-95834285D01*
X147361742Y-95834285D02*
X147456980Y-95881904D01*
X147456980Y-95881904D02*
X147504600Y-95929523D01*
X147504600Y-95929523D02*
X147552219Y-96024761D01*
X147552219Y-96024761D02*
X147552219Y-96262856D01*
X147552219Y-96262856D02*
X147504600Y-96358094D01*
X147504600Y-96358094D02*
X147456980Y-96405713D01*
X150127219Y-97220238D02*
X150127219Y-97791666D01*
X150127219Y-97505952D02*
X149127219Y-97505952D01*
X149127219Y-97505952D02*
X149270076Y-97601190D01*
X149270076Y-97601190D02*
X149365314Y-97696428D01*
X149365314Y-97696428D02*
X149412933Y-97791666D01*
X149127219Y-96601190D02*
X149127219Y-96505952D01*
X149127219Y-96505952D02*
X149174838Y-96410714D01*
X149174838Y-96410714D02*
X149222457Y-96363095D01*
X149222457Y-96363095D02*
X149317695Y-96315476D01*
X149317695Y-96315476D02*
X149508171Y-96267857D01*
X149508171Y-96267857D02*
X149746266Y-96267857D01*
X149746266Y-96267857D02*
X149936742Y-96315476D01*
X149936742Y-96315476D02*
X150031980Y-96363095D01*
X150031980Y-96363095D02*
X150079600Y-96410714D01*
X150079600Y-96410714D02*
X150127219Y-96505952D01*
X150127219Y-96505952D02*
X150127219Y-96601190D01*
X150127219Y-96601190D02*
X150079600Y-96696428D01*
X150079600Y-96696428D02*
X150031980Y-96744047D01*
X150031980Y-96744047D02*
X149936742Y-96791666D01*
X149936742Y-96791666D02*
X149746266Y-96839285D01*
X149746266Y-96839285D02*
X149508171Y-96839285D01*
X149508171Y-96839285D02*
X149317695Y-96791666D01*
X149317695Y-96791666D02*
X149222457Y-96744047D01*
X149222457Y-96744047D02*
X149174838Y-96696428D01*
X149174838Y-96696428D02*
X149127219Y-96601190D01*
X150127219Y-95839285D02*
X149127219Y-95839285D01*
X149746266Y-95744047D02*
X150127219Y-95458333D01*
X149460552Y-95458333D02*
X149841504Y-95839285D01*
X119391089Y-134735049D02*
X119438709Y-134782668D01*
X119438709Y-134782668D02*
X119486328Y-134925525D01*
X119486328Y-134925525D02*
X119486328Y-135020763D01*
X119486328Y-135020763D02*
X119438709Y-135163620D01*
X119438709Y-135163620D02*
X119343470Y-135258858D01*
X119343470Y-135258858D02*
X119248232Y-135306477D01*
X119248232Y-135306477D02*
X119057756Y-135354096D01*
X119057756Y-135354096D02*
X118914899Y-135354096D01*
X118914899Y-135354096D02*
X118724423Y-135306477D01*
X118724423Y-135306477D02*
X118629185Y-135258858D01*
X118629185Y-135258858D02*
X118533947Y-135163620D01*
X118533947Y-135163620D02*
X118486328Y-135020763D01*
X118486328Y-135020763D02*
X118486328Y-134925525D01*
X118486328Y-134925525D02*
X118533947Y-134782668D01*
X118533947Y-134782668D02*
X118581566Y-134735049D01*
X118486328Y-134401715D02*
X118486328Y-133735049D01*
X118486328Y-133735049D02*
X119486328Y-134163620D01*
X120588688Y-135612934D02*
X120588688Y-135517696D01*
X120588688Y-135517696D02*
X120636307Y-135422458D01*
X120636307Y-135422458D02*
X120683926Y-135374839D01*
X120683926Y-135374839D02*
X120779164Y-135327220D01*
X120779164Y-135327220D02*
X120969640Y-135279601D01*
X120969640Y-135279601D02*
X121207735Y-135279601D01*
X121207735Y-135279601D02*
X121398211Y-135327220D01*
X121398211Y-135327220D02*
X121493449Y-135374839D01*
X121493449Y-135374839D02*
X121541069Y-135422458D01*
X121541069Y-135422458D02*
X121588688Y-135517696D01*
X121588688Y-135517696D02*
X121588688Y-135612934D01*
X121588688Y-135612934D02*
X121541069Y-135708172D01*
X121541069Y-135708172D02*
X121493449Y-135755791D01*
X121493449Y-135755791D02*
X121398211Y-135803410D01*
X121398211Y-135803410D02*
X121207735Y-135851029D01*
X121207735Y-135851029D02*
X120969640Y-135851029D01*
X120969640Y-135851029D02*
X120779164Y-135803410D01*
X120779164Y-135803410D02*
X120683926Y-135755791D01*
X120683926Y-135755791D02*
X120636307Y-135708172D01*
X120636307Y-135708172D02*
X120588688Y-135612934D01*
X121493449Y-134851029D02*
X121541069Y-134803410D01*
X121541069Y-134803410D02*
X121588688Y-134851029D01*
X121588688Y-134851029D02*
X121541069Y-134898648D01*
X121541069Y-134898648D02*
X121493449Y-134851029D01*
X121493449Y-134851029D02*
X121588688Y-134851029D01*
X120588688Y-134470077D02*
X120588688Y-133851030D01*
X120588688Y-133851030D02*
X120969640Y-134184363D01*
X120969640Y-134184363D02*
X120969640Y-134041506D01*
X120969640Y-134041506D02*
X121017259Y-133946268D01*
X121017259Y-133946268D02*
X121064878Y-133898649D01*
X121064878Y-133898649D02*
X121160116Y-133851030D01*
X121160116Y-133851030D02*
X121398211Y-133851030D01*
X121398211Y-133851030D02*
X121493449Y-133898649D01*
X121493449Y-133898649D02*
X121541069Y-133946268D01*
X121541069Y-133946268D02*
X121588688Y-134041506D01*
X121588688Y-134041506D02*
X121588688Y-134327220D01*
X121588688Y-134327220D02*
X121541069Y-134422458D01*
X121541069Y-134422458D02*
X121493449Y-134470077D01*
X120588688Y-133517696D02*
X120588688Y-132898649D01*
X120588688Y-132898649D02*
X120969640Y-133231982D01*
X120969640Y-133231982D02*
X120969640Y-133089125D01*
X120969640Y-133089125D02*
X121017259Y-132993887D01*
X121017259Y-132993887D02*
X121064878Y-132946268D01*
X121064878Y-132946268D02*
X121160116Y-132898649D01*
X121160116Y-132898649D02*
X121398211Y-132898649D01*
X121398211Y-132898649D02*
X121493449Y-132946268D01*
X121493449Y-132946268D02*
X121541069Y-132993887D01*
X121541069Y-132993887D02*
X121588688Y-133089125D01*
X121588688Y-133089125D02*
X121588688Y-133374839D01*
X121588688Y-133374839D02*
X121541069Y-133470077D01*
X121541069Y-133470077D02*
X121493449Y-133517696D01*
X120922021Y-132041506D02*
X121588688Y-132041506D01*
X120922021Y-132470077D02*
X121445830Y-132470077D01*
X121445830Y-132470077D02*
X121541069Y-132422458D01*
X121541069Y-132422458D02*
X121588688Y-132327220D01*
X121588688Y-132327220D02*
X121588688Y-132184363D01*
X121588688Y-132184363D02*
X121541069Y-132089125D01*
X121541069Y-132089125D02*
X121493449Y-132041506D01*
X127813695Y-122130719D02*
X127813695Y-122940242D01*
X127813695Y-122940242D02*
X127861314Y-123035480D01*
X127861314Y-123035480D02*
X127908933Y-123083100D01*
X127908933Y-123083100D02*
X128004171Y-123130719D01*
X128004171Y-123130719D02*
X128194647Y-123130719D01*
X128194647Y-123130719D02*
X128289885Y-123083100D01*
X128289885Y-123083100D02*
X128337504Y-123035480D01*
X128337504Y-123035480D02*
X128385123Y-122940242D01*
X128385123Y-122940242D02*
X128385123Y-122130719D01*
X129289885Y-122464052D02*
X129289885Y-123130719D01*
X129051790Y-122083100D02*
X128813695Y-122797385D01*
X128813695Y-122797385D02*
X129432742Y-122797385D01*
X119356980Y-148566666D02*
X119404600Y-148614285D01*
X119404600Y-148614285D02*
X119452219Y-148757142D01*
X119452219Y-148757142D02*
X119452219Y-148852380D01*
X119452219Y-148852380D02*
X119404600Y-148995237D01*
X119404600Y-148995237D02*
X119309361Y-149090475D01*
X119309361Y-149090475D02*
X119214123Y-149138094D01*
X119214123Y-149138094D02*
X119023647Y-149185713D01*
X119023647Y-149185713D02*
X118880790Y-149185713D01*
X118880790Y-149185713D02*
X118690314Y-149138094D01*
X118690314Y-149138094D02*
X118595076Y-149090475D01*
X118595076Y-149090475D02*
X118499838Y-148995237D01*
X118499838Y-148995237D02*
X118452219Y-148852380D01*
X118452219Y-148852380D02*
X118452219Y-148757142D01*
X118452219Y-148757142D02*
X118499838Y-148614285D01*
X118499838Y-148614285D02*
X118547457Y-148566666D01*
X119452219Y-148090475D02*
X119452219Y-147899999D01*
X119452219Y-147899999D02*
X119404600Y-147804761D01*
X119404600Y-147804761D02*
X119356980Y-147757142D01*
X119356980Y-147757142D02*
X119214123Y-147661904D01*
X119214123Y-147661904D02*
X119023647Y-147614285D01*
X119023647Y-147614285D02*
X118642695Y-147614285D01*
X118642695Y-147614285D02*
X118547457Y-147661904D01*
X118547457Y-147661904D02*
X118499838Y-147709523D01*
X118499838Y-147709523D02*
X118452219Y-147804761D01*
X118452219Y-147804761D02*
X118452219Y-147995237D01*
X118452219Y-147995237D02*
X118499838Y-148090475D01*
X118499838Y-148090475D02*
X118547457Y-148138094D01*
X118547457Y-148138094D02*
X118642695Y-148185713D01*
X118642695Y-148185713D02*
X118880790Y-148185713D01*
X118880790Y-148185713D02*
X118976028Y-148138094D01*
X118976028Y-148138094D02*
X119023647Y-148090475D01*
X119023647Y-148090475D02*
X119071266Y-147995237D01*
X119071266Y-147995237D02*
X119071266Y-147804761D01*
X119071266Y-147804761D02*
X119023647Y-147709523D01*
X119023647Y-147709523D02*
X118976028Y-147661904D01*
X118976028Y-147661904D02*
X118880790Y-147614285D01*
X117685714Y-152152219D02*
X117780952Y-152152219D01*
X117780952Y-152152219D02*
X117876190Y-152199838D01*
X117876190Y-152199838D02*
X117923809Y-152247457D01*
X117923809Y-152247457D02*
X117971428Y-152342695D01*
X117971428Y-152342695D02*
X118019047Y-152533171D01*
X118019047Y-152533171D02*
X118019047Y-152771266D01*
X118019047Y-152771266D02*
X117971428Y-152961742D01*
X117971428Y-152961742D02*
X117923809Y-153056980D01*
X117923809Y-153056980D02*
X117876190Y-153104600D01*
X117876190Y-153104600D02*
X117780952Y-153152219D01*
X117780952Y-153152219D02*
X117685714Y-153152219D01*
X117685714Y-153152219D02*
X117590476Y-153104600D01*
X117590476Y-153104600D02*
X117542857Y-153056980D01*
X117542857Y-153056980D02*
X117495238Y-152961742D01*
X117495238Y-152961742D02*
X117447619Y-152771266D01*
X117447619Y-152771266D02*
X117447619Y-152533171D01*
X117447619Y-152533171D02*
X117495238Y-152342695D01*
X117495238Y-152342695D02*
X117542857Y-152247457D01*
X117542857Y-152247457D02*
X117590476Y-152199838D01*
X117590476Y-152199838D02*
X117685714Y-152152219D01*
X118447619Y-153056980D02*
X118495238Y-153104600D01*
X118495238Y-153104600D02*
X118447619Y-153152219D01*
X118447619Y-153152219D02*
X118400000Y-153104600D01*
X118400000Y-153104600D02*
X118447619Y-153056980D01*
X118447619Y-153056980D02*
X118447619Y-153152219D01*
X119447618Y-153152219D02*
X118876190Y-153152219D01*
X119161904Y-153152219D02*
X119161904Y-152152219D01*
X119161904Y-152152219D02*
X119066666Y-152295076D01*
X119066666Y-152295076D02*
X118971428Y-152390314D01*
X118971428Y-152390314D02*
X118876190Y-152437933D01*
X120304761Y-152485552D02*
X120304761Y-153152219D01*
X119876190Y-152485552D02*
X119876190Y-153009361D01*
X119876190Y-153009361D02*
X119923809Y-153104600D01*
X119923809Y-153104600D02*
X120019047Y-153152219D01*
X120019047Y-153152219D02*
X120161904Y-153152219D01*
X120161904Y-153152219D02*
X120257142Y-153104600D01*
X120257142Y-153104600D02*
X120304761Y-153056980D01*
X211466666Y-122403792D02*
X211466666Y-123118077D01*
X211466666Y-123118077D02*
X211419047Y-123260934D01*
X211419047Y-123260934D02*
X211323809Y-123356173D01*
X211323809Y-123356173D02*
X211180952Y-123403792D01*
X211180952Y-123403792D02*
X211085714Y-123403792D01*
X211847619Y-122403792D02*
X212466666Y-122403792D01*
X212466666Y-122403792D02*
X212133333Y-122784744D01*
X212133333Y-122784744D02*
X212276190Y-122784744D01*
X212276190Y-122784744D02*
X212371428Y-122832363D01*
X212371428Y-122832363D02*
X212419047Y-122879982D01*
X212419047Y-122879982D02*
X212466666Y-122975220D01*
X212466666Y-122975220D02*
X212466666Y-123213315D01*
X212466666Y-123213315D02*
X212419047Y-123308553D01*
X212419047Y-123308553D02*
X212371428Y-123356173D01*
X212371428Y-123356173D02*
X212276190Y-123403792D01*
X212276190Y-123403792D02*
X211990476Y-123403792D01*
X211990476Y-123403792D02*
X211895238Y-123356173D01*
X211895238Y-123356173D02*
X211847619Y-123308553D01*
X122333333Y-94252219D02*
X122000000Y-93776028D01*
X121761905Y-94252219D02*
X121761905Y-93252219D01*
X121761905Y-93252219D02*
X122142857Y-93252219D01*
X122142857Y-93252219D02*
X122238095Y-93299838D01*
X122238095Y-93299838D02*
X122285714Y-93347457D01*
X122285714Y-93347457D02*
X122333333Y-93442695D01*
X122333333Y-93442695D02*
X122333333Y-93585552D01*
X122333333Y-93585552D02*
X122285714Y-93680790D01*
X122285714Y-93680790D02*
X122238095Y-93728409D01*
X122238095Y-93728409D02*
X122142857Y-93776028D01*
X122142857Y-93776028D02*
X121761905Y-93776028D01*
X122714286Y-93347457D02*
X122761905Y-93299838D01*
X122761905Y-93299838D02*
X122857143Y-93252219D01*
X122857143Y-93252219D02*
X123095238Y-93252219D01*
X123095238Y-93252219D02*
X123190476Y-93299838D01*
X123190476Y-93299838D02*
X123238095Y-93347457D01*
X123238095Y-93347457D02*
X123285714Y-93442695D01*
X123285714Y-93442695D02*
X123285714Y-93537933D01*
X123285714Y-93537933D02*
X123238095Y-93680790D01*
X123238095Y-93680790D02*
X122666667Y-94252219D01*
X122666667Y-94252219D02*
X123285714Y-94252219D01*
X122952219Y-96695238D02*
X122952219Y-97266666D01*
X122952219Y-96980952D02*
X121952219Y-96980952D01*
X121952219Y-96980952D02*
X122095076Y-97076190D01*
X122095076Y-97076190D02*
X122190314Y-97171428D01*
X122190314Y-97171428D02*
X122237933Y-97266666D01*
X121952219Y-96076190D02*
X121952219Y-95980952D01*
X121952219Y-95980952D02*
X121999838Y-95885714D01*
X121999838Y-95885714D02*
X122047457Y-95838095D01*
X122047457Y-95838095D02*
X122142695Y-95790476D01*
X122142695Y-95790476D02*
X122333171Y-95742857D01*
X122333171Y-95742857D02*
X122571266Y-95742857D01*
X122571266Y-95742857D02*
X122761742Y-95790476D01*
X122761742Y-95790476D02*
X122856980Y-95838095D01*
X122856980Y-95838095D02*
X122904600Y-95885714D01*
X122904600Y-95885714D02*
X122952219Y-95980952D01*
X122952219Y-95980952D02*
X122952219Y-96076190D01*
X122952219Y-96076190D02*
X122904600Y-96171428D01*
X122904600Y-96171428D02*
X122856980Y-96219047D01*
X122856980Y-96219047D02*
X122761742Y-96266666D01*
X122761742Y-96266666D02*
X122571266Y-96314285D01*
X122571266Y-96314285D02*
X122333171Y-96314285D01*
X122333171Y-96314285D02*
X122142695Y-96266666D01*
X122142695Y-96266666D02*
X122047457Y-96219047D01*
X122047457Y-96219047D02*
X121999838Y-96171428D01*
X121999838Y-96171428D02*
X121952219Y-96076190D01*
X122952219Y-95314285D02*
X121952219Y-95314285D01*
X122571266Y-95219047D02*
X122952219Y-94933333D01*
X122285552Y-94933333D02*
X122666504Y-95314285D01*
X130356980Y-136166666D02*
X130404600Y-136214285D01*
X130404600Y-136214285D02*
X130452219Y-136357142D01*
X130452219Y-136357142D02*
X130452219Y-136452380D01*
X130452219Y-136452380D02*
X130404600Y-136595237D01*
X130404600Y-136595237D02*
X130309361Y-136690475D01*
X130309361Y-136690475D02*
X130214123Y-136738094D01*
X130214123Y-136738094D02*
X130023647Y-136785713D01*
X130023647Y-136785713D02*
X129880790Y-136785713D01*
X129880790Y-136785713D02*
X129690314Y-136738094D01*
X129690314Y-136738094D02*
X129595076Y-136690475D01*
X129595076Y-136690475D02*
X129499838Y-136595237D01*
X129499838Y-136595237D02*
X129452219Y-136452380D01*
X129452219Y-136452380D02*
X129452219Y-136357142D01*
X129452219Y-136357142D02*
X129499838Y-136214285D01*
X129499838Y-136214285D02*
X129547457Y-136166666D01*
X129880790Y-135595237D02*
X129833171Y-135690475D01*
X129833171Y-135690475D02*
X129785552Y-135738094D01*
X129785552Y-135738094D02*
X129690314Y-135785713D01*
X129690314Y-135785713D02*
X129642695Y-135785713D01*
X129642695Y-135785713D02*
X129547457Y-135738094D01*
X129547457Y-135738094D02*
X129499838Y-135690475D01*
X129499838Y-135690475D02*
X129452219Y-135595237D01*
X129452219Y-135595237D02*
X129452219Y-135404761D01*
X129452219Y-135404761D02*
X129499838Y-135309523D01*
X129499838Y-135309523D02*
X129547457Y-135261904D01*
X129547457Y-135261904D02*
X129642695Y-135214285D01*
X129642695Y-135214285D02*
X129690314Y-135214285D01*
X129690314Y-135214285D02*
X129785552Y-135261904D01*
X129785552Y-135261904D02*
X129833171Y-135309523D01*
X129833171Y-135309523D02*
X129880790Y-135404761D01*
X129880790Y-135404761D02*
X129880790Y-135595237D01*
X129880790Y-135595237D02*
X129928409Y-135690475D01*
X129928409Y-135690475D02*
X129976028Y-135738094D01*
X129976028Y-135738094D02*
X130071266Y-135785713D01*
X130071266Y-135785713D02*
X130261742Y-135785713D01*
X130261742Y-135785713D02*
X130356980Y-135738094D01*
X130356980Y-135738094D02*
X130404600Y-135690475D01*
X130404600Y-135690475D02*
X130452219Y-135595237D01*
X130452219Y-135595237D02*
X130452219Y-135404761D01*
X130452219Y-135404761D02*
X130404600Y-135309523D01*
X130404600Y-135309523D02*
X130356980Y-135261904D01*
X130356980Y-135261904D02*
X130261742Y-135214285D01*
X130261742Y-135214285D02*
X130071266Y-135214285D01*
X130071266Y-135214285D02*
X129976028Y-135261904D01*
X129976028Y-135261904D02*
X129928409Y-135309523D01*
X129928409Y-135309523D02*
X129880790Y-135404761D01*
X131452219Y-137614285D02*
X131452219Y-137519047D01*
X131452219Y-137519047D02*
X131499838Y-137423809D01*
X131499838Y-137423809D02*
X131547457Y-137376190D01*
X131547457Y-137376190D02*
X131642695Y-137328571D01*
X131642695Y-137328571D02*
X131833171Y-137280952D01*
X131833171Y-137280952D02*
X132071266Y-137280952D01*
X132071266Y-137280952D02*
X132261742Y-137328571D01*
X132261742Y-137328571D02*
X132356980Y-137376190D01*
X132356980Y-137376190D02*
X132404600Y-137423809D01*
X132404600Y-137423809D02*
X132452219Y-137519047D01*
X132452219Y-137519047D02*
X132452219Y-137614285D01*
X132452219Y-137614285D02*
X132404600Y-137709523D01*
X132404600Y-137709523D02*
X132356980Y-137757142D01*
X132356980Y-137757142D02*
X132261742Y-137804761D01*
X132261742Y-137804761D02*
X132071266Y-137852380D01*
X132071266Y-137852380D02*
X131833171Y-137852380D01*
X131833171Y-137852380D02*
X131642695Y-137804761D01*
X131642695Y-137804761D02*
X131547457Y-137757142D01*
X131547457Y-137757142D02*
X131499838Y-137709523D01*
X131499838Y-137709523D02*
X131452219Y-137614285D01*
X132356980Y-136852380D02*
X132404600Y-136804761D01*
X132404600Y-136804761D02*
X132452219Y-136852380D01*
X132452219Y-136852380D02*
X132404600Y-136899999D01*
X132404600Y-136899999D02*
X132356980Y-136852380D01*
X132356980Y-136852380D02*
X132452219Y-136852380D01*
X132452219Y-135852381D02*
X132452219Y-136423809D01*
X132452219Y-136138095D02*
X131452219Y-136138095D01*
X131452219Y-136138095D02*
X131595076Y-136233333D01*
X131595076Y-136233333D02*
X131690314Y-136328571D01*
X131690314Y-136328571D02*
X131737933Y-136423809D01*
X131785552Y-134995238D02*
X132452219Y-134995238D01*
X131785552Y-135423809D02*
X132309361Y-135423809D01*
X132309361Y-135423809D02*
X132404600Y-135376190D01*
X132404600Y-135376190D02*
X132452219Y-135280952D01*
X132452219Y-135280952D02*
X132452219Y-135138095D01*
X132452219Y-135138095D02*
X132404600Y-135042857D01*
X132404600Y-135042857D02*
X132356980Y-134995238D01*
X111742516Y-143673685D02*
X112313944Y-143673685D01*
X112028230Y-144673685D02*
X112028230Y-143673685D01*
X112647278Y-144673685D02*
X112647278Y-143673685D01*
X112647278Y-143673685D02*
X113028230Y-143673685D01*
X113028230Y-143673685D02*
X113123468Y-143721304D01*
X113123468Y-143721304D02*
X113171087Y-143768923D01*
X113171087Y-143768923D02*
X113218706Y-143864161D01*
X113218706Y-143864161D02*
X113218706Y-144007018D01*
X113218706Y-144007018D02*
X113171087Y-144102256D01*
X113171087Y-144102256D02*
X113123468Y-144149875D01*
X113123468Y-144149875D02*
X113028230Y-144197494D01*
X113028230Y-144197494D02*
X112647278Y-144197494D01*
X114075849Y-144007018D02*
X114075849Y-144673685D01*
X113837754Y-143626066D02*
X113599659Y-144340351D01*
X113599659Y-144340351D02*
X114218706Y-144340351D01*
X109671087Y-138173685D02*
X110242515Y-138173685D01*
X109956801Y-139173685D02*
X109956801Y-138173685D01*
X110956801Y-139126066D02*
X110861563Y-139173685D01*
X110861563Y-139173685D02*
X110671087Y-139173685D01*
X110671087Y-139173685D02*
X110575849Y-139126066D01*
X110575849Y-139126066D02*
X110528230Y-139030827D01*
X110528230Y-139030827D02*
X110528230Y-138649875D01*
X110528230Y-138649875D02*
X110575849Y-138554637D01*
X110575849Y-138554637D02*
X110671087Y-138507018D01*
X110671087Y-138507018D02*
X110861563Y-138507018D01*
X110861563Y-138507018D02*
X110956801Y-138554637D01*
X110956801Y-138554637D02*
X111004420Y-138649875D01*
X111004420Y-138649875D02*
X111004420Y-138745113D01*
X111004420Y-138745113D02*
X110528230Y-138840351D01*
X111385373Y-139126066D02*
X111480611Y-139173685D01*
X111480611Y-139173685D02*
X111671087Y-139173685D01*
X111671087Y-139173685D02*
X111766325Y-139126066D01*
X111766325Y-139126066D02*
X111813944Y-139030827D01*
X111813944Y-139030827D02*
X111813944Y-138983208D01*
X111813944Y-138983208D02*
X111766325Y-138887970D01*
X111766325Y-138887970D02*
X111671087Y-138840351D01*
X111671087Y-138840351D02*
X111528230Y-138840351D01*
X111528230Y-138840351D02*
X111432992Y-138792732D01*
X111432992Y-138792732D02*
X111385373Y-138697494D01*
X111385373Y-138697494D02*
X111385373Y-138649875D01*
X111385373Y-138649875D02*
X111432992Y-138554637D01*
X111432992Y-138554637D02*
X111528230Y-138507018D01*
X111528230Y-138507018D02*
X111671087Y-138507018D01*
X111671087Y-138507018D02*
X111766325Y-138554637D01*
X112099659Y-138507018D02*
X112480611Y-138507018D01*
X112242516Y-138173685D02*
X112242516Y-139030827D01*
X112242516Y-139030827D02*
X112290135Y-139126066D01*
X112290135Y-139126066D02*
X112385373Y-139173685D01*
X112385373Y-139173685D02*
X112480611Y-139173685D01*
X112813945Y-139173685D02*
X112813945Y-138173685D01*
X112813945Y-138173685D02*
X113194897Y-138173685D01*
X113194897Y-138173685D02*
X113290135Y-138221304D01*
X113290135Y-138221304D02*
X113337754Y-138268923D01*
X113337754Y-138268923D02*
X113385373Y-138364161D01*
X113385373Y-138364161D02*
X113385373Y-138507018D01*
X113385373Y-138507018D02*
X113337754Y-138602256D01*
X113337754Y-138602256D02*
X113290135Y-138649875D01*
X113290135Y-138649875D02*
X113194897Y-138697494D01*
X113194897Y-138697494D02*
X112813945Y-138697494D01*
X113956802Y-139173685D02*
X113861564Y-139126066D01*
X113861564Y-139126066D02*
X113813945Y-139078446D01*
X113813945Y-139078446D02*
X113766326Y-138983208D01*
X113766326Y-138983208D02*
X113766326Y-138697494D01*
X113766326Y-138697494D02*
X113813945Y-138602256D01*
X113813945Y-138602256D02*
X113861564Y-138554637D01*
X113861564Y-138554637D02*
X113956802Y-138507018D01*
X113956802Y-138507018D02*
X114099659Y-138507018D01*
X114099659Y-138507018D02*
X114194897Y-138554637D01*
X114194897Y-138554637D02*
X114242516Y-138602256D01*
X114242516Y-138602256D02*
X114290135Y-138697494D01*
X114290135Y-138697494D02*
X114290135Y-138983208D01*
X114290135Y-138983208D02*
X114242516Y-139078446D01*
X114242516Y-139078446D02*
X114194897Y-139126066D01*
X114194897Y-139126066D02*
X114099659Y-139173685D01*
X114099659Y-139173685D02*
X113956802Y-139173685D01*
X114718707Y-139173685D02*
X114718707Y-138507018D01*
X114718707Y-138173685D02*
X114671088Y-138221304D01*
X114671088Y-138221304D02*
X114718707Y-138268923D01*
X114718707Y-138268923D02*
X114766326Y-138221304D01*
X114766326Y-138221304D02*
X114718707Y-138173685D01*
X114718707Y-138173685D02*
X114718707Y-138268923D01*
X115194897Y-138507018D02*
X115194897Y-139173685D01*
X115194897Y-138602256D02*
X115242516Y-138554637D01*
X115242516Y-138554637D02*
X115337754Y-138507018D01*
X115337754Y-138507018D02*
X115480611Y-138507018D01*
X115480611Y-138507018D02*
X115575849Y-138554637D01*
X115575849Y-138554637D02*
X115623468Y-138649875D01*
X115623468Y-138649875D02*
X115623468Y-139173685D01*
X115956802Y-138507018D02*
X116337754Y-138507018D01*
X116099659Y-138173685D02*
X116099659Y-139030827D01*
X116099659Y-139030827D02*
X116147278Y-139126066D01*
X116147278Y-139126066D02*
X116242516Y-139173685D01*
X116242516Y-139173685D02*
X116337754Y-139173685D01*
X140038095Y-133052219D02*
X140609523Y-133052219D01*
X140323809Y-134052219D02*
X140323809Y-133052219D01*
X140942857Y-134052219D02*
X140942857Y-133052219D01*
X140942857Y-133052219D02*
X141323809Y-133052219D01*
X141323809Y-133052219D02*
X141419047Y-133099838D01*
X141419047Y-133099838D02*
X141466666Y-133147457D01*
X141466666Y-133147457D02*
X141514285Y-133242695D01*
X141514285Y-133242695D02*
X141514285Y-133385552D01*
X141514285Y-133385552D02*
X141466666Y-133480790D01*
X141466666Y-133480790D02*
X141419047Y-133528409D01*
X141419047Y-133528409D02*
X141323809Y-133576028D01*
X141323809Y-133576028D02*
X140942857Y-133576028D01*
X141847619Y-133052219D02*
X142466666Y-133052219D01*
X142466666Y-133052219D02*
X142133333Y-133433171D01*
X142133333Y-133433171D02*
X142276190Y-133433171D01*
X142276190Y-133433171D02*
X142371428Y-133480790D01*
X142371428Y-133480790D02*
X142419047Y-133528409D01*
X142419047Y-133528409D02*
X142466666Y-133623647D01*
X142466666Y-133623647D02*
X142466666Y-133861742D01*
X142466666Y-133861742D02*
X142419047Y-133956980D01*
X142419047Y-133956980D02*
X142371428Y-134004600D01*
X142371428Y-134004600D02*
X142276190Y-134052219D01*
X142276190Y-134052219D02*
X141990476Y-134052219D01*
X141990476Y-134052219D02*
X141895238Y-134004600D01*
X141895238Y-134004600D02*
X141847619Y-133956980D01*
X135666666Y-138252219D02*
X136238094Y-138252219D01*
X135952380Y-139252219D02*
X135952380Y-138252219D01*
X136952380Y-139204600D02*
X136857142Y-139252219D01*
X136857142Y-139252219D02*
X136666666Y-139252219D01*
X136666666Y-139252219D02*
X136571428Y-139204600D01*
X136571428Y-139204600D02*
X136523809Y-139109361D01*
X136523809Y-139109361D02*
X136523809Y-138728409D01*
X136523809Y-138728409D02*
X136571428Y-138633171D01*
X136571428Y-138633171D02*
X136666666Y-138585552D01*
X136666666Y-138585552D02*
X136857142Y-138585552D01*
X136857142Y-138585552D02*
X136952380Y-138633171D01*
X136952380Y-138633171D02*
X136999999Y-138728409D01*
X136999999Y-138728409D02*
X136999999Y-138823647D01*
X136999999Y-138823647D02*
X136523809Y-138918885D01*
X137380952Y-139204600D02*
X137476190Y-139252219D01*
X137476190Y-139252219D02*
X137666666Y-139252219D01*
X137666666Y-139252219D02*
X137761904Y-139204600D01*
X137761904Y-139204600D02*
X137809523Y-139109361D01*
X137809523Y-139109361D02*
X137809523Y-139061742D01*
X137809523Y-139061742D02*
X137761904Y-138966504D01*
X137761904Y-138966504D02*
X137666666Y-138918885D01*
X137666666Y-138918885D02*
X137523809Y-138918885D01*
X137523809Y-138918885D02*
X137428571Y-138871266D01*
X137428571Y-138871266D02*
X137380952Y-138776028D01*
X137380952Y-138776028D02*
X137380952Y-138728409D01*
X137380952Y-138728409D02*
X137428571Y-138633171D01*
X137428571Y-138633171D02*
X137523809Y-138585552D01*
X137523809Y-138585552D02*
X137666666Y-138585552D01*
X137666666Y-138585552D02*
X137761904Y-138633171D01*
X138095238Y-138585552D02*
X138476190Y-138585552D01*
X138238095Y-138252219D02*
X138238095Y-139109361D01*
X138238095Y-139109361D02*
X138285714Y-139204600D01*
X138285714Y-139204600D02*
X138380952Y-139252219D01*
X138380952Y-139252219D02*
X138476190Y-139252219D01*
X138809524Y-139252219D02*
X138809524Y-138252219D01*
X138809524Y-138252219D02*
X139190476Y-138252219D01*
X139190476Y-138252219D02*
X139285714Y-138299838D01*
X139285714Y-138299838D02*
X139333333Y-138347457D01*
X139333333Y-138347457D02*
X139380952Y-138442695D01*
X139380952Y-138442695D02*
X139380952Y-138585552D01*
X139380952Y-138585552D02*
X139333333Y-138680790D01*
X139333333Y-138680790D02*
X139285714Y-138728409D01*
X139285714Y-138728409D02*
X139190476Y-138776028D01*
X139190476Y-138776028D02*
X138809524Y-138776028D01*
X139952381Y-139252219D02*
X139857143Y-139204600D01*
X139857143Y-139204600D02*
X139809524Y-139156980D01*
X139809524Y-139156980D02*
X139761905Y-139061742D01*
X139761905Y-139061742D02*
X139761905Y-138776028D01*
X139761905Y-138776028D02*
X139809524Y-138680790D01*
X139809524Y-138680790D02*
X139857143Y-138633171D01*
X139857143Y-138633171D02*
X139952381Y-138585552D01*
X139952381Y-138585552D02*
X140095238Y-138585552D01*
X140095238Y-138585552D02*
X140190476Y-138633171D01*
X140190476Y-138633171D02*
X140238095Y-138680790D01*
X140238095Y-138680790D02*
X140285714Y-138776028D01*
X140285714Y-138776028D02*
X140285714Y-139061742D01*
X140285714Y-139061742D02*
X140238095Y-139156980D01*
X140238095Y-139156980D02*
X140190476Y-139204600D01*
X140190476Y-139204600D02*
X140095238Y-139252219D01*
X140095238Y-139252219D02*
X139952381Y-139252219D01*
X140714286Y-139252219D02*
X140714286Y-138585552D01*
X140714286Y-138252219D02*
X140666667Y-138299838D01*
X140666667Y-138299838D02*
X140714286Y-138347457D01*
X140714286Y-138347457D02*
X140761905Y-138299838D01*
X140761905Y-138299838D02*
X140714286Y-138252219D01*
X140714286Y-138252219D02*
X140714286Y-138347457D01*
X141190476Y-138585552D02*
X141190476Y-139252219D01*
X141190476Y-138680790D02*
X141238095Y-138633171D01*
X141238095Y-138633171D02*
X141333333Y-138585552D01*
X141333333Y-138585552D02*
X141476190Y-138585552D01*
X141476190Y-138585552D02*
X141571428Y-138633171D01*
X141571428Y-138633171D02*
X141619047Y-138728409D01*
X141619047Y-138728409D02*
X141619047Y-139252219D01*
X141952381Y-138585552D02*
X142333333Y-138585552D01*
X142095238Y-138252219D02*
X142095238Y-139109361D01*
X142095238Y-139109361D02*
X142142857Y-139204600D01*
X142142857Y-139204600D02*
X142238095Y-139252219D01*
X142238095Y-139252219D02*
X142333333Y-139252219D01*
X141832921Y-121541348D02*
X141880541Y-121588967D01*
X141880541Y-121588967D02*
X141928160Y-121731824D01*
X141928160Y-121731824D02*
X141928160Y-121827062D01*
X141928160Y-121827062D02*
X141880541Y-121969919D01*
X141880541Y-121969919D02*
X141785302Y-122065157D01*
X141785302Y-122065157D02*
X141690064Y-122112776D01*
X141690064Y-122112776D02*
X141499588Y-122160395D01*
X141499588Y-122160395D02*
X141356731Y-122160395D01*
X141356731Y-122160395D02*
X141166255Y-122112776D01*
X141166255Y-122112776D02*
X141071017Y-122065157D01*
X141071017Y-122065157D02*
X140975779Y-121969919D01*
X140975779Y-121969919D02*
X140928160Y-121827062D01*
X140928160Y-121827062D02*
X140928160Y-121731824D01*
X140928160Y-121731824D02*
X140975779Y-121588967D01*
X140975779Y-121588967D02*
X141023398Y-121541348D01*
X141261493Y-120684205D02*
X141928160Y-120684205D01*
X140880541Y-120922300D02*
X141594826Y-121160395D01*
X141594826Y-121160395D02*
X141594826Y-120541348D01*
X139628160Y-121541348D02*
X139628160Y-122112776D01*
X139628160Y-121827062D02*
X138628160Y-121827062D01*
X138628160Y-121827062D02*
X138771017Y-121922300D01*
X138771017Y-121922300D02*
X138866255Y-122017538D01*
X138866255Y-122017538D02*
X138913874Y-122112776D01*
X138961493Y-120684205D02*
X139628160Y-120684205D01*
X138961493Y-121112776D02*
X139485302Y-121112776D01*
X139485302Y-121112776D02*
X139580541Y-121065157D01*
X139580541Y-121065157D02*
X139628160Y-120969919D01*
X139628160Y-120969919D02*
X139628160Y-120827062D01*
X139628160Y-120827062D02*
X139580541Y-120731824D01*
X139580541Y-120731824D02*
X139532921Y-120684205D01*
X140156980Y-151342857D02*
X140204600Y-151390476D01*
X140204600Y-151390476D02*
X140252219Y-151533333D01*
X140252219Y-151533333D02*
X140252219Y-151628571D01*
X140252219Y-151628571D02*
X140204600Y-151771428D01*
X140204600Y-151771428D02*
X140109361Y-151866666D01*
X140109361Y-151866666D02*
X140014123Y-151914285D01*
X140014123Y-151914285D02*
X139823647Y-151961904D01*
X139823647Y-151961904D02*
X139680790Y-151961904D01*
X139680790Y-151961904D02*
X139490314Y-151914285D01*
X139490314Y-151914285D02*
X139395076Y-151866666D01*
X139395076Y-151866666D02*
X139299838Y-151771428D01*
X139299838Y-151771428D02*
X139252219Y-151628571D01*
X139252219Y-151628571D02*
X139252219Y-151533333D01*
X139252219Y-151533333D02*
X139299838Y-151390476D01*
X139299838Y-151390476D02*
X139347457Y-151342857D01*
X140252219Y-150390476D02*
X140252219Y-150961904D01*
X140252219Y-150676190D02*
X139252219Y-150676190D01*
X139252219Y-150676190D02*
X139395076Y-150771428D01*
X139395076Y-150771428D02*
X139490314Y-150866666D01*
X139490314Y-150866666D02*
X139537933Y-150961904D01*
X139252219Y-149771428D02*
X139252219Y-149676190D01*
X139252219Y-149676190D02*
X139299838Y-149580952D01*
X139299838Y-149580952D02*
X139347457Y-149533333D01*
X139347457Y-149533333D02*
X139442695Y-149485714D01*
X139442695Y-149485714D02*
X139633171Y-149438095D01*
X139633171Y-149438095D02*
X139871266Y-149438095D01*
X139871266Y-149438095D02*
X140061742Y-149485714D01*
X140061742Y-149485714D02*
X140156980Y-149533333D01*
X140156980Y-149533333D02*
X140204600Y-149580952D01*
X140204600Y-149580952D02*
X140252219Y-149676190D01*
X140252219Y-149676190D02*
X140252219Y-149771428D01*
X140252219Y-149771428D02*
X140204600Y-149866666D01*
X140204600Y-149866666D02*
X140156980Y-149914285D01*
X140156980Y-149914285D02*
X140061742Y-149961904D01*
X140061742Y-149961904D02*
X139871266Y-150009523D01*
X139871266Y-150009523D02*
X139633171Y-150009523D01*
X139633171Y-150009523D02*
X139442695Y-149961904D01*
X139442695Y-149961904D02*
X139347457Y-149914285D01*
X139347457Y-149914285D02*
X139299838Y-149866666D01*
X139299838Y-149866666D02*
X139252219Y-149771428D01*
X137986489Y-150866666D02*
X137986489Y-151438094D01*
X137986489Y-151152380D02*
X136986489Y-151152380D01*
X136986489Y-151152380D02*
X137129346Y-151247618D01*
X137129346Y-151247618D02*
X137224584Y-151342856D01*
X137224584Y-151342856D02*
X137272203Y-151438094D01*
X137319822Y-150009523D02*
X137986489Y-150009523D01*
X137319822Y-150438094D02*
X137843631Y-150438094D01*
X137843631Y-150438094D02*
X137938870Y-150390475D01*
X137938870Y-150390475D02*
X137986489Y-150295237D01*
X137986489Y-150295237D02*
X137986489Y-150152380D01*
X137986489Y-150152380D02*
X137938870Y-150057142D01*
X137938870Y-150057142D02*
X137891250Y-150009523D01*
X148973990Y-132789503D02*
X149545418Y-132789503D01*
X149259704Y-133789503D02*
X149259704Y-132789503D01*
X149878752Y-133789503D02*
X149878752Y-132789503D01*
X149878752Y-132789503D02*
X150259704Y-132789503D01*
X150259704Y-132789503D02*
X150354942Y-132837122D01*
X150354942Y-132837122D02*
X150402561Y-132884741D01*
X150402561Y-132884741D02*
X150450180Y-132979979D01*
X150450180Y-132979979D02*
X150450180Y-133122836D01*
X150450180Y-133122836D02*
X150402561Y-133218074D01*
X150402561Y-133218074D02*
X150354942Y-133265693D01*
X150354942Y-133265693D02*
X150259704Y-133313312D01*
X150259704Y-133313312D02*
X149878752Y-133313312D01*
X150831133Y-132884741D02*
X150878752Y-132837122D01*
X150878752Y-132837122D02*
X150973990Y-132789503D01*
X150973990Y-132789503D02*
X151212085Y-132789503D01*
X151212085Y-132789503D02*
X151307323Y-132837122D01*
X151307323Y-132837122D02*
X151354942Y-132884741D01*
X151354942Y-132884741D02*
X151402561Y-132979979D01*
X151402561Y-132979979D02*
X151402561Y-133075217D01*
X151402561Y-133075217D02*
X151354942Y-133218074D01*
X151354942Y-133218074D02*
X150783514Y-133789503D01*
X150783514Y-133789503D02*
X151402561Y-133789503D01*
X147076635Y-138682881D02*
X147648063Y-138682881D01*
X147362349Y-139682881D02*
X147362349Y-138682881D01*
X148362349Y-139635262D02*
X148267111Y-139682881D01*
X148267111Y-139682881D02*
X148076635Y-139682881D01*
X148076635Y-139682881D02*
X147981397Y-139635262D01*
X147981397Y-139635262D02*
X147933778Y-139540023D01*
X147933778Y-139540023D02*
X147933778Y-139159071D01*
X147933778Y-139159071D02*
X147981397Y-139063833D01*
X147981397Y-139063833D02*
X148076635Y-139016214D01*
X148076635Y-139016214D02*
X148267111Y-139016214D01*
X148267111Y-139016214D02*
X148362349Y-139063833D01*
X148362349Y-139063833D02*
X148409968Y-139159071D01*
X148409968Y-139159071D02*
X148409968Y-139254309D01*
X148409968Y-139254309D02*
X147933778Y-139349547D01*
X148790921Y-139635262D02*
X148886159Y-139682881D01*
X148886159Y-139682881D02*
X149076635Y-139682881D01*
X149076635Y-139682881D02*
X149171873Y-139635262D01*
X149171873Y-139635262D02*
X149219492Y-139540023D01*
X149219492Y-139540023D02*
X149219492Y-139492404D01*
X149219492Y-139492404D02*
X149171873Y-139397166D01*
X149171873Y-139397166D02*
X149076635Y-139349547D01*
X149076635Y-139349547D02*
X148933778Y-139349547D01*
X148933778Y-139349547D02*
X148838540Y-139301928D01*
X148838540Y-139301928D02*
X148790921Y-139206690D01*
X148790921Y-139206690D02*
X148790921Y-139159071D01*
X148790921Y-139159071D02*
X148838540Y-139063833D01*
X148838540Y-139063833D02*
X148933778Y-139016214D01*
X148933778Y-139016214D02*
X149076635Y-139016214D01*
X149076635Y-139016214D02*
X149171873Y-139063833D01*
X149505207Y-139016214D02*
X149886159Y-139016214D01*
X149648064Y-138682881D02*
X149648064Y-139540023D01*
X149648064Y-139540023D02*
X149695683Y-139635262D01*
X149695683Y-139635262D02*
X149790921Y-139682881D01*
X149790921Y-139682881D02*
X149886159Y-139682881D01*
X150219493Y-139682881D02*
X150219493Y-138682881D01*
X150219493Y-138682881D02*
X150600445Y-138682881D01*
X150600445Y-138682881D02*
X150695683Y-138730500D01*
X150695683Y-138730500D02*
X150743302Y-138778119D01*
X150743302Y-138778119D02*
X150790921Y-138873357D01*
X150790921Y-138873357D02*
X150790921Y-139016214D01*
X150790921Y-139016214D02*
X150743302Y-139111452D01*
X150743302Y-139111452D02*
X150695683Y-139159071D01*
X150695683Y-139159071D02*
X150600445Y-139206690D01*
X150600445Y-139206690D02*
X150219493Y-139206690D01*
X151362350Y-139682881D02*
X151267112Y-139635262D01*
X151267112Y-139635262D02*
X151219493Y-139587642D01*
X151219493Y-139587642D02*
X151171874Y-139492404D01*
X151171874Y-139492404D02*
X151171874Y-139206690D01*
X151171874Y-139206690D02*
X151219493Y-139111452D01*
X151219493Y-139111452D02*
X151267112Y-139063833D01*
X151267112Y-139063833D02*
X151362350Y-139016214D01*
X151362350Y-139016214D02*
X151505207Y-139016214D01*
X151505207Y-139016214D02*
X151600445Y-139063833D01*
X151600445Y-139063833D02*
X151648064Y-139111452D01*
X151648064Y-139111452D02*
X151695683Y-139206690D01*
X151695683Y-139206690D02*
X151695683Y-139492404D01*
X151695683Y-139492404D02*
X151648064Y-139587642D01*
X151648064Y-139587642D02*
X151600445Y-139635262D01*
X151600445Y-139635262D02*
X151505207Y-139682881D01*
X151505207Y-139682881D02*
X151362350Y-139682881D01*
X152124255Y-139682881D02*
X152124255Y-139016214D01*
X152124255Y-138682881D02*
X152076636Y-138730500D01*
X152076636Y-138730500D02*
X152124255Y-138778119D01*
X152124255Y-138778119D02*
X152171874Y-138730500D01*
X152171874Y-138730500D02*
X152124255Y-138682881D01*
X152124255Y-138682881D02*
X152124255Y-138778119D01*
X152600445Y-139016214D02*
X152600445Y-139682881D01*
X152600445Y-139111452D02*
X152648064Y-139063833D01*
X152648064Y-139063833D02*
X152743302Y-139016214D01*
X152743302Y-139016214D02*
X152886159Y-139016214D01*
X152886159Y-139016214D02*
X152981397Y-139063833D01*
X152981397Y-139063833D02*
X153029016Y-139159071D01*
X153029016Y-139159071D02*
X153029016Y-139682881D01*
X153362350Y-139016214D02*
X153743302Y-139016214D01*
X153505207Y-138682881D02*
X153505207Y-139540023D01*
X153505207Y-139540023D02*
X153552826Y-139635262D01*
X153552826Y-139635262D02*
X153648064Y-139682881D01*
X153648064Y-139682881D02*
X153743302Y-139682881D01*
D13*
X184969045Y-37802279D02*
X196709045Y-37802279D01*
X184969045Y-42722279D02*
X185559045Y-42722279D01*
X184969045Y-46342279D02*
X184969045Y-37802279D01*
X185939045Y-38622279D02*
X188739045Y-38622279D01*
X185939045Y-39842279D02*
X185939045Y-38622279D01*
X187039045Y-46342279D02*
X184969045Y-46342279D01*
X188739045Y-38622279D02*
X188739045Y-39842279D01*
X189119045Y-42722279D02*
X189440045Y-42722279D01*
X189439045Y-38622279D02*
X192239045Y-38622279D01*
X189439045Y-40523279D02*
X189439045Y-38622279D01*
X192238045Y-42722279D02*
X192940045Y-42722279D01*
X192239045Y-38622279D02*
X192239045Y-40523279D01*
X192939045Y-38622279D02*
X195739045Y-38622279D01*
X192939045Y-40523279D02*
X192939045Y-38622279D01*
X195738045Y-42722279D02*
X196709045Y-42722279D01*
X195739045Y-38622279D02*
X195739045Y-40523279D01*
X196709045Y-37802279D02*
X196709045Y-46342279D01*
X196709045Y-46342279D02*
X187639045Y-46342279D01*
X186355045Y-39842279D02*
G75*
G02*
X188323045Y-39842279I984000J-180400D01*
G01*
X189847045Y-40144279D02*
G75*
G02*
X191831045Y-40144279I992000J122469D01*
G01*
X193347045Y-40144279D02*
G75*
G02*
X195331045Y-40144279I992000J122469D01*
G01*
X187779045Y-46952279D02*
X186899045Y-46952279D01*
X187339045Y-46342279D01*
X187779045Y-46952279D01*
G36*
X187779045Y-46952279D02*
G01*
X186899045Y-46952279D01*
X187339045Y-46342279D01*
X187779045Y-46952279D01*
G37*
X199723307Y-52834857D02*
X202463307Y-52834857D01*
X202463307Y-46294857D01*
X199723307Y-46294857D01*
X199723307Y-52834857D01*
X201093307Y-45524857D02*
X201093307Y-46294857D01*
X201093307Y-53604857D02*
X201093307Y-52834857D01*
X156425177Y-121899732D02*
X156425177Y-119299732D01*
X156425177Y-121899732D02*
X153765177Y-121899732D01*
X156425177Y-119299732D02*
X153765177Y-119299732D01*
X155095177Y-124499732D02*
X153765177Y-124499732D01*
X153765177Y-124499732D02*
X153765177Y-123169732D01*
X153765177Y-121899732D02*
X153765177Y-119299732D01*
X151411938Y-120956372D02*
X151411938Y-121726372D01*
X151411938Y-129036372D02*
X151411938Y-128266372D01*
X152781938Y-121726372D02*
X150041938Y-121726372D01*
X150041938Y-128266372D01*
X152781938Y-128266372D01*
X152781938Y-121726372D01*
X140306986Y-131057861D02*
X140306986Y-126517861D01*
X140362986Y-131057861D02*
X140306986Y-131057861D01*
X142390986Y-126517861D02*
X142446986Y-126517861D01*
X142446986Y-126517861D02*
X142446986Y-131057861D01*
X213991369Y-50147465D02*
G75*
G02*
X210491369Y-50147465I-1750000J0D01*
G01*
X210491369Y-50147465D02*
G75*
G02*
X213991369Y-50147465I1750000J0D01*
G01*
X148673345Y-155723345D02*
G75*
G02*
X145173345Y-155723345I-1750000J0D01*
G01*
X145173345Y-155723345D02*
G75*
G02*
X148673345Y-155723345I1750000J0D01*
G01*
X120060000Y-156600000D02*
X120830000Y-156600000D01*
X128140000Y-156600000D02*
X127370000Y-156600000D01*
X127370000Y-157970000D02*
X120830000Y-157970000D01*
X120830000Y-155230000D01*
X127370000Y-155230000D01*
X127370000Y-157970000D01*
D14*
X151700000Y-56750000D02*
X179600000Y-56750000D01*
X151700000Y-111150000D02*
X151700000Y-56750000D01*
X179600000Y-56750000D02*
X179600000Y-111150000D01*
X179600000Y-111150000D02*
X151700000Y-111150000D01*
D10*
X151150000Y-64140000D02*
G75*
G02*
X150950000Y-64140000I-100000J0D01*
G01*
X150950000Y-64140000D02*
G75*
G02*
X151150000Y-64140000I100000J0D01*
G01*
D13*
X118480000Y-95720000D02*
X118480000Y-91180000D01*
X118536000Y-95720000D02*
X118480000Y-95720000D01*
X120564000Y-91180000D02*
X120620000Y-91180000D01*
X120620000Y-91180000D02*
X120620000Y-95720000D01*
X207580000Y-66230000D02*
X216120000Y-66230000D01*
X207580000Y-68300000D02*
X207580000Y-66230000D01*
X207580000Y-77970000D02*
X207580000Y-68900000D01*
X211200000Y-66230000D02*
X211200000Y-66820000D01*
X211200000Y-70380000D02*
X211200000Y-70701000D01*
X211200000Y-73499000D02*
X211200000Y-74201000D01*
X211200000Y-76999000D02*
X211200000Y-77970000D01*
X213399000Y-70700000D02*
X215300000Y-70700000D01*
X213399000Y-74200000D02*
X215300000Y-74200000D01*
X214080000Y-67200000D02*
X215300000Y-67200000D01*
X215300000Y-67200000D02*
X215300000Y-70000000D01*
X215300000Y-70000000D02*
X214080000Y-70000000D01*
X215300000Y-70700000D02*
X215300000Y-73500000D01*
X215300000Y-73500000D02*
X213399000Y-73500000D01*
X215300000Y-74200000D02*
X215300000Y-77000000D01*
X215300000Y-77000000D02*
X213399000Y-77000000D01*
X216120000Y-66230000D02*
X216120000Y-77970000D01*
X216120000Y-77970000D02*
X207580000Y-77970000D01*
X213778000Y-71108000D02*
G75*
G02*
X213778000Y-73092000I122469J-992000D01*
G01*
X213778000Y-74608000D02*
G75*
G02*
X213778000Y-76592000I122469J-992000D01*
G01*
X214080000Y-67616000D02*
G75*
G02*
X214080000Y-69584000I-180400J-984000D01*
G01*
X207580000Y-68600000D02*
X206970000Y-69040000D01*
X206970000Y-68160000D01*
X207580000Y-68600000D01*
G36*
X207580000Y-68600000D02*
G01*
X206970000Y-69040000D01*
X206970000Y-68160000D01*
X207580000Y-68600000D01*
G37*
X125850000Y-91960000D02*
X125850000Y-92730000D01*
X125850000Y-100040000D02*
X125850000Y-99270000D01*
X127220000Y-92730000D02*
X124480000Y-92730000D01*
X124480000Y-99270000D01*
X127220000Y-99270000D01*
X127220000Y-92730000D01*
X207480000Y-54030000D02*
X216020000Y-54030000D01*
X207480000Y-56100000D02*
X207480000Y-54030000D01*
X207480000Y-62270000D02*
X207480000Y-56700000D01*
X211100000Y-54030000D02*
X211100000Y-54620000D01*
X211100000Y-58180000D02*
X211100000Y-58501000D01*
X211100000Y-61299000D02*
X211100000Y-62270000D01*
X213299000Y-58500000D02*
X215200000Y-58500000D01*
X213980000Y-55000000D02*
X215200000Y-55000000D01*
X215200000Y-55000000D02*
X215200000Y-57800000D01*
X215200000Y-57800000D02*
X213980000Y-57800000D01*
X215200000Y-58500000D02*
X215200000Y-61300000D01*
X215200000Y-61300000D02*
X213299000Y-61300000D01*
X216020000Y-54030000D02*
X216020000Y-62270000D01*
X216020000Y-62270000D02*
X207480000Y-62270000D01*
X213678000Y-58908000D02*
G75*
G02*
X213678000Y-60892000I122469J-992000D01*
G01*
X213980000Y-55416000D02*
G75*
G02*
X213980000Y-57384000I-180400J-984000D01*
G01*
X207480000Y-56400000D02*
X206870000Y-56840000D01*
X206870000Y-55960000D01*
X207480000Y-56400000D01*
G36*
X207480000Y-56400000D02*
G01*
X206870000Y-56840000D01*
X206870000Y-55960000D01*
X207480000Y-56400000D01*
G37*
X195696322Y-148158835D02*
X195696322Y-143618835D01*
X195752322Y-148158835D02*
X195696322Y-148158835D01*
X197780322Y-143618835D02*
X197836322Y-143618835D01*
X197836322Y-143618835D02*
X197836322Y-148158835D01*
X207580000Y-141105122D02*
X216120000Y-141105122D01*
X207580000Y-143175122D02*
X207580000Y-141105122D01*
X207580000Y-152845122D02*
X207580000Y-143775122D01*
X211200000Y-141105122D02*
X211200000Y-141695122D01*
X211200000Y-145255122D02*
X211200000Y-145576122D01*
X211200000Y-148374122D02*
X211200000Y-149076122D01*
X211200000Y-151874122D02*
X211200000Y-152845122D01*
X213399000Y-145575122D02*
X215300000Y-145575122D01*
X213399000Y-149075122D02*
X215300000Y-149075122D01*
X214080000Y-142075122D02*
X215300000Y-142075122D01*
X215300000Y-142075122D02*
X215300000Y-144875122D01*
X215300000Y-144875122D02*
X214080000Y-144875122D01*
X215300000Y-145575122D02*
X215300000Y-148375122D01*
X215300000Y-148375122D02*
X213399000Y-148375122D01*
X215300000Y-149075122D02*
X215300000Y-151875122D01*
X215300000Y-151875122D02*
X213399000Y-151875122D01*
X216120000Y-141105122D02*
X216120000Y-152845122D01*
X216120000Y-152845122D02*
X207580000Y-152845122D01*
X213778000Y-145983122D02*
G75*
G02*
X213778000Y-147967122I122469J-992000D01*
G01*
X213778000Y-149483122D02*
G75*
G02*
X213778000Y-151467122I122469J-992000D01*
G01*
X214080000Y-142491122D02*
G75*
G02*
X214080000Y-144459122I-180400J-984000D01*
G01*
X207580000Y-143475122D02*
X206970000Y-143915122D01*
X206970000Y-143035122D01*
X207580000Y-143475122D01*
G36*
X207580000Y-143475122D02*
G01*
X206970000Y-143915122D01*
X206970000Y-143035122D01*
X207580000Y-143475122D01*
G37*
X207682115Y-82272509D02*
X216222115Y-82272509D01*
X207682115Y-84342509D02*
X207682115Y-82272509D01*
X207682115Y-101012509D02*
X207682115Y-84942509D01*
X211302115Y-82272509D02*
X211302115Y-82862509D01*
X211302115Y-86422509D02*
X211302115Y-86743509D01*
X211302115Y-89541509D02*
X211302115Y-90243509D01*
X211302115Y-93041509D02*
X211302115Y-93743509D01*
X211302115Y-96541509D02*
X211302115Y-97243509D01*
X211302115Y-100041509D02*
X211302115Y-101012509D01*
X213501115Y-86742509D02*
X215402115Y-86742509D01*
X213501115Y-90242509D02*
X215402115Y-90242509D01*
X213501115Y-93742509D02*
X215402115Y-93742509D01*
X213501115Y-97242509D02*
X215402115Y-97242509D01*
X214182115Y-83242509D02*
X215402115Y-83242509D01*
X215402115Y-83242509D02*
X215402115Y-86042509D01*
X215402115Y-86042509D02*
X214182115Y-86042509D01*
X215402115Y-86742509D02*
X215402115Y-89542509D01*
X215402115Y-89542509D02*
X213501115Y-89542509D01*
X215402115Y-90242509D02*
X215402115Y-93042509D01*
X215402115Y-93042509D02*
X213501115Y-93042509D01*
X215402115Y-93742509D02*
X215402115Y-96542509D01*
X215402115Y-96542509D02*
X213501115Y-96542509D01*
X215402115Y-97242509D02*
X215402115Y-100042509D01*
X215402115Y-100042509D02*
X213501115Y-100042509D01*
X216222115Y-82272509D02*
X216222115Y-101012509D01*
X216222115Y-101012509D02*
X207682115Y-101012509D01*
X213880115Y-87150509D02*
G75*
G02*
X213880115Y-89134509I122469J-992000D01*
G01*
X213880115Y-90650509D02*
G75*
G02*
X213880115Y-92634509I122469J-992000D01*
G01*
X213880115Y-94150509D02*
G75*
G02*
X213880115Y-96134509I122469J-992000D01*
G01*
X213880115Y-97650509D02*
G75*
G02*
X213880115Y-99634509I122469J-992000D01*
G01*
X214182115Y-83658509D02*
G75*
G02*
X214182115Y-85626509I-180400J-984000D01*
G01*
X207682115Y-84642509D02*
X207072115Y-85082509D01*
X207072115Y-84202509D01*
X207682115Y-84642509D01*
G36*
X207682115Y-84642509D02*
G01*
X207072115Y-85082509D01*
X207072115Y-84202509D01*
X207682115Y-84642509D01*
G37*
D10*
X93566443Y-128700000D02*
X93566443Y-137700000D01*
X93566443Y-128700000D02*
X107866443Y-128700000D01*
X93566443Y-137700000D02*
X102116443Y-137700000D01*
X107866443Y-130750000D02*
X107866443Y-128700000D01*
X107866443Y-135650000D02*
X107866443Y-137700000D01*
X107866443Y-137700000D02*
X106616443Y-137700000D01*
X109466443Y-133200000D02*
G75*
G02*
X109266443Y-133200000I-100000J0D01*
G01*
X109266443Y-133200000D02*
G75*
G02*
X109466443Y-133200000I100000J0D01*
G01*
D13*
X132193763Y-147477956D02*
X132193763Y-148247956D01*
X132193763Y-155557956D02*
X132193763Y-154787956D01*
X133563763Y-148247956D02*
X130823763Y-148247956D01*
X130823763Y-154787956D01*
X133563763Y-154787956D01*
X133563763Y-148247956D01*
X146112411Y-136114691D02*
G75*
G02*
X142612411Y-136114691I-1750000J0D01*
G01*
X142612411Y-136114691D02*
G75*
G02*
X146112411Y-136114691I1750000J0D01*
G01*
X136350000Y-142200000D02*
G75*
G02*
X132850000Y-142200000I-1750000J0D01*
G01*
X132850000Y-142200000D02*
G75*
G02*
X136350000Y-142200000I1750000J0D01*
G01*
X130560000Y-65945000D02*
X130560000Y-101625000D01*
X130560000Y-101625000D02*
X135860000Y-101625000D01*
X132210000Y-65945000D02*
X130560000Y-65945000D01*
X135860000Y-65945000D02*
X134210000Y-65945000D01*
X135860000Y-101625000D02*
X135860000Y-65945000D01*
X134210000Y-65945000D02*
G75*
G02*
X132210000Y-65945000I-1000000J0D01*
G01*
X207562500Y-124989277D02*
X216102500Y-124989277D01*
X207562500Y-127059277D02*
X207562500Y-124989277D01*
X207562500Y-136729277D02*
X207562500Y-127659277D01*
X211182500Y-124989277D02*
X211182500Y-125579277D01*
X211182500Y-129139277D02*
X211182500Y-129460277D01*
X211182500Y-132258277D02*
X211182500Y-132960277D01*
X211182500Y-135758277D02*
X211182500Y-136729277D01*
X213381500Y-129459277D02*
X215282500Y-129459277D01*
X213381500Y-132959277D02*
X215282500Y-132959277D01*
X214062500Y-125959277D02*
X215282500Y-125959277D01*
X215282500Y-125959277D02*
X215282500Y-128759277D01*
X215282500Y-128759277D02*
X214062500Y-128759277D01*
X215282500Y-129459277D02*
X215282500Y-132259277D01*
X215282500Y-132259277D02*
X213381500Y-132259277D01*
X215282500Y-132959277D02*
X215282500Y-135759277D01*
X215282500Y-135759277D02*
X213381500Y-135759277D01*
X216102500Y-124989277D02*
X216102500Y-136729277D01*
X216102500Y-136729277D02*
X207562500Y-136729277D01*
X213760500Y-129867277D02*
G75*
G02*
X213760500Y-131851277I122469J-992000D01*
G01*
X213760500Y-133367277D02*
G75*
G02*
X213760500Y-135351277I122469J-992000D01*
G01*
X214062500Y-126375277D02*
G75*
G02*
X214062500Y-128343277I-180400J-984000D01*
G01*
X207562500Y-127359277D02*
X206952500Y-127799277D01*
X206952500Y-126919277D01*
X207562500Y-127359277D01*
G36*
X207562500Y-127359277D02*
G01*
X206952500Y-127799277D01*
X206952500Y-126919277D01*
X207562500Y-127359277D01*
G37*
X101830000Y-65670000D02*
X101830000Y-103890000D01*
X101830000Y-65670000D02*
X104430000Y-65670000D01*
X101830000Y-103890000D02*
X107030000Y-103890000D01*
X104430000Y-65670000D02*
X104430000Y-68270000D01*
X104430000Y-68270000D02*
X107030000Y-68270000D01*
X105700000Y-65670000D02*
X107030000Y-65670000D01*
X107030000Y-65670000D02*
X107030000Y-67000000D01*
X107030000Y-68270000D02*
X107030000Y-103890000D01*
X122340000Y-143130000D02*
X126960000Y-143130000D01*
X122340000Y-146390000D02*
X123720000Y-146390000D01*
X122340000Y-150090000D02*
X123720000Y-150090000D01*
X122340000Y-153350000D02*
X122340000Y-143130000D01*
X123720000Y-153350000D02*
X123720000Y-143130000D01*
X126960000Y-143130000D02*
X126960000Y-153350000D01*
X126960000Y-153350000D02*
X122340000Y-153350000D01*
X122240000Y-129350000D02*
X126860000Y-129350000D01*
X122240000Y-132610000D02*
X123620000Y-132610000D01*
X122240000Y-136310000D02*
X123620000Y-136310000D01*
X122240000Y-139570000D02*
X122240000Y-129350000D01*
X123620000Y-139570000D02*
X123620000Y-129350000D01*
X126860000Y-129350000D02*
X126860000Y-139570000D01*
X126860000Y-139570000D02*
X122240000Y-139570000D01*
X154835735Y-138069462D02*
X155860735Y-138069462D01*
X154835735Y-139179462D02*
X154835735Y-138069462D01*
X155860735Y-138069462D02*
X155860735Y-137529462D01*
X158015735Y-133559462D02*
X158840735Y-133559462D01*
X158840735Y-133559462D02*
X158840735Y-131759462D01*
X186970735Y-133559462D02*
X187795735Y-133559462D01*
X189950735Y-137529462D02*
X189950735Y-138069462D01*
X189950735Y-138069462D02*
X190975735Y-138069462D01*
X190975735Y-138069462D02*
X190975735Y-139179462D01*
X190975735Y-139179462D02*
X154835735Y-139179462D01*
X132930000Y-138270000D02*
X132930000Y-133730000D01*
X132986000Y-138270000D02*
X132930000Y-138270000D01*
X135014000Y-133730000D02*
X135070000Y-133730000D01*
X135070000Y-133730000D02*
X135070000Y-138270000D01*
X128930000Y-130770000D02*
X128930000Y-126230000D01*
X128986000Y-130770000D02*
X128930000Y-130770000D01*
X131014000Y-126230000D02*
X131070000Y-126230000D01*
X131070000Y-126230000D02*
X131070000Y-130770000D01*
X107314726Y-123600000D02*
G75*
G02*
X103814726Y-123600000I-1750000J0D01*
G01*
X103814726Y-123600000D02*
G75*
G02*
X107314726Y-123600000I1750000J0D01*
G01*
X196770269Y-131777169D02*
X196770269Y-132547169D01*
X196770269Y-139857169D02*
X196770269Y-139087169D01*
X198140269Y-132547169D02*
X195400269Y-132547169D01*
X195400269Y-139087169D01*
X198140269Y-139087169D01*
X198140269Y-132547169D01*
D15*
X133147500Y-118425200D02*
X133147500Y-119425960D01*
X133147500Y-120574040D02*
X133147500Y-121574800D01*
X133147500Y-121574800D02*
X135052500Y-121574800D01*
X135052500Y-118425200D02*
X133147500Y-118425200D01*
X135052500Y-120375961D02*
X135052500Y-119624039D01*
D13*
X147100000Y-92580000D02*
X147100000Y-93350000D01*
X147100000Y-100660000D02*
X147100000Y-99890000D01*
X148470000Y-93350000D02*
X145730000Y-93350000D01*
X145730000Y-99890000D01*
X148470000Y-99890000D01*
X148470000Y-93350000D01*
X117866469Y-136838383D02*
X117866469Y-132298383D01*
X117922469Y-136838383D02*
X117866469Y-136838383D01*
X119950469Y-132298383D02*
X120006469Y-132298383D01*
X120006469Y-132298383D02*
X120006469Y-136838383D01*
D15*
X133112500Y-122553600D02*
X133112500Y-123770260D01*
X133112500Y-126086740D02*
X133112500Y-127303400D01*
X133112500Y-127303400D02*
X135855700Y-127303400D01*
X135855700Y-122553600D02*
X133112500Y-122553600D01*
X135855700Y-122879860D02*
X135855700Y-122553600D01*
X135855700Y-124354460D02*
X135855700Y-123977140D01*
X135855700Y-125879860D02*
X135855700Y-125502540D01*
X135855700Y-127303400D02*
X135855700Y-126977140D01*
X136554200Y-128446400D02*
G75*
G02*
X136300200Y-128446400I-127000J0D01*
G01*
X136300200Y-128446400D02*
G75*
G02*
X136554200Y-128446400I127000J0D01*
G01*
D13*
X117930000Y-150470000D02*
X117930000Y-145930000D01*
X117986000Y-150470000D02*
X117930000Y-150470000D01*
X120014000Y-145930000D02*
X120070000Y-145930000D01*
X120070000Y-145930000D02*
X120070000Y-150470000D01*
X207580000Y-106181573D02*
X216120000Y-106181573D01*
X207580000Y-108251573D02*
X207580000Y-106181573D01*
X207580000Y-121421573D02*
X207580000Y-108851573D01*
X211200000Y-106181573D02*
X211200000Y-106771573D01*
X211200000Y-110331573D02*
X211200000Y-110652573D01*
X211200000Y-113450573D02*
X211200000Y-114152573D01*
X211200000Y-116950573D02*
X211200000Y-117652573D01*
X211200000Y-120450573D02*
X211200000Y-121421573D01*
X213399000Y-110651573D02*
X215300000Y-110651573D01*
X213399000Y-114151573D02*
X215300000Y-114151573D01*
X213399000Y-117651573D02*
X215300000Y-117651573D01*
X214080000Y-107151573D02*
X215300000Y-107151573D01*
X215300000Y-107151573D02*
X215300000Y-109951573D01*
X215300000Y-109951573D02*
X214080000Y-109951573D01*
X215300000Y-110651573D02*
X215300000Y-113451573D01*
X215300000Y-113451573D02*
X213399000Y-113451573D01*
X215300000Y-114151573D02*
X215300000Y-116951573D01*
X215300000Y-116951573D02*
X213399000Y-116951573D01*
X215300000Y-117651573D02*
X215300000Y-120451573D01*
X215300000Y-120451573D02*
X213399000Y-120451573D01*
X216120000Y-106181573D02*
X216120000Y-121421573D01*
X216120000Y-121421573D02*
X207580000Y-121421573D01*
X213778000Y-111059573D02*
G75*
G02*
X213778000Y-113043573I122469J-992000D01*
G01*
X213778000Y-114559573D02*
G75*
G02*
X213778000Y-116543573I122469J-992000D01*
G01*
X213778000Y-118059573D02*
G75*
G02*
X213778000Y-120043573I122469J-992000D01*
G01*
X214080000Y-107567573D02*
G75*
G02*
X214080000Y-109535573I-180400J-984000D01*
G01*
X207580000Y-108551573D02*
X206970000Y-108991573D01*
X206970000Y-108111573D01*
X207580000Y-108551573D01*
G36*
X207580000Y-108551573D02*
G01*
X206970000Y-108991573D01*
X206970000Y-108111573D01*
X207580000Y-108551573D01*
G37*
X122500000Y-91980000D02*
X122500000Y-92750000D01*
X122500000Y-100060000D02*
X122500000Y-99290000D01*
X123870000Y-92750000D02*
X121130000Y-92750000D01*
X121130000Y-99290000D01*
X123870000Y-99290000D01*
X123870000Y-92750000D01*
X128930000Y-138270000D02*
X128930000Y-133730000D01*
X128986000Y-138270000D02*
X128930000Y-138270000D01*
X131014000Y-133730000D02*
X131070000Y-133730000D01*
X131070000Y-133730000D02*
X131070000Y-138270000D01*
X114754421Y-141471466D02*
G75*
G02*
X111254421Y-141471466I-1750000J0D01*
G01*
X111254421Y-141471466D02*
G75*
G02*
X114754421Y-141471466I1750000J0D01*
G01*
X140750000Y-136000000D02*
G75*
G02*
X137250000Y-136000000I-1750000J0D01*
G01*
X137250000Y-136000000D02*
G75*
G02*
X140750000Y-136000000I1750000J0D01*
G01*
X140305941Y-123644682D02*
X140305941Y-119104682D01*
X140361941Y-123644682D02*
X140305941Y-123644682D01*
X142389941Y-119104682D02*
X142445941Y-119104682D01*
X142445941Y-119104682D02*
X142445941Y-123644682D01*
X136530000Y-152970000D02*
X136530000Y-148430000D01*
X136586000Y-152970000D02*
X136530000Y-152970000D01*
X138614000Y-148430000D02*
X138670000Y-148430000D01*
X138670000Y-148430000D02*
X138670000Y-152970000D01*
X152159969Y-136230662D02*
G75*
G02*
X148659969Y-136230662I-1750000J0D01*
G01*
X148659969Y-136230662D02*
G75*
G02*
X152159969Y-136230662I1750000J0D01*
G01*
%LPC*%
D16*
G36*
X135474700Y-124687200D02*
G01*
X135728700Y-124687200D01*
X135728700Y-125169800D01*
X135474700Y-125169800D01*
X134915900Y-125728600D01*
X132629900Y-125728600D01*
X132629900Y-124128400D01*
X134915900Y-124128400D01*
X135474700Y-124687200D01*
G37*
D17*
X187339045Y-41622279D03*
D18*
X190839045Y-41622279D03*
X194339045Y-41622279D03*
D19*
X201093307Y-44484857D03*
X201093307Y-54644857D03*
D20*
X155095177Y-123169732D03*
D21*
X155095177Y-120629732D03*
D19*
X151411938Y-119916372D03*
X151411938Y-130076372D03*
X141376986Y-126287861D03*
X141376986Y-131287861D03*
D22*
X212241369Y-50147465D03*
X146923345Y-155723345D03*
D19*
X129180000Y-156600000D03*
X119020000Y-156600000D03*
D23*
X152950000Y-64140000D03*
D24*
X152950000Y-66680000D03*
X152950000Y-69220000D03*
X152950000Y-71760000D03*
X152950000Y-74300000D03*
X152950000Y-76840000D03*
X152950000Y-79380000D03*
X152950000Y-81920000D03*
X152950000Y-84460000D03*
X152950000Y-87000000D03*
X152950000Y-89540000D03*
X152950000Y-92080000D03*
X152950000Y-94620000D03*
X152950000Y-97160000D03*
X152950000Y-99700000D03*
X152950000Y-102240000D03*
X152950000Y-104780000D03*
X152950000Y-107320000D03*
X152950000Y-109860000D03*
X178350000Y-64140000D03*
X178350000Y-66680000D03*
X178350000Y-69220000D03*
X178350000Y-71760000D03*
X178350000Y-74300000D03*
X178350000Y-76840000D03*
X178350000Y-79380000D03*
X178350000Y-81920000D03*
X178350000Y-84460000D03*
X178350000Y-87000000D03*
X178350000Y-89540000D03*
X178350000Y-92080000D03*
X178350000Y-94620000D03*
X178350000Y-97160000D03*
X178350000Y-99700000D03*
X178350000Y-102240000D03*
X178350000Y-104780000D03*
X178350000Y-107320000D03*
X178350000Y-109860000D03*
D19*
X119550000Y-90950000D03*
X119550000Y-95950000D03*
D25*
X212300000Y-68600000D03*
D18*
X212300000Y-72100000D03*
X212300000Y-75600000D03*
D19*
X125850000Y-90920000D03*
X125850000Y-101080000D03*
D25*
X212200000Y-56400000D03*
D18*
X212200000Y-59900000D03*
D19*
X196766322Y-143388835D03*
X196766322Y-148388835D03*
D25*
X212300000Y-143475122D03*
D18*
X212300000Y-146975122D03*
X212300000Y-150475122D03*
D25*
X212402115Y-84642509D03*
D18*
X212402115Y-88142509D03*
X212402115Y-91642509D03*
X212402115Y-95142509D03*
X212402115Y-98642509D03*
D26*
X107266443Y-133200000D03*
D27*
X100966443Y-133200000D03*
D28*
X104366443Y-138000000D03*
D19*
X132193763Y-146437956D03*
X132193763Y-156597956D03*
D22*
X144362411Y-136114691D03*
X134600000Y-142200000D03*
D29*
X129400000Y-67275000D03*
D19*
X129400000Y-69815000D03*
X129400000Y-72355000D03*
X129400000Y-74895000D03*
X129400000Y-77435000D03*
X129400000Y-79975000D03*
X129400000Y-82515000D03*
X129400000Y-85055000D03*
X129400000Y-87595000D03*
X129400000Y-90135000D03*
X129400000Y-92675000D03*
X129400000Y-95215000D03*
X129400000Y-97755000D03*
X129400000Y-100295000D03*
X137020000Y-100295000D03*
X137020000Y-97755000D03*
X137020000Y-95215000D03*
X137020000Y-92675000D03*
X137020000Y-90135000D03*
X137020000Y-87595000D03*
X137020000Y-85055000D03*
X137020000Y-82515000D03*
X137020000Y-79975000D03*
X137020000Y-77435000D03*
X137020000Y-74895000D03*
X137020000Y-72355000D03*
X137020000Y-69815000D03*
X137020000Y-67275000D03*
D25*
X212282500Y-127359277D03*
D18*
X212282500Y-130859277D03*
X212282500Y-134359277D03*
D20*
X105700000Y-67000000D03*
D21*
X103160000Y-67000000D03*
X105700000Y-69540000D03*
X103160000Y-69540000D03*
X105700000Y-72080000D03*
X103160000Y-72080000D03*
X105700000Y-74620000D03*
X103160000Y-74620000D03*
X105700000Y-77160000D03*
X103160000Y-77160000D03*
X105700000Y-79700000D03*
X103160000Y-79700000D03*
X105700000Y-82240000D03*
X103160000Y-82240000D03*
X105700000Y-84780000D03*
X103160000Y-84780000D03*
X105700000Y-87320000D03*
X103160000Y-87320000D03*
X105700000Y-89860000D03*
X103160000Y-89860000D03*
X105700000Y-92400000D03*
X103160000Y-92400000D03*
X105700000Y-94940000D03*
X103160000Y-94940000D03*
X105700000Y-97480000D03*
X103160000Y-97480000D03*
X105700000Y-100020000D03*
X103160000Y-100020000D03*
X105700000Y-102560000D03*
X103160000Y-102560000D03*
D30*
X125600000Y-150780000D03*
D31*
X125600000Y-148240000D03*
X125600000Y-145700000D03*
D30*
X125500000Y-137000000D03*
D31*
X125500000Y-134460000D03*
X125500000Y-131920000D03*
D32*
X159405735Y-132669462D03*
X160405735Y-132669462D03*
X161405735Y-132669462D03*
X162405735Y-132669462D03*
X163405735Y-132669462D03*
X164405735Y-132669462D03*
X165405735Y-132669462D03*
X166405735Y-132669462D03*
X167405735Y-132669462D03*
X168405735Y-132669462D03*
X169405735Y-132669462D03*
X170405735Y-132669462D03*
X171405735Y-132669462D03*
X172405735Y-132669462D03*
X173405735Y-132669462D03*
X174405735Y-132669462D03*
X175405735Y-132669462D03*
X176405735Y-132669462D03*
X177405735Y-132669462D03*
X178405735Y-132669462D03*
X179405735Y-132669462D03*
X180405735Y-132669462D03*
X181405735Y-132669462D03*
X182405735Y-132669462D03*
X183405735Y-132669462D03*
X184405735Y-132669462D03*
X185405735Y-132669462D03*
X186405735Y-132669462D03*
D33*
X156415735Y-135469462D03*
X189395735Y-135469462D03*
D19*
X134000000Y-133500000D03*
X134000000Y-138500000D03*
X130000000Y-131000000D03*
X130000000Y-126000000D03*
D22*
X105564726Y-123600000D03*
D19*
X196770269Y-130737169D03*
X196770269Y-140897169D03*
D34*
X135293800Y-120950001D03*
X135293800Y-119049999D03*
X132906200Y-120000000D03*
D19*
X147100000Y-91540000D03*
X147100000Y-101700000D03*
X118936469Y-137068383D03*
X118936469Y-132068383D03*
D35*
X136325600Y-126428500D03*
D36*
X136325600Y-124928500D03*
D35*
X136325600Y-123428500D03*
D19*
X119000000Y-145700000D03*
X119000000Y-150700000D03*
D25*
X212300000Y-108551573D03*
D18*
X212300000Y-112051573D03*
X212300000Y-115551573D03*
X212300000Y-119051573D03*
D19*
X122500000Y-90940000D03*
X122500000Y-101100000D03*
X130000000Y-133500000D03*
X130000000Y-138500000D03*
D22*
X113004421Y-141471466D03*
X139000000Y-136000000D03*
D19*
X141375941Y-118874682D03*
X141375941Y-123874682D03*
X137600000Y-148200000D03*
X137600000Y-153200000D03*
D22*
X150409969Y-136230662D03*
%LPD*%
M02*
