M48
; DRILL file {KiCad 9.0.5} date 2025-10-27T23:18:00-0700
; FORMAT={-:-/ absolute / metric / decimal}
; #@! TF.CreationDate,2025-10-27T23:18:00-07:00
; #@! TF.GenerationSoftware,Kicad,Pcbnew,9.0.5
; #@! TF.FileFunction,Plated,1,2,PTH
FMAT,2
METRIC
; #@! TA.AperFunction,Plated,PTH,ViaDrill
T1C0.300
; #@! TA.AperFunction,Plated,PTH,ComponentDrill
T2C0.800
; #@! TA.AperFunction,Plated,PTH,ComponentDrill
T3C1.000
; #@! TA.AperFunction,Plated,PTH,ComponentDrill
T4C1.040
; #@! TA.AperFunction,Plated,PTH,ComponentDrill
T5C1.100
; #@! TA.AperFunction,Plated,PTH,ComponentDrill
T6C1.300
; #@! TA.AperFunction,Plated,PTH,ComponentDrill
T7C1.600
%
G90
G05
T1
X94.15Y-111.85
X96.35Y-113.25
X100.5Y-89.86
X105.9Y-61.8
X106.76Y-108.45
X109.756Y-104.36
X110.4Y-60.3
X111.21Y-108.3
X111.675Y-81.575
X112.331Y-89.355
X112.6Y-105.0
X113.5Y-97.0
X113.65Y-108.01
X113.9Y-99.7
X114.025Y-77.025
X115.85Y-72.9
X117.6Y-68.925
X118.0Y-80.6
X118.215Y-77.435
X119.3Y-65.15
X121.602Y-72.353
X121.7Y-63.45
X122.282Y-75.44
X123.121Y-87.038
X124.996Y-65.504
X126.728Y-70.88
X130.9Y-49.3
X132.55Y-114.2
X133.1Y-89.2
X133.8Y-128.4
X134.8Y-116.2
X137.5Y-121.5
X140.7Y-86.7
X158.1Y-106.0
X161.08Y-81.92
X161.754Y-44.179
X162.9Y-115.3
X163.0Y-134.4
X164.0Y-113.4
X165.3Y-54.4
X166.0Y-111.9
X167.092Y-43.692
X167.2Y-126.9
X167.55Y-124.2
X168.0Y-110.1
X168.0Y-139.5
X168.2Y-129.0
X168.2Y-137.5
X169.3Y-124.1
X169.8Y-108.8
X170.3Y-137.5
X171.7Y-107.7
X172.0Y-132.8
X172.5Y-130.8
X173.6Y-106.2
X175.5Y-104.3
X176.1Y-124.4
X176.55Y-113.95
X176.6Y-131.1
X176.675Y-126.925
X178.6Y-114.5
X179.2Y-131.8
X180.5Y-44.8
X181.05Y-124.8
X182.05Y-136.85
X182.405Y-47.81
X183.2Y-133.35
X184.647Y-49.33
X185.6Y-129.9
X186.877Y-51.099
X187.9Y-137.5
X189.291Y-52.694
X190.0Y-132.9
X192.3Y-136.1
X202.537Y-87.538
X202.537Y-91.6
X205.178Y-100.272
T2
X118.936Y-132.068
X118.936Y-137.068
X119.0Y-145.7
X119.0Y-150.7
X119.02Y-156.6
X119.55Y-90.95
X119.55Y-95.95
X122.5Y-90.94
X122.5Y-101.1
X125.85Y-90.92
X125.85Y-101.08
X129.18Y-156.6
X129.4Y-67.275
X129.4Y-69.815
X129.4Y-72.355
X129.4Y-74.895
X129.4Y-77.435
X129.4Y-79.975
X129.4Y-82.515
X129.4Y-85.055
X129.4Y-87.595
X129.4Y-90.135
X129.4Y-92.675
X129.4Y-95.215
X129.4Y-97.755
X129.4Y-100.295
X130.0Y-126.0
X130.0Y-131.0
X130.0Y-133.5
X130.0Y-138.5
X133.1Y-148.2
X133.1Y-158.36
X134.0Y-133.5
X134.0Y-138.5
X137.02Y-67.275
X137.02Y-69.815
X137.02Y-72.355
X137.02Y-74.895
X137.02Y-77.435
X137.02Y-79.975
X137.02Y-82.515
X137.02Y-85.055
X137.02Y-87.595
X137.02Y-90.135
X137.02Y-92.675
X137.02Y-95.215
X137.02Y-97.755
X137.02Y-100.295
X137.6Y-148.2
X137.6Y-153.2
X142.0Y-118.9
X142.0Y-123.9
X142.0Y-126.2
X142.0Y-131.2
X147.1Y-91.54
X147.1Y-101.7
X159.3Y-125.77
X159.3Y-130.77
X162.55Y-120.62
X162.55Y-130.78
X204.2Y-43.32
X204.2Y-53.48
T3
X103.16Y-67.0
X103.16Y-69.54
X103.16Y-72.08
X103.16Y-74.62
X103.16Y-77.16
X103.16Y-79.7
X103.16Y-82.24
X103.16Y-84.78
X103.16Y-87.32
X103.16Y-89.86
X103.16Y-92.4
X103.16Y-94.94
X103.16Y-97.48
X103.16Y-100.02
X103.16Y-102.56
X105.7Y-67.0
X105.7Y-69.54
X105.7Y-72.08
X105.7Y-74.62
X105.7Y-77.16
X105.7Y-79.7
X105.7Y-82.24
X105.7Y-84.78
X105.7Y-87.32
X105.7Y-89.86
X105.7Y-92.4
X105.7Y-94.94
X105.7Y-97.48
X105.7Y-100.02
X105.7Y-102.56
T4
X152.95Y-64.14
X152.95Y-66.68
X152.95Y-69.22
X152.95Y-71.76
X152.95Y-74.3
X152.95Y-76.84
X152.95Y-79.38
X152.95Y-81.92
X152.95Y-84.46
X152.95Y-87.0
X152.95Y-89.54
X152.95Y-92.08
X152.95Y-94.62
X152.95Y-97.16
X152.95Y-99.7
X152.95Y-102.24
X152.95Y-104.78
X152.95Y-107.32
X152.95Y-109.86
X178.35Y-64.14
X178.35Y-66.68
X178.35Y-69.22
X178.35Y-71.76
X178.35Y-74.3
X178.35Y-76.84
X178.35Y-79.38
X178.35Y-81.92
X178.35Y-84.46
X178.35Y-87.0
X178.35Y-89.54
X178.35Y-92.08
X178.35Y-94.62
X178.35Y-97.16
X178.35Y-99.7
X178.35Y-102.24
X178.35Y-104.78
X178.35Y-107.32
X178.35Y-109.86
T5
X125.5Y-131.92
X125.5Y-134.46
X125.5Y-137.0
X125.6Y-145.7
X125.6Y-148.24
X125.6Y-150.78
T6
X212.2Y-56.4
X212.2Y-59.9
X212.282Y-123.9
X212.282Y-127.4
X212.282Y-130.9
X212.3Y-68.6
X212.3Y-72.1
X212.3Y-75.6
X212.3Y-84.6
X212.3Y-88.1
X212.3Y-91.6
X212.3Y-95.1
X212.3Y-103.8
X212.3Y-107.3
X212.3Y-110.8
X212.3Y-114.3
X212.3Y-141.0
X212.3Y-144.5
X212.3Y-148.0
T7
X96.8Y-123.6
X107.679Y-148.352
X135.5Y-143.1
X139.0Y-136.0
X144.6Y-136.0
X148.9Y-156.8
X151.0Y-136.0
X158.6Y-136.0
T3
X108.6Y-132.1G85X108.6Y-134.3
G05
X113.1Y-138.0G85X110.9Y-138.0
G05
X114.9Y-131.9G85X114.9Y-134.5
G05
M30
