%TF.GenerationSoftware,KiCad,Pcbnew,9.0.5*%
%TF.CreationDate,2025-11-10T02:59:42-08:00*%
%TF.ProjectId,zotbins_2025_wrover_pcb,7a6f7462-696e-4735-9f32-3032355f7772,rev?*%
%TF.SameCoordinates,Original*%
%TF.FileFunction,Drillmap*%
%TF.FilePolarity,Positive*%
%FSLAX45Y45*%
G04 Gerber Fmt 4.5, Leading zero omitted, Abs format (unit mm)*
G04 Created by KiCad (PCBNEW 9.0.5) date 2025-11-10 02:59:42*
%MOMM*%
%LPD*%
G01*
G04 APERTURE LIST*
%ADD10C,0.050000*%
%ADD11C,0.200000*%
%ADD12C,0.100000*%
%ADD13C,0.104000*%
%ADD14C,0.110000*%
%ADD15C,0.130000*%
%ADD16C,0.160000*%
G04 APERTURE END LIST*
D10*
X9300000Y-3740000D02*
X21800000Y-3740000D01*
X21800000Y-16240000D01*
X9300000Y-16240000D01*
X9300000Y-3740000D01*
X21450000Y-15740000D02*
G75*
G02*
X21150000Y-15740000I-150000J0D01*
G01*
X21150000Y-15740000D02*
G75*
G02*
X21450000Y-15740000I150000J0D01*
G01*
X21450000Y-4240000D02*
G75*
G02*
X21150000Y-4240000I-150000J0D01*
G01*
X21150000Y-4240000D02*
G75*
G02*
X21450000Y-4240000I150000J0D01*
G01*
X9950000Y-15740000D02*
G75*
G02*
X9650000Y-15740000I-150000J0D01*
G01*
X9650000Y-15740000D02*
G75*
G02*
X9950000Y-15740000I150000J0D01*
G01*
X9950000Y-4240000D02*
G75*
G02*
X9650000Y-4240000I-150000J0D01*
G01*
X9650000Y-4240000D02*
G75*
G02*
X9950000Y-4240000I150000J0D01*
G01*
D11*
D12*
X9400000Y-11170000D02*
X9430000Y-11200000D01*
X9430000Y-11170000D02*
X9400000Y-11200000D01*
X9620000Y-11310000D02*
X9650000Y-11340000D01*
X9650000Y-11310000D02*
X9620000Y-11340000D01*
X10035000Y-8971000D02*
X10065000Y-9001000D01*
X10065000Y-8971000D02*
X10035000Y-9001000D01*
X10575000Y-6165000D02*
X10605000Y-6195000D01*
X10605000Y-6165000D02*
X10575000Y-6195000D01*
X10661000Y-10830000D02*
X10691000Y-10860000D01*
X10691000Y-10830000D02*
X10661000Y-10860000D01*
X10960610Y-10420951D02*
X10990610Y-10450951D01*
X10990610Y-10420951D02*
X10960610Y-10450951D01*
X11025000Y-6015000D02*
X11055000Y-6045000D01*
X11055000Y-6015000D02*
X11025000Y-6045000D01*
X11152500Y-8142500D02*
X11182500Y-8172500D01*
X11182500Y-8142500D02*
X11152500Y-8172500D01*
X11218059Y-8920535D02*
X11248059Y-8950535D01*
X11248059Y-8920535D02*
X11218059Y-8950535D01*
X11245000Y-10485000D02*
X11275000Y-10515000D01*
X11275000Y-10485000D02*
X11245000Y-10515000D01*
X11335000Y-9685000D02*
X11365000Y-9715000D01*
X11365000Y-9685000D02*
X11335000Y-9715000D01*
X11375000Y-9955000D02*
X11405000Y-9985000D01*
X11405000Y-9955000D02*
X11375000Y-9985000D01*
X11387500Y-7687500D02*
X11417500Y-7717500D01*
X11417500Y-7687500D02*
X11387500Y-7717500D01*
X11520354Y-10789975D02*
X11550354Y-10819975D01*
X11550354Y-10789975D02*
X11520354Y-10819975D01*
X11570000Y-7275000D02*
X11600000Y-7305000D01*
X11600000Y-7275000D02*
X11570000Y-7305000D01*
X11745000Y-6877500D02*
X11775000Y-6907500D01*
X11775000Y-6877500D02*
X11745000Y-6907500D01*
X11785000Y-8045000D02*
X11815000Y-8075000D01*
X11815000Y-8045000D02*
X11785000Y-8075000D01*
X11802293Y-10765691D02*
X11832293Y-10795691D01*
X11832293Y-10765691D02*
X11802293Y-10795691D01*
X11806500Y-7728500D02*
X11836500Y-7758500D01*
X11836500Y-7728500D02*
X11806500Y-7758500D01*
X11915000Y-6500000D02*
X11945000Y-6530000D01*
X11945000Y-6500000D02*
X11915000Y-6530000D01*
X12126816Y-10793937D02*
X12156816Y-10823937D01*
X12156816Y-10793937D02*
X12126816Y-10823937D01*
X12145229Y-7220282D02*
X12175229Y-7250282D01*
X12175229Y-7220282D02*
X12145229Y-7250282D01*
X12155000Y-6330000D02*
X12185000Y-6360000D01*
X12185000Y-6330000D02*
X12155000Y-6360000D01*
X12213156Y-7528966D02*
X12243156Y-7558966D01*
X12243156Y-7528966D02*
X12213156Y-7558966D01*
X12297150Y-8688848D02*
X12327150Y-8718848D01*
X12327150Y-8688848D02*
X12297150Y-8718848D01*
X12484623Y-6535364D02*
X12514623Y-6565364D01*
X12514623Y-6535364D02*
X12484623Y-6565364D01*
X12657779Y-7073006D02*
X12687779Y-7103006D01*
X12687779Y-7073006D02*
X12657779Y-7103006D01*
X13075000Y-4915000D02*
X13105000Y-4945000D01*
X13105000Y-4915000D02*
X13075000Y-4945000D01*
X13240000Y-11405000D02*
X13270000Y-11435000D01*
X13270000Y-11405000D02*
X13240000Y-11435000D01*
X13295000Y-8905000D02*
X13325000Y-8935000D01*
X13325000Y-8905000D02*
X13295000Y-8935000D01*
X13365000Y-12825000D02*
X13395000Y-12855000D01*
X13395000Y-12825000D02*
X13365000Y-12855000D01*
X13465000Y-11605000D02*
X13495000Y-11635000D01*
X13495000Y-11605000D02*
X13465000Y-11635000D01*
X13735000Y-12135000D02*
X13765000Y-12165000D01*
X13765000Y-12135000D02*
X13735000Y-12165000D01*
X14055000Y-8655000D02*
X14085000Y-8685000D01*
X14085000Y-8655000D02*
X14055000Y-8685000D01*
X15436865Y-12203144D02*
X15466865Y-12233144D01*
X15466865Y-12203144D02*
X15436865Y-12233144D01*
X15795000Y-10585000D02*
X15825000Y-10615000D01*
X15825000Y-10585000D02*
X15795000Y-10615000D01*
X15912742Y-14035697D02*
X15942742Y-14065697D01*
X15942742Y-14035697D02*
X15912742Y-14065697D01*
X16093000Y-8177000D02*
X16123000Y-8207000D01*
X16123000Y-8177000D02*
X16093000Y-8207000D01*
X16160434Y-4402876D02*
X16190434Y-4432876D01*
X16190434Y-4402876D02*
X16160434Y-4432876D01*
X16195000Y-11379676D02*
X16225000Y-11409676D01*
X16225000Y-11379676D02*
X16195000Y-11409676D01*
X16285000Y-13425000D02*
X16315000Y-13455000D01*
X16315000Y-13425000D02*
X16285000Y-13455000D01*
X16385000Y-11254905D02*
X16415000Y-11284905D01*
X16415000Y-11254905D02*
X16385000Y-11284905D01*
X16509519Y-5307764D02*
X16539519Y-5337764D01*
X16539519Y-5307764D02*
X16509519Y-5337764D01*
X16571745Y-6505388D02*
X16601745Y-6535388D01*
X16601745Y-6505388D02*
X16571745Y-6535388D01*
X16613223Y-11096777D02*
X16643223Y-11126777D01*
X16643223Y-11096777D02*
X16613223Y-11126777D01*
X16694213Y-4354162D02*
X16724213Y-4384162D01*
X16724213Y-4354162D02*
X16694213Y-4384162D01*
X16705000Y-12675000D02*
X16735000Y-12705000D01*
X16735000Y-12675000D02*
X16705000Y-12705000D01*
X16740000Y-12405000D02*
X16770000Y-12435000D01*
X16770000Y-12405000D02*
X16740000Y-12435000D01*
X16785000Y-10995000D02*
X16815000Y-11025000D01*
X16815000Y-10995000D02*
X16785000Y-11025000D01*
X16785000Y-13935000D02*
X16815000Y-13965000D01*
X16815000Y-13935000D02*
X16785000Y-13965000D01*
X16805000Y-12885000D02*
X16835000Y-12915000D01*
X16835000Y-12885000D02*
X16805000Y-12915000D01*
X16805000Y-13735000D02*
X16835000Y-13765000D01*
X16835000Y-13735000D02*
X16805000Y-13765000D01*
X16915000Y-12395000D02*
X16945000Y-12425000D01*
X16945000Y-12395000D02*
X16915000Y-12425000D01*
X16965000Y-10865000D02*
X16995000Y-10895000D01*
X16995000Y-10865000D02*
X16965000Y-10895000D01*
X16972502Y-5877896D02*
X17002502Y-5907896D01*
X17002502Y-5877896D02*
X16972502Y-5907896D01*
X17015000Y-13735000D02*
X17045000Y-13765000D01*
X17045000Y-13735000D02*
X17015000Y-13765000D01*
X17155000Y-10755000D02*
X17185000Y-10785000D01*
X17185000Y-10755000D02*
X17155000Y-10785000D01*
X17185000Y-13265000D02*
X17215000Y-13295000D01*
X17215000Y-13265000D02*
X17185000Y-13295000D01*
X17235000Y-13065000D02*
X17265000Y-13095000D01*
X17265000Y-13065000D02*
X17235000Y-13095000D01*
X17345000Y-10605000D02*
X17375000Y-10635000D01*
X17375000Y-10605000D02*
X17345000Y-10635000D01*
X17535000Y-10415000D02*
X17565000Y-10445000D01*
X17565000Y-10415000D02*
X17535000Y-10445000D01*
X17595000Y-12425000D02*
X17625000Y-12455000D01*
X17625000Y-12425000D02*
X17595000Y-12455000D01*
X17640000Y-11380000D02*
X17670000Y-11410000D01*
X17670000Y-11380000D02*
X17640000Y-11410000D01*
X17645000Y-13095000D02*
X17675000Y-13125000D01*
X17675000Y-13095000D02*
X17645000Y-13125000D01*
X17652500Y-12677500D02*
X17682500Y-12707500D01*
X17682500Y-12677500D02*
X17652500Y-12707500D01*
X17845000Y-11435000D02*
X17875000Y-11465000D01*
X17875000Y-11435000D02*
X17845000Y-11465000D01*
X17905000Y-13165000D02*
X17935000Y-13195000D01*
X17935000Y-13165000D02*
X17905000Y-13195000D01*
X18035000Y-4465000D02*
X18065000Y-4495000D01*
X18065000Y-4465000D02*
X18035000Y-4495000D01*
X18090000Y-12465000D02*
X18120000Y-12495000D01*
X18120000Y-12465000D02*
X18090000Y-12495000D01*
X18190000Y-13670000D02*
X18220000Y-13700000D01*
X18220000Y-13670000D02*
X18190000Y-13700000D01*
X18292034Y-4765998D02*
X18322034Y-4795998D01*
X18322034Y-4765998D02*
X18292034Y-4795998D01*
X18305000Y-13320000D02*
X18335000Y-13350000D01*
X18335000Y-13320000D02*
X18305000Y-13350000D01*
X18449657Y-4918041D02*
X18479657Y-4948041D01*
X18479657Y-4918041D02*
X18449657Y-4948041D01*
X18545000Y-12975000D02*
X18575000Y-13005000D01*
X18575000Y-12975000D02*
X18545000Y-13005000D01*
X18672742Y-5094862D02*
X18702742Y-5124862D01*
X18702742Y-5094862D02*
X18672742Y-5124862D01*
X18775000Y-13735000D02*
X18805000Y-13765000D01*
X18805000Y-13735000D02*
X18775000Y-13765000D01*
X18860026Y-14270643D02*
X18890026Y-14300643D01*
X18890026Y-14270643D02*
X18860026Y-14300643D01*
X18914124Y-5254436D02*
X18944124Y-5284436D01*
X18944124Y-5254436D02*
X18914124Y-5284436D01*
X18985000Y-13275000D02*
X19015000Y-13305000D01*
X19015000Y-13275000D02*
X18985000Y-13305000D01*
X19215000Y-13595000D02*
X19245000Y-13625000D01*
X19245000Y-13595000D02*
X19215000Y-13625000D01*
X19883033Y-12441934D02*
X19913033Y-12471934D01*
X19913033Y-12441934D02*
X19883033Y-12471934D01*
X20238675Y-8738767D02*
X20268675Y-8768767D01*
X20268675Y-8738767D02*
X20238675Y-8768767D01*
X20238675Y-9145000D02*
X20268675Y-9175000D01*
X20268675Y-9145000D02*
X20238675Y-9175000D01*
X20502782Y-10012177D02*
X20532782Y-10042177D01*
X20532782Y-10012177D02*
X20502782Y-10042177D01*
X11933647Y-13206838D02*
G75*
G02*
X11853647Y-13206838I-40000J0D01*
G01*
X11853647Y-13206838D02*
G75*
G02*
X11933647Y-13206838I40000J0D01*
G01*
X11933647Y-13706838D02*
G75*
G02*
X11853647Y-13706838I-40000J0D01*
G01*
X11853647Y-13706838D02*
G75*
G02*
X11933647Y-13706838I40000J0D01*
G01*
X11940000Y-14570000D02*
G75*
G02*
X11860000Y-14570000I-40000J0D01*
G01*
X11860000Y-14570000D02*
G75*
G02*
X11940000Y-14570000I40000J0D01*
G01*
X11940000Y-15070000D02*
G75*
G02*
X11860000Y-15070000I-40000J0D01*
G01*
X11860000Y-15070000D02*
G75*
G02*
X11940000Y-15070000I40000J0D01*
G01*
X11942000Y-15660000D02*
G75*
G02*
X11862000Y-15660000I-40000J0D01*
G01*
X11862000Y-15660000D02*
G75*
G02*
X11942000Y-15660000I40000J0D01*
G01*
X11995000Y-9095000D02*
G75*
G02*
X11915000Y-9095000I-40000J0D01*
G01*
X11915000Y-9095000D02*
G75*
G02*
X11995000Y-9095000I40000J0D01*
G01*
X11995000Y-9595000D02*
G75*
G02*
X11915000Y-9595000I-40000J0D01*
G01*
X11915000Y-9595000D02*
G75*
G02*
X11995000Y-9595000I40000J0D01*
G01*
X12290000Y-9094000D02*
G75*
G02*
X12210000Y-9094000I-40000J0D01*
G01*
X12210000Y-9094000D02*
G75*
G02*
X12290000Y-9094000I40000J0D01*
G01*
X12290000Y-10110000D02*
G75*
G02*
X12210000Y-10110000I-40000J0D01*
G01*
X12210000Y-10110000D02*
G75*
G02*
X12290000Y-10110000I40000J0D01*
G01*
X12625000Y-9092000D02*
G75*
G02*
X12545000Y-9092000I-40000J0D01*
G01*
X12545000Y-9092000D02*
G75*
G02*
X12625000Y-9092000I40000J0D01*
G01*
X12625000Y-10108000D02*
G75*
G02*
X12545000Y-10108000I-40000J0D01*
G01*
X12545000Y-10108000D02*
G75*
G02*
X12625000Y-10108000I40000J0D01*
G01*
X12958000Y-15660000D02*
G75*
G02*
X12878000Y-15660000I-40000J0D01*
G01*
X12878000Y-15660000D02*
G75*
G02*
X12958000Y-15660000I40000J0D01*
G01*
X12980000Y-6727500D02*
G75*
G02*
X12900000Y-6727500I-40000J0D01*
G01*
X12900000Y-6727500D02*
G75*
G02*
X12980000Y-6727500I40000J0D01*
G01*
X12980000Y-6981500D02*
G75*
G02*
X12900000Y-6981500I-40000J0D01*
G01*
X12900000Y-6981500D02*
G75*
G02*
X12980000Y-6981500I40000J0D01*
G01*
X12980000Y-7235500D02*
G75*
G02*
X12900000Y-7235500I-40000J0D01*
G01*
X12900000Y-7235500D02*
G75*
G02*
X12980000Y-7235500I40000J0D01*
G01*
X12980000Y-7489500D02*
G75*
G02*
X12900000Y-7489500I-40000J0D01*
G01*
X12900000Y-7489500D02*
G75*
G02*
X12980000Y-7489500I40000J0D01*
G01*
X12980000Y-7743500D02*
G75*
G02*
X12900000Y-7743500I-40000J0D01*
G01*
X12900000Y-7743500D02*
G75*
G02*
X12980000Y-7743500I40000J0D01*
G01*
X12980000Y-7997500D02*
G75*
G02*
X12900000Y-7997500I-40000J0D01*
G01*
X12900000Y-7997500D02*
G75*
G02*
X12980000Y-7997500I40000J0D01*
G01*
X12980000Y-8251500D02*
G75*
G02*
X12900000Y-8251500I-40000J0D01*
G01*
X12900000Y-8251500D02*
G75*
G02*
X12980000Y-8251500I40000J0D01*
G01*
X12980000Y-8505500D02*
G75*
G02*
X12900000Y-8505500I-40000J0D01*
G01*
X12900000Y-8505500D02*
G75*
G02*
X12980000Y-8505500I40000J0D01*
G01*
X12980000Y-8759500D02*
G75*
G02*
X12900000Y-8759500I-40000J0D01*
G01*
X12900000Y-8759500D02*
G75*
G02*
X12980000Y-8759500I40000J0D01*
G01*
X12980000Y-9013500D02*
G75*
G02*
X12900000Y-9013500I-40000J0D01*
G01*
X12900000Y-9013500D02*
G75*
G02*
X12980000Y-9013500I40000J0D01*
G01*
X12980000Y-9267500D02*
G75*
G02*
X12900000Y-9267500I-40000J0D01*
G01*
X12900000Y-9267500D02*
G75*
G02*
X12980000Y-9267500I40000J0D01*
G01*
X12980000Y-9521500D02*
G75*
G02*
X12900000Y-9521500I-40000J0D01*
G01*
X12900000Y-9521500D02*
G75*
G02*
X12980000Y-9521500I40000J0D01*
G01*
X12980000Y-9775500D02*
G75*
G02*
X12900000Y-9775500I-40000J0D01*
G01*
X12900000Y-9775500D02*
G75*
G02*
X12980000Y-9775500I40000J0D01*
G01*
X12980000Y-10029500D02*
G75*
G02*
X12900000Y-10029500I-40000J0D01*
G01*
X12900000Y-10029500D02*
G75*
G02*
X12980000Y-10029500I40000J0D01*
G01*
X13040000Y-12600000D02*
G75*
G02*
X12960000Y-12600000I-40000J0D01*
G01*
X12960000Y-12600000D02*
G75*
G02*
X13040000Y-12600000I40000J0D01*
G01*
X13040000Y-13100000D02*
G75*
G02*
X12960000Y-13100000I-40000J0D01*
G01*
X12960000Y-13100000D02*
G75*
G02*
X13040000Y-13100000I40000J0D01*
G01*
X13040000Y-13350000D02*
G75*
G02*
X12960000Y-13350000I-40000J0D01*
G01*
X12960000Y-13350000D02*
G75*
G02*
X13040000Y-13350000I40000J0D01*
G01*
X13040000Y-13850000D02*
G75*
G02*
X12960000Y-13850000I-40000J0D01*
G01*
X12960000Y-13850000D02*
G75*
G02*
X13040000Y-13850000I40000J0D01*
G01*
X13259376Y-14643796D02*
G75*
G02*
X13179376Y-14643796I-40000J0D01*
G01*
X13179376Y-14643796D02*
G75*
G02*
X13259376Y-14643796I40000J0D01*
G01*
X13259376Y-15659796D02*
G75*
G02*
X13179376Y-15659796I-40000J0D01*
G01*
X13179376Y-15659796D02*
G75*
G02*
X13259376Y-15659796I40000J0D01*
G01*
X13440000Y-13350000D02*
G75*
G02*
X13360000Y-13350000I-40000J0D01*
G01*
X13360000Y-13350000D02*
G75*
G02*
X13440000Y-13350000I40000J0D01*
G01*
X13440000Y-13850000D02*
G75*
G02*
X13360000Y-13850000I-40000J0D01*
G01*
X13360000Y-13850000D02*
G75*
G02*
X13440000Y-13850000I40000J0D01*
G01*
X13742000Y-6727500D02*
G75*
G02*
X13662000Y-6727500I-40000J0D01*
G01*
X13662000Y-6727500D02*
G75*
G02*
X13742000Y-6727500I40000J0D01*
G01*
X13742000Y-6981500D02*
G75*
G02*
X13662000Y-6981500I-40000J0D01*
G01*
X13662000Y-6981500D02*
G75*
G02*
X13742000Y-6981500I40000J0D01*
G01*
X13742000Y-7235500D02*
G75*
G02*
X13662000Y-7235500I-40000J0D01*
G01*
X13662000Y-7235500D02*
G75*
G02*
X13742000Y-7235500I40000J0D01*
G01*
X13742000Y-7489500D02*
G75*
G02*
X13662000Y-7489500I-40000J0D01*
G01*
X13662000Y-7489500D02*
G75*
G02*
X13742000Y-7489500I40000J0D01*
G01*
X13742000Y-7743500D02*
G75*
G02*
X13662000Y-7743500I-40000J0D01*
G01*
X13662000Y-7743500D02*
G75*
G02*
X13742000Y-7743500I40000J0D01*
G01*
X13742000Y-7997500D02*
G75*
G02*
X13662000Y-7997500I-40000J0D01*
G01*
X13662000Y-7997500D02*
G75*
G02*
X13742000Y-7997500I40000J0D01*
G01*
X13742000Y-8251500D02*
G75*
G02*
X13662000Y-8251500I-40000J0D01*
G01*
X13662000Y-8251500D02*
G75*
G02*
X13742000Y-8251500I40000J0D01*
G01*
X13742000Y-8505500D02*
G75*
G02*
X13662000Y-8505500I-40000J0D01*
G01*
X13662000Y-8505500D02*
G75*
G02*
X13742000Y-8505500I40000J0D01*
G01*
X13742000Y-8759500D02*
G75*
G02*
X13662000Y-8759500I-40000J0D01*
G01*
X13662000Y-8759500D02*
G75*
G02*
X13742000Y-8759500I40000J0D01*
G01*
X13742000Y-9013500D02*
G75*
G02*
X13662000Y-9013500I-40000J0D01*
G01*
X13662000Y-9013500D02*
G75*
G02*
X13742000Y-9013500I40000J0D01*
G01*
X13742000Y-9267500D02*
G75*
G02*
X13662000Y-9267500I-40000J0D01*
G01*
X13662000Y-9267500D02*
G75*
G02*
X13742000Y-9267500I40000J0D01*
G01*
X13742000Y-9521500D02*
G75*
G02*
X13662000Y-9521500I-40000J0D01*
G01*
X13662000Y-9521500D02*
G75*
G02*
X13742000Y-9521500I40000J0D01*
G01*
X13742000Y-9775500D02*
G75*
G02*
X13662000Y-9775500I-40000J0D01*
G01*
X13662000Y-9775500D02*
G75*
G02*
X13742000Y-9775500I40000J0D01*
G01*
X13742000Y-10029500D02*
G75*
G02*
X13662000Y-10029500I-40000J0D01*
G01*
X13662000Y-10029500D02*
G75*
G02*
X13742000Y-10029500I40000J0D01*
G01*
X13800000Y-14820000D02*
G75*
G02*
X13720000Y-14820000I-40000J0D01*
G01*
X13720000Y-14820000D02*
G75*
G02*
X13800000Y-14820000I40000J0D01*
G01*
X13800000Y-15320000D02*
G75*
G02*
X13720000Y-15320000I-40000J0D01*
G01*
X13720000Y-15320000D02*
G75*
G02*
X13800000Y-15320000I40000J0D01*
G01*
X14240000Y-11890000D02*
G75*
G02*
X14160000Y-11890000I-40000J0D01*
G01*
X14160000Y-11890000D02*
G75*
G02*
X14240000Y-11890000I40000J0D01*
G01*
X14240000Y-12390000D02*
G75*
G02*
X14160000Y-12390000I-40000J0D01*
G01*
X14160000Y-12390000D02*
G75*
G02*
X14240000Y-12390000I40000J0D01*
G01*
X14240000Y-12620000D02*
G75*
G02*
X14160000Y-12620000I-40000J0D01*
G01*
X14160000Y-12620000D02*
G75*
G02*
X14240000Y-12620000I40000J0D01*
G01*
X14240000Y-13120000D02*
G75*
G02*
X14160000Y-13120000I-40000J0D01*
G01*
X14160000Y-13120000D02*
G75*
G02*
X14240000Y-13120000I40000J0D01*
G01*
X14750000Y-9154000D02*
G75*
G02*
X14670000Y-9154000I-40000J0D01*
G01*
X14670000Y-9154000D02*
G75*
G02*
X14750000Y-9154000I40000J0D01*
G01*
X14750000Y-10170000D02*
G75*
G02*
X14670000Y-10170000I-40000J0D01*
G01*
X14670000Y-10170000D02*
G75*
G02*
X14750000Y-10170000I40000J0D01*
G01*
X15970000Y-12577000D02*
G75*
G02*
X15890000Y-12577000I-40000J0D01*
G01*
X15890000Y-12577000D02*
G75*
G02*
X15970000Y-12577000I40000J0D01*
G01*
X15970000Y-13077000D02*
G75*
G02*
X15890000Y-13077000I-40000J0D01*
G01*
X15890000Y-13077000D02*
G75*
G02*
X15970000Y-13077000I40000J0D01*
G01*
X16295000Y-12062000D02*
G75*
G02*
X16215000Y-12062000I-40000J0D01*
G01*
X16215000Y-12062000D02*
G75*
G02*
X16295000Y-12062000I40000J0D01*
G01*
X16295000Y-13078000D02*
G75*
G02*
X16215000Y-13078000I-40000J0D01*
G01*
X16215000Y-13078000D02*
G75*
G02*
X16295000Y-13078000I40000J0D01*
G01*
X16734018Y-14539835D02*
G75*
G02*
X16654018Y-14539835I-40000J0D01*
G01*
X16654018Y-14539835D02*
G75*
G02*
X16734018Y-14539835I40000J0D01*
G01*
X16735904Y-14865201D02*
G75*
G02*
X16655904Y-14865201I-40000J0D01*
G01*
X16655904Y-14865201D02*
G75*
G02*
X16735904Y-14865201I40000J0D01*
G01*
X17750018Y-14539835D02*
G75*
G02*
X17670018Y-14539835I-40000J0D01*
G01*
X17670018Y-14539835D02*
G75*
G02*
X17750018Y-14539835I40000J0D01*
G01*
X17751904Y-14865201D02*
G75*
G02*
X17671904Y-14865201I-40000J0D01*
G01*
X17671904Y-14865201D02*
G75*
G02*
X17751904Y-14865201I40000J0D01*
G01*
X20460000Y-4332000D02*
G75*
G02*
X20380000Y-4332000I-40000J0D01*
G01*
X20380000Y-4332000D02*
G75*
G02*
X20460000Y-4332000I40000J0D01*
G01*
X20460000Y-5348000D02*
G75*
G02*
X20380000Y-5348000I-40000J0D01*
G01*
X20380000Y-5348000D02*
G75*
G02*
X20460000Y-5348000I40000J0D01*
G01*
X10316000Y-6650000D02*
X10316000Y-6750000D01*
X10266000Y-6700000D02*
X10366000Y-6700000D01*
X10316000Y-6904000D02*
X10316000Y-7004000D01*
X10266000Y-6954000D02*
X10366000Y-6954000D01*
X10316000Y-7158000D02*
X10316000Y-7258000D01*
X10266000Y-7208000D02*
X10366000Y-7208000D01*
X10316000Y-7412000D02*
X10316000Y-7512000D01*
X10266000Y-7462000D02*
X10366000Y-7462000D01*
X10316000Y-7666000D02*
X10316000Y-7766000D01*
X10266000Y-7716000D02*
X10366000Y-7716000D01*
X10316000Y-7920000D02*
X10316000Y-8020000D01*
X10266000Y-7970000D02*
X10366000Y-7970000D01*
X10316000Y-8174000D02*
X10316000Y-8274000D01*
X10266000Y-8224000D02*
X10366000Y-8224000D01*
X10316000Y-8428000D02*
X10316000Y-8528000D01*
X10266000Y-8478000D02*
X10366000Y-8478000D01*
X10316000Y-8682000D02*
X10316000Y-8782000D01*
X10266000Y-8732000D02*
X10366000Y-8732000D01*
X10316000Y-8936000D02*
X10316000Y-9036000D01*
X10266000Y-8986000D02*
X10366000Y-8986000D01*
X10316000Y-9190000D02*
X10316000Y-9290000D01*
X10266000Y-9240000D02*
X10366000Y-9240000D01*
X10316000Y-9444000D02*
X10316000Y-9544000D01*
X10266000Y-9494000D02*
X10366000Y-9494000D01*
X10316000Y-9698000D02*
X10316000Y-9798000D01*
X10266000Y-9748000D02*
X10366000Y-9748000D01*
X10316000Y-9952000D02*
X10316000Y-10052000D01*
X10266000Y-10002000D02*
X10366000Y-10002000D01*
X10316000Y-10206000D02*
X10316000Y-10306000D01*
X10266000Y-10256000D02*
X10366000Y-10256000D01*
X10570000Y-6650000D02*
X10570000Y-6750000D01*
X10520000Y-6700000D02*
X10620000Y-6700000D01*
X10570000Y-6904000D02*
X10570000Y-7004000D01*
X10520000Y-6954000D02*
X10620000Y-6954000D01*
X10570000Y-7158000D02*
X10570000Y-7258000D01*
X10520000Y-7208000D02*
X10620000Y-7208000D01*
X10570000Y-7412000D02*
X10570000Y-7512000D01*
X10520000Y-7462000D02*
X10620000Y-7462000D01*
X10570000Y-7666000D02*
X10570000Y-7766000D01*
X10520000Y-7716000D02*
X10620000Y-7716000D01*
X10570000Y-7920000D02*
X10570000Y-8020000D01*
X10520000Y-7970000D02*
X10620000Y-7970000D01*
X10570000Y-8174000D02*
X10570000Y-8274000D01*
X10520000Y-8224000D02*
X10620000Y-8224000D01*
X10570000Y-8428000D02*
X10570000Y-8528000D01*
X10520000Y-8478000D02*
X10620000Y-8478000D01*
X10570000Y-8682000D02*
X10570000Y-8782000D01*
X10520000Y-8732000D02*
X10620000Y-8732000D01*
X10570000Y-8936000D02*
X10570000Y-9036000D01*
X10520000Y-8986000D02*
X10620000Y-8986000D01*
X10570000Y-9190000D02*
X10570000Y-9290000D01*
X10520000Y-9240000D02*
X10620000Y-9240000D01*
X10570000Y-9444000D02*
X10570000Y-9544000D01*
X10520000Y-9494000D02*
X10620000Y-9494000D01*
X10570000Y-9698000D02*
X10570000Y-9798000D01*
X10520000Y-9748000D02*
X10620000Y-9748000D01*
X10570000Y-9952000D02*
X10570000Y-10052000D01*
X10520000Y-10002000D02*
X10620000Y-10002000D01*
X10570000Y-10206000D02*
X10570000Y-10306000D01*
X10520000Y-10256000D02*
X10620000Y-10256000D01*
X10860000Y-13270000D02*
X10860000Y-13370000D01*
X10810000Y-13320000D02*
X10910000Y-13320000D01*
X10810000Y-13210000D02*
X10810000Y-13430000D01*
X10910000Y-13430000D02*
G75*
G02*
X10810000Y-13430000I-50000J0D01*
G01*
X10910000Y-13430000D02*
X10910000Y-13210000D01*
X10910000Y-13210000D02*
G75*
G03*
X10810000Y-13210000I-50000J0D01*
G01*
X11200000Y-13750000D02*
X11200000Y-13850000D01*
X11150000Y-13800000D02*
X11250000Y-13800000D01*
X11310000Y-13750000D02*
X11090000Y-13750000D01*
X11090000Y-13850000D02*
G75*
G02*
X11090000Y-13750000I0J50000D01*
G01*
X11090000Y-13850000D02*
X11310000Y-13850000D01*
X11310000Y-13850000D02*
G75*
G03*
X11310000Y-13750000I0J50000D01*
G01*
X11490000Y-13270000D02*
X11490000Y-13370000D01*
X11440000Y-13320000D02*
X11540000Y-13320000D01*
X11440000Y-13190000D02*
X11440000Y-13450000D01*
X11540000Y-13450000D02*
G75*
G02*
X11440000Y-13450000I-50000J0D01*
G01*
X11540000Y-13450000D02*
X11540000Y-13190000D01*
X11540000Y-13190000D02*
G75*
G03*
X11440000Y-13190000I-50000J0D01*
G01*
D13*
X15331770Y-6450770D02*
X15331770Y-6377230D01*
X15258230Y-6377230D01*
X15258230Y-6450770D01*
X15331770Y-6450770D01*
X15331770Y-6704770D02*
X15331770Y-6631230D01*
X15258230Y-6631230D01*
X15258230Y-6704770D01*
X15331770Y-6704770D01*
X15331770Y-6958770D02*
X15331770Y-6885230D01*
X15258230Y-6885230D01*
X15258230Y-6958770D01*
X15331770Y-6958770D01*
X15331770Y-7212770D02*
X15331770Y-7139230D01*
X15258230Y-7139230D01*
X15258230Y-7212770D01*
X15331770Y-7212770D01*
X15331770Y-7466770D02*
X15331770Y-7393230D01*
X15258230Y-7393230D01*
X15258230Y-7466770D01*
X15331770Y-7466770D01*
X15331770Y-7720770D02*
X15331770Y-7647230D01*
X15258230Y-7647230D01*
X15258230Y-7720770D01*
X15331770Y-7720770D01*
X15331770Y-7974770D02*
X15331770Y-7901230D01*
X15258230Y-7901230D01*
X15258230Y-7974770D01*
X15331770Y-7974770D01*
X15331770Y-8228770D02*
X15331770Y-8155230D01*
X15258230Y-8155230D01*
X15258230Y-8228770D01*
X15331770Y-8228770D01*
X15331770Y-8482770D02*
X15331770Y-8409230D01*
X15258230Y-8409230D01*
X15258230Y-8482770D01*
X15331770Y-8482770D01*
X15331770Y-8736770D02*
X15331770Y-8663230D01*
X15258230Y-8663230D01*
X15258230Y-8736770D01*
X15331770Y-8736770D01*
X15331770Y-8990770D02*
X15331770Y-8917230D01*
X15258230Y-8917230D01*
X15258230Y-8990770D01*
X15331770Y-8990770D01*
X15331770Y-9244770D02*
X15331770Y-9171230D01*
X15258230Y-9171230D01*
X15258230Y-9244770D01*
X15331770Y-9244770D01*
X15331770Y-9498770D02*
X15331770Y-9425230D01*
X15258230Y-9425230D01*
X15258230Y-9498770D01*
X15331770Y-9498770D01*
X15331770Y-9752770D02*
X15331770Y-9679230D01*
X15258230Y-9679230D01*
X15258230Y-9752770D01*
X15331770Y-9752770D01*
X15331770Y-10006770D02*
X15331770Y-9933230D01*
X15258230Y-9933230D01*
X15258230Y-10006770D01*
X15331770Y-10006770D01*
X15331770Y-10260770D02*
X15331770Y-10187230D01*
X15258230Y-10187230D01*
X15258230Y-10260770D01*
X15331770Y-10260770D01*
X15331770Y-10514770D02*
X15331770Y-10441230D01*
X15258230Y-10441230D01*
X15258230Y-10514770D01*
X15331770Y-10514770D01*
X15331770Y-10768770D02*
X15331770Y-10695230D01*
X15258230Y-10695230D01*
X15258230Y-10768770D01*
X15331770Y-10768770D01*
X15331770Y-11022770D02*
X15331770Y-10949230D01*
X15258230Y-10949230D01*
X15258230Y-11022770D01*
X15331770Y-11022770D01*
X17871770Y-6450770D02*
X17871770Y-6377230D01*
X17798230Y-6377230D01*
X17798230Y-6450770D01*
X17871770Y-6450770D01*
X17871770Y-6704770D02*
X17871770Y-6631230D01*
X17798230Y-6631230D01*
X17798230Y-6704770D01*
X17871770Y-6704770D01*
X17871770Y-6958770D02*
X17871770Y-6885230D01*
X17798230Y-6885230D01*
X17798230Y-6958770D01*
X17871770Y-6958770D01*
X17871770Y-7212770D02*
X17871770Y-7139230D01*
X17798230Y-7139230D01*
X17798230Y-7212770D01*
X17871770Y-7212770D01*
X17871770Y-7466770D02*
X17871770Y-7393230D01*
X17798230Y-7393230D01*
X17798230Y-7466770D01*
X17871770Y-7466770D01*
X17871770Y-7720770D02*
X17871770Y-7647230D01*
X17798230Y-7647230D01*
X17798230Y-7720770D01*
X17871770Y-7720770D01*
X17871770Y-7974770D02*
X17871770Y-7901230D01*
X17798230Y-7901230D01*
X17798230Y-7974770D01*
X17871770Y-7974770D01*
X17871770Y-8228770D02*
X17871770Y-8155230D01*
X17798230Y-8155230D01*
X17798230Y-8228770D01*
X17871770Y-8228770D01*
X17871770Y-8482770D02*
X17871770Y-8409230D01*
X17798230Y-8409230D01*
X17798230Y-8482770D01*
X17871770Y-8482770D01*
X17871770Y-8736770D02*
X17871770Y-8663230D01*
X17798230Y-8663230D01*
X17798230Y-8736770D01*
X17871770Y-8736770D01*
X17871770Y-8990770D02*
X17871770Y-8917230D01*
X17798230Y-8917230D01*
X17798230Y-8990770D01*
X17871770Y-8990770D01*
X17871770Y-9244770D02*
X17871770Y-9171230D01*
X17798230Y-9171230D01*
X17798230Y-9244770D01*
X17871770Y-9244770D01*
X17871770Y-9498770D02*
X17871770Y-9425230D01*
X17798230Y-9425230D01*
X17798230Y-9498770D01*
X17871770Y-9498770D01*
X17871770Y-9752770D02*
X17871770Y-9679230D01*
X17798230Y-9679230D01*
X17798230Y-9752770D01*
X17871770Y-9752770D01*
X17871770Y-10006770D02*
X17871770Y-9933230D01*
X17798230Y-9933230D01*
X17798230Y-10006770D01*
X17871770Y-10006770D01*
X17871770Y-10260770D02*
X17871770Y-10187230D01*
X17798230Y-10187230D01*
X17798230Y-10260770D01*
X17871770Y-10260770D01*
X17871770Y-10514770D02*
X17871770Y-10441230D01*
X17798230Y-10441230D01*
X17798230Y-10514770D01*
X17871770Y-10514770D01*
X17871770Y-10768770D02*
X17871770Y-10695230D01*
X17798230Y-10695230D01*
X17798230Y-10768770D01*
X17871770Y-10768770D01*
X17871770Y-11022770D02*
X17871770Y-10949230D01*
X17798230Y-10949230D01*
X17798230Y-11022770D01*
X17871770Y-11022770D01*
D14*
X12550000Y-13247000D02*
X12605000Y-13192000D01*
X12550000Y-13137000D01*
X12495000Y-13192000D01*
X12550000Y-13247000D01*
X12550000Y-13501000D02*
X12605000Y-13446000D01*
X12550000Y-13391000D01*
X12495000Y-13446000D01*
X12550000Y-13501000D01*
X12550000Y-13755000D02*
X12605000Y-13700000D01*
X12550000Y-13645000D01*
X12495000Y-13700000D01*
X12550000Y-13755000D01*
X12560000Y-14625000D02*
X12615000Y-14570000D01*
X12560000Y-14515000D01*
X12505000Y-14570000D01*
X12560000Y-14625000D01*
X12560000Y-14879000D02*
X12615000Y-14824000D01*
X12560000Y-14769000D01*
X12505000Y-14824000D01*
X12560000Y-14879000D01*
X12560000Y-15133000D02*
X12615000Y-15078000D01*
X12560000Y-15023000D01*
X12505000Y-15078000D01*
X12560000Y-15133000D01*
D15*
X21155000Y-5575000D02*
X21285000Y-5705000D01*
X21285000Y-5575000D02*
X21155000Y-5705000D01*
X21285000Y-5640000D02*
G75*
G02*
X21155000Y-5640000I-65000J0D01*
G01*
X21155000Y-5640000D02*
G75*
G02*
X21285000Y-5640000I65000J0D01*
G01*
X21155000Y-5925000D02*
X21285000Y-6055000D01*
X21285000Y-5925000D02*
X21155000Y-6055000D01*
X21285000Y-5990000D02*
G75*
G02*
X21155000Y-5990000I-65000J0D01*
G01*
X21155000Y-5990000D02*
G75*
G02*
X21285000Y-5990000I65000J0D01*
G01*
X21163250Y-12670928D02*
X21293250Y-12800928D01*
X21293250Y-12670928D02*
X21163250Y-12800928D01*
X21293250Y-12735928D02*
G75*
G02*
X21163250Y-12735928I-65000J0D01*
G01*
X21163250Y-12735928D02*
G75*
G02*
X21293250Y-12735928I65000J0D01*
G01*
X21163250Y-13020928D02*
X21293250Y-13150928D01*
X21293250Y-13020928D02*
X21163250Y-13150928D01*
X21293250Y-13085928D02*
G75*
G02*
X21163250Y-13085928I-65000J0D01*
G01*
X21163250Y-13085928D02*
G75*
G02*
X21293250Y-13085928I65000J0D01*
G01*
X21163250Y-13370928D02*
X21293250Y-13500928D01*
X21293250Y-13370928D02*
X21163250Y-13500928D01*
X21293250Y-13435928D02*
G75*
G02*
X21163250Y-13435928I-65000J0D01*
G01*
X21163250Y-13435928D02*
G75*
G02*
X21293250Y-13435928I65000J0D01*
G01*
X21165000Y-6795000D02*
X21295000Y-6925000D01*
X21295000Y-6795000D02*
X21165000Y-6925000D01*
X21295000Y-6860000D02*
G75*
G02*
X21165000Y-6860000I-65000J0D01*
G01*
X21165000Y-6860000D02*
G75*
G02*
X21295000Y-6860000I65000J0D01*
G01*
X21165000Y-7145000D02*
X21295000Y-7275000D01*
X21295000Y-7145000D02*
X21165000Y-7275000D01*
X21295000Y-7210000D02*
G75*
G02*
X21165000Y-7210000I-65000J0D01*
G01*
X21165000Y-7210000D02*
G75*
G02*
X21295000Y-7210000I65000J0D01*
G01*
X21165000Y-7495000D02*
X21295000Y-7625000D01*
X21295000Y-7495000D02*
X21165000Y-7625000D01*
X21295000Y-7560000D02*
G75*
G02*
X21165000Y-7560000I-65000J0D01*
G01*
X21165000Y-7560000D02*
G75*
G02*
X21295000Y-7560000I65000J0D01*
G01*
X21165000Y-10790157D02*
X21295000Y-10920157D01*
X21295000Y-10790157D02*
X21165000Y-10920157D01*
X21295000Y-10855157D02*
G75*
G02*
X21165000Y-10855157I-65000J0D01*
G01*
X21165000Y-10855157D02*
G75*
G02*
X21295000Y-10855157I65000J0D01*
G01*
X21165000Y-11140157D02*
X21295000Y-11270157D01*
X21295000Y-11140157D02*
X21165000Y-11270157D01*
X21295000Y-11205157D02*
G75*
G02*
X21165000Y-11205157I-65000J0D01*
G01*
X21165000Y-11205157D02*
G75*
G02*
X21295000Y-11205157I65000J0D01*
G01*
X21165000Y-11490157D02*
X21295000Y-11620157D01*
X21295000Y-11490157D02*
X21165000Y-11620157D01*
X21295000Y-11555157D02*
G75*
G02*
X21165000Y-11555157I-65000J0D01*
G01*
X21165000Y-11555157D02*
G75*
G02*
X21295000Y-11555157I65000J0D01*
G01*
X21165000Y-11840157D02*
X21295000Y-11970157D01*
X21295000Y-11840157D02*
X21165000Y-11970157D01*
X21295000Y-11905157D02*
G75*
G02*
X21165000Y-11905157I-65000J0D01*
G01*
X21165000Y-11905157D02*
G75*
G02*
X21295000Y-11905157I65000J0D01*
G01*
X21165000Y-14282512D02*
X21295000Y-14412512D01*
X21295000Y-14282512D02*
X21165000Y-14412512D01*
X21295000Y-14347512D02*
G75*
G02*
X21165000Y-14347512I-65000J0D01*
G01*
X21165000Y-14347512D02*
G75*
G02*
X21295000Y-14347512I65000J0D01*
G01*
X21165000Y-14632512D02*
X21295000Y-14762512D01*
X21295000Y-14632512D02*
X21165000Y-14762512D01*
X21295000Y-14697512D02*
G75*
G02*
X21165000Y-14697512I-65000J0D01*
G01*
X21165000Y-14697512D02*
G75*
G02*
X21295000Y-14697512I65000J0D01*
G01*
X21165000Y-14982512D02*
X21295000Y-15112512D01*
X21295000Y-14982512D02*
X21165000Y-15112512D01*
X21295000Y-15047512D02*
G75*
G02*
X21165000Y-15047512I-65000J0D01*
G01*
X21165000Y-15047512D02*
G75*
G02*
X21295000Y-15047512I65000J0D01*
G01*
X21175212Y-8399251D02*
X21305212Y-8529251D01*
X21305212Y-8399251D02*
X21175212Y-8529251D01*
X21305212Y-8464251D02*
G75*
G02*
X21175212Y-8464251I-65000J0D01*
G01*
X21175212Y-8464251D02*
G75*
G02*
X21305212Y-8464251I65000J0D01*
G01*
X21175212Y-8749251D02*
X21305212Y-8879251D01*
X21305212Y-8749251D02*
X21175212Y-8879251D01*
X21305212Y-8814251D02*
G75*
G02*
X21175212Y-8814251I-65000J0D01*
G01*
X21175212Y-8814251D02*
G75*
G02*
X21305212Y-8814251I65000J0D01*
G01*
X21175212Y-9099251D02*
X21305212Y-9229251D01*
X21305212Y-9099251D02*
X21175212Y-9229251D01*
X21305212Y-9164251D02*
G75*
G02*
X21175212Y-9164251I-65000J0D01*
G01*
X21175212Y-9164251D02*
G75*
G02*
X21305212Y-9164251I65000J0D01*
G01*
X21175212Y-9449251D02*
X21305212Y-9579251D01*
X21305212Y-9449251D02*
X21175212Y-9579251D01*
X21305212Y-9514251D02*
G75*
G02*
X21175212Y-9514251I-65000J0D01*
G01*
X21175212Y-9514251D02*
G75*
G02*
X21305212Y-9514251I65000J0D01*
G01*
X21175212Y-9799251D02*
X21305212Y-9929251D01*
X21305212Y-9799251D02*
X21175212Y-9929251D01*
X21305212Y-9864251D02*
G75*
G02*
X21175212Y-9864251I-65000J0D01*
G01*
X21175212Y-9864251D02*
G75*
G02*
X21305212Y-9864251I65000J0D01*
G01*
D16*
X10476473Y-12280000D02*
X10636473Y-12440000D01*
X10636473Y-12280000D02*
X10476473Y-12440000D01*
X10556473Y-12280000D02*
X10556473Y-12440000D01*
X10476473Y-12360000D02*
X10636473Y-12360000D01*
X10687915Y-14755206D02*
X10847915Y-14915206D01*
X10847915Y-14755206D02*
X10687915Y-14915206D01*
X10767915Y-14755206D02*
X10767915Y-14915206D01*
X10687915Y-14835206D02*
X10847915Y-14835206D01*
X13380000Y-14140000D02*
X13540000Y-14300000D01*
X13540000Y-14140000D02*
X13380000Y-14300000D01*
X13460000Y-14140000D02*
X13460000Y-14300000D01*
X13380000Y-14220000D02*
X13540000Y-14220000D01*
X13820000Y-13520000D02*
X13980000Y-13680000D01*
X13980000Y-13520000D02*
X13820000Y-13680000D01*
X13900000Y-13520000D02*
X13900000Y-13680000D01*
X13820000Y-13600000D02*
X13980000Y-13600000D01*
X14380000Y-13520000D02*
X14540000Y-13680000D01*
X14540000Y-13520000D02*
X14380000Y-13680000D01*
X14460000Y-13520000D02*
X14460000Y-13680000D01*
X14380000Y-13600000D02*
X14540000Y-13600000D01*
X14612334Y-15492334D02*
X14772334Y-15652334D01*
X14772334Y-15492334D02*
X14612334Y-15652334D01*
X14692334Y-15492334D02*
X14692334Y-15652334D01*
X14612334Y-15572334D02*
X14772334Y-15572334D01*
X15020000Y-13520000D02*
X15180000Y-13680000D01*
X15180000Y-13520000D02*
X15020000Y-13680000D01*
X15100000Y-13520000D02*
X15100000Y-13680000D01*
X15020000Y-13600000D02*
X15180000Y-13600000D01*
X15780000Y-13520000D02*
X15940000Y-13680000D01*
X15940000Y-13520000D02*
X15780000Y-13680000D01*
X15860000Y-13520000D02*
X15860000Y-13680000D01*
X15780000Y-13600000D02*
X15940000Y-13600000D01*
D11*
X9558277Y-16553984D02*
X9558277Y-16353984D01*
X9558277Y-16353984D02*
X9605896Y-16353984D01*
X9605896Y-16353984D02*
X9634467Y-16363508D01*
X9634467Y-16363508D02*
X9653515Y-16382555D01*
X9653515Y-16382555D02*
X9663039Y-16401603D01*
X9663039Y-16401603D02*
X9672563Y-16439698D01*
X9672563Y-16439698D02*
X9672563Y-16468269D01*
X9672563Y-16468269D02*
X9663039Y-16506365D01*
X9663039Y-16506365D02*
X9653515Y-16525412D01*
X9653515Y-16525412D02*
X9634467Y-16544460D01*
X9634467Y-16544460D02*
X9605896Y-16553984D01*
X9605896Y-16553984D02*
X9558277Y-16553984D01*
X9758277Y-16553984D02*
X9758277Y-16420650D01*
X9758277Y-16458746D02*
X9767801Y-16439698D01*
X9767801Y-16439698D02*
X9777324Y-16430174D01*
X9777324Y-16430174D02*
X9796372Y-16420650D01*
X9796372Y-16420650D02*
X9815420Y-16420650D01*
X9882086Y-16553984D02*
X9882086Y-16420650D01*
X9882086Y-16353984D02*
X9872563Y-16363508D01*
X9872563Y-16363508D02*
X9882086Y-16373031D01*
X9882086Y-16373031D02*
X9891610Y-16363508D01*
X9891610Y-16363508D02*
X9882086Y-16353984D01*
X9882086Y-16353984D02*
X9882086Y-16373031D01*
X10005896Y-16553984D02*
X9986848Y-16544460D01*
X9986848Y-16544460D02*
X9977324Y-16525412D01*
X9977324Y-16525412D02*
X9977324Y-16353984D01*
X10110658Y-16553984D02*
X10091610Y-16544460D01*
X10091610Y-16544460D02*
X10082086Y-16525412D01*
X10082086Y-16525412D02*
X10082086Y-16353984D01*
X10339229Y-16553984D02*
X10339229Y-16353984D01*
X10339229Y-16353984D02*
X10405896Y-16496841D01*
X10405896Y-16496841D02*
X10472563Y-16353984D01*
X10472563Y-16353984D02*
X10472563Y-16553984D01*
X10653515Y-16553984D02*
X10653515Y-16449222D01*
X10653515Y-16449222D02*
X10643991Y-16430174D01*
X10643991Y-16430174D02*
X10624944Y-16420650D01*
X10624944Y-16420650D02*
X10586848Y-16420650D01*
X10586848Y-16420650D02*
X10567801Y-16430174D01*
X10653515Y-16544460D02*
X10634467Y-16553984D01*
X10634467Y-16553984D02*
X10586848Y-16553984D01*
X10586848Y-16553984D02*
X10567801Y-16544460D01*
X10567801Y-16544460D02*
X10558277Y-16525412D01*
X10558277Y-16525412D02*
X10558277Y-16506365D01*
X10558277Y-16506365D02*
X10567801Y-16487317D01*
X10567801Y-16487317D02*
X10586848Y-16477793D01*
X10586848Y-16477793D02*
X10634467Y-16477793D01*
X10634467Y-16477793D02*
X10653515Y-16468269D01*
X10748753Y-16420650D02*
X10748753Y-16620650D01*
X10748753Y-16430174D02*
X10767801Y-16420650D01*
X10767801Y-16420650D02*
X10805896Y-16420650D01*
X10805896Y-16420650D02*
X10824944Y-16430174D01*
X10824944Y-16430174D02*
X10834467Y-16439698D01*
X10834467Y-16439698D02*
X10843991Y-16458746D01*
X10843991Y-16458746D02*
X10843991Y-16515888D01*
X10843991Y-16515888D02*
X10834467Y-16534936D01*
X10834467Y-16534936D02*
X10824944Y-16544460D01*
X10824944Y-16544460D02*
X10805896Y-16553984D01*
X10805896Y-16553984D02*
X10767801Y-16553984D01*
X10767801Y-16553984D02*
X10748753Y-16544460D01*
X10929705Y-16534936D02*
X10939229Y-16544460D01*
X10939229Y-16544460D02*
X10929705Y-16553984D01*
X10929705Y-16553984D02*
X10920182Y-16544460D01*
X10920182Y-16544460D02*
X10929705Y-16534936D01*
X10929705Y-16534936D02*
X10929705Y-16553984D01*
X10929705Y-16430174D02*
X10939229Y-16439698D01*
X10939229Y-16439698D02*
X10929705Y-16449222D01*
X10929705Y-16449222D02*
X10920182Y-16439698D01*
X10920182Y-16439698D02*
X10929705Y-16430174D01*
X10929705Y-16430174D02*
X10929705Y-16449222D01*
D12*
X9267500Y-16867500D02*
X9297500Y-16897500D01*
X9297500Y-16867500D02*
X9267500Y-16897500D01*
D11*
X9596372Y-16773984D02*
X9615420Y-16773984D01*
X9615420Y-16773984D02*
X9634467Y-16783508D01*
X9634467Y-16783508D02*
X9643991Y-16793031D01*
X9643991Y-16793031D02*
X9653515Y-16812079D01*
X9653515Y-16812079D02*
X9663039Y-16850174D01*
X9663039Y-16850174D02*
X9663039Y-16897793D01*
X9663039Y-16897793D02*
X9653515Y-16935889D01*
X9653515Y-16935889D02*
X9643991Y-16954936D01*
X9643991Y-16954936D02*
X9634467Y-16964460D01*
X9634467Y-16964460D02*
X9615420Y-16973984D01*
X9615420Y-16973984D02*
X9596372Y-16973984D01*
X9596372Y-16973984D02*
X9577324Y-16964460D01*
X9577324Y-16964460D02*
X9567801Y-16954936D01*
X9567801Y-16954936D02*
X9558277Y-16935889D01*
X9558277Y-16935889D02*
X9548753Y-16897793D01*
X9548753Y-16897793D02*
X9548753Y-16850174D01*
X9548753Y-16850174D02*
X9558277Y-16812079D01*
X9558277Y-16812079D02*
X9567801Y-16793031D01*
X9567801Y-16793031D02*
X9577324Y-16783508D01*
X9577324Y-16783508D02*
X9596372Y-16773984D01*
X9748753Y-16954936D02*
X9758277Y-16964460D01*
X9758277Y-16964460D02*
X9748753Y-16973984D01*
X9748753Y-16973984D02*
X9739229Y-16964460D01*
X9739229Y-16964460D02*
X9748753Y-16954936D01*
X9748753Y-16954936D02*
X9748753Y-16973984D01*
X9824944Y-16773984D02*
X9948753Y-16773984D01*
X9948753Y-16773984D02*
X9882086Y-16850174D01*
X9882086Y-16850174D02*
X9910658Y-16850174D01*
X9910658Y-16850174D02*
X9929705Y-16859698D01*
X9929705Y-16859698D02*
X9939229Y-16869222D01*
X9939229Y-16869222D02*
X9948753Y-16888270D01*
X9948753Y-16888270D02*
X9948753Y-16935889D01*
X9948753Y-16935889D02*
X9939229Y-16954936D01*
X9939229Y-16954936D02*
X9929705Y-16964460D01*
X9929705Y-16964460D02*
X9910658Y-16973984D01*
X9910658Y-16973984D02*
X9853515Y-16973984D01*
X9853515Y-16973984D02*
X9834467Y-16964460D01*
X9834467Y-16964460D02*
X9824944Y-16954936D01*
X10072563Y-16773984D02*
X10091610Y-16773984D01*
X10091610Y-16773984D02*
X10110658Y-16783508D01*
X10110658Y-16783508D02*
X10120182Y-16793031D01*
X10120182Y-16793031D02*
X10129705Y-16812079D01*
X10129705Y-16812079D02*
X10139229Y-16850174D01*
X10139229Y-16850174D02*
X10139229Y-16897793D01*
X10139229Y-16897793D02*
X10129705Y-16935889D01*
X10129705Y-16935889D02*
X10120182Y-16954936D01*
X10120182Y-16954936D02*
X10110658Y-16964460D01*
X10110658Y-16964460D02*
X10091610Y-16973984D01*
X10091610Y-16973984D02*
X10072563Y-16973984D01*
X10072563Y-16973984D02*
X10053515Y-16964460D01*
X10053515Y-16964460D02*
X10043991Y-16954936D01*
X10043991Y-16954936D02*
X10034467Y-16935889D01*
X10034467Y-16935889D02*
X10024944Y-16897793D01*
X10024944Y-16897793D02*
X10024944Y-16850174D01*
X10024944Y-16850174D02*
X10034467Y-16812079D01*
X10034467Y-16812079D02*
X10043991Y-16793031D01*
X10043991Y-16793031D02*
X10053515Y-16783508D01*
X10053515Y-16783508D02*
X10072563Y-16773984D01*
X10263039Y-16773984D02*
X10282086Y-16773984D01*
X10282086Y-16773984D02*
X10301134Y-16783508D01*
X10301134Y-16783508D02*
X10310658Y-16793031D01*
X10310658Y-16793031D02*
X10320182Y-16812079D01*
X10320182Y-16812079D02*
X10329705Y-16850174D01*
X10329705Y-16850174D02*
X10329705Y-16897793D01*
X10329705Y-16897793D02*
X10320182Y-16935889D01*
X10320182Y-16935889D02*
X10310658Y-16954936D01*
X10310658Y-16954936D02*
X10301134Y-16964460D01*
X10301134Y-16964460D02*
X10282086Y-16973984D01*
X10282086Y-16973984D02*
X10263039Y-16973984D01*
X10263039Y-16973984D02*
X10243991Y-16964460D01*
X10243991Y-16964460D02*
X10234467Y-16954936D01*
X10234467Y-16954936D02*
X10224944Y-16935889D01*
X10224944Y-16935889D02*
X10215420Y-16897793D01*
X10215420Y-16897793D02*
X10215420Y-16850174D01*
X10215420Y-16850174D02*
X10224944Y-16812079D01*
X10224944Y-16812079D02*
X10234467Y-16793031D01*
X10234467Y-16793031D02*
X10243991Y-16783508D01*
X10243991Y-16783508D02*
X10263039Y-16773984D01*
X10415420Y-16973984D02*
X10415420Y-16840650D01*
X10415420Y-16859698D02*
X10424944Y-16850174D01*
X10424944Y-16850174D02*
X10443991Y-16840650D01*
X10443991Y-16840650D02*
X10472563Y-16840650D01*
X10472563Y-16840650D02*
X10491610Y-16850174D01*
X10491610Y-16850174D02*
X10501134Y-16869222D01*
X10501134Y-16869222D02*
X10501134Y-16973984D01*
X10501134Y-16869222D02*
X10510658Y-16850174D01*
X10510658Y-16850174D02*
X10529705Y-16840650D01*
X10529705Y-16840650D02*
X10558277Y-16840650D01*
X10558277Y-16840650D02*
X10577325Y-16850174D01*
X10577325Y-16850174D02*
X10586848Y-16869222D01*
X10586848Y-16869222D02*
X10586848Y-16973984D01*
X10682086Y-16973984D02*
X10682086Y-16840650D01*
X10682086Y-16859698D02*
X10691610Y-16850174D01*
X10691610Y-16850174D02*
X10710658Y-16840650D01*
X10710658Y-16840650D02*
X10739229Y-16840650D01*
X10739229Y-16840650D02*
X10758277Y-16850174D01*
X10758277Y-16850174D02*
X10767801Y-16869222D01*
X10767801Y-16869222D02*
X10767801Y-16973984D01*
X10767801Y-16869222D02*
X10777325Y-16850174D01*
X10777325Y-16850174D02*
X10796372Y-16840650D01*
X10796372Y-16840650D02*
X10824944Y-16840650D01*
X10824944Y-16840650D02*
X10843991Y-16850174D01*
X10843991Y-16850174D02*
X10853515Y-16869222D01*
X10853515Y-16869222D02*
X10853515Y-16973984D01*
X11243991Y-16764460D02*
X11072563Y-17021603D01*
X11501134Y-16773984D02*
X11520182Y-16773984D01*
X11520182Y-16773984D02*
X11539229Y-16783508D01*
X11539229Y-16783508D02*
X11548753Y-16793031D01*
X11548753Y-16793031D02*
X11558277Y-16812079D01*
X11558277Y-16812079D02*
X11567801Y-16850174D01*
X11567801Y-16850174D02*
X11567801Y-16897793D01*
X11567801Y-16897793D02*
X11558277Y-16935889D01*
X11558277Y-16935889D02*
X11548753Y-16954936D01*
X11548753Y-16954936D02*
X11539229Y-16964460D01*
X11539229Y-16964460D02*
X11520182Y-16973984D01*
X11520182Y-16973984D02*
X11501134Y-16973984D01*
X11501134Y-16973984D02*
X11482086Y-16964460D01*
X11482086Y-16964460D02*
X11472563Y-16954936D01*
X11472563Y-16954936D02*
X11463039Y-16935889D01*
X11463039Y-16935889D02*
X11453515Y-16897793D01*
X11453515Y-16897793D02*
X11453515Y-16850174D01*
X11453515Y-16850174D02*
X11463039Y-16812079D01*
X11463039Y-16812079D02*
X11472563Y-16793031D01*
X11472563Y-16793031D02*
X11482086Y-16783508D01*
X11482086Y-16783508D02*
X11501134Y-16773984D01*
X11653515Y-16954936D02*
X11663039Y-16964460D01*
X11663039Y-16964460D02*
X11653515Y-16973984D01*
X11653515Y-16973984D02*
X11643991Y-16964460D01*
X11643991Y-16964460D02*
X11653515Y-16954936D01*
X11653515Y-16954936D02*
X11653515Y-16973984D01*
X11786848Y-16773984D02*
X11805896Y-16773984D01*
X11805896Y-16773984D02*
X11824944Y-16783508D01*
X11824944Y-16783508D02*
X11834467Y-16793031D01*
X11834467Y-16793031D02*
X11843991Y-16812079D01*
X11843991Y-16812079D02*
X11853515Y-16850174D01*
X11853515Y-16850174D02*
X11853515Y-16897793D01*
X11853515Y-16897793D02*
X11843991Y-16935889D01*
X11843991Y-16935889D02*
X11834467Y-16954936D01*
X11834467Y-16954936D02*
X11824944Y-16964460D01*
X11824944Y-16964460D02*
X11805896Y-16973984D01*
X11805896Y-16973984D02*
X11786848Y-16973984D01*
X11786848Y-16973984D02*
X11767801Y-16964460D01*
X11767801Y-16964460D02*
X11758277Y-16954936D01*
X11758277Y-16954936D02*
X11748753Y-16935889D01*
X11748753Y-16935889D02*
X11739229Y-16897793D01*
X11739229Y-16897793D02*
X11739229Y-16850174D01*
X11739229Y-16850174D02*
X11748753Y-16812079D01*
X11748753Y-16812079D02*
X11758277Y-16793031D01*
X11758277Y-16793031D02*
X11767801Y-16783508D01*
X11767801Y-16783508D02*
X11786848Y-16773984D01*
X12043991Y-16973984D02*
X11929706Y-16973984D01*
X11986848Y-16973984D02*
X11986848Y-16773984D01*
X11986848Y-16773984D02*
X11967801Y-16802555D01*
X11967801Y-16802555D02*
X11948753Y-16821603D01*
X11948753Y-16821603D02*
X11929706Y-16831127D01*
X12234467Y-16973984D02*
X12120182Y-16973984D01*
X12177325Y-16973984D02*
X12177325Y-16773984D01*
X12177325Y-16773984D02*
X12158277Y-16802555D01*
X12158277Y-16802555D02*
X12139229Y-16821603D01*
X12139229Y-16821603D02*
X12120182Y-16831127D01*
X12348753Y-16859698D02*
X12329706Y-16850174D01*
X12329706Y-16850174D02*
X12320182Y-16840650D01*
X12320182Y-16840650D02*
X12310658Y-16821603D01*
X12310658Y-16821603D02*
X12310658Y-16812079D01*
X12310658Y-16812079D02*
X12320182Y-16793031D01*
X12320182Y-16793031D02*
X12329706Y-16783508D01*
X12329706Y-16783508D02*
X12348753Y-16773984D01*
X12348753Y-16773984D02*
X12386848Y-16773984D01*
X12386848Y-16773984D02*
X12405896Y-16783508D01*
X12405896Y-16783508D02*
X12415420Y-16793031D01*
X12415420Y-16793031D02*
X12424944Y-16812079D01*
X12424944Y-16812079D02*
X12424944Y-16821603D01*
X12424944Y-16821603D02*
X12415420Y-16840650D01*
X12415420Y-16840650D02*
X12405896Y-16850174D01*
X12405896Y-16850174D02*
X12386848Y-16859698D01*
X12386848Y-16859698D02*
X12348753Y-16859698D01*
X12348753Y-16859698D02*
X12329706Y-16869222D01*
X12329706Y-16869222D02*
X12320182Y-16878746D01*
X12320182Y-16878746D02*
X12310658Y-16897793D01*
X12310658Y-16897793D02*
X12310658Y-16935889D01*
X12310658Y-16935889D02*
X12320182Y-16954936D01*
X12320182Y-16954936D02*
X12329706Y-16964460D01*
X12329706Y-16964460D02*
X12348753Y-16973984D01*
X12348753Y-16973984D02*
X12386848Y-16973984D01*
X12386848Y-16973984D02*
X12405896Y-16964460D01*
X12405896Y-16964460D02*
X12415420Y-16954936D01*
X12415420Y-16954936D02*
X12424944Y-16935889D01*
X12424944Y-16935889D02*
X12424944Y-16897793D01*
X12424944Y-16897793D02*
X12415420Y-16878746D01*
X12415420Y-16878746D02*
X12405896Y-16869222D01*
X12405896Y-16869222D02*
X12386848Y-16859698D01*
X12501134Y-16773984D02*
X12501134Y-16812079D01*
X12577325Y-16773984D02*
X12577325Y-16812079D01*
X12872563Y-17050174D02*
X12863039Y-17040650D01*
X12863039Y-17040650D02*
X12843991Y-17012079D01*
X12843991Y-17012079D02*
X12834468Y-16993031D01*
X12834468Y-16993031D02*
X12824944Y-16964460D01*
X12824944Y-16964460D02*
X12815420Y-16916841D01*
X12815420Y-16916841D02*
X12815420Y-16878746D01*
X12815420Y-16878746D02*
X12824944Y-16831127D01*
X12824944Y-16831127D02*
X12834468Y-16802555D01*
X12834468Y-16802555D02*
X12843991Y-16783508D01*
X12843991Y-16783508D02*
X12863039Y-16754936D01*
X12863039Y-16754936D02*
X12872563Y-16745412D01*
X12977325Y-16859698D02*
X12958277Y-16850174D01*
X12958277Y-16850174D02*
X12948753Y-16840650D01*
X12948753Y-16840650D02*
X12939229Y-16821603D01*
X12939229Y-16821603D02*
X12939229Y-16812079D01*
X12939229Y-16812079D02*
X12948753Y-16793031D01*
X12948753Y-16793031D02*
X12958277Y-16783508D01*
X12958277Y-16783508D02*
X12977325Y-16773984D01*
X12977325Y-16773984D02*
X13015420Y-16773984D01*
X13015420Y-16773984D02*
X13034468Y-16783508D01*
X13034468Y-16783508D02*
X13043991Y-16793031D01*
X13043991Y-16793031D02*
X13053515Y-16812079D01*
X13053515Y-16812079D02*
X13053515Y-16821603D01*
X13053515Y-16821603D02*
X13043991Y-16840650D01*
X13043991Y-16840650D02*
X13034468Y-16850174D01*
X13034468Y-16850174D02*
X13015420Y-16859698D01*
X13015420Y-16859698D02*
X12977325Y-16859698D01*
X12977325Y-16859698D02*
X12958277Y-16869222D01*
X12958277Y-16869222D02*
X12948753Y-16878746D01*
X12948753Y-16878746D02*
X12939229Y-16897793D01*
X12939229Y-16897793D02*
X12939229Y-16935889D01*
X12939229Y-16935889D02*
X12948753Y-16954936D01*
X12948753Y-16954936D02*
X12958277Y-16964460D01*
X12958277Y-16964460D02*
X12977325Y-16973984D01*
X12977325Y-16973984D02*
X13015420Y-16973984D01*
X13015420Y-16973984D02*
X13034468Y-16964460D01*
X13034468Y-16964460D02*
X13043991Y-16954936D01*
X13043991Y-16954936D02*
X13053515Y-16935889D01*
X13053515Y-16935889D02*
X13053515Y-16897793D01*
X13053515Y-16897793D02*
X13043991Y-16878746D01*
X13043991Y-16878746D02*
X13034468Y-16869222D01*
X13034468Y-16869222D02*
X13015420Y-16859698D01*
X13224944Y-16840650D02*
X13224944Y-16973984D01*
X13177325Y-16764460D02*
X13129706Y-16907317D01*
X13129706Y-16907317D02*
X13253515Y-16907317D01*
X13482087Y-16973984D02*
X13482087Y-16773984D01*
X13567801Y-16973984D02*
X13567801Y-16869222D01*
X13567801Y-16869222D02*
X13558277Y-16850174D01*
X13558277Y-16850174D02*
X13539230Y-16840650D01*
X13539230Y-16840650D02*
X13510658Y-16840650D01*
X13510658Y-16840650D02*
X13491610Y-16850174D01*
X13491610Y-16850174D02*
X13482087Y-16859698D01*
X13691610Y-16973984D02*
X13672563Y-16964460D01*
X13672563Y-16964460D02*
X13663039Y-16954936D01*
X13663039Y-16954936D02*
X13653515Y-16935889D01*
X13653515Y-16935889D02*
X13653515Y-16878746D01*
X13653515Y-16878746D02*
X13663039Y-16859698D01*
X13663039Y-16859698D02*
X13672563Y-16850174D01*
X13672563Y-16850174D02*
X13691610Y-16840650D01*
X13691610Y-16840650D02*
X13720182Y-16840650D01*
X13720182Y-16840650D02*
X13739230Y-16850174D01*
X13739230Y-16850174D02*
X13748753Y-16859698D01*
X13748753Y-16859698D02*
X13758277Y-16878746D01*
X13758277Y-16878746D02*
X13758277Y-16935889D01*
X13758277Y-16935889D02*
X13748753Y-16954936D01*
X13748753Y-16954936D02*
X13739230Y-16964460D01*
X13739230Y-16964460D02*
X13720182Y-16973984D01*
X13720182Y-16973984D02*
X13691610Y-16973984D01*
X13872563Y-16973984D02*
X13853515Y-16964460D01*
X13853515Y-16964460D02*
X13843991Y-16945412D01*
X13843991Y-16945412D02*
X13843991Y-16773984D01*
X14024944Y-16964460D02*
X14005896Y-16973984D01*
X14005896Y-16973984D02*
X13967801Y-16973984D01*
X13967801Y-16973984D02*
X13948753Y-16964460D01*
X13948753Y-16964460D02*
X13939230Y-16945412D01*
X13939230Y-16945412D02*
X13939230Y-16869222D01*
X13939230Y-16869222D02*
X13948753Y-16850174D01*
X13948753Y-16850174D02*
X13967801Y-16840650D01*
X13967801Y-16840650D02*
X14005896Y-16840650D01*
X14005896Y-16840650D02*
X14024944Y-16850174D01*
X14024944Y-16850174D02*
X14034468Y-16869222D01*
X14034468Y-16869222D02*
X14034468Y-16888270D01*
X14034468Y-16888270D02*
X13939230Y-16907317D01*
X14110658Y-16964460D02*
X14129706Y-16973984D01*
X14129706Y-16973984D02*
X14167801Y-16973984D01*
X14167801Y-16973984D02*
X14186849Y-16964460D01*
X14186849Y-16964460D02*
X14196372Y-16945412D01*
X14196372Y-16945412D02*
X14196372Y-16935889D01*
X14196372Y-16935889D02*
X14186849Y-16916841D01*
X14186849Y-16916841D02*
X14167801Y-16907317D01*
X14167801Y-16907317D02*
X14139230Y-16907317D01*
X14139230Y-16907317D02*
X14120182Y-16897793D01*
X14120182Y-16897793D02*
X14110658Y-16878746D01*
X14110658Y-16878746D02*
X14110658Y-16869222D01*
X14110658Y-16869222D02*
X14120182Y-16850174D01*
X14120182Y-16850174D02*
X14139230Y-16840650D01*
X14139230Y-16840650D02*
X14167801Y-16840650D01*
X14167801Y-16840650D02*
X14186849Y-16850174D01*
X14263039Y-17050174D02*
X14272563Y-17040650D01*
X14272563Y-17040650D02*
X14291611Y-17012079D01*
X14291611Y-17012079D02*
X14301134Y-16993031D01*
X14301134Y-16993031D02*
X14310658Y-16964460D01*
X14310658Y-16964460D02*
X14320182Y-16916841D01*
X14320182Y-16916841D02*
X14320182Y-16878746D01*
X14320182Y-16878746D02*
X14310658Y-16831127D01*
X14310658Y-16831127D02*
X14301134Y-16802555D01*
X14301134Y-16802555D02*
X14291611Y-16783508D01*
X14291611Y-16783508D02*
X14272563Y-16754936D01*
X14272563Y-16754936D02*
X14263039Y-16745412D01*
D12*
X9297500Y-17146500D02*
G75*
G02*
X9217500Y-17146500I-40000J0D01*
G01*
X9217500Y-17146500D02*
G75*
G02*
X9297500Y-17146500I40000J0D01*
G01*
D11*
X9596372Y-17037984D02*
X9615420Y-17037984D01*
X9615420Y-17037984D02*
X9634467Y-17047508D01*
X9634467Y-17047508D02*
X9643991Y-17057031D01*
X9643991Y-17057031D02*
X9653515Y-17076079D01*
X9653515Y-17076079D02*
X9663039Y-17114174D01*
X9663039Y-17114174D02*
X9663039Y-17161793D01*
X9663039Y-17161793D02*
X9653515Y-17199889D01*
X9653515Y-17199889D02*
X9643991Y-17218936D01*
X9643991Y-17218936D02*
X9634467Y-17228460D01*
X9634467Y-17228460D02*
X9615420Y-17237984D01*
X9615420Y-17237984D02*
X9596372Y-17237984D01*
X9596372Y-17237984D02*
X9577324Y-17228460D01*
X9577324Y-17228460D02*
X9567801Y-17218936D01*
X9567801Y-17218936D02*
X9558277Y-17199889D01*
X9558277Y-17199889D02*
X9548753Y-17161793D01*
X9548753Y-17161793D02*
X9548753Y-17114174D01*
X9548753Y-17114174D02*
X9558277Y-17076079D01*
X9558277Y-17076079D02*
X9567801Y-17057031D01*
X9567801Y-17057031D02*
X9577324Y-17047508D01*
X9577324Y-17047508D02*
X9596372Y-17037984D01*
X9748753Y-17218936D02*
X9758277Y-17228460D01*
X9758277Y-17228460D02*
X9748753Y-17237984D01*
X9748753Y-17237984D02*
X9739229Y-17228460D01*
X9739229Y-17228460D02*
X9748753Y-17218936D01*
X9748753Y-17218936D02*
X9748753Y-17237984D01*
X9872563Y-17123698D02*
X9853515Y-17114174D01*
X9853515Y-17114174D02*
X9843991Y-17104650D01*
X9843991Y-17104650D02*
X9834467Y-17085603D01*
X9834467Y-17085603D02*
X9834467Y-17076079D01*
X9834467Y-17076079D02*
X9843991Y-17057031D01*
X9843991Y-17057031D02*
X9853515Y-17047508D01*
X9853515Y-17047508D02*
X9872563Y-17037984D01*
X9872563Y-17037984D02*
X9910658Y-17037984D01*
X9910658Y-17037984D02*
X9929705Y-17047508D01*
X9929705Y-17047508D02*
X9939229Y-17057031D01*
X9939229Y-17057031D02*
X9948753Y-17076079D01*
X9948753Y-17076079D02*
X9948753Y-17085603D01*
X9948753Y-17085603D02*
X9939229Y-17104650D01*
X9939229Y-17104650D02*
X9929705Y-17114174D01*
X9929705Y-17114174D02*
X9910658Y-17123698D01*
X9910658Y-17123698D02*
X9872563Y-17123698D01*
X9872563Y-17123698D02*
X9853515Y-17133222D01*
X9853515Y-17133222D02*
X9843991Y-17142746D01*
X9843991Y-17142746D02*
X9834467Y-17161793D01*
X9834467Y-17161793D02*
X9834467Y-17199889D01*
X9834467Y-17199889D02*
X9843991Y-17218936D01*
X9843991Y-17218936D02*
X9853515Y-17228460D01*
X9853515Y-17228460D02*
X9872563Y-17237984D01*
X9872563Y-17237984D02*
X9910658Y-17237984D01*
X9910658Y-17237984D02*
X9929705Y-17228460D01*
X9929705Y-17228460D02*
X9939229Y-17218936D01*
X9939229Y-17218936D02*
X9948753Y-17199889D01*
X9948753Y-17199889D02*
X9948753Y-17161793D01*
X9948753Y-17161793D02*
X9939229Y-17142746D01*
X9939229Y-17142746D02*
X9929705Y-17133222D01*
X9929705Y-17133222D02*
X9910658Y-17123698D01*
X10072563Y-17037984D02*
X10091610Y-17037984D01*
X10091610Y-17037984D02*
X10110658Y-17047508D01*
X10110658Y-17047508D02*
X10120182Y-17057031D01*
X10120182Y-17057031D02*
X10129705Y-17076079D01*
X10129705Y-17076079D02*
X10139229Y-17114174D01*
X10139229Y-17114174D02*
X10139229Y-17161793D01*
X10139229Y-17161793D02*
X10129705Y-17199889D01*
X10129705Y-17199889D02*
X10120182Y-17218936D01*
X10120182Y-17218936D02*
X10110658Y-17228460D01*
X10110658Y-17228460D02*
X10091610Y-17237984D01*
X10091610Y-17237984D02*
X10072563Y-17237984D01*
X10072563Y-17237984D02*
X10053515Y-17228460D01*
X10053515Y-17228460D02*
X10043991Y-17218936D01*
X10043991Y-17218936D02*
X10034467Y-17199889D01*
X10034467Y-17199889D02*
X10024944Y-17161793D01*
X10024944Y-17161793D02*
X10024944Y-17114174D01*
X10024944Y-17114174D02*
X10034467Y-17076079D01*
X10034467Y-17076079D02*
X10043991Y-17057031D01*
X10043991Y-17057031D02*
X10053515Y-17047508D01*
X10053515Y-17047508D02*
X10072563Y-17037984D01*
X10263039Y-17037984D02*
X10282086Y-17037984D01*
X10282086Y-17037984D02*
X10301134Y-17047508D01*
X10301134Y-17047508D02*
X10310658Y-17057031D01*
X10310658Y-17057031D02*
X10320182Y-17076079D01*
X10320182Y-17076079D02*
X10329705Y-17114174D01*
X10329705Y-17114174D02*
X10329705Y-17161793D01*
X10329705Y-17161793D02*
X10320182Y-17199889D01*
X10320182Y-17199889D02*
X10310658Y-17218936D01*
X10310658Y-17218936D02*
X10301134Y-17228460D01*
X10301134Y-17228460D02*
X10282086Y-17237984D01*
X10282086Y-17237984D02*
X10263039Y-17237984D01*
X10263039Y-17237984D02*
X10243991Y-17228460D01*
X10243991Y-17228460D02*
X10234467Y-17218936D01*
X10234467Y-17218936D02*
X10224944Y-17199889D01*
X10224944Y-17199889D02*
X10215420Y-17161793D01*
X10215420Y-17161793D02*
X10215420Y-17114174D01*
X10215420Y-17114174D02*
X10224944Y-17076079D01*
X10224944Y-17076079D02*
X10234467Y-17057031D01*
X10234467Y-17057031D02*
X10243991Y-17047508D01*
X10243991Y-17047508D02*
X10263039Y-17037984D01*
X10415420Y-17237984D02*
X10415420Y-17104650D01*
X10415420Y-17123698D02*
X10424944Y-17114174D01*
X10424944Y-17114174D02*
X10443991Y-17104650D01*
X10443991Y-17104650D02*
X10472563Y-17104650D01*
X10472563Y-17104650D02*
X10491610Y-17114174D01*
X10491610Y-17114174D02*
X10501134Y-17133222D01*
X10501134Y-17133222D02*
X10501134Y-17237984D01*
X10501134Y-17133222D02*
X10510658Y-17114174D01*
X10510658Y-17114174D02*
X10529705Y-17104650D01*
X10529705Y-17104650D02*
X10558277Y-17104650D01*
X10558277Y-17104650D02*
X10577325Y-17114174D01*
X10577325Y-17114174D02*
X10586848Y-17133222D01*
X10586848Y-17133222D02*
X10586848Y-17237984D01*
X10682086Y-17237984D02*
X10682086Y-17104650D01*
X10682086Y-17123698D02*
X10691610Y-17114174D01*
X10691610Y-17114174D02*
X10710658Y-17104650D01*
X10710658Y-17104650D02*
X10739229Y-17104650D01*
X10739229Y-17104650D02*
X10758277Y-17114174D01*
X10758277Y-17114174D02*
X10767801Y-17133222D01*
X10767801Y-17133222D02*
X10767801Y-17237984D01*
X10767801Y-17133222D02*
X10777325Y-17114174D01*
X10777325Y-17114174D02*
X10796372Y-17104650D01*
X10796372Y-17104650D02*
X10824944Y-17104650D01*
X10824944Y-17104650D02*
X10843991Y-17114174D01*
X10843991Y-17114174D02*
X10853515Y-17133222D01*
X10853515Y-17133222D02*
X10853515Y-17237984D01*
X11243991Y-17028460D02*
X11072563Y-17285603D01*
X11501134Y-17037984D02*
X11520182Y-17037984D01*
X11520182Y-17037984D02*
X11539229Y-17047508D01*
X11539229Y-17047508D02*
X11548753Y-17057031D01*
X11548753Y-17057031D02*
X11558277Y-17076079D01*
X11558277Y-17076079D02*
X11567801Y-17114174D01*
X11567801Y-17114174D02*
X11567801Y-17161793D01*
X11567801Y-17161793D02*
X11558277Y-17199889D01*
X11558277Y-17199889D02*
X11548753Y-17218936D01*
X11548753Y-17218936D02*
X11539229Y-17228460D01*
X11539229Y-17228460D02*
X11520182Y-17237984D01*
X11520182Y-17237984D02*
X11501134Y-17237984D01*
X11501134Y-17237984D02*
X11482086Y-17228460D01*
X11482086Y-17228460D02*
X11472563Y-17218936D01*
X11472563Y-17218936D02*
X11463039Y-17199889D01*
X11463039Y-17199889D02*
X11453515Y-17161793D01*
X11453515Y-17161793D02*
X11453515Y-17114174D01*
X11453515Y-17114174D02*
X11463039Y-17076079D01*
X11463039Y-17076079D02*
X11472563Y-17057031D01*
X11472563Y-17057031D02*
X11482086Y-17047508D01*
X11482086Y-17047508D02*
X11501134Y-17037984D01*
X11653515Y-17218936D02*
X11663039Y-17228460D01*
X11663039Y-17228460D02*
X11653515Y-17237984D01*
X11653515Y-17237984D02*
X11643991Y-17228460D01*
X11643991Y-17228460D02*
X11653515Y-17218936D01*
X11653515Y-17218936D02*
X11653515Y-17237984D01*
X11786848Y-17037984D02*
X11805896Y-17037984D01*
X11805896Y-17037984D02*
X11824944Y-17047508D01*
X11824944Y-17047508D02*
X11834467Y-17057031D01*
X11834467Y-17057031D02*
X11843991Y-17076079D01*
X11843991Y-17076079D02*
X11853515Y-17114174D01*
X11853515Y-17114174D02*
X11853515Y-17161793D01*
X11853515Y-17161793D02*
X11843991Y-17199889D01*
X11843991Y-17199889D02*
X11834467Y-17218936D01*
X11834467Y-17218936D02*
X11824944Y-17228460D01*
X11824944Y-17228460D02*
X11805896Y-17237984D01*
X11805896Y-17237984D02*
X11786848Y-17237984D01*
X11786848Y-17237984D02*
X11767801Y-17228460D01*
X11767801Y-17228460D02*
X11758277Y-17218936D01*
X11758277Y-17218936D02*
X11748753Y-17199889D01*
X11748753Y-17199889D02*
X11739229Y-17161793D01*
X11739229Y-17161793D02*
X11739229Y-17114174D01*
X11739229Y-17114174D02*
X11748753Y-17076079D01*
X11748753Y-17076079D02*
X11758277Y-17057031D01*
X11758277Y-17057031D02*
X11767801Y-17047508D01*
X11767801Y-17047508D02*
X11786848Y-17037984D01*
X11920182Y-17037984D02*
X12043991Y-17037984D01*
X12043991Y-17037984D02*
X11977325Y-17114174D01*
X11977325Y-17114174D02*
X12005896Y-17114174D01*
X12005896Y-17114174D02*
X12024944Y-17123698D01*
X12024944Y-17123698D02*
X12034467Y-17133222D01*
X12034467Y-17133222D02*
X12043991Y-17152270D01*
X12043991Y-17152270D02*
X12043991Y-17199889D01*
X12043991Y-17199889D02*
X12034467Y-17218936D01*
X12034467Y-17218936D02*
X12024944Y-17228460D01*
X12024944Y-17228460D02*
X12005896Y-17237984D01*
X12005896Y-17237984D02*
X11948753Y-17237984D01*
X11948753Y-17237984D02*
X11929706Y-17228460D01*
X11929706Y-17228460D02*
X11920182Y-17218936D01*
X12234467Y-17237984D02*
X12120182Y-17237984D01*
X12177325Y-17237984D02*
X12177325Y-17037984D01*
X12177325Y-17037984D02*
X12158277Y-17066555D01*
X12158277Y-17066555D02*
X12139229Y-17085603D01*
X12139229Y-17085603D02*
X12120182Y-17095127D01*
X12415420Y-17037984D02*
X12320182Y-17037984D01*
X12320182Y-17037984D02*
X12310658Y-17133222D01*
X12310658Y-17133222D02*
X12320182Y-17123698D01*
X12320182Y-17123698D02*
X12339229Y-17114174D01*
X12339229Y-17114174D02*
X12386848Y-17114174D01*
X12386848Y-17114174D02*
X12405896Y-17123698D01*
X12405896Y-17123698D02*
X12415420Y-17133222D01*
X12415420Y-17133222D02*
X12424944Y-17152270D01*
X12424944Y-17152270D02*
X12424944Y-17199889D01*
X12424944Y-17199889D02*
X12415420Y-17218936D01*
X12415420Y-17218936D02*
X12405896Y-17228460D01*
X12405896Y-17228460D02*
X12386848Y-17237984D01*
X12386848Y-17237984D02*
X12339229Y-17237984D01*
X12339229Y-17237984D02*
X12320182Y-17228460D01*
X12320182Y-17228460D02*
X12310658Y-17218936D01*
X12501134Y-17037984D02*
X12501134Y-17076079D01*
X12577325Y-17037984D02*
X12577325Y-17076079D01*
X12872563Y-17314174D02*
X12863039Y-17304650D01*
X12863039Y-17304650D02*
X12843991Y-17276079D01*
X12843991Y-17276079D02*
X12834468Y-17257031D01*
X12834468Y-17257031D02*
X12824944Y-17228460D01*
X12824944Y-17228460D02*
X12815420Y-17180841D01*
X12815420Y-17180841D02*
X12815420Y-17142746D01*
X12815420Y-17142746D02*
X12824944Y-17095127D01*
X12824944Y-17095127D02*
X12834468Y-17066555D01*
X12834468Y-17066555D02*
X12843991Y-17047508D01*
X12843991Y-17047508D02*
X12863039Y-17018936D01*
X12863039Y-17018936D02*
X12872563Y-17009412D01*
X13034468Y-17037984D02*
X12996372Y-17037984D01*
X12996372Y-17037984D02*
X12977325Y-17047508D01*
X12977325Y-17047508D02*
X12967801Y-17057031D01*
X12967801Y-17057031D02*
X12948753Y-17085603D01*
X12948753Y-17085603D02*
X12939229Y-17123698D01*
X12939229Y-17123698D02*
X12939229Y-17199889D01*
X12939229Y-17199889D02*
X12948753Y-17218936D01*
X12948753Y-17218936D02*
X12958277Y-17228460D01*
X12958277Y-17228460D02*
X12977325Y-17237984D01*
X12977325Y-17237984D02*
X13015420Y-17237984D01*
X13015420Y-17237984D02*
X13034468Y-17228460D01*
X13034468Y-17228460D02*
X13043991Y-17218936D01*
X13043991Y-17218936D02*
X13053515Y-17199889D01*
X13053515Y-17199889D02*
X13053515Y-17152270D01*
X13053515Y-17152270D02*
X13043991Y-17133222D01*
X13043991Y-17133222D02*
X13034468Y-17123698D01*
X13034468Y-17123698D02*
X13015420Y-17114174D01*
X13015420Y-17114174D02*
X12977325Y-17114174D01*
X12977325Y-17114174D02*
X12958277Y-17123698D01*
X12958277Y-17123698D02*
X12948753Y-17133222D01*
X12948753Y-17133222D02*
X12939229Y-17152270D01*
X13224944Y-17037984D02*
X13186848Y-17037984D01*
X13186848Y-17037984D02*
X13167801Y-17047508D01*
X13167801Y-17047508D02*
X13158277Y-17057031D01*
X13158277Y-17057031D02*
X13139229Y-17085603D01*
X13139229Y-17085603D02*
X13129706Y-17123698D01*
X13129706Y-17123698D02*
X13129706Y-17199889D01*
X13129706Y-17199889D02*
X13139229Y-17218936D01*
X13139229Y-17218936D02*
X13148753Y-17228460D01*
X13148753Y-17228460D02*
X13167801Y-17237984D01*
X13167801Y-17237984D02*
X13205896Y-17237984D01*
X13205896Y-17237984D02*
X13224944Y-17228460D01*
X13224944Y-17228460D02*
X13234468Y-17218936D01*
X13234468Y-17218936D02*
X13243991Y-17199889D01*
X13243991Y-17199889D02*
X13243991Y-17152270D01*
X13243991Y-17152270D02*
X13234468Y-17133222D01*
X13234468Y-17133222D02*
X13224944Y-17123698D01*
X13224944Y-17123698D02*
X13205896Y-17114174D01*
X13205896Y-17114174D02*
X13167801Y-17114174D01*
X13167801Y-17114174D02*
X13148753Y-17123698D01*
X13148753Y-17123698D02*
X13139229Y-17133222D01*
X13139229Y-17133222D02*
X13129706Y-17152270D01*
X13482087Y-17237984D02*
X13482087Y-17037984D01*
X13567801Y-17237984D02*
X13567801Y-17133222D01*
X13567801Y-17133222D02*
X13558277Y-17114174D01*
X13558277Y-17114174D02*
X13539230Y-17104650D01*
X13539230Y-17104650D02*
X13510658Y-17104650D01*
X13510658Y-17104650D02*
X13491610Y-17114174D01*
X13491610Y-17114174D02*
X13482087Y-17123698D01*
X13691610Y-17237984D02*
X13672563Y-17228460D01*
X13672563Y-17228460D02*
X13663039Y-17218936D01*
X13663039Y-17218936D02*
X13653515Y-17199889D01*
X13653515Y-17199889D02*
X13653515Y-17142746D01*
X13653515Y-17142746D02*
X13663039Y-17123698D01*
X13663039Y-17123698D02*
X13672563Y-17114174D01*
X13672563Y-17114174D02*
X13691610Y-17104650D01*
X13691610Y-17104650D02*
X13720182Y-17104650D01*
X13720182Y-17104650D02*
X13739230Y-17114174D01*
X13739230Y-17114174D02*
X13748753Y-17123698D01*
X13748753Y-17123698D02*
X13758277Y-17142746D01*
X13758277Y-17142746D02*
X13758277Y-17199889D01*
X13758277Y-17199889D02*
X13748753Y-17218936D01*
X13748753Y-17218936D02*
X13739230Y-17228460D01*
X13739230Y-17228460D02*
X13720182Y-17237984D01*
X13720182Y-17237984D02*
X13691610Y-17237984D01*
X13872563Y-17237984D02*
X13853515Y-17228460D01*
X13853515Y-17228460D02*
X13843991Y-17209412D01*
X13843991Y-17209412D02*
X13843991Y-17037984D01*
X14024944Y-17228460D02*
X14005896Y-17237984D01*
X14005896Y-17237984D02*
X13967801Y-17237984D01*
X13967801Y-17237984D02*
X13948753Y-17228460D01*
X13948753Y-17228460D02*
X13939230Y-17209412D01*
X13939230Y-17209412D02*
X13939230Y-17133222D01*
X13939230Y-17133222D02*
X13948753Y-17114174D01*
X13948753Y-17114174D02*
X13967801Y-17104650D01*
X13967801Y-17104650D02*
X14005896Y-17104650D01*
X14005896Y-17104650D02*
X14024944Y-17114174D01*
X14024944Y-17114174D02*
X14034468Y-17133222D01*
X14034468Y-17133222D02*
X14034468Y-17152270D01*
X14034468Y-17152270D02*
X13939230Y-17171317D01*
X14110658Y-17228460D02*
X14129706Y-17237984D01*
X14129706Y-17237984D02*
X14167801Y-17237984D01*
X14167801Y-17237984D02*
X14186849Y-17228460D01*
X14186849Y-17228460D02*
X14196372Y-17209412D01*
X14196372Y-17209412D02*
X14196372Y-17199889D01*
X14196372Y-17199889D02*
X14186849Y-17180841D01*
X14186849Y-17180841D02*
X14167801Y-17171317D01*
X14167801Y-17171317D02*
X14139230Y-17171317D01*
X14139230Y-17171317D02*
X14120182Y-17161793D01*
X14120182Y-17161793D02*
X14110658Y-17142746D01*
X14110658Y-17142746D02*
X14110658Y-17133222D01*
X14110658Y-17133222D02*
X14120182Y-17114174D01*
X14120182Y-17114174D02*
X14139230Y-17104650D01*
X14139230Y-17104650D02*
X14167801Y-17104650D01*
X14167801Y-17104650D02*
X14186849Y-17114174D01*
X14263039Y-17314174D02*
X14272563Y-17304650D01*
X14272563Y-17304650D02*
X14291611Y-17276079D01*
X14291611Y-17276079D02*
X14301134Y-17257031D01*
X14301134Y-17257031D02*
X14310658Y-17228460D01*
X14310658Y-17228460D02*
X14320182Y-17180841D01*
X14320182Y-17180841D02*
X14320182Y-17142746D01*
X14320182Y-17142746D02*
X14310658Y-17095127D01*
X14310658Y-17095127D02*
X14301134Y-17066555D01*
X14301134Y-17066555D02*
X14291611Y-17047508D01*
X14291611Y-17047508D02*
X14272563Y-17018936D01*
X14272563Y-17018936D02*
X14263039Y-17009412D01*
D12*
X9247500Y-17360500D02*
X9247500Y-17460500D01*
X9197500Y-17410500D02*
X9297500Y-17410500D01*
D11*
X9663039Y-17501984D02*
X9548753Y-17501984D01*
X9605896Y-17501984D02*
X9605896Y-17301984D01*
X9605896Y-17301984D02*
X9586848Y-17330555D01*
X9586848Y-17330555D02*
X9567801Y-17349603D01*
X9567801Y-17349603D02*
X9548753Y-17359127D01*
X9748753Y-17482936D02*
X9758277Y-17492460D01*
X9758277Y-17492460D02*
X9748753Y-17501984D01*
X9748753Y-17501984D02*
X9739229Y-17492460D01*
X9739229Y-17492460D02*
X9748753Y-17482936D01*
X9748753Y-17482936D02*
X9748753Y-17501984D01*
X9882086Y-17301984D02*
X9901134Y-17301984D01*
X9901134Y-17301984D02*
X9920182Y-17311508D01*
X9920182Y-17311508D02*
X9929705Y-17321031D01*
X9929705Y-17321031D02*
X9939229Y-17340079D01*
X9939229Y-17340079D02*
X9948753Y-17378174D01*
X9948753Y-17378174D02*
X9948753Y-17425793D01*
X9948753Y-17425793D02*
X9939229Y-17463889D01*
X9939229Y-17463889D02*
X9929705Y-17482936D01*
X9929705Y-17482936D02*
X9920182Y-17492460D01*
X9920182Y-17492460D02*
X9901134Y-17501984D01*
X9901134Y-17501984D02*
X9882086Y-17501984D01*
X9882086Y-17501984D02*
X9863039Y-17492460D01*
X9863039Y-17492460D02*
X9853515Y-17482936D01*
X9853515Y-17482936D02*
X9843991Y-17463889D01*
X9843991Y-17463889D02*
X9834467Y-17425793D01*
X9834467Y-17425793D02*
X9834467Y-17378174D01*
X9834467Y-17378174D02*
X9843991Y-17340079D01*
X9843991Y-17340079D02*
X9853515Y-17321031D01*
X9853515Y-17321031D02*
X9863039Y-17311508D01*
X9863039Y-17311508D02*
X9882086Y-17301984D01*
X10072563Y-17301984D02*
X10091610Y-17301984D01*
X10091610Y-17301984D02*
X10110658Y-17311508D01*
X10110658Y-17311508D02*
X10120182Y-17321031D01*
X10120182Y-17321031D02*
X10129705Y-17340079D01*
X10129705Y-17340079D02*
X10139229Y-17378174D01*
X10139229Y-17378174D02*
X10139229Y-17425793D01*
X10139229Y-17425793D02*
X10129705Y-17463889D01*
X10129705Y-17463889D02*
X10120182Y-17482936D01*
X10120182Y-17482936D02*
X10110658Y-17492460D01*
X10110658Y-17492460D02*
X10091610Y-17501984D01*
X10091610Y-17501984D02*
X10072563Y-17501984D01*
X10072563Y-17501984D02*
X10053515Y-17492460D01*
X10053515Y-17492460D02*
X10043991Y-17482936D01*
X10043991Y-17482936D02*
X10034467Y-17463889D01*
X10034467Y-17463889D02*
X10024944Y-17425793D01*
X10024944Y-17425793D02*
X10024944Y-17378174D01*
X10024944Y-17378174D02*
X10034467Y-17340079D01*
X10034467Y-17340079D02*
X10043991Y-17321031D01*
X10043991Y-17321031D02*
X10053515Y-17311508D01*
X10053515Y-17311508D02*
X10072563Y-17301984D01*
X10263039Y-17301984D02*
X10282086Y-17301984D01*
X10282086Y-17301984D02*
X10301134Y-17311508D01*
X10301134Y-17311508D02*
X10310658Y-17321031D01*
X10310658Y-17321031D02*
X10320182Y-17340079D01*
X10320182Y-17340079D02*
X10329705Y-17378174D01*
X10329705Y-17378174D02*
X10329705Y-17425793D01*
X10329705Y-17425793D02*
X10320182Y-17463889D01*
X10320182Y-17463889D02*
X10310658Y-17482936D01*
X10310658Y-17482936D02*
X10301134Y-17492460D01*
X10301134Y-17492460D02*
X10282086Y-17501984D01*
X10282086Y-17501984D02*
X10263039Y-17501984D01*
X10263039Y-17501984D02*
X10243991Y-17492460D01*
X10243991Y-17492460D02*
X10234467Y-17482936D01*
X10234467Y-17482936D02*
X10224944Y-17463889D01*
X10224944Y-17463889D02*
X10215420Y-17425793D01*
X10215420Y-17425793D02*
X10215420Y-17378174D01*
X10215420Y-17378174D02*
X10224944Y-17340079D01*
X10224944Y-17340079D02*
X10234467Y-17321031D01*
X10234467Y-17321031D02*
X10243991Y-17311508D01*
X10243991Y-17311508D02*
X10263039Y-17301984D01*
X10415420Y-17501984D02*
X10415420Y-17368650D01*
X10415420Y-17387698D02*
X10424944Y-17378174D01*
X10424944Y-17378174D02*
X10443991Y-17368650D01*
X10443991Y-17368650D02*
X10472563Y-17368650D01*
X10472563Y-17368650D02*
X10491610Y-17378174D01*
X10491610Y-17378174D02*
X10501134Y-17397222D01*
X10501134Y-17397222D02*
X10501134Y-17501984D01*
X10501134Y-17397222D02*
X10510658Y-17378174D01*
X10510658Y-17378174D02*
X10529705Y-17368650D01*
X10529705Y-17368650D02*
X10558277Y-17368650D01*
X10558277Y-17368650D02*
X10577325Y-17378174D01*
X10577325Y-17378174D02*
X10586848Y-17397222D01*
X10586848Y-17397222D02*
X10586848Y-17501984D01*
X10682086Y-17501984D02*
X10682086Y-17368650D01*
X10682086Y-17387698D02*
X10691610Y-17378174D01*
X10691610Y-17378174D02*
X10710658Y-17368650D01*
X10710658Y-17368650D02*
X10739229Y-17368650D01*
X10739229Y-17368650D02*
X10758277Y-17378174D01*
X10758277Y-17378174D02*
X10767801Y-17397222D01*
X10767801Y-17397222D02*
X10767801Y-17501984D01*
X10767801Y-17397222D02*
X10777325Y-17378174D01*
X10777325Y-17378174D02*
X10796372Y-17368650D01*
X10796372Y-17368650D02*
X10824944Y-17368650D01*
X10824944Y-17368650D02*
X10843991Y-17378174D01*
X10843991Y-17378174D02*
X10853515Y-17397222D01*
X10853515Y-17397222D02*
X10853515Y-17501984D01*
X11243991Y-17292460D02*
X11072563Y-17549603D01*
X11501134Y-17301984D02*
X11520182Y-17301984D01*
X11520182Y-17301984D02*
X11539229Y-17311508D01*
X11539229Y-17311508D02*
X11548753Y-17321031D01*
X11548753Y-17321031D02*
X11558277Y-17340079D01*
X11558277Y-17340079D02*
X11567801Y-17378174D01*
X11567801Y-17378174D02*
X11567801Y-17425793D01*
X11567801Y-17425793D02*
X11558277Y-17463889D01*
X11558277Y-17463889D02*
X11548753Y-17482936D01*
X11548753Y-17482936D02*
X11539229Y-17492460D01*
X11539229Y-17492460D02*
X11520182Y-17501984D01*
X11520182Y-17501984D02*
X11501134Y-17501984D01*
X11501134Y-17501984D02*
X11482086Y-17492460D01*
X11482086Y-17492460D02*
X11472563Y-17482936D01*
X11472563Y-17482936D02*
X11463039Y-17463889D01*
X11463039Y-17463889D02*
X11453515Y-17425793D01*
X11453515Y-17425793D02*
X11453515Y-17378174D01*
X11453515Y-17378174D02*
X11463039Y-17340079D01*
X11463039Y-17340079D02*
X11472563Y-17321031D01*
X11472563Y-17321031D02*
X11482086Y-17311508D01*
X11482086Y-17311508D02*
X11501134Y-17301984D01*
X11653515Y-17482936D02*
X11663039Y-17492460D01*
X11663039Y-17492460D02*
X11653515Y-17501984D01*
X11653515Y-17501984D02*
X11643991Y-17492460D01*
X11643991Y-17492460D02*
X11653515Y-17482936D01*
X11653515Y-17482936D02*
X11653515Y-17501984D01*
X11786848Y-17301984D02*
X11805896Y-17301984D01*
X11805896Y-17301984D02*
X11824944Y-17311508D01*
X11824944Y-17311508D02*
X11834467Y-17321031D01*
X11834467Y-17321031D02*
X11843991Y-17340079D01*
X11843991Y-17340079D02*
X11853515Y-17378174D01*
X11853515Y-17378174D02*
X11853515Y-17425793D01*
X11853515Y-17425793D02*
X11843991Y-17463889D01*
X11843991Y-17463889D02*
X11834467Y-17482936D01*
X11834467Y-17482936D02*
X11824944Y-17492460D01*
X11824944Y-17492460D02*
X11805896Y-17501984D01*
X11805896Y-17501984D02*
X11786848Y-17501984D01*
X11786848Y-17501984D02*
X11767801Y-17492460D01*
X11767801Y-17492460D02*
X11758277Y-17482936D01*
X11758277Y-17482936D02*
X11748753Y-17463889D01*
X11748753Y-17463889D02*
X11739229Y-17425793D01*
X11739229Y-17425793D02*
X11739229Y-17378174D01*
X11739229Y-17378174D02*
X11748753Y-17340079D01*
X11748753Y-17340079D02*
X11758277Y-17321031D01*
X11758277Y-17321031D02*
X11767801Y-17311508D01*
X11767801Y-17311508D02*
X11786848Y-17301984D01*
X11920182Y-17301984D02*
X12043991Y-17301984D01*
X12043991Y-17301984D02*
X11977325Y-17378174D01*
X11977325Y-17378174D02*
X12005896Y-17378174D01*
X12005896Y-17378174D02*
X12024944Y-17387698D01*
X12024944Y-17387698D02*
X12034467Y-17397222D01*
X12034467Y-17397222D02*
X12043991Y-17416270D01*
X12043991Y-17416270D02*
X12043991Y-17463889D01*
X12043991Y-17463889D02*
X12034467Y-17482936D01*
X12034467Y-17482936D02*
X12024944Y-17492460D01*
X12024944Y-17492460D02*
X12005896Y-17501984D01*
X12005896Y-17501984D02*
X11948753Y-17501984D01*
X11948753Y-17501984D02*
X11929706Y-17492460D01*
X11929706Y-17492460D02*
X11920182Y-17482936D01*
X12139229Y-17501984D02*
X12177325Y-17501984D01*
X12177325Y-17501984D02*
X12196372Y-17492460D01*
X12196372Y-17492460D02*
X12205896Y-17482936D01*
X12205896Y-17482936D02*
X12224944Y-17454365D01*
X12224944Y-17454365D02*
X12234467Y-17416270D01*
X12234467Y-17416270D02*
X12234467Y-17340079D01*
X12234467Y-17340079D02*
X12224944Y-17321031D01*
X12224944Y-17321031D02*
X12215420Y-17311508D01*
X12215420Y-17311508D02*
X12196372Y-17301984D01*
X12196372Y-17301984D02*
X12158277Y-17301984D01*
X12158277Y-17301984D02*
X12139229Y-17311508D01*
X12139229Y-17311508D02*
X12129706Y-17321031D01*
X12129706Y-17321031D02*
X12120182Y-17340079D01*
X12120182Y-17340079D02*
X12120182Y-17387698D01*
X12120182Y-17387698D02*
X12129706Y-17406746D01*
X12129706Y-17406746D02*
X12139229Y-17416270D01*
X12139229Y-17416270D02*
X12158277Y-17425793D01*
X12158277Y-17425793D02*
X12196372Y-17425793D01*
X12196372Y-17425793D02*
X12215420Y-17416270D01*
X12215420Y-17416270D02*
X12224944Y-17406746D01*
X12224944Y-17406746D02*
X12234467Y-17387698D01*
X12405896Y-17368650D02*
X12405896Y-17501984D01*
X12358277Y-17292460D02*
X12310658Y-17435317D01*
X12310658Y-17435317D02*
X12434467Y-17435317D01*
X12501134Y-17301984D02*
X12501134Y-17340079D01*
X12577325Y-17301984D02*
X12577325Y-17340079D01*
X12872563Y-17578174D02*
X12863039Y-17568650D01*
X12863039Y-17568650D02*
X12843991Y-17540079D01*
X12843991Y-17540079D02*
X12834468Y-17521031D01*
X12834468Y-17521031D02*
X12824944Y-17492460D01*
X12824944Y-17492460D02*
X12815420Y-17444841D01*
X12815420Y-17444841D02*
X12815420Y-17406746D01*
X12815420Y-17406746D02*
X12824944Y-17359127D01*
X12824944Y-17359127D02*
X12834468Y-17330555D01*
X12834468Y-17330555D02*
X12843991Y-17311508D01*
X12843991Y-17311508D02*
X12863039Y-17282936D01*
X12863039Y-17282936D02*
X12872563Y-17273412D01*
X12929706Y-17301984D02*
X13053515Y-17301984D01*
X13053515Y-17301984D02*
X12986848Y-17378174D01*
X12986848Y-17378174D02*
X13015420Y-17378174D01*
X13015420Y-17378174D02*
X13034468Y-17387698D01*
X13034468Y-17387698D02*
X13043991Y-17397222D01*
X13043991Y-17397222D02*
X13053515Y-17416270D01*
X13053515Y-17416270D02*
X13053515Y-17463889D01*
X13053515Y-17463889D02*
X13043991Y-17482936D01*
X13043991Y-17482936D02*
X13034468Y-17492460D01*
X13034468Y-17492460D02*
X13015420Y-17501984D01*
X13015420Y-17501984D02*
X12958277Y-17501984D01*
X12958277Y-17501984D02*
X12939229Y-17492460D01*
X12939229Y-17492460D02*
X12929706Y-17482936D01*
X13177325Y-17301984D02*
X13196372Y-17301984D01*
X13196372Y-17301984D02*
X13215420Y-17311508D01*
X13215420Y-17311508D02*
X13224944Y-17321031D01*
X13224944Y-17321031D02*
X13234468Y-17340079D01*
X13234468Y-17340079D02*
X13243991Y-17378174D01*
X13243991Y-17378174D02*
X13243991Y-17425793D01*
X13243991Y-17425793D02*
X13234468Y-17463889D01*
X13234468Y-17463889D02*
X13224944Y-17482936D01*
X13224944Y-17482936D02*
X13215420Y-17492460D01*
X13215420Y-17492460D02*
X13196372Y-17501984D01*
X13196372Y-17501984D02*
X13177325Y-17501984D01*
X13177325Y-17501984D02*
X13158277Y-17492460D01*
X13158277Y-17492460D02*
X13148753Y-17482936D01*
X13148753Y-17482936D02*
X13139229Y-17463889D01*
X13139229Y-17463889D02*
X13129706Y-17425793D01*
X13129706Y-17425793D02*
X13129706Y-17378174D01*
X13129706Y-17378174D02*
X13139229Y-17340079D01*
X13139229Y-17340079D02*
X13148753Y-17321031D01*
X13148753Y-17321031D02*
X13158277Y-17311508D01*
X13158277Y-17311508D02*
X13177325Y-17301984D01*
X13482087Y-17501984D02*
X13482087Y-17301984D01*
X13567801Y-17501984D02*
X13567801Y-17397222D01*
X13567801Y-17397222D02*
X13558277Y-17378174D01*
X13558277Y-17378174D02*
X13539230Y-17368650D01*
X13539230Y-17368650D02*
X13510658Y-17368650D01*
X13510658Y-17368650D02*
X13491610Y-17378174D01*
X13491610Y-17378174D02*
X13482087Y-17387698D01*
X13691610Y-17501984D02*
X13672563Y-17492460D01*
X13672563Y-17492460D02*
X13663039Y-17482936D01*
X13663039Y-17482936D02*
X13653515Y-17463889D01*
X13653515Y-17463889D02*
X13653515Y-17406746D01*
X13653515Y-17406746D02*
X13663039Y-17387698D01*
X13663039Y-17387698D02*
X13672563Y-17378174D01*
X13672563Y-17378174D02*
X13691610Y-17368650D01*
X13691610Y-17368650D02*
X13720182Y-17368650D01*
X13720182Y-17368650D02*
X13739230Y-17378174D01*
X13739230Y-17378174D02*
X13748753Y-17387698D01*
X13748753Y-17387698D02*
X13758277Y-17406746D01*
X13758277Y-17406746D02*
X13758277Y-17463889D01*
X13758277Y-17463889D02*
X13748753Y-17482936D01*
X13748753Y-17482936D02*
X13739230Y-17492460D01*
X13739230Y-17492460D02*
X13720182Y-17501984D01*
X13720182Y-17501984D02*
X13691610Y-17501984D01*
X13872563Y-17501984D02*
X13853515Y-17492460D01*
X13853515Y-17492460D02*
X13843991Y-17473412D01*
X13843991Y-17473412D02*
X13843991Y-17301984D01*
X14024944Y-17492460D02*
X14005896Y-17501984D01*
X14005896Y-17501984D02*
X13967801Y-17501984D01*
X13967801Y-17501984D02*
X13948753Y-17492460D01*
X13948753Y-17492460D02*
X13939230Y-17473412D01*
X13939230Y-17473412D02*
X13939230Y-17397222D01*
X13939230Y-17397222D02*
X13948753Y-17378174D01*
X13948753Y-17378174D02*
X13967801Y-17368650D01*
X13967801Y-17368650D02*
X14005896Y-17368650D01*
X14005896Y-17368650D02*
X14024944Y-17378174D01*
X14024944Y-17378174D02*
X14034468Y-17397222D01*
X14034468Y-17397222D02*
X14034468Y-17416270D01*
X14034468Y-17416270D02*
X13939230Y-17435317D01*
X14110658Y-17492460D02*
X14129706Y-17501984D01*
X14129706Y-17501984D02*
X14167801Y-17501984D01*
X14167801Y-17501984D02*
X14186849Y-17492460D01*
X14186849Y-17492460D02*
X14196372Y-17473412D01*
X14196372Y-17473412D02*
X14196372Y-17463889D01*
X14196372Y-17463889D02*
X14186849Y-17444841D01*
X14186849Y-17444841D02*
X14167801Y-17435317D01*
X14167801Y-17435317D02*
X14139230Y-17435317D01*
X14139230Y-17435317D02*
X14120182Y-17425793D01*
X14120182Y-17425793D02*
X14110658Y-17406746D01*
X14110658Y-17406746D02*
X14110658Y-17397222D01*
X14110658Y-17397222D02*
X14120182Y-17378174D01*
X14120182Y-17378174D02*
X14139230Y-17368650D01*
X14139230Y-17368650D02*
X14167801Y-17368650D01*
X14167801Y-17368650D02*
X14186849Y-17378174D01*
X14434468Y-17425793D02*
X14586849Y-17425793D01*
X14510658Y-17501984D02*
X14510658Y-17349603D01*
X14815420Y-17301984D02*
X14939230Y-17301984D01*
X14939230Y-17301984D02*
X14872563Y-17378174D01*
X14872563Y-17378174D02*
X14901134Y-17378174D01*
X14901134Y-17378174D02*
X14920182Y-17387698D01*
X14920182Y-17387698D02*
X14929706Y-17397222D01*
X14929706Y-17397222D02*
X14939230Y-17416270D01*
X14939230Y-17416270D02*
X14939230Y-17463889D01*
X14939230Y-17463889D02*
X14929706Y-17482936D01*
X14929706Y-17482936D02*
X14920182Y-17492460D01*
X14920182Y-17492460D02*
X14901134Y-17501984D01*
X14901134Y-17501984D02*
X14843992Y-17501984D01*
X14843992Y-17501984D02*
X14824944Y-17492460D01*
X14824944Y-17492460D02*
X14815420Y-17482936D01*
X15167801Y-17492460D02*
X15186849Y-17501984D01*
X15186849Y-17501984D02*
X15224944Y-17501984D01*
X15224944Y-17501984D02*
X15243992Y-17492460D01*
X15243992Y-17492460D02*
X15253515Y-17473412D01*
X15253515Y-17473412D02*
X15253515Y-17463889D01*
X15253515Y-17463889D02*
X15243992Y-17444841D01*
X15243992Y-17444841D02*
X15224944Y-17435317D01*
X15224944Y-17435317D02*
X15196373Y-17435317D01*
X15196373Y-17435317D02*
X15177325Y-17425793D01*
X15177325Y-17425793D02*
X15167801Y-17406746D01*
X15167801Y-17406746D02*
X15167801Y-17397222D01*
X15167801Y-17397222D02*
X15177325Y-17378174D01*
X15177325Y-17378174D02*
X15196373Y-17368650D01*
X15196373Y-17368650D02*
X15224944Y-17368650D01*
X15224944Y-17368650D02*
X15243992Y-17378174D01*
X15367801Y-17501984D02*
X15348754Y-17492460D01*
X15348754Y-17492460D02*
X15339230Y-17473412D01*
X15339230Y-17473412D02*
X15339230Y-17301984D01*
X15472563Y-17501984D02*
X15453515Y-17492460D01*
X15453515Y-17492460D02*
X15443992Y-17482936D01*
X15443992Y-17482936D02*
X15434468Y-17463889D01*
X15434468Y-17463889D02*
X15434468Y-17406746D01*
X15434468Y-17406746D02*
X15443992Y-17387698D01*
X15443992Y-17387698D02*
X15453515Y-17378174D01*
X15453515Y-17378174D02*
X15472563Y-17368650D01*
X15472563Y-17368650D02*
X15501135Y-17368650D01*
X15501135Y-17368650D02*
X15520182Y-17378174D01*
X15520182Y-17378174D02*
X15529706Y-17387698D01*
X15529706Y-17387698D02*
X15539230Y-17406746D01*
X15539230Y-17406746D02*
X15539230Y-17463889D01*
X15539230Y-17463889D02*
X15529706Y-17482936D01*
X15529706Y-17482936D02*
X15520182Y-17492460D01*
X15520182Y-17492460D02*
X15501135Y-17501984D01*
X15501135Y-17501984D02*
X15472563Y-17501984D01*
X15596373Y-17368650D02*
X15672563Y-17368650D01*
X15624944Y-17301984D02*
X15624944Y-17473412D01*
X15624944Y-17473412D02*
X15634468Y-17492460D01*
X15634468Y-17492460D02*
X15653515Y-17501984D01*
X15653515Y-17501984D02*
X15672563Y-17501984D01*
X15729706Y-17492460D02*
X15748754Y-17501984D01*
X15748754Y-17501984D02*
X15786849Y-17501984D01*
X15786849Y-17501984D02*
X15805896Y-17492460D01*
X15805896Y-17492460D02*
X15815420Y-17473412D01*
X15815420Y-17473412D02*
X15815420Y-17463889D01*
X15815420Y-17463889D02*
X15805896Y-17444841D01*
X15805896Y-17444841D02*
X15786849Y-17435317D01*
X15786849Y-17435317D02*
X15758277Y-17435317D01*
X15758277Y-17435317D02*
X15739230Y-17425793D01*
X15739230Y-17425793D02*
X15729706Y-17406746D01*
X15729706Y-17406746D02*
X15729706Y-17397222D01*
X15729706Y-17397222D02*
X15739230Y-17378174D01*
X15739230Y-17378174D02*
X15758277Y-17368650D01*
X15758277Y-17368650D02*
X15786849Y-17368650D01*
X15786849Y-17368650D02*
X15805896Y-17378174D01*
X15882087Y-17578174D02*
X15891611Y-17568650D01*
X15891611Y-17568650D02*
X15910658Y-17540079D01*
X15910658Y-17540079D02*
X15920182Y-17521031D01*
X15920182Y-17521031D02*
X15929706Y-17492460D01*
X15929706Y-17492460D02*
X15939230Y-17444841D01*
X15939230Y-17444841D02*
X15939230Y-17406746D01*
X15939230Y-17406746D02*
X15929706Y-17359127D01*
X15929706Y-17359127D02*
X15920182Y-17330555D01*
X15920182Y-17330555D02*
X15910658Y-17311508D01*
X15910658Y-17311508D02*
X15891611Y-17282936D01*
X15891611Y-17282936D02*
X15882087Y-17273412D01*
D13*
X9282270Y-17711270D02*
X9282270Y-17637730D01*
X9208730Y-17637730D01*
X9208730Y-17711270D01*
X9282270Y-17711270D01*
D11*
X9663039Y-17765984D02*
X9548753Y-17765984D01*
X9605896Y-17765984D02*
X9605896Y-17565984D01*
X9605896Y-17565984D02*
X9586848Y-17594555D01*
X9586848Y-17594555D02*
X9567801Y-17613603D01*
X9567801Y-17613603D02*
X9548753Y-17623127D01*
X9748753Y-17746936D02*
X9758277Y-17756460D01*
X9758277Y-17756460D02*
X9748753Y-17765984D01*
X9748753Y-17765984D02*
X9739229Y-17756460D01*
X9739229Y-17756460D02*
X9748753Y-17746936D01*
X9748753Y-17746936D02*
X9748753Y-17765984D01*
X9882086Y-17565984D02*
X9901134Y-17565984D01*
X9901134Y-17565984D02*
X9920182Y-17575508D01*
X9920182Y-17575508D02*
X9929705Y-17585031D01*
X9929705Y-17585031D02*
X9939229Y-17604079D01*
X9939229Y-17604079D02*
X9948753Y-17642174D01*
X9948753Y-17642174D02*
X9948753Y-17689793D01*
X9948753Y-17689793D02*
X9939229Y-17727889D01*
X9939229Y-17727889D02*
X9929705Y-17746936D01*
X9929705Y-17746936D02*
X9920182Y-17756460D01*
X9920182Y-17756460D02*
X9901134Y-17765984D01*
X9901134Y-17765984D02*
X9882086Y-17765984D01*
X9882086Y-17765984D02*
X9863039Y-17756460D01*
X9863039Y-17756460D02*
X9853515Y-17746936D01*
X9853515Y-17746936D02*
X9843991Y-17727889D01*
X9843991Y-17727889D02*
X9834467Y-17689793D01*
X9834467Y-17689793D02*
X9834467Y-17642174D01*
X9834467Y-17642174D02*
X9843991Y-17604079D01*
X9843991Y-17604079D02*
X9853515Y-17585031D01*
X9853515Y-17585031D02*
X9863039Y-17575508D01*
X9863039Y-17575508D02*
X9882086Y-17565984D01*
X10120182Y-17632650D02*
X10120182Y-17765984D01*
X10072563Y-17556460D02*
X10024944Y-17699317D01*
X10024944Y-17699317D02*
X10148753Y-17699317D01*
X10263039Y-17565984D02*
X10282086Y-17565984D01*
X10282086Y-17565984D02*
X10301134Y-17575508D01*
X10301134Y-17575508D02*
X10310658Y-17585031D01*
X10310658Y-17585031D02*
X10320182Y-17604079D01*
X10320182Y-17604079D02*
X10329705Y-17642174D01*
X10329705Y-17642174D02*
X10329705Y-17689793D01*
X10329705Y-17689793D02*
X10320182Y-17727889D01*
X10320182Y-17727889D02*
X10310658Y-17746936D01*
X10310658Y-17746936D02*
X10301134Y-17756460D01*
X10301134Y-17756460D02*
X10282086Y-17765984D01*
X10282086Y-17765984D02*
X10263039Y-17765984D01*
X10263039Y-17765984D02*
X10243991Y-17756460D01*
X10243991Y-17756460D02*
X10234467Y-17746936D01*
X10234467Y-17746936D02*
X10224944Y-17727889D01*
X10224944Y-17727889D02*
X10215420Y-17689793D01*
X10215420Y-17689793D02*
X10215420Y-17642174D01*
X10215420Y-17642174D02*
X10224944Y-17604079D01*
X10224944Y-17604079D02*
X10234467Y-17585031D01*
X10234467Y-17585031D02*
X10243991Y-17575508D01*
X10243991Y-17575508D02*
X10263039Y-17565984D01*
X10415420Y-17765984D02*
X10415420Y-17632650D01*
X10415420Y-17651698D02*
X10424944Y-17642174D01*
X10424944Y-17642174D02*
X10443991Y-17632650D01*
X10443991Y-17632650D02*
X10472563Y-17632650D01*
X10472563Y-17632650D02*
X10491610Y-17642174D01*
X10491610Y-17642174D02*
X10501134Y-17661222D01*
X10501134Y-17661222D02*
X10501134Y-17765984D01*
X10501134Y-17661222D02*
X10510658Y-17642174D01*
X10510658Y-17642174D02*
X10529705Y-17632650D01*
X10529705Y-17632650D02*
X10558277Y-17632650D01*
X10558277Y-17632650D02*
X10577325Y-17642174D01*
X10577325Y-17642174D02*
X10586848Y-17661222D01*
X10586848Y-17661222D02*
X10586848Y-17765984D01*
X10682086Y-17765984D02*
X10682086Y-17632650D01*
X10682086Y-17651698D02*
X10691610Y-17642174D01*
X10691610Y-17642174D02*
X10710658Y-17632650D01*
X10710658Y-17632650D02*
X10739229Y-17632650D01*
X10739229Y-17632650D02*
X10758277Y-17642174D01*
X10758277Y-17642174D02*
X10767801Y-17661222D01*
X10767801Y-17661222D02*
X10767801Y-17765984D01*
X10767801Y-17661222D02*
X10777325Y-17642174D01*
X10777325Y-17642174D02*
X10796372Y-17632650D01*
X10796372Y-17632650D02*
X10824944Y-17632650D01*
X10824944Y-17632650D02*
X10843991Y-17642174D01*
X10843991Y-17642174D02*
X10853515Y-17661222D01*
X10853515Y-17661222D02*
X10853515Y-17765984D01*
X11243991Y-17556460D02*
X11072563Y-17813603D01*
X11501134Y-17565984D02*
X11520182Y-17565984D01*
X11520182Y-17565984D02*
X11539229Y-17575508D01*
X11539229Y-17575508D02*
X11548753Y-17585031D01*
X11548753Y-17585031D02*
X11558277Y-17604079D01*
X11558277Y-17604079D02*
X11567801Y-17642174D01*
X11567801Y-17642174D02*
X11567801Y-17689793D01*
X11567801Y-17689793D02*
X11558277Y-17727889D01*
X11558277Y-17727889D02*
X11548753Y-17746936D01*
X11548753Y-17746936D02*
X11539229Y-17756460D01*
X11539229Y-17756460D02*
X11520182Y-17765984D01*
X11520182Y-17765984D02*
X11501134Y-17765984D01*
X11501134Y-17765984D02*
X11482086Y-17756460D01*
X11482086Y-17756460D02*
X11472563Y-17746936D01*
X11472563Y-17746936D02*
X11463039Y-17727889D01*
X11463039Y-17727889D02*
X11453515Y-17689793D01*
X11453515Y-17689793D02*
X11453515Y-17642174D01*
X11453515Y-17642174D02*
X11463039Y-17604079D01*
X11463039Y-17604079D02*
X11472563Y-17585031D01*
X11472563Y-17585031D02*
X11482086Y-17575508D01*
X11482086Y-17575508D02*
X11501134Y-17565984D01*
X11653515Y-17746936D02*
X11663039Y-17756460D01*
X11663039Y-17756460D02*
X11653515Y-17765984D01*
X11653515Y-17765984D02*
X11643991Y-17756460D01*
X11643991Y-17756460D02*
X11653515Y-17746936D01*
X11653515Y-17746936D02*
X11653515Y-17765984D01*
X11786848Y-17565984D02*
X11805896Y-17565984D01*
X11805896Y-17565984D02*
X11824944Y-17575508D01*
X11824944Y-17575508D02*
X11834467Y-17585031D01*
X11834467Y-17585031D02*
X11843991Y-17604079D01*
X11843991Y-17604079D02*
X11853515Y-17642174D01*
X11853515Y-17642174D02*
X11853515Y-17689793D01*
X11853515Y-17689793D02*
X11843991Y-17727889D01*
X11843991Y-17727889D02*
X11834467Y-17746936D01*
X11834467Y-17746936D02*
X11824944Y-17756460D01*
X11824944Y-17756460D02*
X11805896Y-17765984D01*
X11805896Y-17765984D02*
X11786848Y-17765984D01*
X11786848Y-17765984D02*
X11767801Y-17756460D01*
X11767801Y-17756460D02*
X11758277Y-17746936D01*
X11758277Y-17746936D02*
X11748753Y-17727889D01*
X11748753Y-17727889D02*
X11739229Y-17689793D01*
X11739229Y-17689793D02*
X11739229Y-17642174D01*
X11739229Y-17642174D02*
X11748753Y-17604079D01*
X11748753Y-17604079D02*
X11758277Y-17585031D01*
X11758277Y-17585031D02*
X11767801Y-17575508D01*
X11767801Y-17575508D02*
X11786848Y-17565984D01*
X12024944Y-17632650D02*
X12024944Y-17765984D01*
X11977325Y-17556460D02*
X11929706Y-17699317D01*
X11929706Y-17699317D02*
X12053515Y-17699317D01*
X12167801Y-17565984D02*
X12186848Y-17565984D01*
X12186848Y-17565984D02*
X12205896Y-17575508D01*
X12205896Y-17575508D02*
X12215420Y-17585031D01*
X12215420Y-17585031D02*
X12224944Y-17604079D01*
X12224944Y-17604079D02*
X12234467Y-17642174D01*
X12234467Y-17642174D02*
X12234467Y-17689793D01*
X12234467Y-17689793D02*
X12224944Y-17727889D01*
X12224944Y-17727889D02*
X12215420Y-17746936D01*
X12215420Y-17746936D02*
X12205896Y-17756460D01*
X12205896Y-17756460D02*
X12186848Y-17765984D01*
X12186848Y-17765984D02*
X12167801Y-17765984D01*
X12167801Y-17765984D02*
X12148753Y-17756460D01*
X12148753Y-17756460D02*
X12139229Y-17746936D01*
X12139229Y-17746936D02*
X12129706Y-17727889D01*
X12129706Y-17727889D02*
X12120182Y-17689793D01*
X12120182Y-17689793D02*
X12120182Y-17642174D01*
X12120182Y-17642174D02*
X12129706Y-17604079D01*
X12129706Y-17604079D02*
X12139229Y-17585031D01*
X12139229Y-17585031D02*
X12148753Y-17575508D01*
X12148753Y-17575508D02*
X12167801Y-17565984D01*
X12329706Y-17765984D02*
X12367801Y-17765984D01*
X12367801Y-17765984D02*
X12386848Y-17756460D01*
X12386848Y-17756460D02*
X12396372Y-17746936D01*
X12396372Y-17746936D02*
X12415420Y-17718365D01*
X12415420Y-17718365D02*
X12424944Y-17680270D01*
X12424944Y-17680270D02*
X12424944Y-17604079D01*
X12424944Y-17604079D02*
X12415420Y-17585031D01*
X12415420Y-17585031D02*
X12405896Y-17575508D01*
X12405896Y-17575508D02*
X12386848Y-17565984D01*
X12386848Y-17565984D02*
X12348753Y-17565984D01*
X12348753Y-17565984D02*
X12329706Y-17575508D01*
X12329706Y-17575508D02*
X12320182Y-17585031D01*
X12320182Y-17585031D02*
X12310658Y-17604079D01*
X12310658Y-17604079D02*
X12310658Y-17651698D01*
X12310658Y-17651698D02*
X12320182Y-17670746D01*
X12320182Y-17670746D02*
X12329706Y-17680270D01*
X12329706Y-17680270D02*
X12348753Y-17689793D01*
X12348753Y-17689793D02*
X12386848Y-17689793D01*
X12386848Y-17689793D02*
X12405896Y-17680270D01*
X12405896Y-17680270D02*
X12415420Y-17670746D01*
X12415420Y-17670746D02*
X12424944Y-17651698D01*
X12501134Y-17565984D02*
X12501134Y-17604079D01*
X12577325Y-17565984D02*
X12577325Y-17604079D01*
X12872563Y-17842174D02*
X12863039Y-17832650D01*
X12863039Y-17832650D02*
X12843991Y-17804079D01*
X12843991Y-17804079D02*
X12834468Y-17785031D01*
X12834468Y-17785031D02*
X12824944Y-17756460D01*
X12824944Y-17756460D02*
X12815420Y-17708841D01*
X12815420Y-17708841D02*
X12815420Y-17670746D01*
X12815420Y-17670746D02*
X12824944Y-17623127D01*
X12824944Y-17623127D02*
X12834468Y-17594555D01*
X12834468Y-17594555D02*
X12843991Y-17575508D01*
X12843991Y-17575508D02*
X12863039Y-17546936D01*
X12863039Y-17546936D02*
X12872563Y-17537412D01*
X12929706Y-17565984D02*
X13053515Y-17565984D01*
X13053515Y-17565984D02*
X12986848Y-17642174D01*
X12986848Y-17642174D02*
X13015420Y-17642174D01*
X13015420Y-17642174D02*
X13034468Y-17651698D01*
X13034468Y-17651698D02*
X13043991Y-17661222D01*
X13043991Y-17661222D02*
X13053515Y-17680270D01*
X13053515Y-17680270D02*
X13053515Y-17727889D01*
X13053515Y-17727889D02*
X13043991Y-17746936D01*
X13043991Y-17746936D02*
X13034468Y-17756460D01*
X13034468Y-17756460D02*
X13015420Y-17765984D01*
X13015420Y-17765984D02*
X12958277Y-17765984D01*
X12958277Y-17765984D02*
X12939229Y-17756460D01*
X12939229Y-17756460D02*
X12929706Y-17746936D01*
X13167801Y-17651698D02*
X13148753Y-17642174D01*
X13148753Y-17642174D02*
X13139229Y-17632650D01*
X13139229Y-17632650D02*
X13129706Y-17613603D01*
X13129706Y-17613603D02*
X13129706Y-17604079D01*
X13129706Y-17604079D02*
X13139229Y-17585031D01*
X13139229Y-17585031D02*
X13148753Y-17575508D01*
X13148753Y-17575508D02*
X13167801Y-17565984D01*
X13167801Y-17565984D02*
X13205896Y-17565984D01*
X13205896Y-17565984D02*
X13224944Y-17575508D01*
X13224944Y-17575508D02*
X13234468Y-17585031D01*
X13234468Y-17585031D02*
X13243991Y-17604079D01*
X13243991Y-17604079D02*
X13243991Y-17613603D01*
X13243991Y-17613603D02*
X13234468Y-17632650D01*
X13234468Y-17632650D02*
X13224944Y-17642174D01*
X13224944Y-17642174D02*
X13205896Y-17651698D01*
X13205896Y-17651698D02*
X13167801Y-17651698D01*
X13167801Y-17651698D02*
X13148753Y-17661222D01*
X13148753Y-17661222D02*
X13139229Y-17670746D01*
X13139229Y-17670746D02*
X13129706Y-17689793D01*
X13129706Y-17689793D02*
X13129706Y-17727889D01*
X13129706Y-17727889D02*
X13139229Y-17746936D01*
X13139229Y-17746936D02*
X13148753Y-17756460D01*
X13148753Y-17756460D02*
X13167801Y-17765984D01*
X13167801Y-17765984D02*
X13205896Y-17765984D01*
X13205896Y-17765984D02*
X13224944Y-17756460D01*
X13224944Y-17756460D02*
X13234468Y-17746936D01*
X13234468Y-17746936D02*
X13243991Y-17727889D01*
X13243991Y-17727889D02*
X13243991Y-17689793D01*
X13243991Y-17689793D02*
X13234468Y-17670746D01*
X13234468Y-17670746D02*
X13224944Y-17661222D01*
X13224944Y-17661222D02*
X13205896Y-17651698D01*
X13482087Y-17765984D02*
X13482087Y-17565984D01*
X13567801Y-17765984D02*
X13567801Y-17661222D01*
X13567801Y-17661222D02*
X13558277Y-17642174D01*
X13558277Y-17642174D02*
X13539230Y-17632650D01*
X13539230Y-17632650D02*
X13510658Y-17632650D01*
X13510658Y-17632650D02*
X13491610Y-17642174D01*
X13491610Y-17642174D02*
X13482087Y-17651698D01*
X13691610Y-17765984D02*
X13672563Y-17756460D01*
X13672563Y-17756460D02*
X13663039Y-17746936D01*
X13663039Y-17746936D02*
X13653515Y-17727889D01*
X13653515Y-17727889D02*
X13653515Y-17670746D01*
X13653515Y-17670746D02*
X13663039Y-17651698D01*
X13663039Y-17651698D02*
X13672563Y-17642174D01*
X13672563Y-17642174D02*
X13691610Y-17632650D01*
X13691610Y-17632650D02*
X13720182Y-17632650D01*
X13720182Y-17632650D02*
X13739230Y-17642174D01*
X13739230Y-17642174D02*
X13748753Y-17651698D01*
X13748753Y-17651698D02*
X13758277Y-17670746D01*
X13758277Y-17670746D02*
X13758277Y-17727889D01*
X13758277Y-17727889D02*
X13748753Y-17746936D01*
X13748753Y-17746936D02*
X13739230Y-17756460D01*
X13739230Y-17756460D02*
X13720182Y-17765984D01*
X13720182Y-17765984D02*
X13691610Y-17765984D01*
X13872563Y-17765984D02*
X13853515Y-17756460D01*
X13853515Y-17756460D02*
X13843991Y-17737412D01*
X13843991Y-17737412D02*
X13843991Y-17565984D01*
X14024944Y-17756460D02*
X14005896Y-17765984D01*
X14005896Y-17765984D02*
X13967801Y-17765984D01*
X13967801Y-17765984D02*
X13948753Y-17756460D01*
X13948753Y-17756460D02*
X13939230Y-17737412D01*
X13939230Y-17737412D02*
X13939230Y-17661222D01*
X13939230Y-17661222D02*
X13948753Y-17642174D01*
X13948753Y-17642174D02*
X13967801Y-17632650D01*
X13967801Y-17632650D02*
X14005896Y-17632650D01*
X14005896Y-17632650D02*
X14024944Y-17642174D01*
X14024944Y-17642174D02*
X14034468Y-17661222D01*
X14034468Y-17661222D02*
X14034468Y-17680270D01*
X14034468Y-17680270D02*
X13939230Y-17699317D01*
X14110658Y-17756460D02*
X14129706Y-17765984D01*
X14129706Y-17765984D02*
X14167801Y-17765984D01*
X14167801Y-17765984D02*
X14186849Y-17756460D01*
X14186849Y-17756460D02*
X14196372Y-17737412D01*
X14196372Y-17737412D02*
X14196372Y-17727889D01*
X14196372Y-17727889D02*
X14186849Y-17708841D01*
X14186849Y-17708841D02*
X14167801Y-17699317D01*
X14167801Y-17699317D02*
X14139230Y-17699317D01*
X14139230Y-17699317D02*
X14120182Y-17689793D01*
X14120182Y-17689793D02*
X14110658Y-17670746D01*
X14110658Y-17670746D02*
X14110658Y-17661222D01*
X14110658Y-17661222D02*
X14120182Y-17642174D01*
X14120182Y-17642174D02*
X14139230Y-17632650D01*
X14139230Y-17632650D02*
X14167801Y-17632650D01*
X14167801Y-17632650D02*
X14186849Y-17642174D01*
X14263039Y-17842174D02*
X14272563Y-17832650D01*
X14272563Y-17832650D02*
X14291611Y-17804079D01*
X14291611Y-17804079D02*
X14301134Y-17785031D01*
X14301134Y-17785031D02*
X14310658Y-17756460D01*
X14310658Y-17756460D02*
X14320182Y-17708841D01*
X14320182Y-17708841D02*
X14320182Y-17670746D01*
X14320182Y-17670746D02*
X14310658Y-17623127D01*
X14310658Y-17623127D02*
X14301134Y-17594555D01*
X14301134Y-17594555D02*
X14291611Y-17575508D01*
X14291611Y-17575508D02*
X14272563Y-17546936D01*
X14272563Y-17546936D02*
X14263039Y-17537412D01*
D14*
X9242500Y-17993500D02*
X9297500Y-17938500D01*
X9242500Y-17883500D01*
X9187500Y-17938500D01*
X9242500Y-17993500D01*
D11*
X9663039Y-18029984D02*
X9548753Y-18029984D01*
X9605896Y-18029984D02*
X9605896Y-17829984D01*
X9605896Y-17829984D02*
X9586848Y-17858555D01*
X9586848Y-17858555D02*
X9567801Y-17877603D01*
X9567801Y-17877603D02*
X9548753Y-17887127D01*
X9748753Y-18010936D02*
X9758277Y-18020460D01*
X9758277Y-18020460D02*
X9748753Y-18029984D01*
X9748753Y-18029984D02*
X9739229Y-18020460D01*
X9739229Y-18020460D02*
X9748753Y-18010936D01*
X9748753Y-18010936D02*
X9748753Y-18029984D01*
X9948753Y-18029984D02*
X9834467Y-18029984D01*
X9891610Y-18029984D02*
X9891610Y-17829984D01*
X9891610Y-17829984D02*
X9872563Y-17858555D01*
X9872563Y-17858555D02*
X9853515Y-17877603D01*
X9853515Y-17877603D02*
X9834467Y-17887127D01*
X10072563Y-17829984D02*
X10091610Y-17829984D01*
X10091610Y-17829984D02*
X10110658Y-17839508D01*
X10110658Y-17839508D02*
X10120182Y-17849031D01*
X10120182Y-17849031D02*
X10129705Y-17868079D01*
X10129705Y-17868079D02*
X10139229Y-17906174D01*
X10139229Y-17906174D02*
X10139229Y-17953793D01*
X10139229Y-17953793D02*
X10129705Y-17991889D01*
X10129705Y-17991889D02*
X10120182Y-18010936D01*
X10120182Y-18010936D02*
X10110658Y-18020460D01*
X10110658Y-18020460D02*
X10091610Y-18029984D01*
X10091610Y-18029984D02*
X10072563Y-18029984D01*
X10072563Y-18029984D02*
X10053515Y-18020460D01*
X10053515Y-18020460D02*
X10043991Y-18010936D01*
X10043991Y-18010936D02*
X10034467Y-17991889D01*
X10034467Y-17991889D02*
X10024944Y-17953793D01*
X10024944Y-17953793D02*
X10024944Y-17906174D01*
X10024944Y-17906174D02*
X10034467Y-17868079D01*
X10034467Y-17868079D02*
X10043991Y-17849031D01*
X10043991Y-17849031D02*
X10053515Y-17839508D01*
X10053515Y-17839508D02*
X10072563Y-17829984D01*
X10263039Y-17829984D02*
X10282086Y-17829984D01*
X10282086Y-17829984D02*
X10301134Y-17839508D01*
X10301134Y-17839508D02*
X10310658Y-17849031D01*
X10310658Y-17849031D02*
X10320182Y-17868079D01*
X10320182Y-17868079D02*
X10329705Y-17906174D01*
X10329705Y-17906174D02*
X10329705Y-17953793D01*
X10329705Y-17953793D02*
X10320182Y-17991889D01*
X10320182Y-17991889D02*
X10310658Y-18010936D01*
X10310658Y-18010936D02*
X10301134Y-18020460D01*
X10301134Y-18020460D02*
X10282086Y-18029984D01*
X10282086Y-18029984D02*
X10263039Y-18029984D01*
X10263039Y-18029984D02*
X10243991Y-18020460D01*
X10243991Y-18020460D02*
X10234467Y-18010936D01*
X10234467Y-18010936D02*
X10224944Y-17991889D01*
X10224944Y-17991889D02*
X10215420Y-17953793D01*
X10215420Y-17953793D02*
X10215420Y-17906174D01*
X10215420Y-17906174D02*
X10224944Y-17868079D01*
X10224944Y-17868079D02*
X10234467Y-17849031D01*
X10234467Y-17849031D02*
X10243991Y-17839508D01*
X10243991Y-17839508D02*
X10263039Y-17829984D01*
X10415420Y-18029984D02*
X10415420Y-17896650D01*
X10415420Y-17915698D02*
X10424944Y-17906174D01*
X10424944Y-17906174D02*
X10443991Y-17896650D01*
X10443991Y-17896650D02*
X10472563Y-17896650D01*
X10472563Y-17896650D02*
X10491610Y-17906174D01*
X10491610Y-17906174D02*
X10501134Y-17925222D01*
X10501134Y-17925222D02*
X10501134Y-18029984D01*
X10501134Y-17925222D02*
X10510658Y-17906174D01*
X10510658Y-17906174D02*
X10529705Y-17896650D01*
X10529705Y-17896650D02*
X10558277Y-17896650D01*
X10558277Y-17896650D02*
X10577325Y-17906174D01*
X10577325Y-17906174D02*
X10586848Y-17925222D01*
X10586848Y-17925222D02*
X10586848Y-18029984D01*
X10682086Y-18029984D02*
X10682086Y-17896650D01*
X10682086Y-17915698D02*
X10691610Y-17906174D01*
X10691610Y-17906174D02*
X10710658Y-17896650D01*
X10710658Y-17896650D02*
X10739229Y-17896650D01*
X10739229Y-17896650D02*
X10758277Y-17906174D01*
X10758277Y-17906174D02*
X10767801Y-17925222D01*
X10767801Y-17925222D02*
X10767801Y-18029984D01*
X10767801Y-17925222D02*
X10777325Y-17906174D01*
X10777325Y-17906174D02*
X10796372Y-17896650D01*
X10796372Y-17896650D02*
X10824944Y-17896650D01*
X10824944Y-17896650D02*
X10843991Y-17906174D01*
X10843991Y-17906174D02*
X10853515Y-17925222D01*
X10853515Y-17925222D02*
X10853515Y-18029984D01*
X11243991Y-17820460D02*
X11072563Y-18077603D01*
X11501134Y-17829984D02*
X11520182Y-17829984D01*
X11520182Y-17829984D02*
X11539229Y-17839508D01*
X11539229Y-17839508D02*
X11548753Y-17849031D01*
X11548753Y-17849031D02*
X11558277Y-17868079D01*
X11558277Y-17868079D02*
X11567801Y-17906174D01*
X11567801Y-17906174D02*
X11567801Y-17953793D01*
X11567801Y-17953793D02*
X11558277Y-17991889D01*
X11558277Y-17991889D02*
X11548753Y-18010936D01*
X11548753Y-18010936D02*
X11539229Y-18020460D01*
X11539229Y-18020460D02*
X11520182Y-18029984D01*
X11520182Y-18029984D02*
X11501134Y-18029984D01*
X11501134Y-18029984D02*
X11482086Y-18020460D01*
X11482086Y-18020460D02*
X11472563Y-18010936D01*
X11472563Y-18010936D02*
X11463039Y-17991889D01*
X11463039Y-17991889D02*
X11453515Y-17953793D01*
X11453515Y-17953793D02*
X11453515Y-17906174D01*
X11453515Y-17906174D02*
X11463039Y-17868079D01*
X11463039Y-17868079D02*
X11472563Y-17849031D01*
X11472563Y-17849031D02*
X11482086Y-17839508D01*
X11482086Y-17839508D02*
X11501134Y-17829984D01*
X11653515Y-18010936D02*
X11663039Y-18020460D01*
X11663039Y-18020460D02*
X11653515Y-18029984D01*
X11653515Y-18029984D02*
X11643991Y-18020460D01*
X11643991Y-18020460D02*
X11653515Y-18010936D01*
X11653515Y-18010936D02*
X11653515Y-18029984D01*
X11786848Y-17829984D02*
X11805896Y-17829984D01*
X11805896Y-17829984D02*
X11824944Y-17839508D01*
X11824944Y-17839508D02*
X11834467Y-17849031D01*
X11834467Y-17849031D02*
X11843991Y-17868079D01*
X11843991Y-17868079D02*
X11853515Y-17906174D01*
X11853515Y-17906174D02*
X11853515Y-17953793D01*
X11853515Y-17953793D02*
X11843991Y-17991889D01*
X11843991Y-17991889D02*
X11834467Y-18010936D01*
X11834467Y-18010936D02*
X11824944Y-18020460D01*
X11824944Y-18020460D02*
X11805896Y-18029984D01*
X11805896Y-18029984D02*
X11786848Y-18029984D01*
X11786848Y-18029984D02*
X11767801Y-18020460D01*
X11767801Y-18020460D02*
X11758277Y-18010936D01*
X11758277Y-18010936D02*
X11748753Y-17991889D01*
X11748753Y-17991889D02*
X11739229Y-17953793D01*
X11739229Y-17953793D02*
X11739229Y-17906174D01*
X11739229Y-17906174D02*
X11748753Y-17868079D01*
X11748753Y-17868079D02*
X11758277Y-17849031D01*
X11758277Y-17849031D02*
X11767801Y-17839508D01*
X11767801Y-17839508D02*
X11786848Y-17829984D01*
X12024944Y-17896650D02*
X12024944Y-18029984D01*
X11977325Y-17820460D02*
X11929706Y-17963317D01*
X11929706Y-17963317D02*
X12053515Y-17963317D01*
X12110658Y-17829984D02*
X12234467Y-17829984D01*
X12234467Y-17829984D02*
X12167801Y-17906174D01*
X12167801Y-17906174D02*
X12196372Y-17906174D01*
X12196372Y-17906174D02*
X12215420Y-17915698D01*
X12215420Y-17915698D02*
X12224944Y-17925222D01*
X12224944Y-17925222D02*
X12234467Y-17944270D01*
X12234467Y-17944270D02*
X12234467Y-17991889D01*
X12234467Y-17991889D02*
X12224944Y-18010936D01*
X12224944Y-18010936D02*
X12215420Y-18020460D01*
X12215420Y-18020460D02*
X12196372Y-18029984D01*
X12196372Y-18029984D02*
X12139229Y-18029984D01*
X12139229Y-18029984D02*
X12120182Y-18020460D01*
X12120182Y-18020460D02*
X12110658Y-18010936D01*
X12301134Y-17829984D02*
X12424944Y-17829984D01*
X12424944Y-17829984D02*
X12358277Y-17906174D01*
X12358277Y-17906174D02*
X12386848Y-17906174D01*
X12386848Y-17906174D02*
X12405896Y-17915698D01*
X12405896Y-17915698D02*
X12415420Y-17925222D01*
X12415420Y-17925222D02*
X12424944Y-17944270D01*
X12424944Y-17944270D02*
X12424944Y-17991889D01*
X12424944Y-17991889D02*
X12415420Y-18010936D01*
X12415420Y-18010936D02*
X12405896Y-18020460D01*
X12405896Y-18020460D02*
X12386848Y-18029984D01*
X12386848Y-18029984D02*
X12329706Y-18029984D01*
X12329706Y-18029984D02*
X12310658Y-18020460D01*
X12310658Y-18020460D02*
X12301134Y-18010936D01*
X12501134Y-17829984D02*
X12501134Y-17868079D01*
X12577325Y-17829984D02*
X12577325Y-17868079D01*
X12872563Y-18106174D02*
X12863039Y-18096650D01*
X12863039Y-18096650D02*
X12843991Y-18068079D01*
X12843991Y-18068079D02*
X12834468Y-18049031D01*
X12834468Y-18049031D02*
X12824944Y-18020460D01*
X12824944Y-18020460D02*
X12815420Y-17972841D01*
X12815420Y-17972841D02*
X12815420Y-17934746D01*
X12815420Y-17934746D02*
X12824944Y-17887127D01*
X12824944Y-17887127D02*
X12834468Y-17858555D01*
X12834468Y-17858555D02*
X12843991Y-17839508D01*
X12843991Y-17839508D02*
X12863039Y-17810936D01*
X12863039Y-17810936D02*
X12872563Y-17801412D01*
X13034468Y-17829984D02*
X12996372Y-17829984D01*
X12996372Y-17829984D02*
X12977325Y-17839508D01*
X12977325Y-17839508D02*
X12967801Y-17849031D01*
X12967801Y-17849031D02*
X12948753Y-17877603D01*
X12948753Y-17877603D02*
X12939229Y-17915698D01*
X12939229Y-17915698D02*
X12939229Y-17991889D01*
X12939229Y-17991889D02*
X12948753Y-18010936D01*
X12948753Y-18010936D02*
X12958277Y-18020460D01*
X12958277Y-18020460D02*
X12977325Y-18029984D01*
X12977325Y-18029984D02*
X13015420Y-18029984D01*
X13015420Y-18029984D02*
X13034468Y-18020460D01*
X13034468Y-18020460D02*
X13043991Y-18010936D01*
X13043991Y-18010936D02*
X13053515Y-17991889D01*
X13053515Y-17991889D02*
X13053515Y-17944270D01*
X13053515Y-17944270D02*
X13043991Y-17925222D01*
X13043991Y-17925222D02*
X13034468Y-17915698D01*
X13034468Y-17915698D02*
X13015420Y-17906174D01*
X13015420Y-17906174D02*
X12977325Y-17906174D01*
X12977325Y-17906174D02*
X12958277Y-17915698D01*
X12958277Y-17915698D02*
X12948753Y-17925222D01*
X12948753Y-17925222D02*
X12939229Y-17944270D01*
X13291610Y-18029984D02*
X13291610Y-17829984D01*
X13377325Y-18029984D02*
X13377325Y-17925222D01*
X13377325Y-17925222D02*
X13367801Y-17906174D01*
X13367801Y-17906174D02*
X13348753Y-17896650D01*
X13348753Y-17896650D02*
X13320182Y-17896650D01*
X13320182Y-17896650D02*
X13301134Y-17906174D01*
X13301134Y-17906174D02*
X13291610Y-17915698D01*
X13501134Y-18029984D02*
X13482087Y-18020460D01*
X13482087Y-18020460D02*
X13472563Y-18010936D01*
X13472563Y-18010936D02*
X13463039Y-17991889D01*
X13463039Y-17991889D02*
X13463039Y-17934746D01*
X13463039Y-17934746D02*
X13472563Y-17915698D01*
X13472563Y-17915698D02*
X13482087Y-17906174D01*
X13482087Y-17906174D02*
X13501134Y-17896650D01*
X13501134Y-17896650D02*
X13529706Y-17896650D01*
X13529706Y-17896650D02*
X13548753Y-17906174D01*
X13548753Y-17906174D02*
X13558277Y-17915698D01*
X13558277Y-17915698D02*
X13567801Y-17934746D01*
X13567801Y-17934746D02*
X13567801Y-17991889D01*
X13567801Y-17991889D02*
X13558277Y-18010936D01*
X13558277Y-18010936D02*
X13548753Y-18020460D01*
X13548753Y-18020460D02*
X13529706Y-18029984D01*
X13529706Y-18029984D02*
X13501134Y-18029984D01*
X13682087Y-18029984D02*
X13663039Y-18020460D01*
X13663039Y-18020460D02*
X13653515Y-18001412D01*
X13653515Y-18001412D02*
X13653515Y-17829984D01*
X13834468Y-18020460D02*
X13815420Y-18029984D01*
X13815420Y-18029984D02*
X13777325Y-18029984D01*
X13777325Y-18029984D02*
X13758277Y-18020460D01*
X13758277Y-18020460D02*
X13748753Y-18001412D01*
X13748753Y-18001412D02*
X13748753Y-17925222D01*
X13748753Y-17925222D02*
X13758277Y-17906174D01*
X13758277Y-17906174D02*
X13777325Y-17896650D01*
X13777325Y-17896650D02*
X13815420Y-17896650D01*
X13815420Y-17896650D02*
X13834468Y-17906174D01*
X13834468Y-17906174D02*
X13843991Y-17925222D01*
X13843991Y-17925222D02*
X13843991Y-17944270D01*
X13843991Y-17944270D02*
X13748753Y-17963317D01*
X13920182Y-18020460D02*
X13939230Y-18029984D01*
X13939230Y-18029984D02*
X13977325Y-18029984D01*
X13977325Y-18029984D02*
X13996372Y-18020460D01*
X13996372Y-18020460D02*
X14005896Y-18001412D01*
X14005896Y-18001412D02*
X14005896Y-17991889D01*
X14005896Y-17991889D02*
X13996372Y-17972841D01*
X13996372Y-17972841D02*
X13977325Y-17963317D01*
X13977325Y-17963317D02*
X13948753Y-17963317D01*
X13948753Y-17963317D02*
X13929706Y-17953793D01*
X13929706Y-17953793D02*
X13920182Y-17934746D01*
X13920182Y-17934746D02*
X13920182Y-17925222D01*
X13920182Y-17925222D02*
X13929706Y-17906174D01*
X13929706Y-17906174D02*
X13948753Y-17896650D01*
X13948753Y-17896650D02*
X13977325Y-17896650D01*
X13977325Y-17896650D02*
X13996372Y-17906174D01*
X14072563Y-18106174D02*
X14082087Y-18096650D01*
X14082087Y-18096650D02*
X14101134Y-18068079D01*
X14101134Y-18068079D02*
X14110658Y-18049031D01*
X14110658Y-18049031D02*
X14120182Y-18020460D01*
X14120182Y-18020460D02*
X14129706Y-17972841D01*
X14129706Y-17972841D02*
X14129706Y-17934746D01*
X14129706Y-17934746D02*
X14120182Y-17887127D01*
X14120182Y-17887127D02*
X14110658Y-17858555D01*
X14110658Y-17858555D02*
X14101134Y-17839508D01*
X14101134Y-17839508D02*
X14082087Y-17810936D01*
X14082087Y-17810936D02*
X14072563Y-17801412D01*
D15*
X9167500Y-18137500D02*
X9297500Y-18267500D01*
X9297500Y-18137500D02*
X9167500Y-18267500D01*
X9297500Y-18202500D02*
G75*
G02*
X9167500Y-18202500I-65000J0D01*
G01*
X9167500Y-18202500D02*
G75*
G02*
X9297500Y-18202500I65000J0D01*
G01*
D11*
X9663039Y-18293984D02*
X9548753Y-18293984D01*
X9605896Y-18293984D02*
X9605896Y-18093984D01*
X9605896Y-18093984D02*
X9586848Y-18122555D01*
X9586848Y-18122555D02*
X9567801Y-18141603D01*
X9567801Y-18141603D02*
X9548753Y-18151127D01*
X9748753Y-18274936D02*
X9758277Y-18284460D01*
X9758277Y-18284460D02*
X9748753Y-18293984D01*
X9748753Y-18293984D02*
X9739229Y-18284460D01*
X9739229Y-18284460D02*
X9748753Y-18274936D01*
X9748753Y-18274936D02*
X9748753Y-18293984D01*
X9824944Y-18093984D02*
X9948753Y-18093984D01*
X9948753Y-18093984D02*
X9882086Y-18170174D01*
X9882086Y-18170174D02*
X9910658Y-18170174D01*
X9910658Y-18170174D02*
X9929705Y-18179698D01*
X9929705Y-18179698D02*
X9939229Y-18189222D01*
X9939229Y-18189222D02*
X9948753Y-18208270D01*
X9948753Y-18208270D02*
X9948753Y-18255889D01*
X9948753Y-18255889D02*
X9939229Y-18274936D01*
X9939229Y-18274936D02*
X9929705Y-18284460D01*
X9929705Y-18284460D02*
X9910658Y-18293984D01*
X9910658Y-18293984D02*
X9853515Y-18293984D01*
X9853515Y-18293984D02*
X9834467Y-18284460D01*
X9834467Y-18284460D02*
X9824944Y-18274936D01*
X10072563Y-18093984D02*
X10091610Y-18093984D01*
X10091610Y-18093984D02*
X10110658Y-18103508D01*
X10110658Y-18103508D02*
X10120182Y-18113031D01*
X10120182Y-18113031D02*
X10129705Y-18132079D01*
X10129705Y-18132079D02*
X10139229Y-18170174D01*
X10139229Y-18170174D02*
X10139229Y-18217793D01*
X10139229Y-18217793D02*
X10129705Y-18255889D01*
X10129705Y-18255889D02*
X10120182Y-18274936D01*
X10120182Y-18274936D02*
X10110658Y-18284460D01*
X10110658Y-18284460D02*
X10091610Y-18293984D01*
X10091610Y-18293984D02*
X10072563Y-18293984D01*
X10072563Y-18293984D02*
X10053515Y-18284460D01*
X10053515Y-18284460D02*
X10043991Y-18274936D01*
X10043991Y-18274936D02*
X10034467Y-18255889D01*
X10034467Y-18255889D02*
X10024944Y-18217793D01*
X10024944Y-18217793D02*
X10024944Y-18170174D01*
X10024944Y-18170174D02*
X10034467Y-18132079D01*
X10034467Y-18132079D02*
X10043991Y-18113031D01*
X10043991Y-18113031D02*
X10053515Y-18103508D01*
X10053515Y-18103508D02*
X10072563Y-18093984D01*
X10263039Y-18093984D02*
X10282086Y-18093984D01*
X10282086Y-18093984D02*
X10301134Y-18103508D01*
X10301134Y-18103508D02*
X10310658Y-18113031D01*
X10310658Y-18113031D02*
X10320182Y-18132079D01*
X10320182Y-18132079D02*
X10329705Y-18170174D01*
X10329705Y-18170174D02*
X10329705Y-18217793D01*
X10329705Y-18217793D02*
X10320182Y-18255889D01*
X10320182Y-18255889D02*
X10310658Y-18274936D01*
X10310658Y-18274936D02*
X10301134Y-18284460D01*
X10301134Y-18284460D02*
X10282086Y-18293984D01*
X10282086Y-18293984D02*
X10263039Y-18293984D01*
X10263039Y-18293984D02*
X10243991Y-18284460D01*
X10243991Y-18284460D02*
X10234467Y-18274936D01*
X10234467Y-18274936D02*
X10224944Y-18255889D01*
X10224944Y-18255889D02*
X10215420Y-18217793D01*
X10215420Y-18217793D02*
X10215420Y-18170174D01*
X10215420Y-18170174D02*
X10224944Y-18132079D01*
X10224944Y-18132079D02*
X10234467Y-18113031D01*
X10234467Y-18113031D02*
X10243991Y-18103508D01*
X10243991Y-18103508D02*
X10263039Y-18093984D01*
X10415420Y-18293984D02*
X10415420Y-18160650D01*
X10415420Y-18179698D02*
X10424944Y-18170174D01*
X10424944Y-18170174D02*
X10443991Y-18160650D01*
X10443991Y-18160650D02*
X10472563Y-18160650D01*
X10472563Y-18160650D02*
X10491610Y-18170174D01*
X10491610Y-18170174D02*
X10501134Y-18189222D01*
X10501134Y-18189222D02*
X10501134Y-18293984D01*
X10501134Y-18189222D02*
X10510658Y-18170174D01*
X10510658Y-18170174D02*
X10529705Y-18160650D01*
X10529705Y-18160650D02*
X10558277Y-18160650D01*
X10558277Y-18160650D02*
X10577325Y-18170174D01*
X10577325Y-18170174D02*
X10586848Y-18189222D01*
X10586848Y-18189222D02*
X10586848Y-18293984D01*
X10682086Y-18293984D02*
X10682086Y-18160650D01*
X10682086Y-18179698D02*
X10691610Y-18170174D01*
X10691610Y-18170174D02*
X10710658Y-18160650D01*
X10710658Y-18160650D02*
X10739229Y-18160650D01*
X10739229Y-18160650D02*
X10758277Y-18170174D01*
X10758277Y-18170174D02*
X10767801Y-18189222D01*
X10767801Y-18189222D02*
X10767801Y-18293984D01*
X10767801Y-18189222D02*
X10777325Y-18170174D01*
X10777325Y-18170174D02*
X10796372Y-18160650D01*
X10796372Y-18160650D02*
X10824944Y-18160650D01*
X10824944Y-18160650D02*
X10843991Y-18170174D01*
X10843991Y-18170174D02*
X10853515Y-18189222D01*
X10853515Y-18189222D02*
X10853515Y-18293984D01*
X11243991Y-18084460D02*
X11072563Y-18341603D01*
X11501134Y-18093984D02*
X11520182Y-18093984D01*
X11520182Y-18093984D02*
X11539229Y-18103508D01*
X11539229Y-18103508D02*
X11548753Y-18113031D01*
X11548753Y-18113031D02*
X11558277Y-18132079D01*
X11558277Y-18132079D02*
X11567801Y-18170174D01*
X11567801Y-18170174D02*
X11567801Y-18217793D01*
X11567801Y-18217793D02*
X11558277Y-18255889D01*
X11558277Y-18255889D02*
X11548753Y-18274936D01*
X11548753Y-18274936D02*
X11539229Y-18284460D01*
X11539229Y-18284460D02*
X11520182Y-18293984D01*
X11520182Y-18293984D02*
X11501134Y-18293984D01*
X11501134Y-18293984D02*
X11482086Y-18284460D01*
X11482086Y-18284460D02*
X11472563Y-18274936D01*
X11472563Y-18274936D02*
X11463039Y-18255889D01*
X11463039Y-18255889D02*
X11453515Y-18217793D01*
X11453515Y-18217793D02*
X11453515Y-18170174D01*
X11453515Y-18170174D02*
X11463039Y-18132079D01*
X11463039Y-18132079D02*
X11472563Y-18113031D01*
X11472563Y-18113031D02*
X11482086Y-18103508D01*
X11482086Y-18103508D02*
X11501134Y-18093984D01*
X11653515Y-18274936D02*
X11663039Y-18284460D01*
X11663039Y-18284460D02*
X11653515Y-18293984D01*
X11653515Y-18293984D02*
X11643991Y-18284460D01*
X11643991Y-18284460D02*
X11653515Y-18274936D01*
X11653515Y-18274936D02*
X11653515Y-18293984D01*
X11786848Y-18093984D02*
X11805896Y-18093984D01*
X11805896Y-18093984D02*
X11824944Y-18103508D01*
X11824944Y-18103508D02*
X11834467Y-18113031D01*
X11834467Y-18113031D02*
X11843991Y-18132079D01*
X11843991Y-18132079D02*
X11853515Y-18170174D01*
X11853515Y-18170174D02*
X11853515Y-18217793D01*
X11853515Y-18217793D02*
X11843991Y-18255889D01*
X11843991Y-18255889D02*
X11834467Y-18274936D01*
X11834467Y-18274936D02*
X11824944Y-18284460D01*
X11824944Y-18284460D02*
X11805896Y-18293984D01*
X11805896Y-18293984D02*
X11786848Y-18293984D01*
X11786848Y-18293984D02*
X11767801Y-18284460D01*
X11767801Y-18284460D02*
X11758277Y-18274936D01*
X11758277Y-18274936D02*
X11748753Y-18255889D01*
X11748753Y-18255889D02*
X11739229Y-18217793D01*
X11739229Y-18217793D02*
X11739229Y-18170174D01*
X11739229Y-18170174D02*
X11748753Y-18132079D01*
X11748753Y-18132079D02*
X11758277Y-18113031D01*
X11758277Y-18113031D02*
X11767801Y-18103508D01*
X11767801Y-18103508D02*
X11786848Y-18093984D01*
X12034467Y-18093984D02*
X11939229Y-18093984D01*
X11939229Y-18093984D02*
X11929706Y-18189222D01*
X11929706Y-18189222D02*
X11939229Y-18179698D01*
X11939229Y-18179698D02*
X11958277Y-18170174D01*
X11958277Y-18170174D02*
X12005896Y-18170174D01*
X12005896Y-18170174D02*
X12024944Y-18179698D01*
X12024944Y-18179698D02*
X12034467Y-18189222D01*
X12034467Y-18189222D02*
X12043991Y-18208270D01*
X12043991Y-18208270D02*
X12043991Y-18255889D01*
X12043991Y-18255889D02*
X12034467Y-18274936D01*
X12034467Y-18274936D02*
X12024944Y-18284460D01*
X12024944Y-18284460D02*
X12005896Y-18293984D01*
X12005896Y-18293984D02*
X11958277Y-18293984D01*
X11958277Y-18293984D02*
X11939229Y-18284460D01*
X11939229Y-18284460D02*
X11929706Y-18274936D01*
X12234467Y-18293984D02*
X12120182Y-18293984D01*
X12177325Y-18293984D02*
X12177325Y-18093984D01*
X12177325Y-18093984D02*
X12158277Y-18122555D01*
X12158277Y-18122555D02*
X12139229Y-18141603D01*
X12139229Y-18141603D02*
X12120182Y-18151127D01*
X12310658Y-18113031D02*
X12320182Y-18103508D01*
X12320182Y-18103508D02*
X12339229Y-18093984D01*
X12339229Y-18093984D02*
X12386848Y-18093984D01*
X12386848Y-18093984D02*
X12405896Y-18103508D01*
X12405896Y-18103508D02*
X12415420Y-18113031D01*
X12415420Y-18113031D02*
X12424944Y-18132079D01*
X12424944Y-18132079D02*
X12424944Y-18151127D01*
X12424944Y-18151127D02*
X12415420Y-18179698D01*
X12415420Y-18179698D02*
X12301134Y-18293984D01*
X12301134Y-18293984D02*
X12424944Y-18293984D01*
X12501134Y-18093984D02*
X12501134Y-18132079D01*
X12577325Y-18093984D02*
X12577325Y-18132079D01*
X12872563Y-18370174D02*
X12863039Y-18360650D01*
X12863039Y-18360650D02*
X12843991Y-18332079D01*
X12843991Y-18332079D02*
X12834468Y-18313031D01*
X12834468Y-18313031D02*
X12824944Y-18284460D01*
X12824944Y-18284460D02*
X12815420Y-18236841D01*
X12815420Y-18236841D02*
X12815420Y-18198746D01*
X12815420Y-18198746D02*
X12824944Y-18151127D01*
X12824944Y-18151127D02*
X12834468Y-18122555D01*
X12834468Y-18122555D02*
X12843991Y-18103508D01*
X12843991Y-18103508D02*
X12863039Y-18074936D01*
X12863039Y-18074936D02*
X12872563Y-18065412D01*
X12939229Y-18113031D02*
X12948753Y-18103508D01*
X12948753Y-18103508D02*
X12967801Y-18093984D01*
X12967801Y-18093984D02*
X13015420Y-18093984D01*
X13015420Y-18093984D02*
X13034468Y-18103508D01*
X13034468Y-18103508D02*
X13043991Y-18113031D01*
X13043991Y-18113031D02*
X13053515Y-18132079D01*
X13053515Y-18132079D02*
X13053515Y-18151127D01*
X13053515Y-18151127D02*
X13043991Y-18179698D01*
X13043991Y-18179698D02*
X12929706Y-18293984D01*
X12929706Y-18293984D02*
X13053515Y-18293984D01*
X13177325Y-18093984D02*
X13196372Y-18093984D01*
X13196372Y-18093984D02*
X13215420Y-18103508D01*
X13215420Y-18103508D02*
X13224944Y-18113031D01*
X13224944Y-18113031D02*
X13234468Y-18132079D01*
X13234468Y-18132079D02*
X13243991Y-18170174D01*
X13243991Y-18170174D02*
X13243991Y-18217793D01*
X13243991Y-18217793D02*
X13234468Y-18255889D01*
X13234468Y-18255889D02*
X13224944Y-18274936D01*
X13224944Y-18274936D02*
X13215420Y-18284460D01*
X13215420Y-18284460D02*
X13196372Y-18293984D01*
X13196372Y-18293984D02*
X13177325Y-18293984D01*
X13177325Y-18293984D02*
X13158277Y-18284460D01*
X13158277Y-18284460D02*
X13148753Y-18274936D01*
X13148753Y-18274936D02*
X13139229Y-18255889D01*
X13139229Y-18255889D02*
X13129706Y-18217793D01*
X13129706Y-18217793D02*
X13129706Y-18170174D01*
X13129706Y-18170174D02*
X13139229Y-18132079D01*
X13139229Y-18132079D02*
X13148753Y-18113031D01*
X13148753Y-18113031D02*
X13158277Y-18103508D01*
X13158277Y-18103508D02*
X13177325Y-18093984D01*
X13482087Y-18293984D02*
X13482087Y-18093984D01*
X13567801Y-18293984D02*
X13567801Y-18189222D01*
X13567801Y-18189222D02*
X13558277Y-18170174D01*
X13558277Y-18170174D02*
X13539230Y-18160650D01*
X13539230Y-18160650D02*
X13510658Y-18160650D01*
X13510658Y-18160650D02*
X13491610Y-18170174D01*
X13491610Y-18170174D02*
X13482087Y-18179698D01*
X13691610Y-18293984D02*
X13672563Y-18284460D01*
X13672563Y-18284460D02*
X13663039Y-18274936D01*
X13663039Y-18274936D02*
X13653515Y-18255889D01*
X13653515Y-18255889D02*
X13653515Y-18198746D01*
X13653515Y-18198746D02*
X13663039Y-18179698D01*
X13663039Y-18179698D02*
X13672563Y-18170174D01*
X13672563Y-18170174D02*
X13691610Y-18160650D01*
X13691610Y-18160650D02*
X13720182Y-18160650D01*
X13720182Y-18160650D02*
X13739230Y-18170174D01*
X13739230Y-18170174D02*
X13748753Y-18179698D01*
X13748753Y-18179698D02*
X13758277Y-18198746D01*
X13758277Y-18198746D02*
X13758277Y-18255889D01*
X13758277Y-18255889D02*
X13748753Y-18274936D01*
X13748753Y-18274936D02*
X13739230Y-18284460D01*
X13739230Y-18284460D02*
X13720182Y-18293984D01*
X13720182Y-18293984D02*
X13691610Y-18293984D01*
X13872563Y-18293984D02*
X13853515Y-18284460D01*
X13853515Y-18284460D02*
X13843991Y-18265412D01*
X13843991Y-18265412D02*
X13843991Y-18093984D01*
X14024944Y-18284460D02*
X14005896Y-18293984D01*
X14005896Y-18293984D02*
X13967801Y-18293984D01*
X13967801Y-18293984D02*
X13948753Y-18284460D01*
X13948753Y-18284460D02*
X13939230Y-18265412D01*
X13939230Y-18265412D02*
X13939230Y-18189222D01*
X13939230Y-18189222D02*
X13948753Y-18170174D01*
X13948753Y-18170174D02*
X13967801Y-18160650D01*
X13967801Y-18160650D02*
X14005896Y-18160650D01*
X14005896Y-18160650D02*
X14024944Y-18170174D01*
X14024944Y-18170174D02*
X14034468Y-18189222D01*
X14034468Y-18189222D02*
X14034468Y-18208270D01*
X14034468Y-18208270D02*
X13939230Y-18227317D01*
X14110658Y-18284460D02*
X14129706Y-18293984D01*
X14129706Y-18293984D02*
X14167801Y-18293984D01*
X14167801Y-18293984D02*
X14186849Y-18284460D01*
X14186849Y-18284460D02*
X14196372Y-18265412D01*
X14196372Y-18265412D02*
X14196372Y-18255889D01*
X14196372Y-18255889D02*
X14186849Y-18236841D01*
X14186849Y-18236841D02*
X14167801Y-18227317D01*
X14167801Y-18227317D02*
X14139230Y-18227317D01*
X14139230Y-18227317D02*
X14120182Y-18217793D01*
X14120182Y-18217793D02*
X14110658Y-18198746D01*
X14110658Y-18198746D02*
X14110658Y-18189222D01*
X14110658Y-18189222D02*
X14120182Y-18170174D01*
X14120182Y-18170174D02*
X14139230Y-18160650D01*
X14139230Y-18160650D02*
X14167801Y-18160650D01*
X14167801Y-18160650D02*
X14186849Y-18170174D01*
X14263039Y-18370174D02*
X14272563Y-18360650D01*
X14272563Y-18360650D02*
X14291611Y-18332079D01*
X14291611Y-18332079D02*
X14301134Y-18313031D01*
X14301134Y-18313031D02*
X14310658Y-18284460D01*
X14310658Y-18284460D02*
X14320182Y-18236841D01*
X14320182Y-18236841D02*
X14320182Y-18198746D01*
X14320182Y-18198746D02*
X14310658Y-18151127D01*
X14310658Y-18151127D02*
X14301134Y-18122555D01*
X14301134Y-18122555D02*
X14291611Y-18103508D01*
X14291611Y-18103508D02*
X14272563Y-18074936D01*
X14272563Y-18074936D02*
X14263039Y-18065412D01*
D16*
X9137500Y-18386500D02*
X9297500Y-18546500D01*
X9297500Y-18386500D02*
X9137500Y-18546500D01*
X9217500Y-18386500D02*
X9217500Y-18546500D01*
X9137500Y-18466500D02*
X9297500Y-18466500D01*
D11*
X9663039Y-18557984D02*
X9548753Y-18557984D01*
X9605896Y-18557984D02*
X9605896Y-18357984D01*
X9605896Y-18357984D02*
X9586848Y-18386555D01*
X9586848Y-18386555D02*
X9567801Y-18405603D01*
X9567801Y-18405603D02*
X9548753Y-18415127D01*
X9748753Y-18538936D02*
X9758277Y-18548460D01*
X9758277Y-18548460D02*
X9748753Y-18557984D01*
X9748753Y-18557984D02*
X9739229Y-18548460D01*
X9739229Y-18548460D02*
X9748753Y-18538936D01*
X9748753Y-18538936D02*
X9748753Y-18557984D01*
X9929705Y-18357984D02*
X9891610Y-18357984D01*
X9891610Y-18357984D02*
X9872563Y-18367508D01*
X9872563Y-18367508D02*
X9863039Y-18377031D01*
X9863039Y-18377031D02*
X9843991Y-18405603D01*
X9843991Y-18405603D02*
X9834467Y-18443698D01*
X9834467Y-18443698D02*
X9834467Y-18519889D01*
X9834467Y-18519889D02*
X9843991Y-18538936D01*
X9843991Y-18538936D02*
X9853515Y-18548460D01*
X9853515Y-18548460D02*
X9872563Y-18557984D01*
X9872563Y-18557984D02*
X9910658Y-18557984D01*
X9910658Y-18557984D02*
X9929705Y-18548460D01*
X9929705Y-18548460D02*
X9939229Y-18538936D01*
X9939229Y-18538936D02*
X9948753Y-18519889D01*
X9948753Y-18519889D02*
X9948753Y-18472270D01*
X9948753Y-18472270D02*
X9939229Y-18453222D01*
X9939229Y-18453222D02*
X9929705Y-18443698D01*
X9929705Y-18443698D02*
X9910658Y-18434174D01*
X9910658Y-18434174D02*
X9872563Y-18434174D01*
X9872563Y-18434174D02*
X9853515Y-18443698D01*
X9853515Y-18443698D02*
X9843991Y-18453222D01*
X9843991Y-18453222D02*
X9834467Y-18472270D01*
X10072563Y-18357984D02*
X10091610Y-18357984D01*
X10091610Y-18357984D02*
X10110658Y-18367508D01*
X10110658Y-18367508D02*
X10120182Y-18377031D01*
X10120182Y-18377031D02*
X10129705Y-18396079D01*
X10129705Y-18396079D02*
X10139229Y-18434174D01*
X10139229Y-18434174D02*
X10139229Y-18481793D01*
X10139229Y-18481793D02*
X10129705Y-18519889D01*
X10129705Y-18519889D02*
X10120182Y-18538936D01*
X10120182Y-18538936D02*
X10110658Y-18548460D01*
X10110658Y-18548460D02*
X10091610Y-18557984D01*
X10091610Y-18557984D02*
X10072563Y-18557984D01*
X10072563Y-18557984D02*
X10053515Y-18548460D01*
X10053515Y-18548460D02*
X10043991Y-18538936D01*
X10043991Y-18538936D02*
X10034467Y-18519889D01*
X10034467Y-18519889D02*
X10024944Y-18481793D01*
X10024944Y-18481793D02*
X10024944Y-18434174D01*
X10024944Y-18434174D02*
X10034467Y-18396079D01*
X10034467Y-18396079D02*
X10043991Y-18377031D01*
X10043991Y-18377031D02*
X10053515Y-18367508D01*
X10053515Y-18367508D02*
X10072563Y-18357984D01*
X10263039Y-18357984D02*
X10282086Y-18357984D01*
X10282086Y-18357984D02*
X10301134Y-18367508D01*
X10301134Y-18367508D02*
X10310658Y-18377031D01*
X10310658Y-18377031D02*
X10320182Y-18396079D01*
X10320182Y-18396079D02*
X10329705Y-18434174D01*
X10329705Y-18434174D02*
X10329705Y-18481793D01*
X10329705Y-18481793D02*
X10320182Y-18519889D01*
X10320182Y-18519889D02*
X10310658Y-18538936D01*
X10310658Y-18538936D02*
X10301134Y-18548460D01*
X10301134Y-18548460D02*
X10282086Y-18557984D01*
X10282086Y-18557984D02*
X10263039Y-18557984D01*
X10263039Y-18557984D02*
X10243991Y-18548460D01*
X10243991Y-18548460D02*
X10234467Y-18538936D01*
X10234467Y-18538936D02*
X10224944Y-18519889D01*
X10224944Y-18519889D02*
X10215420Y-18481793D01*
X10215420Y-18481793D02*
X10215420Y-18434174D01*
X10215420Y-18434174D02*
X10224944Y-18396079D01*
X10224944Y-18396079D02*
X10234467Y-18377031D01*
X10234467Y-18377031D02*
X10243991Y-18367508D01*
X10243991Y-18367508D02*
X10263039Y-18357984D01*
X10415420Y-18557984D02*
X10415420Y-18424650D01*
X10415420Y-18443698D02*
X10424944Y-18434174D01*
X10424944Y-18434174D02*
X10443991Y-18424650D01*
X10443991Y-18424650D02*
X10472563Y-18424650D01*
X10472563Y-18424650D02*
X10491610Y-18434174D01*
X10491610Y-18434174D02*
X10501134Y-18453222D01*
X10501134Y-18453222D02*
X10501134Y-18557984D01*
X10501134Y-18453222D02*
X10510658Y-18434174D01*
X10510658Y-18434174D02*
X10529705Y-18424650D01*
X10529705Y-18424650D02*
X10558277Y-18424650D01*
X10558277Y-18424650D02*
X10577325Y-18434174D01*
X10577325Y-18434174D02*
X10586848Y-18453222D01*
X10586848Y-18453222D02*
X10586848Y-18557984D01*
X10682086Y-18557984D02*
X10682086Y-18424650D01*
X10682086Y-18443698D02*
X10691610Y-18434174D01*
X10691610Y-18434174D02*
X10710658Y-18424650D01*
X10710658Y-18424650D02*
X10739229Y-18424650D01*
X10739229Y-18424650D02*
X10758277Y-18434174D01*
X10758277Y-18434174D02*
X10767801Y-18453222D01*
X10767801Y-18453222D02*
X10767801Y-18557984D01*
X10767801Y-18453222D02*
X10777325Y-18434174D01*
X10777325Y-18434174D02*
X10796372Y-18424650D01*
X10796372Y-18424650D02*
X10824944Y-18424650D01*
X10824944Y-18424650D02*
X10843991Y-18434174D01*
X10843991Y-18434174D02*
X10853515Y-18453222D01*
X10853515Y-18453222D02*
X10853515Y-18557984D01*
X11243991Y-18348460D02*
X11072563Y-18605603D01*
X11501134Y-18357984D02*
X11520182Y-18357984D01*
X11520182Y-18357984D02*
X11539229Y-18367508D01*
X11539229Y-18367508D02*
X11548753Y-18377031D01*
X11548753Y-18377031D02*
X11558277Y-18396079D01*
X11558277Y-18396079D02*
X11567801Y-18434174D01*
X11567801Y-18434174D02*
X11567801Y-18481793D01*
X11567801Y-18481793D02*
X11558277Y-18519889D01*
X11558277Y-18519889D02*
X11548753Y-18538936D01*
X11548753Y-18538936D02*
X11539229Y-18548460D01*
X11539229Y-18548460D02*
X11520182Y-18557984D01*
X11520182Y-18557984D02*
X11501134Y-18557984D01*
X11501134Y-18557984D02*
X11482086Y-18548460D01*
X11482086Y-18548460D02*
X11472563Y-18538936D01*
X11472563Y-18538936D02*
X11463039Y-18519889D01*
X11463039Y-18519889D02*
X11453515Y-18481793D01*
X11453515Y-18481793D02*
X11453515Y-18434174D01*
X11453515Y-18434174D02*
X11463039Y-18396079D01*
X11463039Y-18396079D02*
X11472563Y-18377031D01*
X11472563Y-18377031D02*
X11482086Y-18367508D01*
X11482086Y-18367508D02*
X11501134Y-18357984D01*
X11653515Y-18538936D02*
X11663039Y-18548460D01*
X11663039Y-18548460D02*
X11653515Y-18557984D01*
X11653515Y-18557984D02*
X11643991Y-18548460D01*
X11643991Y-18548460D02*
X11653515Y-18538936D01*
X11653515Y-18538936D02*
X11653515Y-18557984D01*
X11786848Y-18357984D02*
X11805896Y-18357984D01*
X11805896Y-18357984D02*
X11824944Y-18367508D01*
X11824944Y-18367508D02*
X11834467Y-18377031D01*
X11834467Y-18377031D02*
X11843991Y-18396079D01*
X11843991Y-18396079D02*
X11853515Y-18434174D01*
X11853515Y-18434174D02*
X11853515Y-18481793D01*
X11853515Y-18481793D02*
X11843991Y-18519889D01*
X11843991Y-18519889D02*
X11834467Y-18538936D01*
X11834467Y-18538936D02*
X11824944Y-18548460D01*
X11824944Y-18548460D02*
X11805896Y-18557984D01*
X11805896Y-18557984D02*
X11786848Y-18557984D01*
X11786848Y-18557984D02*
X11767801Y-18548460D01*
X11767801Y-18548460D02*
X11758277Y-18538936D01*
X11758277Y-18538936D02*
X11748753Y-18519889D01*
X11748753Y-18519889D02*
X11739229Y-18481793D01*
X11739229Y-18481793D02*
X11739229Y-18434174D01*
X11739229Y-18434174D02*
X11748753Y-18396079D01*
X11748753Y-18396079D02*
X11758277Y-18377031D01*
X11758277Y-18377031D02*
X11767801Y-18367508D01*
X11767801Y-18367508D02*
X11786848Y-18357984D01*
X12024944Y-18357984D02*
X11986848Y-18357984D01*
X11986848Y-18357984D02*
X11967801Y-18367508D01*
X11967801Y-18367508D02*
X11958277Y-18377031D01*
X11958277Y-18377031D02*
X11939229Y-18405603D01*
X11939229Y-18405603D02*
X11929706Y-18443698D01*
X11929706Y-18443698D02*
X11929706Y-18519889D01*
X11929706Y-18519889D02*
X11939229Y-18538936D01*
X11939229Y-18538936D02*
X11948753Y-18548460D01*
X11948753Y-18548460D02*
X11967801Y-18557984D01*
X11967801Y-18557984D02*
X12005896Y-18557984D01*
X12005896Y-18557984D02*
X12024944Y-18548460D01*
X12024944Y-18548460D02*
X12034467Y-18538936D01*
X12034467Y-18538936D02*
X12043991Y-18519889D01*
X12043991Y-18519889D02*
X12043991Y-18472270D01*
X12043991Y-18472270D02*
X12034467Y-18453222D01*
X12034467Y-18453222D02*
X12024944Y-18443698D01*
X12024944Y-18443698D02*
X12005896Y-18434174D01*
X12005896Y-18434174D02*
X11967801Y-18434174D01*
X11967801Y-18434174D02*
X11948753Y-18443698D01*
X11948753Y-18443698D02*
X11939229Y-18453222D01*
X11939229Y-18453222D02*
X11929706Y-18472270D01*
X12110658Y-18357984D02*
X12234467Y-18357984D01*
X12234467Y-18357984D02*
X12167801Y-18434174D01*
X12167801Y-18434174D02*
X12196372Y-18434174D01*
X12196372Y-18434174D02*
X12215420Y-18443698D01*
X12215420Y-18443698D02*
X12224944Y-18453222D01*
X12224944Y-18453222D02*
X12234467Y-18472270D01*
X12234467Y-18472270D02*
X12234467Y-18519889D01*
X12234467Y-18519889D02*
X12224944Y-18538936D01*
X12224944Y-18538936D02*
X12215420Y-18548460D01*
X12215420Y-18548460D02*
X12196372Y-18557984D01*
X12196372Y-18557984D02*
X12139229Y-18557984D01*
X12139229Y-18557984D02*
X12120182Y-18548460D01*
X12120182Y-18548460D02*
X12110658Y-18538936D01*
X12358277Y-18357984D02*
X12377325Y-18357984D01*
X12377325Y-18357984D02*
X12396372Y-18367508D01*
X12396372Y-18367508D02*
X12405896Y-18377031D01*
X12405896Y-18377031D02*
X12415420Y-18396079D01*
X12415420Y-18396079D02*
X12424944Y-18434174D01*
X12424944Y-18434174D02*
X12424944Y-18481793D01*
X12424944Y-18481793D02*
X12415420Y-18519889D01*
X12415420Y-18519889D02*
X12405896Y-18538936D01*
X12405896Y-18538936D02*
X12396372Y-18548460D01*
X12396372Y-18548460D02*
X12377325Y-18557984D01*
X12377325Y-18557984D02*
X12358277Y-18557984D01*
X12358277Y-18557984D02*
X12339229Y-18548460D01*
X12339229Y-18548460D02*
X12329706Y-18538936D01*
X12329706Y-18538936D02*
X12320182Y-18519889D01*
X12320182Y-18519889D02*
X12310658Y-18481793D01*
X12310658Y-18481793D02*
X12310658Y-18434174D01*
X12310658Y-18434174D02*
X12320182Y-18396079D01*
X12320182Y-18396079D02*
X12329706Y-18377031D01*
X12329706Y-18377031D02*
X12339229Y-18367508D01*
X12339229Y-18367508D02*
X12358277Y-18357984D01*
X12501134Y-18357984D02*
X12501134Y-18396079D01*
X12577325Y-18357984D02*
X12577325Y-18396079D01*
X12872563Y-18634174D02*
X12863039Y-18624650D01*
X12863039Y-18624650D02*
X12843991Y-18596079D01*
X12843991Y-18596079D02*
X12834468Y-18577031D01*
X12834468Y-18577031D02*
X12824944Y-18548460D01*
X12824944Y-18548460D02*
X12815420Y-18500841D01*
X12815420Y-18500841D02*
X12815420Y-18462746D01*
X12815420Y-18462746D02*
X12824944Y-18415127D01*
X12824944Y-18415127D02*
X12834468Y-18386555D01*
X12834468Y-18386555D02*
X12843991Y-18367508D01*
X12843991Y-18367508D02*
X12863039Y-18338936D01*
X12863039Y-18338936D02*
X12872563Y-18329412D01*
X12977325Y-18443698D02*
X12958277Y-18434174D01*
X12958277Y-18434174D02*
X12948753Y-18424650D01*
X12948753Y-18424650D02*
X12939229Y-18405603D01*
X12939229Y-18405603D02*
X12939229Y-18396079D01*
X12939229Y-18396079D02*
X12948753Y-18377031D01*
X12948753Y-18377031D02*
X12958277Y-18367508D01*
X12958277Y-18367508D02*
X12977325Y-18357984D01*
X12977325Y-18357984D02*
X13015420Y-18357984D01*
X13015420Y-18357984D02*
X13034468Y-18367508D01*
X13034468Y-18367508D02*
X13043991Y-18377031D01*
X13043991Y-18377031D02*
X13053515Y-18396079D01*
X13053515Y-18396079D02*
X13053515Y-18405603D01*
X13053515Y-18405603D02*
X13043991Y-18424650D01*
X13043991Y-18424650D02*
X13034468Y-18434174D01*
X13034468Y-18434174D02*
X13015420Y-18443698D01*
X13015420Y-18443698D02*
X12977325Y-18443698D01*
X12977325Y-18443698D02*
X12958277Y-18453222D01*
X12958277Y-18453222D02*
X12948753Y-18462746D01*
X12948753Y-18462746D02*
X12939229Y-18481793D01*
X12939229Y-18481793D02*
X12939229Y-18519889D01*
X12939229Y-18519889D02*
X12948753Y-18538936D01*
X12948753Y-18538936D02*
X12958277Y-18548460D01*
X12958277Y-18548460D02*
X12977325Y-18557984D01*
X12977325Y-18557984D02*
X13015420Y-18557984D01*
X13015420Y-18557984D02*
X13034468Y-18548460D01*
X13034468Y-18548460D02*
X13043991Y-18538936D01*
X13043991Y-18538936D02*
X13053515Y-18519889D01*
X13053515Y-18519889D02*
X13053515Y-18481793D01*
X13053515Y-18481793D02*
X13043991Y-18462746D01*
X13043991Y-18462746D02*
X13034468Y-18453222D01*
X13034468Y-18453222D02*
X13015420Y-18443698D01*
X13291610Y-18557984D02*
X13291610Y-18357984D01*
X13377325Y-18557984D02*
X13377325Y-18453222D01*
X13377325Y-18453222D02*
X13367801Y-18434174D01*
X13367801Y-18434174D02*
X13348753Y-18424650D01*
X13348753Y-18424650D02*
X13320182Y-18424650D01*
X13320182Y-18424650D02*
X13301134Y-18434174D01*
X13301134Y-18434174D02*
X13291610Y-18443698D01*
X13501134Y-18557984D02*
X13482087Y-18548460D01*
X13482087Y-18548460D02*
X13472563Y-18538936D01*
X13472563Y-18538936D02*
X13463039Y-18519889D01*
X13463039Y-18519889D02*
X13463039Y-18462746D01*
X13463039Y-18462746D02*
X13472563Y-18443698D01*
X13472563Y-18443698D02*
X13482087Y-18434174D01*
X13482087Y-18434174D02*
X13501134Y-18424650D01*
X13501134Y-18424650D02*
X13529706Y-18424650D01*
X13529706Y-18424650D02*
X13548753Y-18434174D01*
X13548753Y-18434174D02*
X13558277Y-18443698D01*
X13558277Y-18443698D02*
X13567801Y-18462746D01*
X13567801Y-18462746D02*
X13567801Y-18519889D01*
X13567801Y-18519889D02*
X13558277Y-18538936D01*
X13558277Y-18538936D02*
X13548753Y-18548460D01*
X13548753Y-18548460D02*
X13529706Y-18557984D01*
X13529706Y-18557984D02*
X13501134Y-18557984D01*
X13682087Y-18557984D02*
X13663039Y-18548460D01*
X13663039Y-18548460D02*
X13653515Y-18529412D01*
X13653515Y-18529412D02*
X13653515Y-18357984D01*
X13834468Y-18548460D02*
X13815420Y-18557984D01*
X13815420Y-18557984D02*
X13777325Y-18557984D01*
X13777325Y-18557984D02*
X13758277Y-18548460D01*
X13758277Y-18548460D02*
X13748753Y-18529412D01*
X13748753Y-18529412D02*
X13748753Y-18453222D01*
X13748753Y-18453222D02*
X13758277Y-18434174D01*
X13758277Y-18434174D02*
X13777325Y-18424650D01*
X13777325Y-18424650D02*
X13815420Y-18424650D01*
X13815420Y-18424650D02*
X13834468Y-18434174D01*
X13834468Y-18434174D02*
X13843991Y-18453222D01*
X13843991Y-18453222D02*
X13843991Y-18472270D01*
X13843991Y-18472270D02*
X13748753Y-18491317D01*
X13920182Y-18548460D02*
X13939230Y-18557984D01*
X13939230Y-18557984D02*
X13977325Y-18557984D01*
X13977325Y-18557984D02*
X13996372Y-18548460D01*
X13996372Y-18548460D02*
X14005896Y-18529412D01*
X14005896Y-18529412D02*
X14005896Y-18519889D01*
X14005896Y-18519889D02*
X13996372Y-18500841D01*
X13996372Y-18500841D02*
X13977325Y-18491317D01*
X13977325Y-18491317D02*
X13948753Y-18491317D01*
X13948753Y-18491317D02*
X13929706Y-18481793D01*
X13929706Y-18481793D02*
X13920182Y-18462746D01*
X13920182Y-18462746D02*
X13920182Y-18453222D01*
X13920182Y-18453222D02*
X13929706Y-18434174D01*
X13929706Y-18434174D02*
X13948753Y-18424650D01*
X13948753Y-18424650D02*
X13977325Y-18424650D01*
X13977325Y-18424650D02*
X13996372Y-18434174D01*
X14072563Y-18634174D02*
X14082087Y-18624650D01*
X14082087Y-18624650D02*
X14101134Y-18596079D01*
X14101134Y-18596079D02*
X14110658Y-18577031D01*
X14110658Y-18577031D02*
X14120182Y-18548460D01*
X14120182Y-18548460D02*
X14129706Y-18500841D01*
X14129706Y-18500841D02*
X14129706Y-18462746D01*
X14129706Y-18462746D02*
X14120182Y-18415127D01*
X14120182Y-18415127D02*
X14110658Y-18386555D01*
X14110658Y-18386555D02*
X14101134Y-18367508D01*
X14101134Y-18367508D02*
X14082087Y-18338936D01*
X14082087Y-18338936D02*
X14072563Y-18329412D01*
M02*
