G04 #@! TF.GenerationSoftware,KiCad,Pcbnew,9.0.5*
G04 #@! TF.CreationDate,2025-11-10T02:59:24-08:00*
G04 #@! TF.ProjectId,zotbins_2025_wrover_pcb,7a6f7462-696e-4735-9f32-3032355f7772,rev?*
G04 #@! TF.SameCoordinates,Original*
G04 #@! TF.FileFunction,Soldermask,Top*
G04 #@! TF.FilePolarity,Negative*
%FSLAX46Y46*%
G04 Gerber Fmt 4.6, Leading zero omitted, Abs format (unit mm)*
G04 Created by KiCad (PCBNEW 9.0.5) date 2025-11-10 02:59:24*
%MOMM*%
%LPD*%
G01*
G04 APERTURE LIST*
G04 Aperture macros list*
%AMRoundRect*
0 Rectangle with rounded corners*
0 $1 Rounding radius*
0 $2 $3 $4 $5 $6 $7 $8 $9 X,Y pos of 4 corners*
0 Add a 4 corners polygon primitive as box body*
4,1,4,$2,$3,$4,$5,$6,$7,$8,$9,$2,$3,0*
0 Add four circle primitives for the rounded corners*
1,1,$1+$1,$2,$3*
1,1,$1+$1,$4,$5*
1,1,$1+$1,$6,$7*
1,1,$1+$1,$8,$9*
0 Add four rect primitives between the rounded corners*
20,1,$1+$1,$2,$3,$4,$5,0*
20,1,$1+$1,$4,$5,$6,$7,0*
20,1,$1+$1,$6,$7,$8,$9,0*
20,1,$1+$1,$8,$9,$2,$3,0*%
G04 Aperture macros list end*
%ADD10C,0.010000*%
%ADD11C,0.000000*%
%ADD12C,1.600000*%
%ADD13C,2.800000*%
%ADD14RoundRect,0.102000X-0.780000X-0.780000X0.780000X-0.780000X0.780000X0.780000X-0.780000X0.780000X0*%
%ADD15C,1.764000*%
%ADD16RoundRect,0.250000X-1.050000X1.050000X-1.050000X-1.050000X1.050000X-1.050000X1.050000X1.050000X0*%
%ADD17C,2.600000*%
%ADD18O,2.404000X4.604000*%
%ADD19O,2.204000X4.204000*%
%ADD20O,4.204000X2.204000*%
%ADD21RoundRect,0.102000X-0.150000X-0.400000X0.150000X-0.400000X0.150000X0.400000X-0.150000X0.400000X0*%
%ADD22RoundRect,0.102000X-0.200000X-0.400000X0.200000X-0.400000X0.200000X0.400000X-0.200000X0.400000X0*%
%ADD23RoundRect,0.102000X-0.800000X-1.200000X0.800000X-1.200000X0.800000X1.200000X-0.800000X1.200000X0*%
%ADD24RoundRect,0.250000X-0.550000X-0.550000X0.550000X-0.550000X0.550000X0.550000X-0.550000X0.550000X0*%
%ADD25R,1.700000X1.700000*%
%ADD26C,1.700000*%
%ADD27R,2.000000X1.905000*%
%ADD28O,2.000000X1.905000*%
%ADD29RoundRect,0.150000X-0.587500X-0.150000X0.587500X-0.150000X0.587500X0.150000X-0.587500X0.150000X0*%
%ADD30RoundRect,0.102000X0.800000X1.200000X-0.800000X1.200000X-0.800000X-1.200000X0.800000X-1.200000X0*%
%ADD31R,1.117600X0.482600*%
%ADD32R,1.193800X0.431800*%
%ADD33R,1.193800X0.482600*%
G04 APERTURE END LIST*
D10*
X193174399Y-127165407D02*
X193474399Y-127165407D01*
X193474399Y-127865407D01*
X193174399Y-127865407D01*
X193174399Y-128815407D01*
X192374399Y-128815407D01*
X192374399Y-126215407D01*
X193174399Y-126215407D01*
X193174399Y-127165407D01*
G36*
X193174399Y-127165407D02*
G01*
X193474399Y-127165407D01*
X193474399Y-127865407D01*
X193174399Y-127865407D01*
X193174399Y-128815407D01*
X192374399Y-128815407D01*
X192374399Y-126215407D01*
X193174399Y-126215407D01*
X193174399Y-127165407D01*
G37*
X182459894Y-146702722D02*
X181659894Y-146702722D01*
X181659894Y-145752722D01*
X181359894Y-145752722D01*
X181359894Y-145052722D01*
X181659894Y-145052722D01*
X181659894Y-144102722D01*
X182459894Y-144102722D01*
X182459894Y-146702722D01*
G36*
X182459894Y-146702722D02*
G01*
X181659894Y-146702722D01*
X181659894Y-145752722D01*
X181359894Y-145752722D01*
X181359894Y-145052722D01*
X181659894Y-145052722D01*
X181659894Y-144102722D01*
X182459894Y-144102722D01*
X182459894Y-146702722D01*
G37*
D11*
G36*
X135474700Y-124687200D02*
G01*
X135728700Y-124687200D01*
X135728700Y-125169800D01*
X135474700Y-125169800D01*
X134915900Y-125728600D01*
X132629900Y-125728600D01*
X132629900Y-124128400D01*
X134915900Y-124128400D01*
X135474700Y-124687200D01*
G37*
D12*
X142000000Y-126200000D03*
X142000000Y-131200000D03*
D13*
X158600000Y-136000000D03*
X146923345Y-155723345D03*
D12*
X129180000Y-156600000D03*
X119020000Y-156600000D03*
D14*
X152950000Y-64140000D03*
D15*
X152950000Y-66680000D03*
X152950000Y-69220000D03*
X152950000Y-71760000D03*
X152950000Y-74300000D03*
X152950000Y-76840000D03*
X152950000Y-79380000D03*
X152950000Y-81920000D03*
X152950000Y-84460000D03*
X152950000Y-87000000D03*
X152950000Y-89540000D03*
X152950000Y-92080000D03*
X152950000Y-94620000D03*
X152950000Y-97160000D03*
X152950000Y-99700000D03*
X152950000Y-102240000D03*
X152950000Y-104780000D03*
X152950000Y-107320000D03*
X152950000Y-109860000D03*
X178350000Y-64140000D03*
X178350000Y-66680000D03*
X178350000Y-69220000D03*
X178350000Y-71760000D03*
X178350000Y-74300000D03*
X178350000Y-76840000D03*
X178350000Y-79380000D03*
X178350000Y-81920000D03*
X178350000Y-84460000D03*
X178350000Y-87000000D03*
X178350000Y-89540000D03*
X178350000Y-92080000D03*
X178350000Y-94620000D03*
X178350000Y-97160000D03*
X178350000Y-99700000D03*
X178350000Y-102240000D03*
X178350000Y-104780000D03*
X178350000Y-107320000D03*
X178350000Y-109860000D03*
D12*
X119550000Y-90950000D03*
X119550000Y-95950000D03*
D16*
X212300000Y-68600000D03*
D17*
X212300000Y-72100000D03*
X212300000Y-75600000D03*
D12*
X125850000Y-90920000D03*
X125850000Y-101080000D03*
D16*
X212200000Y-56400000D03*
D17*
X212200000Y-59900000D03*
D12*
X177119042Y-148652010D03*
X166959042Y-148652010D03*
X159300000Y-130770000D03*
X159300000Y-125770000D03*
X177100181Y-145398348D03*
X166940181Y-145398348D03*
X204200000Y-43320000D03*
X204200000Y-53480000D03*
D16*
X212300000Y-143475122D03*
D17*
X212300000Y-146975122D03*
X212300000Y-150475122D03*
D16*
X212402115Y-84642509D03*
D17*
X212402115Y-88142509D03*
X212402115Y-91642509D03*
X212402115Y-95142509D03*
X212402115Y-98642509D03*
D18*
X114900000Y-133200000D03*
D19*
X108600000Y-133200000D03*
D20*
X112000000Y-138000000D03*
D12*
X132193763Y-146437956D03*
X132193763Y-156597956D03*
D21*
X166550000Y-135000000D03*
X167050000Y-135000000D03*
X167550000Y-135000000D03*
X168050000Y-135000000D03*
X168550000Y-135000000D03*
X169050000Y-135000000D03*
X169550000Y-135000000D03*
X170050000Y-135000000D03*
X170550000Y-135000000D03*
X171050000Y-135000000D03*
X171550000Y-135000000D03*
X172050000Y-135000000D03*
X172550000Y-135000000D03*
X173050000Y-135000000D03*
X173550000Y-135000000D03*
X174050000Y-135000000D03*
X174550000Y-135000000D03*
X175050000Y-135000000D03*
X175550000Y-135000000D03*
X176050000Y-135000000D03*
X176550000Y-135000000D03*
X177050000Y-135000000D03*
X177550000Y-135000000D03*
X178050000Y-135000000D03*
D22*
X165600000Y-137500000D03*
X179000000Y-137500000D03*
D23*
X190974399Y-127515407D03*
D13*
X144600000Y-136000000D03*
X134600000Y-142200000D03*
D24*
X129400000Y-67275000D03*
D12*
X129400000Y-69815000D03*
X129400000Y-72355000D03*
X129400000Y-74895000D03*
X129400000Y-77435000D03*
X129400000Y-79975000D03*
X129400000Y-82515000D03*
X129400000Y-85055000D03*
X129400000Y-87595000D03*
X129400000Y-90135000D03*
X129400000Y-92675000D03*
X129400000Y-95215000D03*
X129400000Y-97755000D03*
X129400000Y-100295000D03*
X137020000Y-100295000D03*
X137020000Y-97755000D03*
X137020000Y-95215000D03*
X137020000Y-92675000D03*
X137020000Y-90135000D03*
X137020000Y-87595000D03*
X137020000Y-85055000D03*
X137020000Y-82515000D03*
X137020000Y-79975000D03*
X137020000Y-77435000D03*
X137020000Y-74895000D03*
X137020000Y-72355000D03*
X137020000Y-69815000D03*
X137020000Y-67275000D03*
D16*
X212282500Y-127359277D03*
D17*
X212282500Y-130859277D03*
X212282500Y-134359277D03*
D25*
X105700000Y-67000000D03*
D26*
X103160000Y-67000000D03*
X105700000Y-69540000D03*
X103160000Y-69540000D03*
X105700000Y-72080000D03*
X103160000Y-72080000D03*
X105700000Y-74620000D03*
X103160000Y-74620000D03*
X105700000Y-77160000D03*
X103160000Y-77160000D03*
X105700000Y-79700000D03*
X103160000Y-79700000D03*
X105700000Y-82240000D03*
X103160000Y-82240000D03*
X105700000Y-84780000D03*
X103160000Y-84780000D03*
X105700000Y-87320000D03*
X103160000Y-87320000D03*
X105700000Y-89860000D03*
X103160000Y-89860000D03*
X105700000Y-92400000D03*
X103160000Y-92400000D03*
X105700000Y-94940000D03*
X103160000Y-94940000D03*
X105700000Y-97480000D03*
X103160000Y-97480000D03*
X105700000Y-100020000D03*
X103160000Y-100020000D03*
X105700000Y-102560000D03*
X103160000Y-102560000D03*
D27*
X125600000Y-150780000D03*
D28*
X125600000Y-148240000D03*
X125600000Y-145700000D03*
D27*
X125500000Y-137000000D03*
D28*
X125500000Y-134460000D03*
X125500000Y-131920000D03*
D29*
X150917338Y-120822231D03*
X150917338Y-122722231D03*
X152792338Y-121772231D03*
D12*
X134000000Y-133500000D03*
X134000000Y-138500000D03*
X130000000Y-131000000D03*
X130000000Y-126000000D03*
D13*
X105564726Y-123600000D03*
D30*
X183859894Y-145402722D03*
D12*
X162550000Y-120620000D03*
X162550000Y-130780000D03*
D31*
X135293800Y-120950001D03*
X135293800Y-119049999D03*
X132906200Y-120000000D03*
D12*
X147100000Y-91540000D03*
X147100000Y-101700000D03*
X118936469Y-137068383D03*
X118936469Y-132068383D03*
D32*
X136325600Y-126428500D03*
D33*
X136325600Y-124928500D03*
D32*
X136325600Y-123428500D03*
D12*
X119000000Y-145700000D03*
X119000000Y-150700000D03*
D16*
X212300000Y-108551573D03*
D17*
X212300000Y-112051573D03*
X212300000Y-115551573D03*
X212300000Y-119051573D03*
D12*
X122500000Y-90940000D03*
X122500000Y-101100000D03*
X130000000Y-133500000D03*
X130000000Y-138500000D03*
D13*
X107679146Y-148352057D03*
X139000000Y-136000000D03*
D12*
X142000000Y-118900000D03*
X142000000Y-123900000D03*
X137600000Y-148200000D03*
X137600000Y-153200000D03*
D13*
X151000000Y-136000000D03*
M02*
