M48
; DRILL file {KiCad 9.0.5} date 2025-11-16T05:48:10-0800
; FORMAT={-:-/ absolute / metric / decimal}
; #@! TF.CreationDate,2025-11-16T05:48:10-08:00
; #@! TF.GenerationSoftware,Kicad,Pcbnew,9.0.5
; #@! TF.FileFunction,Plated,1,2,PTH
FMAT,2
METRIC
; #@! TA.AperFunction,Plated,PTH,ViaDrill
T1C0.300
; #@! TA.AperFunction,Plated,PTH,ViaDrill
T2C0.400
; #@! TA.AperFunction,Plated,PTH,ViaDrill
T3C0.600
; #@! TA.AperFunction,Plated,PTH,ViaDrill
T4C0.800
; #@! TA.AperFunction,Plated,PTH,ComponentDrill
T5C0.800
; #@! TA.AperFunction,Plated,PTH,ViaDrill
T6C1.000
; #@! TA.AperFunction,Plated,PTH,ComponentDrill
T7C1.000
; #@! TA.AperFunction,Plated,PTH,ComponentDrill
T8C1.040
; #@! TA.AperFunction,Plated,PTH,ComponentDrill
T9C1.100
; #@! TA.AperFunction,Plated,PTH,ComponentDrill
T10C1.300
; #@! TA.AperFunction,Plated,PTH,ComponentDrill
T11C1.600
%
G90
G05
T1
X100.5Y-89.86
X105.9Y-61.8
X110.4Y-60.3
X115.85Y-72.9
X133.1Y-89.2
X133.8Y-128.4
X137.5Y-121.5
X140.7Y-86.7
T2
X94.15Y-111.85
X99.431Y-116.252
X106.76Y-108.45
X109.756Y-104.36
X111.675Y-81.575
X112.331Y-89.355
X112.6Y-105.0
X113.5Y-97.0
X113.9Y-99.7
X114.025Y-77.025
X115.354Y-108.05
X117.6Y-68.925
X118.0Y-80.6
X118.173Y-107.807
X118.215Y-77.435
X119.3Y-65.15
X121.418Y-108.089
X121.602Y-72.353
X121.7Y-63.45
X122.282Y-75.44
X123.121Y-87.038
X124.996Y-65.504
X126.728Y-70.88
X130.9Y-49.3
X132.55Y-114.2
X158.1Y-106.0
X160.102Y-109.923
X161.08Y-81.92
X161.754Y-44.179
X162.1Y-116.095
X163.406Y-129.649
X165.245Y-53.228
X165.867Y-65.204
X167.092Y-43.692
X168.032Y-127.988
X168.406Y-143.508
X169.875Y-58.929
X171.406Y-136.42
X175.406Y-135.727
X175.5Y-104.3
X177.406Y-138.421
X177.479Y-121.796
X179.406Y-140.826
X179.983Y-114.248
X180.404Y-119.695
X180.5Y-44.8
X183.07Y-47.81
X183.2Y-114.92
X184.647Y-49.33
X186.877Y-51.099
X189.291Y-52.694
X192.859Y-133.33
X202.537Y-87.538
X202.537Y-91.6
X205.178Y-100.272
T3
X205.124Y-49.683
X207.83Y-49.583
T4
X95.725Y-120.321
T5
X118.936Y-132.068
X118.936Y-137.068
X119.0Y-145.7
X119.0Y-150.7
X119.02Y-156.6
X119.55Y-90.95
X119.55Y-95.95
X122.5Y-90.94
X122.5Y-101.1
X125.85Y-90.92
X125.85Y-101.08
X129.18Y-156.6
X129.4Y-67.275
X129.4Y-69.815
X129.4Y-72.355
X129.4Y-74.895
X129.4Y-77.435
X129.4Y-79.975
X129.4Y-82.515
X129.4Y-85.055
X129.4Y-87.595
X129.4Y-90.135
X129.4Y-92.675
X129.4Y-95.215
X129.4Y-97.755
X129.4Y-100.295
X130.0Y-126.0
X130.0Y-131.0
X130.0Y-133.5
X130.0Y-138.5
X132.194Y-146.438
X132.194Y-156.598
X134.0Y-133.5
X134.0Y-138.5
X137.02Y-67.275
X137.02Y-69.815
X137.02Y-72.355
X137.02Y-74.895
X137.02Y-77.435
X137.02Y-79.975
X137.02Y-82.515
X137.02Y-85.055
X137.02Y-87.595
X137.02Y-90.135
X137.02Y-92.675
X137.02Y-95.215
X137.02Y-97.755
X137.02Y-100.295
X137.6Y-148.2
X137.6Y-153.2
X141.376Y-118.875
X141.376Y-123.875
X141.377Y-126.288
X141.377Y-131.288
X147.1Y-91.54
X147.1Y-101.7
X151.412Y-119.916
X151.412Y-130.076
X196.766Y-143.389
X196.766Y-148.389
X196.77Y-130.737
X196.77Y-140.897
X201.093Y-44.485
X201.093Y-54.645
T6
X209.337Y-39.101
T7
X103.16Y-67.0
X103.16Y-69.54
X103.16Y-72.08
X103.16Y-74.62
X103.16Y-77.16
X103.16Y-79.7
X103.16Y-82.24
X103.16Y-84.78
X103.16Y-87.32
X103.16Y-89.86
X103.16Y-92.4
X103.16Y-94.94
X103.16Y-97.48
X103.16Y-100.02
X103.16Y-102.56
X105.7Y-67.0
X105.7Y-69.54
X105.7Y-72.08
X105.7Y-74.62
X105.7Y-77.16
X105.7Y-79.7
X105.7Y-82.24
X105.7Y-84.78
X105.7Y-87.32
X105.7Y-89.86
X105.7Y-92.4
X105.7Y-94.94
X105.7Y-97.48
X105.7Y-100.02
X105.7Y-102.56
X155.095Y-120.63
X155.095Y-123.17
T8
X152.95Y-64.14
X152.95Y-66.68
X152.95Y-69.22
X152.95Y-71.76
X152.95Y-74.3
X152.95Y-76.84
X152.95Y-79.38
X152.95Y-81.92
X152.95Y-84.46
X152.95Y-87.0
X152.95Y-89.54
X152.95Y-92.08
X152.95Y-94.62
X152.95Y-97.16
X152.95Y-99.7
X152.95Y-102.24
X152.95Y-104.78
X152.95Y-107.32
X152.95Y-109.86
X178.35Y-64.14
X178.35Y-66.68
X178.35Y-69.22
X178.35Y-71.76
X178.35Y-74.3
X178.35Y-76.84
X178.35Y-79.38
X178.35Y-81.92
X178.35Y-84.46
X178.35Y-87.0
X178.35Y-89.54
X178.35Y-92.08
X178.35Y-94.62
X178.35Y-97.16
X178.35Y-99.7
X178.35Y-102.24
X178.35Y-104.78
X178.35Y-107.32
X178.35Y-109.86
T9
X125.5Y-131.92
X125.5Y-134.46
X125.5Y-137.0
X125.6Y-145.7
X125.6Y-148.24
X125.6Y-150.78
T10
X187.339Y-41.622
X190.839Y-41.622
X194.339Y-41.622
X212.2Y-56.4
X212.2Y-59.9
X212.282Y-127.359
X212.282Y-130.859
X212.282Y-134.359
X212.3Y-68.6
X212.3Y-72.1
X212.3Y-75.6
X212.3Y-108.552
X212.3Y-112.052
X212.3Y-115.552
X212.3Y-119.052
X212.3Y-143.475
X212.3Y-146.975
X212.3Y-150.475
X212.402Y-84.643
X212.402Y-88.143
X212.402Y-91.643
X212.402Y-95.143
X212.402Y-98.643
T11
X105.565Y-123.6
X113.004Y-141.471
X134.6Y-142.2
X139.0Y-136.0
X144.362Y-136.115
X146.923Y-155.723
X150.41Y-136.231
X212.241Y-50.147
T7
X100.966Y-132.1G85X100.966Y-134.3
G05
X105.466Y-138.0G85X103.266Y-138.0
G05
X107.266Y-131.9G85X107.266Y-134.5
G05
M30
